<?xml version="1.0" standalone="no"?>
<!DOCTYPE svg PUBLIC "-//W3C//DTD SVG 1.1//EN" "http://www.w3.org/Graphics/SVG/1.1/DTD/svg11.dtd" >
<svg xmlns="http://www.w3.org/2000/svg">
<metadata>
This is a custom SVG webfont generated by Font Squirrel.
Copyright   : Copyright  2011 by Jan Tonellato All rights reserved
Designer    : Jan Tonellato
Foundry     : Jan Tonellato
Foundry URL : typographysynthviewcom
</metadata>
<defs>
<font id="NovecentowideMedium" horiz-adv-x="1656" >
<font-face units-per-em="2048" ascent="1638" descent="-410" />
<missing-glyph horiz-adv-x="819" />
<glyph unicode=" "  horiz-adv-x="819" />
<glyph unicode="&#x09;" horiz-adv-x="819" />
<glyph unicode="&#xa0;" horiz-adv-x="819" />
<glyph unicode="!" horiz-adv-x="575" d="M180 0v322h215v-322h-215zM180 459v975h215v-975h-215z" />
<glyph unicode="&#x22;" horiz-adv-x="1005" d="M168 1014v444h215v-444h-215zM598 1014v444h215v-444h-215z" />
<glyph unicode="#" horiz-adv-x="1792" d="M84 401l102 195h279l129 254h-283l103 197h280l199 387h211l-197 -387h287l199 387h211l-197 -387h303l-102 -197h-301l-127 -254h301l-103 -195h-299l-202 -401h-218l205 401h-284l-203 -401h-217l205 401h-281zM680 596h285l129 254h-287z" />
<glyph unicode="$" horiz-adv-x="1261" d="M61 397l222 60q18 -117 115.5 -199t242.5 -82q129 0 209 60.5t80 152.5q0 31 -11.5 58.5t-26.5 48t-47 42t-55.5 34t-69.5 29.5l-70 25q-25 9 -78.5 25.5t-75.5 24.5q-66 23 -108 39t-101.5 50t-94 70.5t-60.5 96t-26 129.5q0 145 113 255.5t293 137.5v164h223v-166 q156 -29 266.5 -130.5t143.5 -246.5l-217 -59q-25 117 -112 183.5t-206 66.5q-121 0 -196.5 -52.5t-75.5 -144.5q0 -43 22.5 -75.5t74.5 -59.5t93 -42t123 -42q35 -10 51 -16q84 -27 129.5 -43.5t119 -55.5t112.5 -79t69.5 -107.5t30.5 -149.5q0 -164 -116.5 -279.5 t-311.5 -142.5v-161h-223v164q-176 31 -293 141t-158 276z" />
<glyph unicode="%" horiz-adv-x="1882" d="M84 1051q0 182 104.5 296.5t272.5 114.5t271.5 -114.5t103.5 -296.5q0 -184 -103.5 -298t-271.5 -114t-272.5 113.5t-104.5 298.5zM252 1050.5q0 -112.5 58.5 -181t150.5 -68.5t149.5 68.5t57.5 181t-57.5 181t-149.5 68.5t-150.5 -68.5t-58.5 -181zM412 0l891 1434h155 l-891 -1434h-155zM1047 383q0 182 104 297t272 115t271.5 -115t103.5 -297q0 -184 -103.5 -298t-271.5 -114t-272 114t-104 298zM1214 383q0 -113 58.5 -181.5t151 -68.5t149.5 68.5t57 181.5t-57 181.5t-149.5 68.5t-151 -68.5t-58.5 -181.5z" />
<glyph unicode="&#x26;" horiz-adv-x="1443" d="M84 414q0 131 88 222t211 105q-104 16 -187 97.5t-83 216.5q0 168 127 287.5t366 119.5q211 0 350.5 -106.5t180.5 -300.5l-193 -54q-37 137 -114.5 202t-219.5 65q-137 0 -199.5 -70t-62.5 -151q0 -94 72 -156t209 -62h798v-182h-251v-151q0 -240 -138.5 -382.5 t-423.5 -142.5q-236 0 -383 123t-147 320zM307 418q0 -109 87 -179.5t220 -70.5q180 0 262 84t82 254v141h-344q-143 0 -225 -59.5t-82 -169.5z" />
<glyph unicode="'" horiz-adv-x="575" d="M180 1014v444h215v-444h-215z" />
<glyph unicode="(" horiz-adv-x="763" d="M86 709q0 810 561 1003l60 -211q-205 -68 -299.5 -259t-94.5 -533q0 -340 94.5 -531.5t299.5 -259.5l-60 -211q-561 193 -561 1002z" />
<glyph unicode=")" horiz-adv-x="763" d="M57 -82l60 -211q561 193 561 1002q0 810 -561 1003l-60 -211q205 -68 299.5 -259t94.5 -533q0 -340 -94.5 -531.5t-299.5 -259.5z" />
<glyph unicode="*" horiz-adv-x="1058" d="M180 1122l45 142l230 -76v246h145v-246l234 76l45 -142l-236 -69l150 -199l-119 -88l-146 207l-141 -207l-121 86l150 201z" />
<glyph unicode="+" horiz-adv-x="1349" d="M180 633v188h406v398h202v-398h381v-188h-381v-391h-202v391h-406z" />
<glyph unicode="," horiz-adv-x="520" d="M111 -268q49 41 89 114.5t40 128.5l22 9l-22 4q-39 2 -70 32.5t-31 79.5q0 51 36 86t89 35q51 0 86 -40t35 -101q0 -90 -53 -184.5t-131 -163.5h-90z" />
<glyph unicode="-" horiz-adv-x="804" d="M82 623v208h641v-208h-641z" />
<glyph unicode="." horiz-adv-x="487" d="M123 94q0 51 36 86t85 35q51 0 86 -36t35 -85q0 -51 -35 -86t-86 -35t-86 35t-35 86z" />
<glyph unicode="/" horiz-adv-x="976" d="M16 0l734 1434h211l-728 -1434h-217z" />
<glyph unicode="0" horiz-adv-x="1533" d="M84 716.5q0 327.5 188.5 536.5t493.5 209q307 0 496.5 -209t189.5 -536.5t-189.5 -536.5t-496.5 -209q-305 0 -493.5 209t-188.5 536.5zM319 716.5q0 -237.5 119 -379.5t328 -142t330 142t121 379.5t-121 380t-330 142.5t-328 -142.5t-119 -380z" />
<glyph unicode="1" horiz-adv-x="888" d="M84 975l469 459h156v-1434h-228v1038l4 62l-30 -37l-226 -221z" />
<glyph unicode="2" horiz-adv-x="1269" d="M111 1065q53 188 191 292.5t341 104.5q219 0 360.5 -129t141.5 -325q0 -86 -25.5 -161t-79 -138.5t-101.5 -106.5t-122 -98l-391 -291h719v-213h-1020v213l633 514q68 53 109.5 129t41.5 150q0 111 -75.5 182.5t-196.5 71.5q-127 0 -206 -70t-109 -178z" />
<glyph unicode="3" horiz-adv-x="1232" d="M84 377l205 57q23 -119 110.5 -188.5t229.5 -69.5q137 0 211.5 69.5t74.5 178.5q0 113 -91 169t-218 56h-114v180h114q145 0 216 67t71 161q0 78 -68.5 140.5t-201.5 62.5q-240 0 -312 -244l-200 55q43 180 182 285.5t340 105.5q238 0 366.5 -115.5t128.5 -283.5 q0 -129 -93 -224.5t-204 -95.5q133 0 226.5 -92t93.5 -233q0 -199 -145.5 -323t-372.5 -124q-205 0 -359.5 114t-189.5 292z" />
<glyph unicode="4" horiz-adv-x="1345" d="M84 326v198l786 910h193v-910h160v-198h-160v-326h-217v326h-762zM334 524h512v557l4 39l-29 -39z" />
<glyph unicode="5" horiz-adv-x="1286" d="M111 369l208 55q23 -115 104 -185.5t216 -70.5q129 0 212 84t83 213t-84 211t-211 82q-213 0 -277 -152l-194 56l125 772h784v-213h-612l-59 -359q76 76 241 76q221 0 368.5 -134t147.5 -341q0 -213 -146.5 -352.5t-369.5 -139.5q-213 0 -357.5 113t-178.5 285z" />
<glyph unicode="6" horiz-adv-x="1253" d="M84 471q0 141 53 261t166 269l328 433h248l-426 -568q74 90 186 90q240 6 385 -137t145 -356q0 -217 -151.5 -354.5t-386.5 -137.5q-233 0 -390 138.5t-157 361.5zM319 469q0 -135 84.5 -217t223.5 -82q137 0 221 82t86 217q2 131 -83 212t-224.5 81t-223.5 -81t-84 -212 z" />
<glyph unicode="7" horiz-adv-x="1150" d="M88 1221v213h1047v-136l-729 -1298h-244l649 1159l47 66l-65 -4h-705z" />
<glyph unicode="8" horiz-adv-x="1247" d="M84 399q0 143 93 243.5t218 121.5q-78 12 -163 99t-85 218q0 162 134.5 271.5t341 109.5t341 -109.5t134.5 -271.5q0 -131 -84 -218t-164 -99q125 -20 219 -120.5t94 -244.5q0 -186 -151.5 -307t-388.5 -123q-238 2 -388.5 123t-150.5 307zM313 416q0 -115 85 -183.5 t225 -70.5q139 2 225 70.5t86 183.5q0 111 -86 178.5t-225.5 67.5t-224.5 -67.5t-85 -178.5zM356 1067q0 -92 71 -152.5t196 -60.5q127 2 197.5 61.5t70.5 151.5q0 96 -74 157.5t-194.5 61.5t-193.5 -61.5t-73 -157.5z" />
<glyph unicode="9" horiz-adv-x="1261" d="M84 969q0 223 152.5 358t390.5 135q236 0 393.5 -134t157.5 -367q0 -266 -267 -580l-327 -381h-258l483 567q-35 -41 -90 -66.5t-107 -25.5q-248 -4 -388 138.5t-140 355.5zM319 963q0 -139 89.5 -216t222.5 -77q135 0 223 78.5t88 214.5q0 145 -88 223t-223 78 q-133 0 -222.5 -79t-89.5 -222z" />
<glyph unicode=":" horiz-adv-x="487" d="M123 94q0 51 36 86t85 35q51 0 86 -36t35 -85q0 -51 -35 -86t-86 -35t-86 35t-35 86zM123 715q0 51 36 86t85 35q51 0 86 -36t35 -85q0 -51 -35 -86t-86 -35t-86 35t-35 86z" />
<glyph unicode=";" horiz-adv-x="522" d="M111 -272q49 41 89 114.5t40 128.5l22 9l-22 4q-39 2 -70 32.5t-31 79.5q0 51 36 86t89 35q51 0 86 -40t35 -101q0 -90 -53 -184.5t-131 -163.5h-90zM139 715q0 51 36 86t85 35q51 0 86 -36t35 -85q0 -51 -35 -86t-86 -35t-86 35t-35 86z" />
<glyph unicode="&#x3c;" horiz-adv-x="1302" d="M180 745l668 -501h274l-649 501l649 500h-274z" />
<glyph unicode="=" horiz-adv-x="1349" d="M180 412v188h989v-188h-989zM180 831v189h989v-189h-989z" />
<glyph unicode="&#x3e;" horiz-adv-x="1302" d="M180 244l649 501l-649 500h275l667 -500l-667 -501h-275z" />
<glyph unicode="?" horiz-adv-x="1185" d="M84 1071q43 182 182.5 286.5t341.5 104.5q240 0 367 -116.5t127 -290.5q0 -90 -34 -161t-104.5 -127t-128 -88t-155.5 -79v-141h-219v225q236 117 320.5 189.5t84.5 166.5q0 86 -62.5 154t-203.5 68q-254 0 -326 -244zM461 0v322h219v-322h-219z" />
<glyph unicode="@" horiz-adv-x="1634" d="M84 715q0 324 207 535.5t524.5 211.5t526 -212t208.5 -535q0 -172 -79.5 -296t-231.5 -124q-76 0 -135.5 39t-83.5 100q-74 -133 -260 -133q-162 0 -263.5 111.5t-101.5 287.5q0 186 104.5 302t272.5 116q70 0 127 -26.5t81 -52t24 -35.5v77h149v-530q0 -66 27.5 -104.5 t76.5 -38.5q76 0 114 88t38 219q0 268 -168 444t-426 176q-256 0 -424 -176t-168 -444q0 -266 168 -445.5t424 -179.5q84 0 152.5 12.5t108.5 30t66.5 34.5t41 29.5t16.5 12.5l92 -49q-4 -8 -19.5 -25.5t-54 -47.5t-90 -54.5t-134.5 -43t-179 -18.5q-315 0 -523 213 t-208 531zM567 702q2 -109 62.5 -176t156.5 -67q98 0 158 71t60 175v55q0 90 -60.5 147.5t-157.5 57.5q-98 0 -159.5 -73t-59.5 -190z" />
<glyph unicode="A" horiz-adv-x="1593" d="M16 0l705 1434h151l705 -1434h-252l-145 299h-766l-146 -299h-252zM518 512h557l-262 541l-16 45l-17 -45z" />
<glyph unicode="B" horiz-adv-x="1335" d="M180 0v1434h568q186 0 302.5 -102.5t116.5 -260.5q0 -102 -63.5 -185t-145.5 -106q113 -18 205 -118.5t92 -233.5q0 -193 -128 -310.5t-359 -117.5h-588zM408 190h342q119 0 194.5 64.5t75.5 173.5q0 104 -80 172t-197 68h-335v-478zM408 856h294q106 0 172 54.5 t66 140.5q0 88 -65.5 140t-172.5 52h-294v-387z" />
<glyph unicode="C" horiz-adv-x="1554" d="M84 716.5q0 321.5 216 533.5t527 212q207 0 380.5 -101.5t271.5 -275.5l-232 -61q-66 100 -178.5 157.5t-241.5 57.5q-223 0 -365.5 -145.5t-142.5 -377t144.5 -375.5t363.5 -144q143 0 264 68.5t183 185.5l227 -62q-92 -193 -271 -305.5t-403 -112.5q-311 0 -527 212 t-216 533.5z" />
<glyph unicode="D" horiz-adv-x="1617" d="M180 0v1434h613q313 0 527 -203t214 -520q0 -313 -212 -512t-521 -199h-621zM408 213h393q209 0 353 136t144 362q0 229 -146 369.5t-359 140.5h-385v-1008z" />
<glyph unicode="E" horiz-adv-x="1312" d="M180 0v1434h985v-213h-757v-373h604v-207h-604v-428h770v-213h-998z" />
<glyph unicode="F" horiz-adv-x="1228" d="M180 0v1434h965v-213h-737v-416h583v-205h-583v-600h-228z" />
<glyph unicode="G" horiz-adv-x="1626" d="M84 716.5q0 321.5 216 533.5t527 212q215 -2 385 -103.5t267 -273.5l-232 -61q-63 100 -177 157.5t-243 57.5q-223 0 -365.5 -145.5t-142.5 -376.5q0 -233 147.5 -378.5t371.5 -145.5q180 0 303 80.5t168 185.5v119h-418v186h612v-766h-196v184q-68 -82 -192 -146.5 t-288 -64.5q-311 0 -527 212t-216 533.5z" />
<glyph unicode="H" horiz-adv-x="1515" d="M180 0v1434h228v-594h700v594h227v-1434h-227v629h-700v-629h-228z" />
<glyph unicode="I" horiz-adv-x="587" d="M180 0v1434h228v-1434h-228z" />
<glyph unicode="J" horiz-adv-x="1357" d="M20 358l224 60q37 -111 131 -173.5t221 -62.5q186 0 287.5 109.5t101.5 306.5v836h227v-826q0 -301 -164.5 -469t-451.5 -168q-205 0 -362.5 108.5t-213.5 278.5z" />
<glyph unicode="K" horiz-adv-x="1441" d="M180 0v1434h228v-670l673 670h267l-588 -590l645 -844h-283l-520 686l-194 -194v-492h-228z" />
<glyph unicode="L" horiz-adv-x="1185" d="M180 0v1434h228v-1221h737v-213h-965z" />
<glyph unicode="M" horiz-adv-x="1724" d="M180 0v1434h213l449 -719l20 -41l21 41l448 719h213v-1434h-227v969l4 59l-27 -59l-385 -615h-94l-385 615l-27 57l5 -57v-969h-228z" />
<glyph unicode="N" horiz-adv-x="1599" d="M193 0v1434h213l751 -977l27 -51l-4 59v969h227v-1434h-213l-750 985l-28 47l4 -55v-977h-227z" />
<glyph unicode="O" d="M84 716.5q0 321.5 216 533.5t527 212q313 0 529.5 -212t216.5 -533.5t-216 -533.5t-530 -212q-311 0 -527 212t-216 533.5zM319 717q0 -231 142.5 -376.5t365.5 -145.5q221 0 365.5 146t144.5 376q0 233 -144 377.5t-366 144.5q-223 0 -365.5 -144.5t-142.5 -377.5z" />
<glyph unicode="P" horiz-adv-x="1261" d="M180 0v1434h477q254 0 398.5 -125t144.5 -344.5t-144.5 -344t-398.5 -124.5h-249v-496h-228zM408 709h245q150 0 231 67.5t81 188.5q0 123 -83 189.5t-229 66.5h-245v-512z" />
<glyph unicode="Q" d="M84 717q0 322 216 533.5t527 211.5q313 0 529.5 -212t216.5 -533q0 -291 -182.5 -497t-456.5 -243v-247h-227v250q-270 43 -446.5 246.5t-176.5 490.5zM319 717q0 -231 142.5 -376.5t365.5 -145.5q221 0 365.5 146t144.5 376q0 233 -144 377.5t-366 144.5 q-223 0 -365.5 -144.5t-142.5 -377.5z" />
<glyph unicode="R" horiz-adv-x="1339" d="M180 0v1434h469q256 0 403.5 -124t147.5 -337q0 -150 -74.5 -257.5t-212.5 -160.5l347 -555h-254l-318 512h-39h-241v-512h-228zM408 725h268q141 0 215 68.5t74 179.5q0 113 -75 180.5t-214 67.5h-268v-496z" />
<glyph unicode="S" horiz-adv-x="1232" d="M61 397l222 60q18 -117 115.5 -199t242.5 -82q129 0 209 60.5t80 152.5q0 31 -11.5 58.5t-26.5 48t-47 42t-55.5 34t-69.5 29.5l-70 25l-78 25t-76 25q-66 23 -108 39t-101.5 50t-94 70.5t-60.5 96t-26 129.5q0 170 145.5 285.5t366.5 115.5q197 0 341.5 -107.5 t185.5 -279.5l-217 -59q-25 117 -112 183.5t-206 66.5q-121 0 -196.5 -52.5t-75.5 -144.5q0 -43 22.5 -75.5t74.5 -59.5t93 -42t123 -42q35 -10 51 -16q84 -27 129.5 -43.5t119 -55.5t112.5 -79t69.5 -107.5t30.5 -149.5q0 -186 -148.5 -307t-385.5 -121q-223 0 -371.5 117 t-196.5 309z" />
<glyph unicode="T" horiz-adv-x="1226" d="M37 1221v213h1153v-213h-465v-1221h-227v1221h-461z" />
<glyph unicode="U" horiz-adv-x="1523" d="M147 608v826h228v-834q0 -197 100 -307.5t286.5 -110.5t287 110.5t100.5 307.5v834h227v-826q0 -301 -163.5 -469t-450.5 -168t-451 168t-164 469z" />
<glyph unicode="V" horiz-adv-x="1550" d="M16 1434h256l486 -1057l18 -49l17 49l487 1057h254l-668 -1434h-182z" />
<glyph unicode="W" horiz-adv-x="2052" d="M16 1434h242l393 -981l15 -56l14 56l285 766h122l285 -766l14 -56l15 56l393 981h242l-574 -1434h-155l-265 727l-16 61l-18 -61l-265 -727h-155z" />
<glyph unicode="X" horiz-adv-x="1382" d="M29 0l526 739l-489 695h272l340 -482l12 -32l15 32l339 482h273l-490 -695l525 -739h-273l-374 520l-15 35l-12 -35l-375 -520h-274z" />
<glyph unicode="Y" horiz-adv-x="1409" d="M18 1434h275l387 -508l25 -45l26 45l385 508h277l-574 -764v-670h-227v670z" />
<glyph unicode="Z" horiz-adv-x="1427" d="M123 0v211l850 979l41 35l-64 -4h-807v213h1162v-211l-842 -977l-41 -37l63 4h820v-213h-1182z" />
<glyph unicode="[" horiz-adv-x="729" d="M180 -311v2064h502v-211h-274v-1642h274v-211h-502z" />
<glyph unicode="\" horiz-adv-x="976" d="M16 1434l727 -1434h218l-734 1434h-211z" />
<glyph unicode="]" horiz-adv-x="741" d="M59 -100v-211h502v2064h-502v-211h275v-1642h-275z" />
<glyph unicode="^" horiz-adv-x="1318" d="M180 977l479 481l480 -481l-109 -96l-371 381l-372 -381z" />
<glyph unicode="_" horiz-adv-x="1572" d="M180 0h1215v-182h-1215v182z" />
<glyph unicode="`" horiz-adv-x="638" d="M33 1716l80 156l454 -244l-67 -125z" />
<glyph unicode="a" horiz-adv-x="1593" d="M16 0l705 1434h151l705 -1434h-252l-145 299h-766l-146 -299h-252zM518 512h557l-262 541l-16 45l-17 -45z" />
<glyph unicode="b" horiz-adv-x="1335" d="M180 0v1434h568q186 0 302.5 -102.5t116.5 -260.5q0 -102 -63.5 -185t-145.5 -106q113 -18 205 -118.5t92 -233.5q0 -193 -128 -310.5t-359 -117.5h-588zM408 190h342q119 0 194.5 64.5t75.5 173.5q0 104 -80 172t-197 68h-335v-478zM408 856h294q106 0 172 54.5 t66 140.5q0 88 -65.5 140t-172.5 52h-294v-387z" />
<glyph unicode="c" horiz-adv-x="1554" d="M84 716.5q0 321.5 216 533.5t527 212q207 0 380.5 -101.5t271.5 -275.5l-232 -61q-66 100 -178.5 157.5t-241.5 57.5q-223 0 -365.5 -145.5t-142.5 -377t144.5 -375.5t363.5 -144q143 0 264 68.5t183 185.5l227 -62q-92 -193 -271 -305.5t-403 -112.5q-311 0 -527 212 t-216 533.5z" />
<glyph unicode="d" horiz-adv-x="1617" d="M180 0v1434h613q313 0 527 -203t214 -520q0 -313 -212 -512t-521 -199h-621zM408 213h393q209 0 353 136t144 362q0 229 -146 369.5t-359 140.5h-385v-1008z" />
<glyph unicode="e" horiz-adv-x="1312" d="M180 0v1434h985v-213h-757v-373h604v-207h-604v-428h770v-213h-998z" />
<glyph unicode="f" horiz-adv-x="1228" d="M180 0v1434h965v-213h-737v-416h583v-205h-583v-600h-228z" />
<glyph unicode="g" horiz-adv-x="1626" d="M84 716.5q0 321.5 216 533.5t527 212q215 -2 385 -103.5t267 -273.5l-232 -61q-63 100 -177 157.5t-243 57.5q-223 0 -365.5 -145.5t-142.5 -376.5q0 -233 147.5 -378.5t371.5 -145.5q180 0 303 80.5t168 185.5v119h-418v186h612v-766h-196v184q-68 -82 -192 -146.5 t-288 -64.5q-311 0 -527 212t-216 533.5z" />
<glyph unicode="h" horiz-adv-x="1515" d="M180 0v1434h228v-594h700v594h227v-1434h-227v629h-700v-629h-228z" />
<glyph unicode="i" horiz-adv-x="587" d="M180 0v1434h228v-1434h-228z" />
<glyph unicode="j" horiz-adv-x="1357" d="M20 358l224 60q37 -111 131 -173.5t221 -62.5q186 0 287.5 109.5t101.5 306.5v836h227v-826q0 -301 -164.5 -469t-451.5 -168q-205 0 -362.5 108.5t-213.5 278.5z" />
<glyph unicode="k" horiz-adv-x="1441" d="M180 0v1434h228v-670l673 670h267l-588 -590l645 -844h-283l-520 686l-194 -194v-492h-228z" />
<glyph unicode="l" horiz-adv-x="1185" d="M180 0v1434h228v-1221h737v-213h-965z" />
<glyph unicode="m" horiz-adv-x="1724" d="M180 0v1434h213l449 -719l20 -41l21 41l448 719h213v-1434h-227v969l4 59l-27 -59l-385 -615h-94l-385 615l-27 57l5 -57v-969h-228z" />
<glyph unicode="n" horiz-adv-x="1574" d="M193 0v1434h213l751 -977l27 -51l-4 59v969h227v-1434h-213l-750 985l-28 47l4 -55v-977h-227z" />
<glyph unicode="o" d="M84 716.5q0 321.5 216 533.5t527 212q313 0 529.5 -212t216.5 -533.5t-216 -533.5t-530 -212q-311 0 -527 212t-216 533.5zM319 717q0 -231 142.5 -376.5t365.5 -145.5q221 0 365.5 146t144.5 376q0 233 -144 377.5t-366 144.5q-223 0 -365.5 -144.5t-142.5 -377.5z" />
<glyph unicode="p" horiz-adv-x="1261" d="M180 0v1434h477q254 0 398.5 -125t144.5 -344.5t-144.5 -344t-398.5 -124.5h-249v-496h-228zM408 709h245q150 0 231 67.5t81 188.5q0 123 -83 189.5t-229 66.5h-245v-512z" />
<glyph unicode="q" d="M84 717q0 322 216 533.5t527 211.5q313 0 529.5 -212t216.5 -533q0 -291 -182.5 -497t-456.5 -243v-247h-227v250q-270 43 -446.5 246.5t-176.5 490.5zM319 717q0 -231 142.5 -376.5t365.5 -145.5q221 0 365.5 146t144.5 376q0 233 -144 377.5t-366 144.5 q-223 0 -365.5 -144.5t-142.5 -377.5z" />
<glyph unicode="r" horiz-adv-x="1339" d="M180 0v1434h469q256 0 403.5 -124t147.5 -337q0 -150 -74.5 -257.5t-212.5 -160.5l347 -555h-254l-318 512h-39h-241v-512h-228zM408 725h268q141 0 215 68.5t74 179.5q0 113 -75 180.5t-214 67.5h-268v-496z" />
<glyph unicode="s" horiz-adv-x="1232" d="M61 397l222 60q18 -117 115.5 -199t242.5 -82q129 0 209 60.5t80 152.5q0 31 -11.5 58.5t-26.5 48t-47 42t-55.5 34t-69.5 29.5l-70 25l-78 25t-76 25q-66 23 -108 39t-101.5 50t-94 70.5t-60.5 96t-26 129.5q0 170 145.5 285.5t366.5 115.5q197 0 341.5 -107.5 t185.5 -279.5l-217 -59q-25 117 -112 183.5t-206 66.5q-121 0 -196.5 -52.5t-75.5 -144.5q0 -43 22.5 -75.5t74.5 -59.5t93 -42t123 -42q35 -10 51 -16q84 -27 129.5 -43.5t119 -55.5t112.5 -79t69.5 -107.5t30.5 -149.5q0 -186 -148.5 -307t-385.5 -121q-223 0 -371.5 117 t-196.5 309z" />
<glyph unicode="t" horiz-adv-x="1226" d="M37 1221v213h1153v-213h-465v-1221h-227v1221h-461z" />
<glyph unicode="u" horiz-adv-x="1523" d="M147 608v826h228v-834q0 -197 100 -307.5t286.5 -110.5t287 110.5t100.5 307.5v834h227v-826q0 -301 -163.5 -469t-450.5 -168t-451 168t-164 469z" />
<glyph unicode="v" horiz-adv-x="1550" d="M16 1434h256l486 -1057l18 -49l17 49l487 1057h254l-668 -1434h-182z" />
<glyph unicode="w" horiz-adv-x="2052" d="M16 1434h242l393 -981l15 -56l14 56l285 766h122l285 -766l14 -56l15 56l393 981h242l-574 -1434h-155l-265 727l-16 61l-18 -61l-265 -727h-155z" />
<glyph unicode="x" horiz-adv-x="1382" d="M29 0l526 739l-489 695h272l340 -482l12 -32l15 32l339 482h273l-490 -695l525 -739h-273l-374 520l-15 35l-12 -35l-375 -520h-274z" />
<glyph unicode="y" horiz-adv-x="1409" d="M18 1434h275l387 -508l25 -45l26 45l385 508h277l-574 -764v-670h-227v670z" />
<glyph unicode="z" horiz-adv-x="1427" d="M123 0v211l850 979l41 35l-64 -4h-807v213h1162v-211l-842 -977l-41 -37l63 4h820v-213h-1182z" />
<glyph unicode="{" horiz-adv-x="841" d="M180 721q6 2 14.5 6t31 25.5t40 52.5t31.5 92t14 139v234q0 246 131 377t371 131v-211q-125 0 -199.5 -67t-74.5 -251v-200q0 -78 -10.5 -140.5t-26 -96.5t-31.5 -55.5t-27.5 -28.5t-15.5 -7q4 0 15.5 -7t27.5 -28.5t31.5 -55.5t26 -96.5t10.5 -140.5v-200 q0 -184 74.5 -251t199.5 -67v-211q-240 0 -371 131t-131 377v234q0 78 -13 138t-32.5 92t-39 52.5t-33.5 26.5z" />
<glyph unicode="|" horiz-adv-x="540" d="M180 -152v1739h180v-1739h-180z" />
<glyph unicode="}" horiz-adv-x="856" d="M43 -125v-211q240 0 371 131t131 377v234q0 78 13 138t32.5 92t39 52.5t34.5 26.5l12 6q-6 2 -14.5 6t-31 25.5t-40 52.5t-31.5 92t-14 139v234q0 246 -131 377t-371 131v-211q125 0 199.5 -67t74.5 -251v-200q0 -78 10.5 -140.5t26 -96.5t31.5 -55.5t27.5 -28.5t15.5 -7 q-4 0 -15.5 -7t-27.5 -28.5t-31.5 -55.5t-26 -96.5t-10.5 -140.5v-200q0 -184 -74.5 -251t-199.5 -67z" />
<glyph unicode="~" horiz-adv-x="1052" d="M84 700q20 94 99 154.5t188 60.5q70 0 127 -33.5t100 -66.5t78 -33q47 0 76.5 27t31.5 72l185 -50q-20 -94 -99 -155.5t-188 -61.5q-82 0 -172 67t-131 67q-49 0 -78 -27t-33 -70z" />
<glyph unicode="&#xa1;" horiz-adv-x="575" d="M180 0v975h215v-975h-215zM180 1112v322h215v-322h-215z" />
<glyph unicode="&#xa2;" horiz-adv-x="1173" d="M84 713q0 205 127 353t317 181v213h183v-211q131 -20 235.5 -97t159.5 -191l-199 -54q-94 152 -284 152q-147 0 -237.5 -93.5t-90.5 -252.5q0 -158 90 -252t238 -94q213 0 301 182l196 -53q-51 -125 -160.5 -211t-248.5 -109v-203h-183v205q-190 33 -317 181.5 t-127 353.5z" />
<glyph unicode="&#xa3;" horiz-adv-x="1435" d="M180 0v178q193 37 162 361l-8 84h-154v182h137l-18 199q-16 186 116 320t326 138q72 2 146 -17.5t146.5 -62.5t131 -122.5t84.5 -188.5l-194 -53q-78 252 -303 242q-113 -4 -174.5 -82t-51.5 -193l17 -180h440v-182h-424l8 -80q25 -283 -106 -365h790v-178h-1071z" />
<glyph unicode="&#xa4;" horiz-adv-x="1349" d="M90 231l143 144q-104 143 -104 321t111 326l-144 143l115 115l145 -145q139 106 318 106q174 0 321 -104l144 143l114 -115l-143 -143q111 -143 111 -326q0 -178 -105 -319l144 -146l-115 -114l-146 145q-143 -113 -325 -112q-180 0 -326 110l-143 -143zM334 698.5 q0 -147.5 98 -247t242 -99.5q145 0 244.5 99.5t99.5 247t-99.5 246.5t-244.5 99q-141 0 -240.5 -99t-99.5 -246.5z" />
<glyph unicode="&#xa5;" horiz-adv-x="1409" d="M18 1434h275l387 -508l25 -45l26 45l385 508h277l-398 -531h238v-153h-354l-56 -74h410v-154h-414v-522h-227v522h-404v154h400l-56 74h-344v153h228z" />
<glyph unicode="&#xa6;" horiz-adv-x="540" d="M180 -152v594h180v-594h-180zM180 1014v573h180v-573h-180z" />
<glyph unicode="&#xa8;" horiz-adv-x="845" d="M14 1686q0 47 34 80.5t83 33.5t83 -33.5t34 -80.5q0 -49 -34 -83t-83 -34t-83 33.5t-34 83.5zM522 1686q0 47 34 80.5t83 33.5t83 -33.5t34 -80.5q0 -49 -34 -83t-83 -34t-83 33.5t-34 83.5z" />
<glyph unicode="&#xa9;" d="M84 716.5q0 321.5 216 533.5t527 212q313 0 529.5 -212t216.5 -533.5t-216 -533.5t-530 -212q-311 0 -527 212t-216 533.5zM258 717q0 -254 162 -418t407 -164q244 0 407 164t163 418q0 258 -162 420.5t-407.5 162.5t-407.5 -162.5t-162 -420.5zM479 716.5 q0 153.5 102.5 255t252.5 101.5q100 0 187 -54t128 -140l-129 -35q-29 45 -79 72.5t-107 27.5q-96 0 -157 -63.5t-61 -164t60.5 -164t157.5 -63.5q63 0 116 33t80 86l129 -37q-39 -92 -129 -151.5t-196 -59.5q-150 0 -252.5 101.5t-102.5 255z" />
<glyph unicode="&#xaa;" horiz-adv-x="821" d="M41 557v115h739v-115h-739zM41 768l334 682h71l334 -682h-141l-61 127h-334l-62 -127h-141zM299 1010h223l-100 211l-12 36l-11 -36z" />
<glyph unicode="&#xab;" horiz-adv-x="1564" d="M205 729l481 -479l125 127l-367 352l367 354l-123 125zM803 729l481 -479l125 127l-367 352l367 354l-123 125z" />
<glyph unicode="&#xad;" horiz-adv-x="804" d="M82 623v208h641v-208h-641z" />
<glyph unicode="&#xae;" d="M84 716.5q0 321.5 216 533.5t527 212q313 0 529.5 -212t216.5 -533.5t-216 -533.5t-530 -212q-311 0 -527 212t-216 533.5zM258 717q0 -254 161.5 -418t407.5 -164q244 0 407 164t163 418q0 258 -162 420.5t-407.5 162.5t-407.5 -162.5t-162 -420.5zM596 362v711h235 q127 0 199 -61.5t72 -165.5q0 -152 -141 -207l167 -277h-135l-157 256h-5h-108v-256h-127zM723 737h123q131 0 131 109q0 51 -35 79.5t-96 28.5h-123v-217z" />
<glyph unicode="&#xaf;" horiz-adv-x="731" d="M14 1386v140h629v-140h-629z" />
<glyph unicode="&#xb0;" horiz-adv-x="630" d="M84 1429.5q0 96.5 67.5 164t163.5 67.5q94 0 163 -68.5t69 -163t-67.5 -162t-164 -67.5t-164 66.5t-67.5 163zM205 1432q0 -45 32.5 -78t77.5 -33t79 32.5t34 78.5q0 47 -33 78.5t-80 31.5q-45 0 -77.5 -31.5t-32.5 -78.5z" />
<glyph unicode="&#xb1;" horiz-adv-x="1349" d="M180 -20v188h989v-188h-989zM180 633v188h406v398h202v-398h381v-188h-381v-291h-202v291h-406z" />
<glyph unicode="&#xb4;" horiz-adv-x="638" d="M-18 1628l456 244l80 -156l-469 -213z" />
<glyph unicode="&#xb7;" horiz-adv-x="487" d="M123 715q0 51 36 86t85 35q51 0 86 -36t35 -85q0 -51 -35 -86t-86 -35t-86 35t-35 86z" />
<glyph unicode="&#xb8;" horiz-adv-x="512" d="M14 -508l49 125h134q45 0 70.5 21.5t25.5 54.5q0 37 -26.5 58.5t-69.5 21.5h-160l80 227h131l-39 -106q92 2 153.5 -52.5t61.5 -146.5q0 -98 -63.5 -150.5t-163.5 -52.5h-183z" />
<glyph unicode="&#xba;" horiz-adv-x="743" d="M20 1105.5q0 151.5 101.5 252t249 100.5t250 -100.5t102.5 -251.5q0 -150 -102.5 -250t-250 -100t-249 99t-101.5 250.5zM41 557v115h661v-115h-661zM154 1106q0 -98 61 -161.5t156 -63.5q96 0 157.5 63.5t61.5 161.5q0 100 -61.5 163.5t-157.5 63.5q-94 0 -155.5 -63.5 t-61.5 -163.5z" />
<glyph unicode="&#xbb;" horiz-adv-x="1564" d="M168 377l367 352l-367 354l123 125l483 -479l-481 -479zM766 377l367 352l-367 354l123 125l483 -479l-481 -479z" />
<glyph unicode="&#xbf;" horiz-adv-x="1185" d="M84 379q0 90 34 160.5t104.5 127t128 88t155.5 79.5v141h219v-225q-236 -117 -321 -190t-85 -167q0 -86 62.5 -153.5t204.5 -67.5q254 0 325 244l191 -54q-43 -182 -182.5 -286.5t-341.5 -104.5q-240 0 -367 117t-127 291zM506 1112v322h219v-322h-219z" />
<glyph unicode="&#xc0;" horiz-adv-x="1593" d="M16 0l705 1434h151l705 -1434h-252l-145 299h-766l-146 -299h-252zM438 1716l80 156l455 -244l-68 -125zM518 512h557l-262 541l-16 45l-17 -45z" />
<glyph unicode="&#xc1;" horiz-adv-x="1593" d="M16 0l705 1434h151l705 -1434h-252l-145 299h-766l-146 -299h-252zM518 512h557l-262 541l-16 45l-17 -45zM575 1628l457 244l80 -156l-469 -213z" />
<glyph unicode="&#xc2;" horiz-adv-x="1593" d="M16 0l705 1434h151l705 -1434h-252l-145 299h-766l-146 -299h-252zM453 1606l335 284l338 -284l-90 -97l-248 205l-247 -205zM518 512h557l-262 541l-16 45l-17 -45z" />
<glyph unicode="&#xc3;" horiz-adv-x="1593" d="M16 0l705 1434h151l705 -1434h-252l-145 299h-766l-146 -299h-252zM381 1567q0 109 72.5 178.5t185.5 69.5q76 0 165 -60.5t126 -60.5q41 0 68.5 26.5t27.5 67.5h180q0 -109 -72.5 -178.5t-185.5 -69.5q-70 0 -160 59.5t-131 59.5q-43 0 -70.5 -25.5t-27.5 -66.5h-178z M518 512h557l-262 541l-16 45l-17 -45z" />
<glyph unicode="&#xc4;" horiz-adv-x="1593" d="M16 0l705 1434h151l705 -1434h-252l-145 299h-766l-146 -299h-252zM418 1686q0 47 33.5 80.5t83 33.5t83 -33.5t33.5 -80.5q0 -49 -33.5 -83t-83 -34t-83 33.5t-33.5 83.5zM518 512h557l-262 541l-16 45l-17 -45zM926 1686q0 47 33.5 80.5t83 33.5t83 -33.5t33.5 -80.5 q0 -49 -33.5 -83t-83 -34t-83 33.5t-33.5 83.5z" />
<glyph unicode="&#xc5;" horiz-adv-x="1593" d="M16 0l682 1386q-61 29 -97 84.5t-36 122.5q0 96 67.5 164t164 68t164 -68.5t67.5 -163.5q0 -68 -37 -123t-96 -84l682 -1386h-252l-145 299h-766l-146 -299h-252zM518 512h557l-262 541l-16 45l-17 -45zM686 1595q0 -45 33 -77.5t78 -32.5t78.5 32.5t33.5 77.5 q0 47 -32.5 79t-79.5 32q-45 0 -78 -32t-33 -79z" />
<glyph unicode="&#xc6;" horiz-adv-x="2035" d="M16 0l959 1434h915v-213h-688v-373h604v-207h-604v-428h701v-213h-928v303h-486l-200 -303h-273zM604 471h371v569l-37 -65z" />
<glyph unicode="&#xc7;" horiz-adv-x="1554" d="M84 717q0 322 216 533.5t527 211.5q207 0 380 -101t272 -276l-232 -61q-66 100 -178.5 157.5t-241.5 57.5q-223 0 -365.5 -145.5t-142.5 -377t144.5 -375.5t363.5 -144q143 0 264.5 68.5t182.5 185.5l227 -62q-84 -180 -249 -290.5t-371 -125.5l-29 -79q92 2 153.5 -52.5 t61.5 -146.5q0 -98 -63.5 -150.5t-163.5 -52.5h-183l50 125h133q45 0 70.5 21.5t25.5 54.5q0 37 -26.5 58.5t-69.5 21.5h-160l72 202q-287 27 -477.5 234t-190.5 508z" />
<glyph unicode="&#xc8;" horiz-adv-x="1312" d="M180 0v1434h985v-213h-757v-373h604v-207h-604v-428h770v-213h-998zM336 1716l80 156l454 -244l-67 -125z" />
<glyph unicode="&#xc9;" horiz-adv-x="1312" d="M180 0v1434h985v-213h-757v-373h604v-207h-604v-428h770v-213h-998zM473 1628l457 244l80 -156l-469 -213z" />
<glyph unicode="&#xca;" horiz-adv-x="1312" d="M180 0v1434h985v-213h-757v-373h604v-207h-604v-428h770v-213h-998zM350 1606l336 284l338 -284l-90 -97l-248 205l-248 -205z" />
<glyph unicode="&#xcb;" horiz-adv-x="1312" d="M180 0v1434h985v-213h-757v-373h604v-207h-604v-428h770v-213h-998zM315 1686q0 47 34 80.5t83 33.5t83 -33.5t34 -80.5q0 -49 -34 -83t-83 -34t-83 33.5t-34 83.5zM823 1686q0 47 34 80.5t83 33.5t83 -33.5t34 -80.5q0 -49 -34 -83t-83 -34t-83 33.5t-34 83.5z" />
<glyph unicode="&#xcc;" horiz-adv-x="587" d="M-63 1716l79 156l455 -244l-68 -125zM180 0v1434h228v-1434h-228z" />
<glyph unicode="&#xcd;" horiz-adv-x="587" d="M74 1628l456 244l80 -156l-469 -213zM180 0v1434h228v-1434h-228z" />
<glyph unicode="&#xce;" horiz-adv-x="587" d="M-49 1606l336 284l338 -284l-90 -97l-248 205l-248 -205zM180 0v1434h228v-1434h-228z" />
<glyph unicode="&#xcf;" horiz-adv-x="587" d="M-84 1686q0 47 34 80.5t83 33.5t83 -33.5t34 -80.5q0 -49 -34 -83t-83 -34t-83 33.5t-34 83.5zM180 0v1434h228v-1434h-228zM424 1686q0 47 34 80.5t83 33.5t82.5 -33.5t33.5 -80.5q0 -49 -33.5 -83t-82.5 -34t-83 33.5t-34 83.5z" />
<glyph unicode="&#xd0;" horiz-adv-x="1634" d="M84 625v204h113v605h612q313 0 527 -203t214 -520q0 -313 -212 -512t-521 -199h-620v625h-113zM424 213h393q209 0 353.5 136t144.5 362q0 229 -146.5 369.5t-359.5 140.5h-385v-392h315v-204h-315v-412z" />
<glyph unicode="&#xd1;" horiz-adv-x="1599" d="M193 0v1434h213l751 -977l27 -51l-4 59v969h227v-1434h-213l-750 985l-28 47l4 -55v-977h-227zM395 1567q0 109 73 178.5t185 69.5q76 0 165 -60.5t126 -60.5q41 0 68.5 26.5t27.5 67.5h181q0 -109 -73 -178.5t-185 -69.5q-70 0 -160 59.5t-131 59.5q-43 0 -71 -25.5 t-28 -66.5h-178z" />
<glyph unicode="&#xd2;" d="M84 716.5q0 321.5 216 533.5t527 212q313 0 529.5 -212t216.5 -533.5t-216 -533.5t-530 -212q-311 0 -527 212t-216 533.5zM319 717q0 -231 142.5 -376.5t365.5 -145.5q221 0 365.5 146t144.5 376q0 233 -144 377.5t-366 144.5q-223 0 -365.5 -144.5t-142.5 -377.5z M481 1716l80 156l455 -244l-68 -125z" />
<glyph unicode="&#xd3;" d="M84 716.5q0 321.5 216 533.5t527 212q313 0 529.5 -212t216.5 -533.5t-216 -533.5t-530 -212q-311 0 -527 212t-216 533.5zM319 717q0 -231 142.5 -376.5t365.5 -145.5q221 0 365.5 146t144.5 376q0 233 -144 377.5t-366 144.5q-223 0 -365.5 -144.5t-142.5 -377.5z M618 1628l457 244l80 -156l-469 -213z" />
<glyph unicode="&#xd4;" d="M84 716.5q0 321.5 216 533.5t527 212q313 0 529.5 -212t216.5 -533.5t-216 -533.5t-530 -212q-311 0 -527 212t-216 533.5zM319 717q0 -231 142.5 -376.5t365.5 -145.5q221 0 365.5 146t144.5 376q0 233 -144 377.5t-366 144.5q-223 0 -365.5 -144.5t-142.5 -377.5z M496 1606l335 284l338 -284l-90 -97l-248 205l-247 -205z" />
<glyph unicode="&#xd5;" d="M84 716.5q0 321.5 216 533.5t527 212q313 0 529.5 -212t216.5 -533.5t-216 -533.5t-530 -212q-311 0 -527 212t-216 533.5zM319 717q0 -231 142.5 -376.5t365.5 -145.5q221 0 365.5 146t144.5 376q0 233 -144 377.5t-366 144.5q-223 0 -365.5 -144.5t-142.5 -377.5z M424 1567q0 109 72.5 178.5t185.5 69.5q76 0 165 -60.5t126 -60.5q41 0 68.5 26.5t27.5 67.5h180q0 -109 -72.5 -178.5t-185.5 -69.5q-70 0 -160 59.5t-131 59.5q-43 0 -70.5 -25.5t-27.5 -66.5h-178z" />
<glyph unicode="&#xd6;" d="M84 716.5q0 321.5 216 533.5t527 212q313 0 529.5 -212t216.5 -533.5t-216 -533.5t-530 -212q-311 0 -527 212t-216 533.5zM319 717q0 -231 142.5 -376.5t365.5 -145.5q221 0 365.5 146t144.5 376q0 233 -144 377.5t-366 144.5q-223 0 -365.5 -144.5t-142.5 -377.5z M461 1686q0 47 33.5 80.5t83 33.5t83 -33.5t33.5 -80.5q0 -49 -33.5 -83t-83 -34t-83 33.5t-33.5 83.5zM969 1686q0 47 33.5 80.5t83 33.5t83 -33.5t33.5 -80.5q0 -49 -33.5 -83t-83 -34t-83 33.5t-33.5 83.5z" />
<glyph unicode="&#xd7;" horiz-adv-x="1212" d="M180 453l275 274l-275 274l150 150l276 -274l277 276l149 -149l-276 -277l276 -276l-151 -152l-275 276l-274 -274z" />
<glyph unicode="&#xd8;" d="M84 717q0 322 216 533.5t527 211.5q205 0 371 -94l74 96l162 -121l-74 -96q213 -217 213 -530q0 -322 -216 -534t-530 -212q-203 0 -368 95l-80 -105l-162 123l80 102q-213 213 -213 531zM319 717q0 -207 117 -346l625 817q-109 51 -234 51q-223 0 -365.5 -144.5 t-142.5 -377.5zM596 246q106 -51 231 -51q221 0 365.5 146t144.5 376q1 205 -116 348z" />
<glyph unicode="&#xd9;" horiz-adv-x="1523" d="M147 608v826h228v-834q0 -197 100 -307.5t286.5 -110.5t287 110.5t100.5 307.5v834h227v-826q0 -301 -163.5 -469t-450.5 -168t-451 168t-164 469zM406 1716l79 156l455 -244l-68 -125z" />
<glyph unicode="&#xda;" horiz-adv-x="1523" d="M147 608v826h228v-834q0 -197 100 -307.5t286.5 -110.5t287 110.5t100.5 307.5v834h227v-826q0 -301 -163.5 -469t-450.5 -168t-451 168t-164 469zM543 1628l456 244l80 -156l-469 -213z" />
<glyph unicode="&#xdb;" horiz-adv-x="1523" d="M147 608v826h228v-834q0 -197 100 -307.5t286.5 -110.5t287 110.5t100.5 307.5v834h227v-826q0 -301 -163.5 -469t-450.5 -168t-451 168t-164 469zM420 1606l336 284l338 -284l-90 -97l-248 205l-248 -205z" />
<glyph unicode="&#xdc;" horiz-adv-x="1523" d="M147 608v826h228v-834q0 -197 100 -307.5t286.5 -110.5t287 110.5t100.5 307.5v834h227v-826q0 -301 -163.5 -469t-450.5 -168t-451 168t-164 469zM385 1686q0 47 34 80.5t83 33.5t82.5 -33.5t33.5 -80.5q0 -49 -33.5 -83t-82.5 -34t-83 33.5t-34 83.5zM893 1686 q0 47 34 80.5t83 33.5t82.5 -33.5t33.5 -80.5q0 -49 -33.5 -83t-82.5 -34t-83 33.5t-34 83.5z" />
<glyph unicode="&#xdd;" horiz-adv-x="1409" d="M18 1434h275l387 -508l25 -45l26 45l385 508h277l-574 -764v-670h-227v670zM481 1628l457 244l80 -156l-469 -213z" />
<glyph unicode="&#xde;" horiz-adv-x="1271" d="M180 0v1434h228v-248h276q227 0 367.5 -131t140.5 -338q0 -203 -140.5 -334t-367.5 -131h-276v-252h-228zM408 465h280q123 0 195.5 69.5t72.5 182.5q0 111 -72.5 183.5t-195.5 74.5h-280v-510z" />
<glyph unicode="&#xdf;" horiz-adv-x="1630" d="M180 0v1434h1227l-340 -592q227 -12 354 -127t127 -297q0 -190 -140 -318.5t-359 -128.5q-162 0 -299.5 77t-206.5 204l215 59q94 -145 280 -145q125 0 203 71.5t78 178.5q0 98 -74 167.5t-207 73.5h-188v185l199 344l34 39l-61 -4h-614v-1221h-228z" />
<glyph unicode="&#xe0;" horiz-adv-x="1593" d="M16 0l705 1434h151l705 -1434h-252l-145 299h-766l-146 -299h-252zM438 1716l80 156l455 -244l-68 -125zM518 512h557l-262 541l-16 45l-17 -45z" />
<glyph unicode="&#xe1;" horiz-adv-x="1593" d="M16 0l705 1434h151l705 -1434h-252l-145 299h-766l-146 -299h-252zM518 512h557l-262 541l-16 45l-17 -45zM575 1628l457 244l80 -156l-469 -213z" />
<glyph unicode="&#xe2;" horiz-adv-x="1593" d="M16 0l705 1434h151l705 -1434h-252l-145 299h-766l-146 -299h-252zM453 1606l335 284l338 -284l-90 -97l-248 205l-247 -205zM518 512h557l-262 541l-16 45l-17 -45z" />
<glyph unicode="&#xe3;" horiz-adv-x="1593" d="M16 0l705 1434h151l705 -1434h-252l-145 299h-766l-146 -299h-252zM381 1567q0 109 72.5 178.5t185.5 69.5q76 0 165 -60.5t126 -60.5q41 0 68.5 26.5t27.5 67.5h180q0 -109 -72.5 -178.5t-185.5 -69.5q-70 0 -160 59.5t-131 59.5q-43 0 -70.5 -25.5t-27.5 -66.5h-178z M518 512h557l-262 541l-16 45l-17 -45z" />
<glyph unicode="&#xe4;" horiz-adv-x="1593" d="M16 0l705 1434h151l705 -1434h-252l-145 299h-766l-146 -299h-252zM418 1686q0 47 33.5 80.5t83 33.5t83 -33.5t33.5 -80.5q0 -49 -33.5 -83t-83 -34t-83 33.5t-33.5 83.5zM518 512h557l-262 541l-16 45l-17 -45zM926 1686q0 47 33.5 80.5t83 33.5t83 -33.5t33.5 -80.5 q0 -49 -33.5 -83t-83 -34t-83 33.5t-33.5 83.5z" />
<glyph unicode="&#xe5;" horiz-adv-x="1593" d="M16 0l682 1386q-61 29 -97 84.5t-36 122.5q0 96 67.5 164t164 68t164 -68.5t67.5 -163.5q0 -68 -37 -123t-96 -84l682 -1386h-252l-145 299h-766l-146 -299h-252zM518 512h557l-262 541l-16 45l-17 -45zM686 1595q0 -45 33 -77.5t78 -32.5t78.5 32.5t33.5 77.5 q0 47 -32.5 79t-79.5 32q-45 0 -78 -32t-33 -79z" />
<glyph unicode="&#xe6;" horiz-adv-x="2035" d="M16 0l959 1434h915v-213h-688v-373h604v-207h-604v-428h701v-213h-928v303h-486l-200 -303h-273zM604 471h371v569l-37 -65z" />
<glyph unicode="&#xe7;" horiz-adv-x="1554" d="M84 717q0 322 216 533.5t527 211.5q207 0 380 -101t272 -276l-232 -61q-66 100 -178.5 157.5t-241.5 57.5q-223 0 -365.5 -145.5t-142.5 -377t144.5 -375.5t363.5 -144q143 0 264.5 68.5t182.5 185.5l227 -62q-84 -180 -249 -290.5t-371 -125.5l-29 -79q92 2 153.5 -52.5 t61.5 -146.5q0 -98 -63.5 -150.5t-163.5 -52.5h-183l50 125h133q45 0 70.5 21.5t25.5 54.5q0 37 -26.5 58.5t-69.5 21.5h-160l72 202q-287 27 -477.5 234t-190.5 508z" />
<glyph unicode="&#xe8;" horiz-adv-x="1312" d="M180 0v1434h985v-213h-757v-373h604v-207h-604v-428h770v-213h-998zM330 1716l80 156l454 -244l-67 -125z" />
<glyph unicode="&#xe9;" horiz-adv-x="1312" d="M180 0v1434h985v-213h-757v-373h604v-207h-604v-428h770v-213h-998zM467 1628l457 244l80 -156l-469 -213z" />
<glyph unicode="&#xea;" horiz-adv-x="1312" d="M180 0v1434h985v-213h-757v-373h604v-207h-604v-428h770v-213h-998zM344 1606l336 284l338 -284l-90 -97l-248 205l-248 -205z" />
<glyph unicode="&#xeb;" horiz-adv-x="1312" d="M180 0v1434h985v-213h-757v-373h604v-207h-604v-428h770v-213h-998zM309 1686q0 47 34 80.5t83 33.5t83 -33.5t34 -80.5q0 -49 -34 -83t-83 -34t-83 33.5t-34 83.5zM817 1686q0 47 34 80.5t83 33.5t83 -33.5t34 -80.5q0 -49 -34 -83t-83 -34t-83 33.5t-34 83.5z" />
<glyph unicode="&#xec;" horiz-adv-x="587" d="M-63 1716l79 156l455 -244l-68 -125zM180 0v1434h228v-1434h-228z" />
<glyph unicode="&#xed;" horiz-adv-x="587" d="M74 1628l456 244l80 -156l-469 -213zM180 0v1434h228v-1434h-228z" />
<glyph unicode="&#xee;" horiz-adv-x="587" d="M-49 1606l336 284l338 -284l-90 -97l-248 205l-248 -205zM180 0v1434h228v-1434h-228z" />
<glyph unicode="&#xef;" horiz-adv-x="587" d="M-84 1686q0 47 34 80.5t83 33.5t83 -33.5t34 -80.5q0 -49 -34 -83t-83 -34t-83 33.5t-34 83.5zM180 0v1434h228v-1434h-228zM424 1686q0 47 34 80.5t83 33.5t82.5 -33.5t33.5 -80.5q0 -49 -33.5 -83t-82.5 -34t-83 33.5t-34 83.5z" />
<glyph unicode="&#xf0;" horiz-adv-x="1634" d="M84 625v204h113v605h612q313 0 527 -203t214 -520q0 -313 -212 -512t-521 -199h-620v625h-113zM424 213h393q209 0 353.5 136t144.5 362q0 229 -146.5 369.5t-359.5 140.5h-385v-392h315v-204h-315v-412z" />
<glyph unicode="&#xf1;" horiz-adv-x="1574" d="M193 0v1434h213l751 -977l27 -51l-4 59v969h227v-1434h-213l-750 985l-28 47l4 -55v-977h-227zM373 1567q0 109 72.5 178.5t185.5 69.5q76 0 165 -60.5t126 -60.5q41 0 68.5 26.5t27.5 67.5h180q0 -109 -72.5 -178.5t-185.5 -69.5q-70 0 -160 59.5t-131 59.5 q-43 0 -70.5 -25.5t-27.5 -66.5h-178z" />
<glyph unicode="&#xf2;" d="M84 716.5q0 321.5 216 533.5t527 212q313 0 529.5 -212t216.5 -533.5t-216 -533.5t-530 -212q-311 0 -527 212t-216 533.5zM319 717q0 -231 142.5 -376.5t365.5 -145.5q221 0 365.5 146t144.5 376q0 233 -144 377.5t-366 144.5q-223 0 -365.5 -144.5t-142.5 -377.5z M477 1716l80 156l455 -244l-68 -125z" />
<glyph unicode="&#xf3;" d="M84 716.5q0 321.5 216 533.5t527 212q313 0 529.5 -212t216.5 -533.5t-216 -533.5t-530 -212q-311 0 -527 212t-216 533.5zM319 717q0 -231 142.5 -376.5t365.5 -145.5q221 0 365.5 146t144.5 376q0 233 -144 377.5t-366 144.5q-223 0 -365.5 -144.5t-142.5 -377.5z M614 1628l457 244l80 -156l-469 -213z" />
<glyph unicode="&#xf4;" d="M84 716.5q0 321.5 216 533.5t527 212q313 0 529.5 -212t216.5 -533.5t-216 -533.5t-530 -212q-311 0 -527 212t-216 533.5zM319 717q0 -231 142.5 -376.5t365.5 -145.5q221 0 365.5 146t144.5 376q0 233 -144 377.5t-366 144.5q-223 0 -365.5 -144.5t-142.5 -377.5z M492 1606l335 284l338 -284l-90 -97l-248 205l-247 -205z" />
<glyph unicode="&#xf5;" d="M84 716.5q0 321.5 216 533.5t527 212q313 0 529.5 -212t216.5 -533.5t-216 -533.5t-530 -212q-311 0 -527 212t-216 533.5zM319 717q0 -231 142.5 -376.5t365.5 -145.5q221 0 365.5 146t144.5 376q0 233 -144 377.5t-366 144.5q-223 0 -365.5 -144.5t-142.5 -377.5z M420 1567q0 109 72.5 178.5t185.5 69.5q76 0 165 -60.5t126 -60.5q41 0 68.5 26.5t27.5 67.5h180q0 -109 -72.5 -178.5t-185.5 -69.5q-70 0 -160 59.5t-131 59.5q-43 0 -70.5 -25.5t-27.5 -66.5h-178z" />
<glyph unicode="&#xf6;" d="M84 716.5q0 321.5 216 533.5t527 212q313 0 529.5 -212t216.5 -533.5t-216 -533.5t-530 -212q-311 0 -527 212t-216 533.5zM319 717q0 -231 142.5 -376.5t365.5 -145.5q221 0 365.5 146t144.5 376q0 233 -144 377.5t-366 144.5q-223 0 -365.5 -144.5t-142.5 -377.5z M457 1686q0 47 33.5 80.5t83 33.5t83 -33.5t33.5 -80.5q0 -49 -33.5 -83t-83 -34t-83 33.5t-33.5 83.5zM965 1686q0 47 33.5 80.5t82.5 33.5t83 -33.5t34 -80.5q0 -49 -34 -83t-83 -34t-82.5 33.5t-33.5 83.5z" />
<glyph unicode="&#xf7;" horiz-adv-x="1349" d="M180 633v188h989v-188h-989zM553 272.5q0 51.5 36 86t85 34.5q51 0 86 -35.5t35 -85.5q0 -51 -35 -85.5t-86 -34.5t-86 34.5t-35 86zM553 1184q0 51 36 86t85 35q51 0 86 -36t35 -85q0 -51 -35 -86t-86 -35t-86 35t-35 86z" />
<glyph unicode="&#xf8;" d="M84 717q0 322 216 533.5t527 211.5q205 0 371 -94l74 96l162 -121l-74 -96q213 -217 213 -530q0 -322 -216 -534t-530 -212q-203 0 -368 95l-80 -105l-162 123l80 102q-213 213 -213 531zM319 717q0 -207 117 -346l625 817q-109 51 -234 51q-223 0 -365.5 -144.5 t-142.5 -377.5zM596 246q106 -51 231 -51q221 0 365.5 146t144.5 376q1 205 -116 348z" />
<glyph unicode="&#xf9;" horiz-adv-x="1523" d="M147 608v826h228v-834q0 -197 100 -307.5t286.5 -110.5t287 110.5t100.5 307.5v834h227v-826q0 -301 -163.5 -469t-450.5 -168t-451 168t-164 469zM406 1716l79 156l455 -244l-68 -125z" />
<glyph unicode="&#xfa;" horiz-adv-x="1523" d="M147 608v826h228v-834q0 -197 100 -307.5t286.5 -110.5t287 110.5t100.5 307.5v834h227v-826q0 -301 -163.5 -469t-450.5 -168t-451 168t-164 469zM543 1628l456 244l80 -156l-469 -213z" />
<glyph unicode="&#xfb;" horiz-adv-x="1523" d="M147 608v826h228v-834q0 -197 100 -307.5t286.5 -110.5t287 110.5t100.5 307.5v834h227v-826q0 -301 -163.5 -469t-450.5 -168t-451 168t-164 469zM420 1606l336 284l338 -284l-90 -97l-248 205l-248 -205z" />
<glyph unicode="&#xfc;" horiz-adv-x="1523" d="M147 608v826h228v-834q0 -197 100 -307.5t286.5 -110.5t287 110.5t100.5 307.5v834h227v-826q0 -301 -163.5 -469t-450.5 -168t-451 168t-164 469zM385 1686q0 47 34 80.5t83 33.5t82.5 -33.5t33.5 -80.5q0 -49 -33.5 -83t-82.5 -34t-83 33.5t-34 83.5zM893 1686 q0 47 34 80.5t83 33.5t82.5 -33.5t33.5 -80.5q0 -49 -33.5 -83t-82.5 -34t-83 33.5t-34 83.5z" />
<glyph unicode="&#xfd;" horiz-adv-x="1409" d="M18 1434h275l387 -508l25 -45l26 45l385 508h277l-574 -764v-670h-227v670zM481 1628l457 244l80 -156l-469 -213z" />
<glyph unicode="&#xfe;" horiz-adv-x="1271" d="M180 0v1434h228v-248h276q227 0 367.5 -131t140.5 -338q0 -203 -140.5 -334t-367.5 -131h-276v-252h-228zM408 465h280q123 0 195.5 69.5t72.5 182.5q0 111 -72.5 183.5t-195.5 74.5h-280v-510z" />
<glyph unicode="&#xff;" horiz-adv-x="1409" d="M18 1434h275l387 -508l25 -45l26 45l385 508h277l-574 -764v-670h-227v670zM324 1686q0 47 33.5 80.5t82.5 33.5t83 -33.5t34 -80.5q0 -49 -34 -83t-83 -34t-82.5 33.5t-33.5 83.5zM831 1686q0 47 34 80.5t83 33.5t83 -33.5t34 -80.5q0 -49 -34 -83t-83 -34t-83 33.5 t-34 83.5z" />
<glyph unicode="&#x100;" horiz-adv-x="1593" d="M16 0l705 1434h151l705 -1434h-252l-145 299h-766l-146 -299h-252zM489 1591v140h629v-140h-629zM518 512h557l-262 541l-16 45l-17 -45z" />
<glyph unicode="&#x101;" horiz-adv-x="1593" d="M16 0l705 1434h151l705 -1434h-252l-145 299h-766l-146 -299h-252zM489 1591v140h629v-140h-629zM518 512h557l-262 541l-16 45l-17 -45z" />
<glyph unicode="&#x102;" horiz-adv-x="1593" d="M16 0l705 1434h151l705 -1434h-252l-145 299h-766l-146 -299h-252zM508 1765h139q12 -51 56.5 -85.5t99.5 -34.5t100 34.5t55 85.5h138q-23 -106 -105 -173.5t-188 -67.5q-113 0 -194 67.5t-101 173.5zM518 512h557l-262 541l-16 45l-17 -45z" />
<glyph unicode="&#x103;" horiz-adv-x="1593" d="M16 0l705 1434h151l705 -1434h-252l-145 299h-766l-146 -299h-252zM508 1765h139q12 -51 56.5 -85.5t99.5 -34.5t100 34.5t55 85.5h138q-23 -106 -105 -173.5t-188 -67.5q-113 0 -194 67.5t-101 173.5zM518 512h557l-262 541l-16 45l-17 -45z" />
<glyph unicode="&#x104;" horiz-adv-x="1593" d="M16 0l705 1434h151l705 -1434h-139q-102 0 -181 -50t-79 -151q0 -63 46 -108t122 -45q57 0 110 37t78 90l121 -80q-45 -84 -132 -137.5t-184 -53.5q-143 0 -235 82t-92 215q0 127 86 210t180 89l-98 201h-766l-146 -299h-252zM518 512h557l-262 541l-16 45l-17 -45z" />
<glyph unicode="&#x105;" horiz-adv-x="1593" d="M16 0l705 1434h151l705 -1434h-139q-102 0 -181 -50t-79 -151q0 -63 46 -108t122 -45q57 0 110 37t78 90l121 -80q-45 -84 -132 -137.5t-184 -53.5q-143 0 -235 82t-92 215q0 127 86 210t180 89l-98 201h-766l-146 -299h-252zM518 512h557l-262 541l-16 45l-17 -45z" />
<glyph unicode="&#x106;" horiz-adv-x="1554" d="M84 716.5q0 321.5 216 533.5t527 212q207 0 380.5 -101.5t271.5 -275.5l-232 -61q-66 100 -178.5 157.5t-241.5 57.5q-223 0 -365.5 -145.5t-142.5 -377t144.5 -375.5t363.5 -144q143 0 264 68.5t183 185.5l227 -62q-92 -193 -271 -305.5t-403 -112.5q-311 0 -527 212 t-216 533.5zM602 1628l457 244l80 -156l-469 -213z" />
<glyph unicode="&#x107;" horiz-adv-x="1554" d="M84 716.5q0 321.5 216 533.5t527 212q207 0 380.5 -101.5t271.5 -275.5l-232 -61q-66 100 -178.5 157.5t-241.5 57.5q-223 0 -365.5 -145.5t-142.5 -377t144.5 -375.5t363.5 -144q143 0 264 68.5t183 185.5l227 -62q-92 -193 -271 -305.5t-403 -112.5q-311 0 -527 212 t-216 533.5zM602 1628l457 244l80 -156l-469 -213z" />
<glyph unicode="&#x10a;" horiz-adv-x="1554" d="M84 716.5q0 321.5 216 533.5t527 212q207 0 380.5 -101.5t271.5 -275.5l-232 -61q-66 100 -178.5 157.5t-241.5 57.5q-223 0 -365.5 -145.5t-142.5 -377t144.5 -375.5t363.5 -144q143 0 264 68.5t183 185.5l227 -62q-92 -193 -271 -305.5t-403 -112.5q-311 0 -527 212 t-216 533.5zM709 1686q0 47 33.5 80.5t82.5 33.5t83 -33.5t34 -80.5q0 -49 -34 -83t-83 -34t-82.5 33.5t-33.5 83.5z" />
<glyph unicode="&#x10b;" horiz-adv-x="1554" d="M84 716.5q0 321.5 216 533.5t527 212q207 0 380.5 -101.5t271.5 -275.5l-232 -61q-66 100 -178.5 157.5t-241.5 57.5q-223 0 -365.5 -145.5t-142.5 -377t144.5 -375.5t363.5 -144q143 0 264 68.5t183 185.5l227 -62q-92 -193 -271 -305.5t-403 -112.5q-311 0 -527 212 t-216 533.5zM709 1686q0 47 33.5 80.5t82.5 33.5t83 -33.5t34 -80.5q0 -49 -34 -83t-83 -34t-82.5 33.5t-33.5 83.5z" />
<glyph unicode="&#x10c;" horiz-adv-x="1554" d="M84 716.5q0 321.5 216 533.5t527 212q207 0 380.5 -101.5t271.5 -275.5l-232 -61q-66 100 -178.5 157.5t-241.5 57.5q-223 0 -365.5 -145.5t-142.5 -377t144.5 -375.5t363.5 -144q143 0 264 68.5t183 185.5l227 -62q-92 -193 -271 -305.5t-403 -112.5q-311 0 -527 212 t-216 533.5zM485 1780l336 -285l338 285l-90 96l-248 -205l-248 205z" />
<glyph unicode="&#x10d;" horiz-adv-x="1554" d="M84 716.5q0 321.5 216 533.5t527 212q207 0 380.5 -101.5t271.5 -275.5l-232 -61q-66 100 -178.5 157.5t-241.5 57.5q-223 0 -365.5 -145.5t-142.5 -377t144.5 -375.5t363.5 -144q143 0 264 68.5t183 185.5l227 -62q-92 -193 -271 -305.5t-403 -112.5q-311 0 -527 212 t-216 533.5zM485 1780l336 -285l338 285l-90 96l-248 -205l-248 205z" />
<glyph unicode="&#x10e;" horiz-adv-x="1617" d="M180 0v1434h613q313 0 527 -203t214 -520q0 -313 -212 -512t-521 -199h-621zM408 213h393q209 0 353 136t144 362q0 229 -146 369.5t-359 140.5h-385v-1008zM432 1780l336 -285l338 285l-90 96l-248 -205l-248 205z" />
<glyph unicode="&#x10f;" horiz-adv-x="1617" d="M180 0v1434h613q313 0 527 -203t214 -520q0 -313 -212 -512t-521 -199h-621zM408 213h393q209 0 353 136t144 362q0 229 -146 369.5t-359 140.5h-385v-1008zM432 1780l336 -285l338 285l-90 96l-248 -205l-248 205z" />
<glyph unicode="&#x110;" horiz-adv-x="1634" d="M84 625v204h113v605h612q313 0 527 -203t214 -520q0 -313 -212 -512t-521 -199h-620v625h-113zM424 213h393q209 0 353.5 136t144.5 362q0 229 -146.5 369.5t-359.5 140.5h-385v-392h315v-204h-315v-412z" />
<glyph unicode="&#x111;" horiz-adv-x="1634" d="M84 625v204h113v605h612q313 0 527 -203t214 -520q0 -313 -212 -512t-521 -199h-620v625h-113zM424 213h393q209 0 353.5 136t144.5 362q0 229 -146.5 369.5t-359.5 140.5h-385v-392h315v-204h-315v-412z" />
<glyph unicode="&#x112;" horiz-adv-x="1312" d="M180 0v1434h985v-213h-757v-373h604v-207h-604v-428h770v-213h-998zM387 1591v140h629v-140h-629z" />
<glyph unicode="&#x113;" horiz-adv-x="1312" d="M180 0v1434h985v-213h-757v-373h604v-207h-604v-428h770v-213h-998zM381 1591v140h629v-140h-629z" />
<glyph unicode="&#x116;" horiz-adv-x="1312" d="M180 0v1434h985v-213h-757v-373h604v-207h-604v-428h770v-213h-998zM580 1686q0 47 33.5 80.5t82.5 33.5t83 -33.5t34 -80.5q0 -49 -34 -83t-83 -34t-82.5 33.5t-33.5 83.5z" />
<glyph unicode="&#x117;" horiz-adv-x="1312" d="M180 0v1434h985v-213h-757v-373h604v-207h-604v-428h770v-213h-998zM580 1686q0 47 33.5 80.5t82.5 33.5t83 -33.5t34 -80.5q0 -49 -34 -83t-83 -34t-82.5 33.5t-33.5 83.5z" />
<glyph unicode="&#x118;" horiz-adv-x="1312" d="M180 0v1434h985v-213h-757v-373h604v-207h-604v-428h770v-213h-211q-102 0 -181 -50t-79 -151q0 -63 46 -108t121 -45q57 0 110.5 37t78.5 90l121 -80q-45 -84 -132 -137.5t-184 -53.5q-143 0 -235 82t-92 215q0 117 77 201h-438z" />
<glyph unicode="&#x119;" horiz-adv-x="1312" d="M180 0v1434h985v-213h-757v-373h604v-207h-604v-428h770v-213h-183q-102 0 -181 -50t-79 -151q0 -63 46 -108t122 -45q57 0 110.5 37t78.5 90l120 -80q-45 -84 -132 -137.5t-183 -53.5q-143 0 -235.5 82t-92.5 215q0 117 78 201h-467z" />
<glyph unicode="&#x11a;" horiz-adv-x="1312" d="M180 0v1434h985v-213h-757v-373h604v-207h-604v-428h770v-213h-998zM356 1780l88 96l248 -205l248 205l90 -96l-338 -285z" />
<glyph unicode="&#x11b;" horiz-adv-x="1312" d="M180 0v1434h985v-213h-757v-373h604v-207h-604v-428h770v-213h-998zM350 1780l88 96l248 -205l248 205l90 -96l-338 -285z" />
<glyph unicode="&#x11c;" horiz-adv-x="1626" d="M84 716.5q0 321.5 216 533.5t527 212q215 -2 385 -103.5t267 -273.5l-232 -61q-63 100 -177 157.5t-243 57.5q-223 0 -365.5 -145.5t-142.5 -376.5q0 -233 147.5 -378.5t371.5 -145.5q180 0 303 80.5t168 185.5v119h-418v186h612v-766h-196v184q-68 -82 -192 -146.5 t-288 -64.5q-311 0 -527 212t-216 533.5zM473 1606l336 284l338 -284l-90 -97l-248 205l-248 -205z" />
<glyph unicode="&#x11d;" horiz-adv-x="1626" d="M84 716.5q0 321.5 216 533.5t527 212q215 -2 385 -103.5t267 -273.5l-232 -61q-63 100 -177 157.5t-243 57.5q-223 0 -365.5 -145.5t-142.5 -376.5q0 -233 147.5 -378.5t371.5 -145.5q180 0 303 80.5t168 185.5v119h-418v186h612v-766h-196v184q-68 -82 -192 -146.5 t-288 -64.5q-311 0 -527 212t-216 533.5zM473 1606l336 284l338 -284l-90 -97l-248 205l-248 -205z" />
<glyph unicode="&#x11e;" horiz-adv-x="1626" d="M84 716.5q0 321.5 216 533.5t527 212q215 -2 385 -103.5t267 -273.5l-232 -61q-63 100 -177 157.5t-243 57.5q-223 0 -365.5 -145.5t-142.5 -376.5q0 -233 147.5 -378.5t371.5 -145.5q180 0 303 80.5t168 185.5v119h-418v186h612v-766h-196v184q-68 -82 -192 -146.5 t-288 -64.5q-311 0 -527 212t-216 533.5zM528 1765h140q12 -51 56 -85.5t99.5 -34.5t100.5 34.5t55 85.5h137q-23 -106 -104.5 -173.5t-188.5 -67.5q-113 0 -194 67.5t-101 173.5z" />
<glyph unicode="&#x11f;" horiz-adv-x="1626" d="M84 716.5q0 321.5 216 533.5t527 212q215 -2 385 -103.5t267 -273.5l-232 -61q-63 100 -177 157.5t-243 57.5q-223 0 -365.5 -145.5t-142.5 -376.5q0 -233 147.5 -378.5t371.5 -145.5q180 0 303 80.5t168 185.5v119h-418v186h612v-766h-196v184q-68 -82 -192 -146.5 t-288 -64.5q-311 0 -527 212t-216 533.5zM528 1765h140q12 -51 56 -85.5t99.5 -34.5t100.5 34.5t55 85.5h137q-23 -106 -104.5 -173.5t-188.5 -67.5q-113 0 -194 67.5t-101 173.5z" />
<glyph unicode="&#x120;" horiz-adv-x="1626" d="M84 716.5q0 321.5 216 533.5t527 212q215 -2 385 -103.5t267 -273.5l-232 -61q-63 100 -177 157.5t-243 57.5q-223 0 -365.5 -145.5t-142.5 -376.5q0 -233 147.5 -378.5t371.5 -145.5q180 0 303 80.5t168 185.5v119h-418v186h612v-766h-196v184q-68 -82 -192 -146.5 t-288 -64.5q-311 0 -527 212t-216 533.5zM702 1686q0 47 34 80.5t83 33.5t83 -33.5t34 -80.5q0 -49 -34 -83t-83 -34t-83 33.5t-34 83.5z" />
<glyph unicode="&#x121;" horiz-adv-x="1626" d="M84 716.5q0 321.5 216 533.5t527 212q215 -2 385 -103.5t267 -273.5l-232 -61q-63 100 -177 157.5t-243 57.5q-223 0 -365.5 -145.5t-142.5 -376.5q0 -233 147.5 -378.5t371.5 -145.5q180 0 303 80.5t168 185.5v119h-418v186h612v-766h-196v184q-68 -82 -192 -146.5 t-288 -64.5q-311 0 -527 212t-216 533.5zM702 1686q0 47 34 80.5t83 33.5t83 -33.5t34 -80.5q0 -49 -34 -83t-83 -34t-83 33.5t-34 83.5z" />
<glyph unicode="&#x122;" horiz-adv-x="1626" d="M84 716.5q0 321.5 216 533.5t527 212q215 -2 385 -103.5t267 -273.5l-232 -61q-63 100 -177 157.5t-243 57.5q-223 0 -365.5 -145.5t-142.5 -376.5q0 -233 147.5 -378.5t371.5 -145.5q180 0 303 80.5t168 185.5v119h-418v186h612v-766h-196v184q-68 -82 -192 -146.5 t-288 -64.5q-311 0 -527 212t-216 533.5zM672 -545q45 39 83 109t38 123l22 8l-22 4q-35 2 -65 30.5t-30 75.5q0 49 34 82t85 33q47 0 81 -38t34 -97q0 -84 -51.5 -174t-124.5 -156h-84z" />
<glyph unicode="&#x123;" horiz-adv-x="1626" d="M84 716.5q0 321.5 216 533.5t527 212q215 -2 385 -103.5t267 -273.5l-232 -61q-63 100 -177 157.5t-243 57.5q-223 0 -365.5 -145.5t-142.5 -376.5q0 -233 147.5 -378.5t371.5 -145.5q180 0 303 80.5t168 185.5v119h-418v186h612v-766h-196v184q-68 -82 -192 -146.5 t-288 -64.5q-311 0 -527 212t-216 533.5zM672 -545q45 39 83 109t38 123l22 8l-22 4q-35 2 -65 30.5t-30 75.5q0 49 34 82t85 33q47 0 81 -38t34 -97q0 -84 -51.5 -174t-124.5 -156h-84z" />
<glyph unicode="&#x124;" horiz-adv-x="1515" d="M180 0v1434h228v-594h700v594h227v-1434h-227v629h-700v-629h-228zM416 1606l336 284l338 -284l-91 -97l-247 205l-248 -205z" />
<glyph unicode="&#x125;" horiz-adv-x="1515" d="M180 0v1434h228v-594h700v594h227v-1434h-227v629h-700v-629h-228zM416 1606l336 284l338 -284l-91 -97l-247 205l-248 -205z" />
<glyph unicode="&#x126;" horiz-adv-x="1515" d="M43 1104v176h137v154h228v-154h700v154h227v-154h138v-176h-138v-1104h-227v629h-700v-629h-228v1104h-137zM408 840h700v264h-700v-264z" />
<glyph unicode="&#x127;" horiz-adv-x="1515" d="M43 1104v176h137v154h228v-154h700v154h227v-154h138v-176h-138v-1104h-227v629h-700v-629h-228v1104h-137zM408 840h700v264h-700v-264z" />
<glyph unicode="&#x12a;" horiz-adv-x="587" d="M-12 1591v140h628v-140h-628zM180 0v1434h228v-1434h-228z" />
<glyph unicode="&#x12b;" horiz-adv-x="587" d="M-12 1591v140h628v-140h-628zM180 0v1434h228v-1434h-228z" />
<glyph unicode="&#x12e;" horiz-adv-x="587" d="M-90 -201q0 127 88 210t182 89v1336h228v-1434h-72q-102 0 -181 -50t-79 -151q0 -63 46 -108t122 -45q57 0 110 37t78 90l121 -80q-45 -84 -132 -137.5t-183 -53.5q-143 0 -235.5 82t-92.5 215z" />
<glyph unicode="&#x12f;" horiz-adv-x="587" d="M-90 -201q0 127 88 210t182 89v1336h228v-1434h-72q-102 0 -181 -50t-79 -151q0 -63 46 -108t122 -45q57 0 110 37t78 90l121 -80q-45 -84 -132 -137.5t-183 -53.5q-143 0 -235.5 82t-92.5 215z" />
<glyph unicode="&#x130;" horiz-adv-x="587" d="M180 0v1434h228v-1434h-228zM180 1686q0 47 34 80.5t83 33.5t83 -33.5t34 -80.5q0 -49 -34 -83t-83 -34t-83 33.5t-34 83.5z" />
<glyph unicode="&#x131;" horiz-adv-x="587" d="M180 0v1434h228v-1434h-228z" />
<glyph unicode="&#x132;" horiz-adv-x="1945" d="M180 0v1434h228v-1434h-228zM608 358l223 60q37 -111 131.5 -173.5t221.5 -62.5q186 0 287.5 109.5t101.5 306.5v836h227v-826q0 -301 -165 -469t-451 -168q-205 0 -362.5 108.5t-213.5 278.5z" />
<glyph unicode="&#x133;" horiz-adv-x="1945" d="M180 0v1434h228v-1434h-228zM608 358l223 60q37 -111 131.5 -173.5t221.5 -62.5q186 0 287.5 109.5t101.5 306.5v836h227v-826q0 -301 -165 -469t-451 -168q-205 0 -362.5 108.5t-213.5 278.5z" />
<glyph unicode="&#x134;" horiz-adv-x="1357" d="M20 358l224 60q37 -111 131 -173.5t221 -62.5q186 0 287.5 109.5t101.5 306.5v836h227v-826q0 -301 -164.5 -469t-451.5 -168q-205 0 -362.5 108.5t-213.5 278.5zM793 1606l335 284l338 -284l-90 -97l-248 205l-247 -205z" />
<glyph unicode="&#x135;" horiz-adv-x="1357" d="M20 358l224 60q37 -111 131 -173.5t221 -62.5q186 0 287.5 109.5t101.5 306.5v836h227v-826q0 -301 -164.5 -469t-451.5 -168q-205 0 -362.5 108.5t-213.5 278.5zM793 1606l335 284l338 -284l-90 -97l-248 205l-247 -205z" />
<glyph unicode="&#x136;" horiz-adv-x="1441" d="M180 0v1434h228v-670l673 670h267l-588 -590l645 -844h-283l-520 686l-194 -194v-492h-228zM580 -545q45 39 82.5 109t37.5 123l23 8l-23 4q-35 2 -64.5 30.5t-29.5 75.5q0 49 34 82t85 33q47 0 81 -38t34 -97q0 -84 -51.5 -174t-124.5 -156h-84z" />
<glyph unicode="&#x137;" horiz-adv-x="1441" d="M180 0v1434h228v-670l673 670h267l-588 -590l645 -844h-283l-520 686l-194 -194v-492h-228zM590 -545q45 39 83 109t38 123l22 8l-22 4q-35 2 -65 30.5t-30 75.5q0 49 34 82t85 33q47 0 81 -38t34 -97q0 -84 -51 -174t-125 -156h-84z" />
<glyph unicode="&#x139;" horiz-adv-x="1185" d="M88 1628l457 244l80 -156l-469 -213zM180 0v1434h228v-1221h737v-213h-965z" />
<glyph unicode="&#x13a;" horiz-adv-x="1185" d="M88 1628l457 244l80 -156l-469 -213zM180 0v1434h228v-1221h737v-213h-965z" />
<glyph unicode="&#x13b;" horiz-adv-x="1185" d="M180 0v1434h228v-1221h737v-213h-965zM520 -545q45 39 83 108.5t38 123.5l23 8l-23 4q-35 2 -64.5 30.5t-29.5 75.5q0 49 33.5 82t85.5 33q47 0 80.5 -38t33.5 -97q0 -84 -51 -174t-125 -156h-84z" />
<glyph unicode="&#x13c;" horiz-adv-x="1185" d="M180 0v1434h228v-1221h737v-213h-965zM463 -545q45 39 83 108.5t38 123.5l22 8l-22 4q-35 2 -65 30.5t-30 75.5q0 49 34 82t85 33q47 0 81 -38t34 -97q0 -84 -51 -174t-125 -156h-84z" />
<glyph unicode="&#x13d;" horiz-adv-x="1185" d="M180 0v1434h228v-1221h737v-213h-965zM532 979q49 41 89.5 114.5t40.5 129.5l22 8l-22 4q-39 2 -70 32.5t-31 80.5q0 51 36 85.5t89 34.5q51 0 86 -39.5t35 -101.5q0 -90 -53.5 -184t-130.5 -164h-91z" />
<glyph unicode="&#x13e;" horiz-adv-x="1185" d="M180 0v1434h228v-1221h737v-213h-965zM555 979q49 41 89 114.5t40 129.5l23 8l-23 4q-39 2 -69.5 32.5t-30.5 80.5q0 51 35.5 85.5t89.5 34.5q51 0 85.5 -39.5t34.5 -101.5q0 -90 -53 -184t-131 -164h-90z" />
<glyph unicode="&#x13f;" horiz-adv-x="1185" d="M180 0v1434h228v-1221h737v-213h-965zM702 788q0 47 34 81t83 34t83 -33.5t34 -81.5q0 -49 -34 -82.5t-83 -33.5t-83 33.5t-34 82.5z" />
<glyph unicode="&#x140;" horiz-adv-x="1185" d="M180 0v1434h228v-1221h737v-213h-965zM702 788q0 47 34 81t83 34t83 -33.5t34 -81.5q0 -49 -34 -82.5t-83 -33.5t-83 33.5t-34 82.5z" />
<glyph unicode="&#x141;" horiz-adv-x="1185" d="M180 0v1434h228v-629l583 295v-215l-583 -295v-377h737v-213h-965z" />
<glyph unicode="&#x142;" horiz-adv-x="1185" d="M180 0v1434h228v-629l583 295v-215l-583 -295v-377h737v-213h-965z" />
<glyph unicode="&#x143;" horiz-adv-x="1599" d="M193 0v1434h213l751 -977l27 -51l-4 59v969h227v-1434h-213l-750 985l-28 47l4 -55v-977h-227zM590 1628l457 244l79 -156l-469 -213z" />
<glyph unicode="&#x144;" horiz-adv-x="1574" d="M193 0v1434h213l751 -977l27 -51l-4 59v969h227v-1434h-213l-750 985l-28 47l4 -55v-977h-227zM567 1628l457 244l80 -156l-469 -213z" />
<glyph unicode="&#x145;" horiz-adv-x="1599" d="M193 0v1434h213l751 -977l27 -51l-4 59v969h227v-1434h-213l-750 985l-28 47l4 -55v-977h-227zM668 -545q45 39 82.5 109t37.5 123l23 8l-23 4q-35 2 -64.5 30.5t-29.5 75.5q0 49 34 82t85 33q47 0 81 -38t34 -97q0 -84 -51.5 -174t-124.5 -156h-84z" />
<glyph unicode="&#x146;" horiz-adv-x="1574" d="M193 0v1434h213l751 -977l27 -51l-4 59v969h227v-1434h-213l-750 985l-28 47l4 -55v-977h-227zM653 -545q45 39 83 109t38 123l23 8l-23 4q-35 2 -64.5 30.5t-29.5 75.5q0 49 34 82t85 33q47 0 80.5 -38t33.5 -97q0 -84 -51 -174t-125 -156h-84z" />
<glyph unicode="&#x147;" horiz-adv-x="1599" d="M193 0v1434h213l751 -977l27 -51l-4 59v969h227v-1434h-213l-750 985l-28 47l4 -55v-977h-227zM473 1780l336 -285l338 285l-90 96l-248 -205l-248 205z" />
<glyph unicode="&#x148;" horiz-adv-x="1574" d="M193 0v1434h213l751 -977l27 -51l-4 59v969h227v-1434h-213l-750 985l-28 47l4 -55v-977h-227zM451 1780l335 -285l338 285l-90 96l-248 -205l-247 205z" />
<glyph unicode="&#x14a;" horiz-adv-x="1574" d="M180 0v1434h213l752 -977l26 -51l-4 59v969h228v-1434q0 -195 -117 -322t-295 -127h-84v187h66q96 0 149 70.5t53 191.5h15l-750 985l-29 47l5 -55v-977h-228z" />
<glyph unicode="&#x14b;" horiz-adv-x="1574" d="M180 0v1434h213l752 -977l26 -51l-4 59v969h228v-1434q0 -195 -117 -322t-295 -127h-84v187h66q96 0 149 70.5t53 191.5h15l-750 985l-29 47l5 -55v-977h-228z" />
<glyph unicode="&#x14c;" d="M84 716.5q0 321.5 216 533.5t527 212q313 0 529.5 -212t216.5 -533.5t-216 -533.5t-530 -212q-311 0 -527 212t-216 533.5zM319 717q0 -231 142.5 -376.5t365.5 -145.5q221 0 365.5 146t144.5 376q0 233 -144 377.5t-366 144.5q-223 0 -365.5 -144.5t-142.5 -377.5z M532 1591v140h629v-140h-629z" />
<glyph unicode="&#x14d;" d="M84 716.5q0 321.5 216 533.5t527 212q313 0 529.5 -212t216.5 -533.5t-216 -533.5t-530 -212q-311 0 -527 212t-216 533.5zM319 717q0 -231 142.5 -376.5t365.5 -145.5q221 0 365.5 146t144.5 376q0 233 -144 377.5t-366 144.5q-223 0 -365.5 -144.5t-142.5 -377.5z M528 1591v140h629v-140h-629z" />
<glyph unicode="&#x150;" d="M84 716.5q0 321.5 216 533.5t527 212q313 0 529.5 -212t216.5 -533.5t-216 -533.5t-530 -212q-311 0 -527 212t-216 533.5zM319 717q0 -231 142.5 -376.5t365.5 -145.5q221 0 365.5 146t144.5 376q0 233 -144 377.5t-366 144.5q-223 0 -365.5 -144.5t-142.5 -377.5z M414 1628l456 244l80 -156l-469 -213zM809 1628l457 244l80 -156l-469 -213z" />
<glyph unicode="&#x151;" d="M84 716.5q0 321.5 216 533.5t527 212q313 0 529.5 -212t216.5 -533.5t-216 -533.5t-530 -212q-311 0 -527 212t-216 533.5zM319 717q0 -231 142.5 -376.5t365.5 -145.5q221 0 365.5 146t144.5 376q0 233 -144 377.5t-366 144.5q-223 0 -365.5 -144.5t-142.5 -377.5z M410 1628l456 244l80 -156l-469 -213zM805 1628l457 244l79 -156l-469 -213z" />
<glyph unicode="&#x152;" horiz-adv-x="2166" d="M84 716.5q0 317.5 214 523.5t525 206q141 0 281 -53v41h915v-213h-688v-373h606v-207h-606v-428h701v-213h-928v43q-137 -55 -281 -55q-311 0 -525 205.5t-214 523zM319 716.5q0 -231.5 144.5 -373.5t359.5 -142q156 0 281 86v862q-129 86 -281 86q-215 0 -359.5 -143.5 t-144.5 -375z" />
<glyph unicode="&#x153;" horiz-adv-x="2166" d="M84 716.5q0 317.5 214 523.5t525 206q141 0 281 -53v41h915v-213h-688v-373h606v-207h-606v-428h701v-213h-928v43q-137 -55 -281 -55q-311 0 -525 205.5t-214 523zM319 716.5q0 -231.5 144.5 -373.5t359.5 -142q156 0 281 86v862q-129 86 -281 86q-215 0 -359.5 -143.5 t-144.5 -375z" />
<glyph unicode="&#x154;" horiz-adv-x="1339" d="M180 0v1434h469q256 0 403.5 -124t147.5 -337q0 -150 -74.5 -257.5t-212.5 -160.5l347 -555h-254l-318 512h-39h-241v-512h-228zM408 725h268q141 0 215 68.5t74 179.5q0 113 -75 180.5t-214 67.5h-268v-496zM414 1628l456 244l80 -156l-469 -213z" />
<glyph unicode="&#x155;" horiz-adv-x="1339" d="M180 0v1434h469q256 0 403.5 -124t147.5 -337q0 -150 -74.5 -257.5t-212.5 -160.5l347 -555h-254l-318 512h-39h-241v-512h-228zM408 725h268q141 0 215 68.5t74 179.5q0 113 -75 180.5t-214 67.5h-268v-496zM446 1628l457 244l80 -156l-469 -213z" />
<glyph unicode="&#x156;" horiz-adv-x="1339" d="M180 0v1434h469q256 0 403.5 -124t147.5 -337q0 -150 -75 -257.5t-212 -160.5l347 -555h-254l-318 512h-39h-241v-512h-228zM408 725h268q141 0 215 68.5t74 179.5q0 113 -75 180.5t-214 67.5h-268v-496zM520 -545q45 39 83 108.5t38 123.5l23 8l-23 4q-35 2 -64.5 30.5 t-29.5 75.5q0 49 33.5 82t85.5 33q47 0 80.5 -38t33.5 -97q0 -84 -51 -174t-125 -156h-84z" />
<glyph unicode="&#x157;" horiz-adv-x="1339" d="M180 0v1434h469q256 0 403.5 -124t147.5 -337q0 -150 -75 -257.5t-212 -160.5l347 -555h-254l-318 512h-39h-241v-512h-228zM408 725h268q141 0 215 68.5t74 179.5q0 113 -75 180.5t-214 67.5h-268v-496zM553 -545q45 39 83 108.5t38 123.5l22 8l-22 4q-35 2 -64.5 30.5 t-29.5 75.5q0 49 33.5 82t84.5 33q47 0 81 -38t34 -97q0 -84 -51 -174t-125 -156h-84z" />
<glyph unicode="&#x158;" horiz-adv-x="1339" d="M180 0v1434h469q256 0 403.5 -124t147.5 -337q0 -150 -74.5 -257.5t-212.5 -160.5l347 -555h-254l-318 512h-39h-241v-512h-228zM297 1780l88 96l248 -205l248 205l90 -96l-338 -285zM408 725h268q141 0 215 68.5t74 179.5q0 113 -75 180.5t-214 67.5h-268v-496z" />
<glyph unicode="&#x159;" horiz-adv-x="1339" d="M180 0v1434h469q256 0 403.5 -124t147.5 -337q0 -150 -74.5 -257.5t-212.5 -160.5l347 -555h-254l-318 512h-39h-241v-512h-228zM297 1780l88 96l248 -205l248 205l90 -96l-338 -285zM408 725h268q141 0 215 68.5t74 179.5q0 113 -75 180.5t-214 67.5h-268v-496z" />
<glyph unicode="&#x15a;" horiz-adv-x="1232" d="M61 397l222 60q18 -117 115.5 -199t242.5 -82q129 0 209 60.5t80 152.5q0 31 -11.5 58.5t-26.5 48t-47 42t-55.5 34t-69.5 29.5l-70 25q-25 9 -78.5 25.5t-75.5 24.5q-66 23 -108 39t-101.5 50t-94 70.5t-60.5 96t-26 129.5q0 170 145.5 285.5t366.5 115.5 q197 0 341.5 -107.5t185.5 -279.5l-217 -59q-25 117 -112 183.5t-206 66.5q-121 0 -196.5 -52.5t-75.5 -144.5q0 -43 22.5 -75.5t74.5 -59.5t93 -42t123 -42q35 -10 51 -16q84 -27 129.5 -43.5t119 -55.5t112.5 -79t69.5 -107.5t30.5 -149.5q0 -186 -148.5 -307t-385.5 -121 q-223 0 -371.5 117t-196.5 309zM422 1628l457 244l79 -156l-469 -213z" />
<glyph unicode="&#x15b;" horiz-adv-x="1232" d="M61 397l222 60q18 -117 115.5 -199t242.5 -82q129 0 209 60.5t80 152.5q0 31 -11.5 58.5t-26.5 48t-47 42t-55.5 34t-69.5 29.5l-70 25q-25 9 -78.5 25.5t-75.5 24.5q-66 23 -108 39t-101.5 50t-94 70.5t-60.5 96t-26 129.5q0 170 145.5 285.5t366.5 115.5 q197 0 341.5 -107.5t185.5 -279.5l-217 -59q-25 117 -112 183.5t-206 66.5q-121 0 -196.5 -52.5t-75.5 -144.5q0 -43 22.5 -75.5t74.5 -59.5t93 -42t123 -42q35 -10 51 -16q84 -27 129.5 -43.5t119 -55.5t112.5 -79t69.5 -107.5t30.5 -149.5q0 -186 -148.5 -307t-385.5 -121 q-223 0 -371.5 117t-196.5 309zM446 1628l457 244l80 -156l-469 -213z" />
<glyph unicode="&#x15c;" horiz-adv-x="1232" d="M61 397l222 60q18 -117 115.5 -199t242.5 -82q129 0 209 60.5t80 152.5q0 31 -11.5 58.5t-26.5 48t-47 42t-55.5 34t-69.5 29.5l-70 25q-25 9 -78.5 25.5t-75.5 24.5q-66 23 -108 39t-101.5 50t-94 70.5t-60.5 96t-26 129.5q0 170 145.5 285.5t366.5 115.5 q197 0 341.5 -107.5t185.5 -279.5l-217 -59q-25 117 -112 183.5t-206 66.5q-121 0 -196.5 -52.5t-75.5 -144.5q0 -43 22.5 -75.5t74.5 -59.5t93 -42t123 -42q35 -10 51 -16q84 -27 129.5 -43.5t119 -55.5t112.5 -79t69.5 -107.5t30.5 -149.5q0 -186 -148.5 -307t-385.5 -121 q-223 0 -371.5 117t-196.5 309zM299 1606l336 284l338 -284l-90 -97l-248 205l-248 -205z" />
<glyph unicode="&#x15d;" horiz-adv-x="1232" d="M61 397l222 60q18 -117 115.5 -199t242.5 -82q129 0 209 60.5t80 152.5q0 31 -11.5 58.5t-26.5 48t-47 42t-55.5 34t-69.5 29.5l-70 25q-25 9 -78.5 25.5t-75.5 24.5q-66 23 -108 39t-101.5 50t-94 70.5t-60.5 96t-26 129.5q0 170 145.5 285.5t366.5 115.5 q197 0 341.5 -107.5t185.5 -279.5l-217 -59q-25 117 -112 183.5t-206 66.5q-121 0 -196.5 -52.5t-75.5 -144.5q0 -43 22.5 -75.5t74.5 -59.5t93 -42t123 -42q35 -10 51 -16q84 -27 129.5 -43.5t119 -55.5t112.5 -79t69.5 -107.5t30.5 -149.5q0 -186 -148.5 -307t-385.5 -121 q-223 0 -371.5 117t-196.5 309zM299 1606l336 284l338 -284l-90 -97l-248 205l-248 -205z" />
<glyph unicode="&#x15e;" horiz-adv-x="1232" d="M61 397l222 60q18 -117 115.5 -199t242.5 -82q129 0 209 60.5t80 152.5q0 31 -11.5 58.5t-26.5 48t-47 42t-55.5 34t-69.5 29.5l-70 25q-25 9 -78.5 25.5t-75.5 24.5q-66 23 -108 39t-101.5 50t-94 70.5t-60.5 96t-26 129.5q0 170 145.5 285.5t366.5 115.5 q197 0 341.5 -107.5t185.5 -279.5l-217 -59q-25 117 -112 183.5t-206 66.5q-121 0 -196.5 -52.5t-75.5 -144.5q0 -43 22.5 -75.5t74.5 -59.5t93 -42t123 -42q35 -10 51 -16q84 -27 129.5 -43.5t119 -55.5t112.5 -79t69.5 -107.5t30.5 -149.5q0 -166 -119.5 -281.5 t-318.5 -140.5l-31 -83q92 2 153.5 -52.5t61.5 -146.5q0 -98 -63.5 -150.5t-163.5 -52.5h-182l49 125h133q45 0 70.5 21.5t25.5 54.5q0 37 -26.5 58.5t-69.5 21.5h-160l70 198q-209 10 -347.5 126t-183.5 300z" />
<glyph unicode="&#x15f;" horiz-adv-x="1232" d="M61 397l222 60q18 -117 115.5 -199t242.5 -82q129 0 209 60.5t80 152.5q0 31 -11.5 58.5t-26.5 48t-47 42t-55.5 34t-69.5 29.5l-70 25q-25 9 -78.5 25.5t-75.5 24.5q-66 23 -108 39t-101.5 50t-94 70.5t-60.5 96t-26 129.5q0 170 145.5 285.5t366.5 115.5 q197 0 341.5 -107.5t185.5 -279.5l-217 -59q-25 117 -112 183.5t-206 66.5q-121 0 -196.5 -52.5t-75.5 -144.5q0 -43 22.5 -75.5t74.5 -59.5t93 -42t123 -42q35 -10 51 -16q84 -27 129.5 -43.5t119 -55.5t112.5 -79t69.5 -107.5t30.5 -149.5q0 -164 -116.5 -278.5 t-309.5 -140.5l-30 -86q92 2 153.5 -52.5t61.5 -146.5q0 -98 -63.5 -150.5t-164.5 -52.5h-182l49 125h133q45 0 71 21.5t26 54.5q0 37 -27 58.5t-70 21.5h-159l69 198q-213 8 -355.5 123t-187.5 303z" />
<glyph unicode="&#x160;" horiz-adv-x="1232" d="M61 397l222 60q18 -117 115.5 -199t242.5 -82q129 0 209 60.5t80 152.5q0 31 -11.5 58.5t-26.5 48t-47 42t-55.5 34t-69.5 29.5l-70 25q-25 9 -78.5 25.5t-75.5 24.5q-66 23 -108 39t-101.5 50t-94 70.5t-60.5 96t-26 129.5q0 170 145.5 285.5t366.5 115.5 q197 0 341.5 -107.5t185.5 -279.5l-217 -59q-25 117 -112 183.5t-206 66.5q-121 0 -196.5 -52.5t-75.5 -144.5q0 -43 22.5 -75.5t74.5 -59.5t93 -42t123 -42q35 -10 51 -16q84 -27 129.5 -43.5t119 -55.5t112.5 -79t69.5 -107.5t30.5 -149.5q0 -186 -148.5 -307t-385.5 -121 q-223 0 -371.5 117t-196.5 309zM305 1780l336 -285l338 285l-90 96l-248 -205l-248 205z" />
<glyph unicode="&#x161;" horiz-adv-x="1232" d="M61 397l222 60q18 -117 115.5 -199t242.5 -82q129 0 209 60.5t80 152.5q0 31 -11.5 58.5t-26.5 48t-47 42t-55.5 34t-69.5 29.5l-70 25q-25 9 -78.5 25.5t-75.5 24.5q-66 23 -108 39t-101.5 50t-94 70.5t-60.5 96t-26 129.5q0 170 145.5 285.5t366.5 115.5 q197 0 341.5 -107.5t185.5 -279.5l-217 -59q-25 117 -112 183.5t-206 66.5q-121 0 -196.5 -52.5t-75.5 -144.5q0 -43 22.5 -75.5t74.5 -59.5t93 -42t123 -42q35 -10 51 -16q84 -27 129.5 -43.5t119 -55.5t112.5 -79t69.5 -107.5t30.5 -149.5q0 -186 -148.5 -307t-385.5 -121 q-223 0 -371.5 117t-196.5 309zM330 1780l336 -285l338 285l-91 96l-247 -205l-248 205z" />
<glyph unicode="&#x162;" horiz-adv-x="1226" d="M37 1221v213h1153v-213h-465v-1221h-51l-39 -106q92 2 153.5 -52.5t61.5 -146.5q0 -98 -63.5 -150.5t-163.5 -52.5h-183l49 125h134q45 0 70.5 21.5t25.5 54.5q0 37 -26.5 58.5t-69.5 21.5h-160l80 227h-45v1221h-461z" />
<glyph unicode="&#x163;" horiz-adv-x="1226" d="M37 1221v213h1153v-213h-465v-1221h-51l-39 -106q92 2 153.5 -52.5t61.5 -146.5q0 -98 -63.5 -150.5t-163.5 -52.5h-183l49 125h134q45 0 70.5 21.5t25.5 54.5q0 37 -26.5 58.5t-69.5 21.5h-160l80 227h-45v1221h-461z" />
<glyph unicode="&#x164;" horiz-adv-x="1226" d="M37 1221v213h1153v-213h-465v-1221h-227v1221h-461zM297 1780l88 96l248 -205l248 205l90 -96l-338 -285z" />
<glyph unicode="&#x165;" horiz-adv-x="1226" d="M37 1221v213h1153v-213h-465v-1221h-227v1221h-461zM297 1780l88 96l248 -205l248 205l90 -96l-338 -285z" />
<glyph unicode="&#x166;" horiz-adv-x="1226" d="M37 1221v213h1153v-213h-465v-369h242v-178h-242v-674h-227v674h-234v178h234v369h-461z" />
<glyph unicode="&#x167;" horiz-adv-x="1226" d="M37 1221v213h1153v-213h-465v-369h242v-178h-242v-674h-227v674h-234v178h234v369h-461z" />
<glyph unicode="&#x16a;" horiz-adv-x="1523" d="M147 608v826h228v-834q0 -197 100 -307.5t286.5 -110.5t287 110.5t100.5 307.5v834h227v-826q0 -301 -163.5 -469t-450.5 -168t-451 168t-164 469zM457 1591v140h628v-140h-628z" />
<glyph unicode="&#x16b;" horiz-adv-x="1523" d="M147 608v826h228v-834q0 -197 100 -307.5t286.5 -110.5t287 110.5t100.5 307.5v834h227v-826q0 -301 -163.5 -469t-450.5 -168t-451 168t-164 469zM457 1591v140h628v-140h-628z" />
<glyph unicode="&#x16c;" horiz-adv-x="1523" d="M147 608v826h228v-834q0 -197 100 -307.5t286.5 -110.5t287 110.5t100.5 307.5v834h227v-826q0 -301 -163.5 -469t-450.5 -168t-451 168t-164 469zM475 1765h139q12 -51 56.5 -85.5t99.5 -34.5t100 34.5t56 85.5h137q-23 -106 -104.5 -173.5t-188.5 -67.5 q-113 0 -194 67.5t-101 173.5z" />
<glyph unicode="&#x16d;" horiz-adv-x="1523" d="M147 608v826h228v-834q0 -197 100 -307.5t286.5 -110.5t287 110.5t100.5 307.5v834h227v-826q0 -301 -163.5 -469t-450.5 -168t-451 168t-164 469zM475 1765h139q12 -51 56.5 -85.5t99.5 -34.5t100 34.5t56 85.5h137q-23 -106 -104.5 -173.5t-188.5 -67.5 q-113 0 -194 67.5t-101 173.5z" />
<glyph unicode="&#x16e;" horiz-adv-x="1523" d="M147 608v826h228v-834q0 -197 100 -307.5t286.5 -110.5t287 110.5t100.5 307.5v834h227v-826q0 -301 -163.5 -469t-450.5 -168t-451 168t-164 469zM532 1593.5q0 96.5 68 164t164 67.5t163.5 -68.5t67.5 -163t-67.5 -162t-163.5 -67.5t-164 66.5t-68 163zM653 1595 q0 -45 33 -77.5t78 -32.5t79 32.5t34 77.5q0 47 -33 79t-80 32q-45 0 -78 -32t-33 -79z" />
<glyph unicode="&#x16f;" horiz-adv-x="1523" d="M147 608v826h228v-834q0 -197 100 -307.5t286.5 -110.5t287 110.5t100.5 307.5v834h227v-826q0 -301 -163.5 -469t-450.5 -168t-451 168t-164 469zM532 1593.5q0 96.5 68 164t164 67.5t163.5 -68.5t67.5 -163t-67.5 -162t-163.5 -67.5t-164 66.5t-68 163zM653 1595 q0 -45 33 -77.5t78 -32.5t79 32.5t34 77.5q0 47 -33 79t-80 32q-45 0 -78 -32t-33 -79z" />
<glyph unicode="&#x170;" horiz-adv-x="1523" d="M147 608v826h228v-834q0 -197 100 -307.5t286.5 -110.5t287 110.5t100.5 307.5v834h227v-826q0 -301 -163.5 -469t-450.5 -168t-451 168t-164 469zM338 1628l457 244l79 -156l-468 -213zM733 1628l457 244l80 -156l-469 -213z" />
<glyph unicode="&#x171;" horiz-adv-x="1523" d="M147 608v826h228v-834q0 -197 100 -307.5t286.5 -110.5t287 110.5t100.5 307.5v834h227v-826q0 -301 -163.5 -469t-450.5 -168t-451 168t-164 469zM338 1628l457 244l79 -156l-468 -213zM733 1628l457 244l80 -156l-469 -213z" />
<glyph unicode="&#x172;" horiz-adv-x="1523" d="M147 608v826h228v-834q0 -197 100 -307.5t286.5 -110.5t287 110.5t100.5 307.5v834h227v-826q0 -242 -108.5 -399.5t-302.5 -210.5q-96 -37 -149.5 -83t-53.5 -122q0 -63 43 -105t115 -42q57 0 109 37.5t79 91.5l119 -78q-41 -82 -127 -138.5t-180 -56.5 q-135 0 -226.5 76t-91.5 199q0 119 105 196q-262 16 -411 183.5t-149 451.5z" />
<glyph unicode="&#x173;" horiz-adv-x="1523" d="M147 608v826h228v-834q0 -197 100 -307.5t286.5 -110.5t287 110.5t100.5 307.5v834h227v-826q0 -242 -108.5 -399.5t-302.5 -210.5q-96 -37 -149.5 -83t-53.5 -122q0 -63 43 -105t115 -42q57 0 109 37.5t79 91.5l119 -78q-41 -82 -127 -138.5t-180 -56.5 q-135 0 -226.5 76t-91.5 199q0 119 105 196q-262 16 -411 183.5t-149 451.5z" />
<glyph unicode="&#x174;" horiz-adv-x="2052" d="M16 1434h242l393 -981l15 -56l14 56l285 766h122l285 -766l14 -56l15 56l393 981h242l-574 -1434h-155l-265 727l-16 61l-18 -61l-265 -727h-155zM680 1606l336 284l338 -284l-90 -97l-248 205l-248 -205z" />
<glyph unicode="&#x175;" horiz-adv-x="2052" d="M16 1434h242l393 -981l15 -56l14 56l285 766h122l285 -766l14 -56l15 56l393 981h242l-574 -1434h-155l-265 727l-16 61l-18 -61l-265 -727h-155zM680 1606l336 284l338 -284l-90 -97l-248 205l-248 -205z" />
<glyph unicode="&#x176;" horiz-adv-x="1409" d="M18 1434h275l387 -508l25 -45l26 45l385 508h277l-574 -764v-670h-227v670zM358 1606l336 284l338 -284l-90 -97l-248 205l-248 -205z" />
<glyph unicode="&#x177;" horiz-adv-x="1409" d="M18 1434h275l387 -508l25 -45l26 45l385 508h277l-574 -764v-670h-227v670zM358 1606l336 284l338 -284l-90 -97l-248 205l-248 -205z" />
<glyph unicode="&#x178;" horiz-adv-x="1409" d="M18 1434h275l387 -508l25 -45l26 45l385 508h277l-574 -764v-670h-227v670zM324 1686q0 47 33.5 80.5t82.5 33.5t83 -33.5t34 -80.5q0 -49 -34 -83t-83 -34t-82.5 33.5t-33.5 83.5zM831 1686q0 47 34 80.5t83 33.5t83 -33.5t34 -80.5q0 -49 -34 -83t-83 -34t-83 33.5 t-34 83.5z" />
<glyph unicode="&#x179;" horiz-adv-x="1427" d="M123 0v211l850 979l41 35l-64 -4h-807v213h1162v-211l-842 -977l-41 -37l63 4h820v-213h-1182zM506 1628l457 244l79 -156l-469 -213z" />
<glyph unicode="&#x17a;" horiz-adv-x="1427" d="M123 0v211l850 979l41 35l-64 -4h-807v213h1162v-211l-842 -977l-41 -37l63 4h820v-213h-1182zM506 1628l457 244l79 -156l-469 -213z" />
<glyph unicode="&#x17b;" horiz-adv-x="1427" d="M123 0v211l850 979l41 35l-64 -4h-807v213h1162v-211l-842 -977l-41 -37l63 4h820v-213h-1182zM612 1686q0 47 34 80.5t83 33.5t83 -33.5t34 -80.5q0 -49 -34 -83t-83 -34t-83 33.5t-34 83.5z" />
<glyph unicode="&#x17c;" horiz-adv-x="1427" d="M123 0v211l850 979l41 35l-64 -4h-807v213h1162v-211l-842 -977l-41 -37l63 4h820v-213h-1182zM612 1686q0 47 34 80.5t83 33.5t83 -33.5t34 -80.5q0 -49 -34 -83t-83 -34t-83 33.5t-34 83.5z" />
<glyph unicode="&#x17d;" horiz-adv-x="1427" d="M123 0v211l850 979l41 35l-64 -4h-807v213h1162v-211l-842 -977l-41 -37l63 4h820v-213h-1182zM389 1780l336 -285l338 285l-90 96l-248 -205l-248 205z" />
<glyph unicode="&#x17e;" horiz-adv-x="1427" d="M123 0v211l850 979l41 35l-64 -4h-807v213h1162v-211l-842 -977l-41 -37l63 4h820v-213h-1182zM389 1780l336 -285l338 285l-90 96l-248 -205l-248 205z" />
<glyph unicode="&#x218;" horiz-adv-x="1232" d="M61 397l222 60q18 -117 115.5 -199t242.5 -82q129 0 209 60.5t80 152.5q0 31 -11.5 58.5t-26.5 48t-47 42t-55.5 34t-69.5 29.5l-70 25q-25 9 -78.5 25.5t-75.5 24.5q-66 23 -108 39t-101.5 50t-94 70.5t-60.5 96t-26 129.5q0 170 145.5 285.5t366.5 115.5 q197 0 341.5 -107.5t185.5 -279.5l-217 -59q-25 117 -112 183.5t-206 66.5q-121 0 -196.5 -52.5t-75.5 -144.5q0 -43 22.5 -75.5t74.5 -59.5t93 -42t123 -42q35 -10 51 -16q84 -27 129.5 -43.5t119 -55.5t112.5 -79t69.5 -107.5t30.5 -149.5q0 -186 -148.5 -307t-385.5 -121 q-223 0 -371.5 117t-196.5 309zM465 -545q45 39 83 109t38 123l22 8l-22 4q-35 2 -64.5 30.5t-29.5 75.5q0 49 33.5 82t84.5 33q47 0 81 -38t34 -97q0 -84 -51 -174t-125 -156h-84z" />
<glyph unicode="&#x219;" horiz-adv-x="1232" d="M61 397l222 60q18 -117 115.5 -199t242.5 -82q129 0 209 60.5t80 152.5q0 31 -11.5 58.5t-26.5 48t-47 42t-55.5 34t-69.5 29.5l-70 25q-25 9 -78.5 25.5t-75.5 24.5q-66 23 -108 39t-101.5 50t-94 70.5t-60.5 96t-26 129.5q0 170 145.5 285.5t366.5 115.5 q197 0 341.5 -107.5t185.5 -279.5l-217 -59q-25 117 -112 183.5t-206 66.5q-121 0 -196.5 -52.5t-75.5 -144.5q0 -43 22.5 -75.5t74.5 -59.5t93 -42t123 -42q35 -10 51 -16q84 -27 129.5 -43.5t119 -55.5t112.5 -79t69.5 -107.5t30.5 -149.5q0 -186 -148.5 -307t-385.5 -121 q-223 0 -371.5 117t-196.5 309zM465 -545q45 39 83 109t38 123l22 8l-22 4q-35 2 -64.5 30.5t-29.5 75.5q0 49 33.5 82t84.5 33q47 0 81 -38t34 -97q0 -84 -51 -174t-125 -156h-84z" />
<glyph unicode="&#x21a;" horiz-adv-x="1226" d="M37 1221v213h1153v-213h-465v-1221h-227v1221h-461zM459 -545q45 39 83 108.5t38 123.5l22 8l-22 4q-35 2 -65 30.5t-30 75.5q0 49 34 82t85 33q47 0 81 -38t34 -97q0 -84 -51.5 -174t-124.5 -156h-84z" />
<glyph unicode="&#x21b;" horiz-adv-x="1226" d="M37 1221v213h1153v-213h-465v-1221h-227v1221h-461zM459 -545q45 39 83 108.5t38 123.5l22 8l-22 4q-35 2 -65 30.5t-30 75.5q0 49 34 82t85 33q47 0 81 -38t34 -97q0 -84 -51.5 -174t-124.5 -156h-84z" />
<glyph unicode="&#x237;" horiz-adv-x="1357" d="M20 358l224 60q37 -111 131 -173.5t221 -62.5q186 0 287.5 109.5t101.5 306.5v836h227v-826q0 -301 -164.5 -469t-451.5 -168q-205 0 -362.5 108.5t-213.5 278.5z" />
<glyph unicode="&#x2c6;" horiz-adv-x="776" d="M14 1606l336 284l338 -284l-90 -97l-248 205l-248 -205z" />
<glyph unicode="&#x2c7;" horiz-adv-x="776" d="M14 1780l336 -285l338 285l-90 96l-248 -205l-248 205z" />
<glyph unicode="&#x2d8;" horiz-adv-x="692" d="M14 1765h140q12 -51 56 -85.5t99.5 -34.5t100.5 34.5t55 85.5h137q-23 -106 -104.5 -173.5t-188.5 -67.5q-113 0 -194 67.5t-101 173.5z" />
<glyph unicode="&#x2d9;" horiz-adv-x="335" d="M14 1686q0 47 34 80.5t83 33.5t83 -33.5t34 -80.5q0 -49 -34 -83t-83 -34t-83 33.5t-34 83.5z" />
<glyph unicode="&#x2da;" horiz-adv-x="565" d="M14 1593.5q0 96.5 68 164t164 67.5q94 0 162.5 -68.5t68.5 -163t-67.5 -162t-163.5 -67.5t-164 66.5t-68 163zM135 1595q0 -45 33 -77.5t78 -32.5t78.5 32.5t33.5 77.5q0 47 -32.5 79t-79.5 32q-45 0 -78 -32t-33 -79z" />
<glyph unicode="&#x2db;" horiz-adv-x="1228" d="M203 -201q0 131 92 215t186 84l148 -98q-102 0 -181 -50t-79 -151q0 -63 46 -108t122 -45q57 0 110 37t78 90l121 -80q-45 -84 -132 -137.5t-184 -53.5q-143 0 -235 82t-92 215z" />
<glyph unicode="&#x2dc;" horiz-adv-x="903" d="M2 1567q0 109 72.5 178.5t185.5 69.5q76 0 165 -60.5t126 -60.5q41 0 68.5 26.5t27.5 67.5h180q0 -109 -72.5 -178.5t-185.5 -69.5q-70 0 -160 59.5t-130 59.5q-43 0 -71 -25.5t-28 -66.5h-178z" />
<glyph unicode="&#x2dd;" horiz-adv-x="1034" d="M-18 1628l456 244l80 -156l-469 -213zM377 1628l457 244l79 -156l-469 -213z" />
<glyph unicode="&#x326;" horiz-adv-x="0" d="M123 -545q45 39 83 109t38 123l22 8l-22 4q-35 0 -64.5 29.5t-29.5 76.5q0 49 34.5 82t83.5 33q47 0 81 -38t34 -97q0 -86 -50 -174t-126 -156h-84z" />
<glyph unicode="&#x1e80;" horiz-adv-x="2052" d="M16 1434h242l393 -981l15 -56l14 56l285 766h122l285 -766l14 -56l15 56l393 981h242l-574 -1434h-155l-265 727l-16 61l-18 -61l-265 -727h-155zM666 1716l79 156l455 -244l-67 -125z" />
<glyph unicode="&#x1e81;" horiz-adv-x="2052" d="M16 1434h242l393 -981l15 -56l14 56l285 766h122l285 -766l14 -56l15 56l393 981h242l-574 -1434h-155l-265 727l-16 61l-18 -61l-265 -727h-155zM666 1716l79 156l455 -244l-67 -125z" />
<glyph unicode="&#x1e82;" horiz-adv-x="2052" d="M16 1434h242l393 -981l15 -56l14 56l285 766h122l285 -766l14 -56l15 56l393 981h242l-574 -1434h-155l-265 727l-16 61l-18 -61l-265 -727h-155zM803 1628l457 244l79 -156l-469 -213z" />
<glyph unicode="&#x1e83;" horiz-adv-x="2052" d="M16 1434h242l393 -981l15 -56l14 56l285 766h122l285 -766l14 -56l15 56l393 981h242l-574 -1434h-155l-265 727l-16 61l-18 -61l-265 -727h-155zM803 1628l457 244l79 -156l-469 -213z" />
<glyph unicode="&#x1e84;" horiz-adv-x="2052" d="M16 1434h242l393 -981l15 -56l14 56l285 766h122l285 -766l14 -56l15 56l393 981h242l-574 -1434h-155l-265 727l-16 61l-18 -61l-265 -727h-155zM645 1686q0 47 34 80.5t83 33.5t83 -33.5t34 -80.5q0 -49 -34 -83t-83 -34t-83 33.5t-34 83.5zM1153 1686q0 47 34 80.5 t83 33.5t82.5 -33.5t33.5 -80.5q0 -49 -33.5 -83t-82.5 -34t-83 33.5t-34 83.5z" />
<glyph unicode="&#x1e85;" horiz-adv-x="2052" d="M16 1434h242l393 -981l15 -56l14 56l285 766h122l285 -766l14 -56l15 56l393 981h242l-574 -1434h-155l-265 727l-16 61l-18 -61l-265 -727h-155zM645 1686q0 47 34 80.5t83 33.5t83 -33.5t34 -80.5q0 -49 -34 -83t-83 -34t-83 33.5t-34 83.5zM1153 1686q0 47 34 80.5 t83 33.5t82.5 -33.5t33.5 -80.5q0 -49 -33.5 -83t-82.5 -34t-83 33.5t-34 83.5z" />
<glyph unicode="&#x1e9e;" horiz-adv-x="1630" d="M180 0v1434h1227l-340 -592q227 -12 354 -127t127 -297q0 -190 -140 -318.5t-359 -128.5q-162 0 -299.5 77t-206.5 204l215 59q94 -145 280 -145q125 0 203 71.5t78 178.5q0 98 -74 167.5t-207 73.5h-188v185l199 344l34 39l-61 -4h-614v-1221h-228z" />
<glyph unicode="&#x1ef2;" horiz-adv-x="1409" d="M18 1434h275l387 -508l25 -45l26 45l385 508h277l-574 -764v-670h-227v670zM344 1716l80 156l455 -244l-68 -125z" />
<glyph unicode="&#x1ef3;" horiz-adv-x="1409" d="M18 1434h275l387 -508l25 -45l26 45l385 508h277l-574 -764v-670h-227v670zM344 1716l80 156l455 -244l-68 -125z" />
<glyph unicode="&#x2009;" horiz-adv-x="307" />
<glyph unicode="&#x200a;" horiz-adv-x="102" />
<glyph unicode="&#x2013;" horiz-adv-x="1021" d="M82 623v208h858v-208h-858z" />
<glyph unicode="&#x2014;" horiz-adv-x="1902" d="M82 623v208h1739v-208h-1739z" />
<glyph unicode="&#x2018;" horiz-adv-x="634" d="M193 1112q0 90 53 184.5t131 163.5h90q-49 -41 -89 -114.5t-40 -128.5l-23 -9l23 -4q39 -2 69.5 -32.5t30.5 -79.5q0 -51 -35.5 -86t-89.5 -35q-51 0 -85.5 40t-34.5 101z" />
<glyph unicode="&#x2019;" horiz-adv-x="634" d="M180 971q49 41 89 114.5t40 128.5l23 9l-23 4q-39 2 -69.5 32.5t-30.5 79.5q0 51 36 86t89 35q51 0 86 -40t35 -101q0 -90 -53.5 -184.5t-131.5 -163.5h-90z" />
<glyph unicode="&#x201a;" horiz-adv-x="634" d="M180 -270q49 41 89 114.5t40 128.5l23 9l-23 4q-39 2 -69.5 32.5t-30.5 79.5q0 51 36 86t89 35q51 0 86 -40t35 -101q0 -90 -53.5 -184.5t-131.5 -163.5h-90z" />
<glyph unicode="&#x201c;" horiz-adv-x="1042" d="M193 1112q0 90 53 184.5t131 163.5h90q-49 -41 -89 -114.5t-40 -128.5l-23 -9l23 -4q39 -2 69.5 -32.5t30.5 -79.5q0 -51 -35.5 -86t-89.5 -35q-51 0 -85.5 40t-34.5 101zM600 1112q0 90 53.5 184.5t130.5 163.5h90q-49 -41 -89 -114.5t-40 -128.5l-22 -9l22 -4 q39 -2 70 -32.5t31 -79.5q0 -51 -36 -86t-89 -35q-51 0 -86 40t-35 101z" />
<glyph unicode="&#x201d;" horiz-adv-x="1042" d="M168 971q49 41 89 114.5t40 128.5l22 9l-22 4q-39 2 -69.5 32.5t-30.5 79.5q0 51 35.5 86t89.5 35q51 0 85.5 -40t34.5 -101q0 -90 -53 -184.5t-131 -163.5h-90zM575 971q49 41 89.5 114.5t40.5 128.5l22 9l-22 4q-39 2 -70 32.5t-31 79.5q0 51 36 86t89 35q51 0 86 -40 t35 -101q0 -90 -53.5 -184.5t-130.5 -163.5h-91z" />
<glyph unicode="&#x201e;" horiz-adv-x="1024" d="M168 -270q49 41 89 114.5t40 128.5l22 9l-22 4q-39 2 -69.5 32.5t-30.5 79.5q0 51 35.5 86t89.5 35q51 0 85.5 -40t34.5 -101q0 -90 -53 -184.5t-131 -163.5h-90zM557 -270q49 41 89 114.5t40 128.5l23 9l-23 4q-39 2 -69.5 32.5t-30.5 79.5q0 51 35.5 86t89.5 35 q51 0 85.5 -40t34.5 -101q0 -90 -53 -184.5t-131 -163.5h-90z" />
<glyph unicode="&#x2022;" horiz-adv-x="794" d="M180 727q0 90 63.5 152.5t155.5 62.5q88 0 151.5 -63.5t63.5 -151.5q0 -92 -62.5 -155.5t-152.5 -63.5q-92 0 -155.5 63.5t-63.5 155.5z" />
<glyph unicode="&#x2026;" horiz-adv-x="1531" d="M123 72q0 41 29.5 69.5t70.5 28.5t70 -28.5t29 -69.5t-29 -71t-70 -30t-70.5 30t-29.5 71zM655 72q0 41 30 69.5t71 28.5t69.5 -28.5t28.5 -69.5t-28.5 -71t-69.5 -30t-71 30t-30 71zM1208 72q0 41 30 69.5t71 28.5t69.5 -28.5t28.5 -69.5t-28.5 -71t-69.5 -30t-71 30 t-30 71z" />
<glyph unicode="&#x2030;" horiz-adv-x="2746" d="M84 1051q0 182 104.5 296.5t272.5 114.5t271.5 -114.5t103.5 -296.5q0 -184 -103.5 -298t-271.5 -114t-272.5 113.5t-104.5 298.5zM252 1050.5q0 -112.5 58.5 -181t150.5 -68.5t149.5 68.5t57.5 181t-57.5 181t-149.5 68.5t-150.5 -68.5t-58.5 -181zM412 0l891 1434h155 l-891 -1434h-155zM1047 383q0 182 104 297t272 115t271.5 -115t103.5 -297q0 -184 -103.5 -298t-271.5 -114t-272 114t-104 298zM1214 383q0 -113 58.5 -181.5t151 -68.5t149.5 68.5t57 181.5t-57 181.5t-149.5 68.5t-151 -68.5t-58.5 -181.5zM1911 383q0 182 104.5 297 t272.5 115t271 -115t103 -297q0 -184 -103 -298t-271 -114t-272.5 114t-104.5 298zM2079 383q0 -113 58 -181.5t150.5 -68.5t149.5 68.5t57 181.5t-57 181.5t-149.5 68.5t-150.5 -68.5t-58 -181.5z" />
<glyph unicode="&#x2039;" horiz-adv-x="964" d="M193 729l481 -479l125 127l-367 352l367 354l-123 125z" />
<glyph unicode="&#x203a;" horiz-adv-x="964" d="M180 377l367 352l-367 354l123 125l483 -479l-481 -479z" />
<glyph unicode="&#x2044;" horiz-adv-x="1304" d="M123 0l891 1434h155l-890 -1434h-156z" />
<glyph unicode="&#x20ac;" horiz-adv-x="1642" d="M84 522v154h94v41v37h-94v153h117q61 246 258.5 398.5t458.5 152.5q209 0 380.5 -101.5t266.5 -273.5l-230 -57q-66 98 -175 155.5t-240 57.5q-168 0 -299.5 -90t-184.5 -242h506v-153h-536q-2 -12 -3 -37q0 -27 3 -41h534v-154h-502q55 -147 185.5 -235t296.5 -88 q143 0 262 67.5t180 182.5l227 -58q-90 -193 -269 -304.5t-402 -111.5q-258 0 -456 152t-259 395h-119z" />
<glyph unicode="&#x2116;" horiz-adv-x="2287" d="M193 0v1434h213l751 -977l27 -51l-4 59v969h227v-1434h-213l-750 985l-28 47l4 -55v-977h-227zM1544 1105.5q0 151.5 101.5 252t249 100.5t250 -100.5t102.5 -251.5q0 -150 -102.5 -250t-250 -100t-249 99t-101.5 250.5zM1565 557v115h661v-115h-661zM1677 1106 q0 -98 61.5 -161.5t155.5 -63.5q96 0 158 63.5t62 161.5q0 100 -61.5 163.5t-158.5 63.5q-94 0 -155.5 -63.5t-61.5 -163.5z" />
<glyph unicode="&#x2122;" horiz-adv-x="1716" d="M37 1303v131h641v-131h-250v-586h-143v586h-248zM801 717v717h135l235 -359l232 359h133v-715h-133v459l4 49l-27 -49l-178 -283h-59l-185 283l-26 49l4 -49v-461h-135z" />
<glyph unicode="&#x2212;" horiz-adv-x="1349" d="M180 633v188h989v-188h-989z" />
<glyph unicode="&#x2260;" horiz-adv-x="1349" d="M180 412v188h336l119 231h-455v189h551l129 252h211l-127 -252h225v-189h-321l-117 -231h438v-188h-534l-117 -232h-217l119 232h-240z" />
<glyph unicode="&#x2264;" horiz-adv-x="1370" d="M201 -20h989v188h-989v-188zM231 752l574 -418h280l-561 418l647 499h-276z" />
<glyph unicode="&#x2265;" horiz-adv-x="1370" d="M180 -20v188h989v-188h-989zM199 1251h276l664 -499l-574 -418h-280l561 418z" />
<glyph unicode="&#xe000;" horiz-adv-x="1435" d="M0 1435h1435v-1435h-1435v1435z" />
<glyph horiz-adv-x="1554" d="M84 716.5q0 321.5 216 533.5t527 212q207 0 380.5 -101.5t271.5 -275.5l-232 -61q-66 100 -178.5 157.5t-241.5 57.5q-223 0 -365.5 -145.5t-142.5 -377t144.5 -375.5t363.5 -144q143 0 264 68.5t183 185.5l227 -62q-92 -193 -271 -305.5t-403 -112.5q-311 0 -527 212 t-216 533.5zM750 1577l225 354l145 -84l-262 -336z" />
<glyph horiz-adv-x="1599" d="M193 0v1434h213l747 -619l31 -33l-4 58v594h227v-1434h-227v500l-736 608l-28 31l4 -58v-1081h-227z" />
<glyph horiz-adv-x="1599" d="M193 0v1434h213l751 -977l27 -51l-4 59v969h227v-1434h-213l-750 985l-28 47l4 -55v-977h-227zM737 1577l226 354l145 -84l-262 -336z" />
<glyph horiz-adv-x="1599" d="M193 0v1434h213l747 -619l31 -33l-4 58v594h227v-1434h-227v500l-736 608l-28 31l4 -58v-1081h-227zM737 1577l226 354l145 -84l-262 -336z" />
<glyph horiz-adv-x="1599" d="M193 0v1434h213l747 -619l31 -33l-4 58v594h227v-1434h-227v500l-736 608l-28 31l4 -58v-1081h-227zM590 1628l457 244l79 -156l-469 -213z" />
<glyph horiz-adv-x="1599" d="M193 0v1434h213l747 -619l31 -33l-4 58v594h227v-1434h-227v500l-736 608l-28 31l4 -58v-1081h-227zM473 1780l336 -285l338 285l-90 96l-248 -205l-248 205z" />
<glyph horiz-adv-x="1599" d="M193 0v1434h213l747 -619l31 -33l-4 58v594h227v-1434h-227v500l-736 608l-28 31l4 -58v-1081h-227zM666 -545q45 39 82.5 109t37.5 123l23 8l-23 4q-35 2 -64.5 30.5t-29.5 75.5q0 49 34 82t85 33q47 0 81 -38t34 -97q0 -84 -51.5 -174t-124.5 -156h-84z" />
<glyph horiz-adv-x="1599" d="M193 0v1434h213l747 -619l31 -33l-4 58v594h227v-1434h-227v500l-736 608l-28 31l4 -58v-1081h-227zM395 1567q0 109 73 178.5t185 69.5q76 0 165 -60.5t126 -60.5q41 0 68.5 26.5t27.5 67.5h181q0 -109 -73 -178.5t-185 -69.5q-70 0 -160 59.5t-131 59.5 q-43 0 -71 -25.5t-28 -66.5h-178z" />
<glyph d="M84 716.5q0 321.5 216 533.5t527 212q313 0 529.5 -212t216.5 -533.5t-216 -533.5t-530 -212q-311 0 -527 212t-216 533.5zM319 717q0 -231 142.5 -376.5t365.5 -145.5q221 0 365.5 146t144.5 376q0 233 -144 377.5t-366 144.5q-223 0 -365.5 -144.5t-142.5 -377.5z M766 1577l225 354l146 -84l-263 -336z" />
<glyph horiz-adv-x="1697" d="M84 731.5q0 315.5 215 524t526.5 208.5t527.5 -208.5t216 -524.5q0 -303 -205 -512l8 2h246v-221h-774h-19q-311 0 -526 208t-215 523.5zM319 731q0 -227 144.5 -367.5t361.5 -140.5q215 0 361.5 141.5t146.5 366.5q0 227 -146.5 368.5t-361.5 141.5 q-217 0 -361.5 -141.5t-144.5 -368.5z" />
<glyph horiz-adv-x="1232" d="M61 397l222 60q18 -117 115.5 -199t242.5 -82q129 0 209 60.5t80 152.5q0 31 -11.5 58.5t-26.5 48t-47 42t-55.5 34t-69.5 29.5l-70 25q-25 9 -78.5 25.5t-75.5 24.5q-66 23 -108 39t-101.5 50t-94 70.5t-60.5 96t-26 129.5q0 170 145.5 285.5t366.5 115.5 q197 0 341.5 -107.5t185.5 -279.5l-217 -59q-25 117 -112 183.5t-206 66.5q-121 0 -196.5 -52.5t-75.5 -144.5q0 -43 22.5 -75.5t74.5 -59.5t93 -42t123 -42q35 -10 51 -16q84 -27 129.5 -43.5t119 -55.5t112.5 -79t69.5 -107.5t30.5 -149.5q0 -186 -148.5 -307t-385.5 -121 q-223 0 -371.5 117t-196.5 309zM569 1577l226 354l145 -84l-262 -336z" />
<glyph horiz-adv-x="1427" d="M123 0v211l850 979l41 35l-64 -4h-807v213h1162v-211l-842 -977l-41 -37l63 4h820v-213h-1182zM653 1577l226 354l145 -84l-262 -336z" />
<glyph horiz-adv-x="1554" d="M84 716.5q0 321.5 216 533.5t527 212q207 0 380.5 -101.5t271.5 -275.5l-232 -61q-66 100 -178.5 157.5t-241.5 57.5q-223 0 -365.5 -145.5t-142.5 -377t144.5 -375.5t363.5 -144q143 0 264 68.5t183 185.5l227 -62q-92 -193 -271 -305.5t-403 -112.5q-311 0 -527 212 t-216 533.5zM750 1577l225 354l145 -84l-262 -336z" />
<glyph horiz-adv-x="1599" d="M193 0v1434h213l747 -619l31 -33l-4 58v594h227v-1434h-227v500l-736 608l-28 31l4 -58v-1081h-227z" />
<glyph horiz-adv-x="1599" d="M193 0v1434h213l751 -977l27 -51l-4 59v969h227v-1434h-213l-750 985l-28 47l4 -55v-977h-227zM737 1577l226 354l145 -84l-262 -336z" />
<glyph horiz-adv-x="1599" d="M193 0v1434h213l747 -619l31 -33l-4 58v594h227v-1434h-227v500l-736 608l-28 31l4 -58v-1081h-227zM737 1577l226 354l145 -84l-262 -336z" />
<glyph horiz-adv-x="1599" d="M193 0v1434h213l747 -619l31 -33l-4 58v594h227v-1434h-227v500l-736 608l-28 31l4 -58v-1081h-227zM590 1628l457 244l79 -156l-469 -213z" />
<glyph horiz-adv-x="1599" d="M193 0v1434h213l747 -619l31 -33l-4 58v594h227v-1434h-227v500l-736 608l-28 31l4 -58v-1081h-227zM473 1780l336 -285l338 285l-90 96l-248 -205l-248 205z" />
<glyph horiz-adv-x="1599" d="M193 0v1434h213l747 -619l31 -33l-4 58v594h227v-1434h-227v500l-736 608l-28 31l4 -58v-1081h-227zM666 -545q45 39 82.5 109t37.5 123l23 8l-23 4q-35 2 -64.5 30.5t-29.5 75.5q0 49 34 82t85 33q47 0 81 -38t34 -97q0 -84 -51.5 -174t-124.5 -156h-84z" />
<glyph horiz-adv-x="1599" d="M193 0v1434h213l747 -619l31 -33l-4 58v594h227v-1434h-227v500l-736 608l-28 31l4 -58v-1081h-227zM395 1567q0 109 73 178.5t185 69.5q76 0 165 -60.5t126 -60.5q41 0 68.5 26.5t27.5 67.5h181q0 -109 -73 -178.5t-185 -69.5q-70 0 -160 59.5t-131 59.5 q-43 0 -71 -25.5t-28 -66.5h-178z" />
<glyph d="M84 716.5q0 321.5 216 533.5t527 212q313 0 529.5 -212t216.5 -533.5t-216 -533.5t-530 -212q-311 0 -527 212t-216 533.5zM319 717q0 -231 142.5 -376.5t365.5 -145.5q221 0 365.5 146t144.5 376q0 233 -144 377.5t-366 144.5q-223 0 -365.5 -144.5t-142.5 -377.5z M766 1577l225 354l146 -84l-263 -336z" />
<glyph horiz-adv-x="1697" d="M84 731.5q0 315.5 215 524t526.5 208.5t527.5 -208.5t216 -524.5q0 -303 -205 -512l8 2h246v-221h-774h-19q-311 0 -526 208t-215 523.5zM319 731q0 -227 144.5 -367.5t361.5 -140.5q215 0 361.5 141.5t146.5 366.5q0 227 -146.5 368.5t-361.5 141.5 q-217 0 -361.5 -141.5t-144.5 -368.5z" />
<glyph horiz-adv-x="1232" d="M61 397l222 60q18 -117 115.5 -199t242.5 -82q129 0 209 60.5t80 152.5q0 31 -11.5 58.5t-26.5 48t-47 42t-55.5 34t-69.5 29.5l-70 25q-25 9 -78.5 25.5t-75.5 24.5q-66 23 -108 39t-101.5 50t-94 70.5t-60.5 96t-26 129.5q0 170 145.5 285.5t366.5 115.5 q197 0 341.5 -107.5t185.5 -279.5l-217 -59q-25 117 -112 183.5t-206 66.5q-121 0 -196.5 -52.5t-75.5 -144.5q0 -43 22.5 -75.5t74.5 -59.5t93 -42t123 -42q35 -10 51 -16q84 -27 129.5 -43.5t119 -55.5t112.5 -79t69.5 -107.5t30.5 -149.5q0 -186 -148.5 -307t-385.5 -121 q-223 0 -371.5 117t-196.5 309zM569 1577l226 354l145 -84l-262 -336z" />
<glyph horiz-adv-x="1427" d="M123 0v211l850 979l41 35l-64 -4h-807v213h1162v-211l-842 -977l-41 -37l63 4h820v-213h-1182zM653 1577l226 354l145 -84l-262 -336z" />
<glyph horiz-adv-x="602" d="M180 389q0 51 36 86t85 35q51 0 86 -36t35 -85q0 -51 -35 -86t-86 -35t-86 35t-35 86zM180 1009.5q0 51.5 36 86t85 34.5q51 0 86 -35.5t35 -84.5q0 -51 -35 -86t-86 -35t-86 34.5t-35 86z" />
<glyph horiz-adv-x="645" d="M168 25q49 41 89 114.5t40 128.5l22 8l-22 5q-39 2 -69.5 32.5t-30.5 79.5q0 51 35.5 86t89.5 35q51 0 85.5 -40t34.5 -101q0 -90 -53 -184.5t-131 -163.5h-90zM197 1012q0 51 35.5 86t84.5 35q51 0 86 -36t35 -85q0 -51 -34.5 -86t-86 -35t-86 35t-34.5 86z" />
<glyph horiz-adv-x="1626" d="M180 4q12 -6 33 -6q49 0 49 35q0 23 -29 33q-23 8 -22 14q0 8 14 8q9 0 25 -8l6 24q-10 6 -31 7q-43 0 -43 -35q0 -23 31 -33q18 -6 18 -12q0 -10 -14 -11q-4 0 -29 9zM180 168h88q190 0 297 8t129.5 16.5t38.5 24.5l55 47l23 21l27 -21l55 -47q16 -16 37.5 -23.5 t127 -16.5t298.5 -9h90v92q0 186 -9.5 290.5t-16.5 125t-19 39.5l-51 59l-23 27l23 24l45 54q16 16 24 38.5t17.5 127t9.5 298.5v91h-90q-193 0 -298.5 -9.5t-127 -17.5t-39.5 -25l-41 -34l-35 -33l-37 33l-41 38q-16 14 -38.5 21.5t-129 17t-301.5 9.5h-88v-91 q0 -190 8.5 -296.5t16.5 -128t22 -39.5l49 -56l21 -22l-21 -25l-49 -55q-14 -16 -22 -37.5t-16.5 -128t-8.5 -299.5v-88zM264 109l35 -68v-41h29v41l34 68h-32l-17 -48l-14 48h-35zM358 348q8 227 15 270l162 183l-162 182q-6 41 -15 272q201 -4 273 -14l180 -166l186 166 q72 10 271 14q-8 -229 -15 -272l-166 -182l166 -187q8 -74 15 -266q-217 4 -273 14l-184 162l-182 -162q-51 -10 -271 -14zM373 0h26v72l39 -72h31v109h-27v-66l-32 66h-37v-109zM479 86h29v-86h27v86h28v23h-84v-23zM573 0h31v43h37v-43h29v109h-29v-41h-37v41h-31v-109z M680 109l35 -109h33l34 109h-30l-21 -80l-18 80h-33zM793 0h30v109h-30v-109zM840 0h73v23h-43v20h39v23h-39v20h43v23h-73v-109zM922 109l26 -109h31l14 72l13 -72h32l27 109h-29l-14 -74l-12 74h-31l-12 -74l-15 74h-30zM1055 10.5q0 12.5 12 12.5t12 -12.5t-12 -12.5 t-12 12.5zM1081 51q0 -53 58 -53q16 0 28 4l-6 25q-6 -6 -18 -7q-31 0 -31 33q0 35 31 35q12 0 18 -6l8 24q-8 4 -28 5q-27 0 -43.5 -15.5t-16.5 -44.5zM1171 53q0 -55 55.5 -55t55.5 55q0 25 -15.5 41.5t-40 16.5t-40 -16.5t-15.5 -41.5zM1202 53q0 35 25 35q23 0 22 -35 q0 -33 -22 -33q-25 0 -25 33zM1290 0h31v82l22 -80h21l22 80v-82h29l-4 109h-39l-18 -70l-17 70h-39z" />
</font>
</defs>
</svg>
