<?xml version="1.0" standalone="no"?>
<!DOCTYPE svg PUBLIC "-//W3C//DTD SVG 1.1//EN" "http://www.w3.org/Graphics/SVG/1.1/DTD/svg11.dtd" >
<svg xmlns="http://www.w3.org/2000/svg">
<metadata>
This is a custom SVG webfont generated by Font Squirrel.
Copyright   : Copyright  2011 by Jan Tonellato All rights reserved
Designer    : Jan Tonellato
Foundry     : Jan Tonellato
Foundry URL : typographysynthviewcom
</metadata>
<defs>
<font id="NovecentowideNormal" horiz-adv-x="1665" >
<font-face units-per-em="2048" ascent="1638" descent="-410" />
<missing-glyph horiz-adv-x="819" />
<glyph unicode=" "  horiz-adv-x="819" />
<glyph unicode="&#x09;" horiz-adv-x="819" />
<glyph unicode="&#xa0;" horiz-adv-x="819" />
<glyph unicode="!" horiz-adv-x="546" d="M188 0v322h170v-322h-170zM188 467v967h170v-967h-170z" />
<glyph unicode="&#x22;" horiz-adv-x="909" d="M170 1014v444h170v-444h-170zM532 1014v444h170v-444h-170z" />
<glyph unicode="#" horiz-adv-x="1757" d="M88 434l80 150h299l145 284h-303l80 152h301l211 414h168l-211 -414h316l210 414h168l-211 -414h326l-78 -152h-323l-146 -284h326l-80 -150h-322l-221 -434h-172l221 434h-311l-221 -434h-172l221 434h-301zM637 584h313l146 284h-314z" />
<glyph unicode="$" horiz-adv-x="1241" d="M70 395l174 47q14 -131 117.5 -220t267.5 -89q152 0 243 70.5t91 181.5q0 37 -12.5 68.5t-30 54t-51 46.5t-58.5 38t-73 32l-74 26q-27 9 -82 26l-74 22q-68 20 -109 36t-103.5 48.5t-97 68.5t-62 93t-27.5 127q0 150 117.5 257.5t301.5 129.5v160h172v-162 q164 -23 278.5 -124t147.5 -255l-170 -45q-25 127 -121 201t-229 74q-141 0 -228 -60.5t-87 -169.5q0 -66 56 -116t108.5 -69.5t173.5 -55.5q31 -10 45 -15l91 -27q30 -10 89 -33.5t91 -43t77 -54t66.5 -71.5t39 -89t17.5 -112q0 -166 -122 -280.5t-323 -135.5v-159h-172 v161q-186 25 -305 136.5t-153 281.5z" />
<glyph unicode="%" horiz-adv-x="1853" d="M88 1050.5q0 184.5 103.5 298t271.5 113.5t272.5 -114.5t104.5 -296.5q0 -184 -104.5 -298t-272.5 -114t-271.5 113.5t-103.5 298zM227 1051q0 -127 66 -203t170 -76q106 0 171.5 76t65.5 203t-65.5 202.5t-171.5 75.5q-104 0 -170 -75.5t-66 -202.5zM406 0l903 1434h127 l-904 -1434h-126zM1014 383q0 184 103.5 298t271 114t272 -115t104.5 -297q0 -184 -104.5 -298t-272 -114t-271 114t-103.5 298zM1153 383q0 -127 66 -203t170 -76q106 0 171.5 76t65.5 203t-65.5 203t-171.5 76q-104 0 -170 -76t-66 -203z" />
<glyph unicode="&#x26;" horiz-adv-x="1439" d="M88 410q0 137 91 228t218 105q-109 16 -192.5 98.5t-83.5 219.5q0 164 123 282.5t360 118.5q211 0 348.5 -106.5t175.5 -302.5l-151 -43q-37 154 -123 225.5t-245.5 71.5t-231.5 -80t-72 -172q0 -104 82 -172t234 -68h796v-147h-254v-164q0 -250 -135 -391.5t-418 -141.5 q-229 0 -375.5 123t-146.5 316zM264 412q0 -123 98.5 -203t247.5 -80q205 0 294 95.5t89 285.5v158h-383q-160 0 -253 -65.5t-93 -190.5z" />
<glyph unicode="'" horiz-adv-x="546" d="M188 1014v444h170v-444h-170z" />
<glyph unicode="(" horiz-adv-x="745" d="M90 713q0 816 541 1009l49 -163q-209 -72 -309.5 -277t-100.5 -569.5t99.5 -569t310.5 -276.5l-49 -162q-88 31 -163 79t-146.5 131t-121.5 190.5t-80 263t-30 344.5z" />
<glyph unicode=")" horiz-adv-x="745" d="M66 -133l49 -162q88 31 162.5 79t146.5 131t122 190.5t79.5 263t29.5 344.5q1 816 -540 1009l-49 -163q209 -72 309 -277t100 -569.5t-99.5 -569t-309.5 -276.5z" />
<glyph unicode="*" horiz-adv-x="1067" d="M188 1137l37 114l248 -82v265h121l-4 -265l252 82l37 -114l-254 -76l159 -215l-96 -72l-156 223l-153 -223l-96 70l157 217z" />
<glyph unicode="+" horiz-adv-x="1347" d="M188 653v150h424v407h162v-407h387v-150h-387v-403h-164v403h-422z" />
<glyph unicode="," horiz-adv-x="485" d="M104 -266q47 45 83 113.5t36 127.5l21 9l-21 2q-35 0 -63.5 27.5t-28.5 70.5q0 45 31 74.5t76 29.5t75.5 -34.5t30.5 -90.5q0 -88 -48 -176t-116 -153h-76z" />
<glyph unicode="-" horiz-adv-x="796" d="M82 645v164h633v-164h-633z" />
<glyph unicode="." horiz-adv-x="454" d="M123 76q0 45 30.5 74.5t73.5 29.5q45 0 75 -30.5t30 -73.5t-31 -74t-74 -31q-45 0 -74.5 31t-29.5 74z" />
<glyph unicode="/" horiz-adv-x="948" d="M23 0l733 1434h168l-729 -1434h-172z" />
<glyph unicode="0" horiz-adv-x="1527" d="M88 716.5q0 325.5 186.5 535.5t489.5 210t489.5 -210t186.5 -535.5t-186.5 -535.5t-489.5 -210t-489.5 210t-186.5 535.5zM272 717q0 -258 131.5 -415t360.5 -157t360 157t131 415t-131 414.5t-360 156.5t-360.5 -156.5t-131.5 -414.5z" />
<glyph unicode="1" horiz-adv-x="854" d="M88 991l455 443h123v-1434h-179v1110l5 61l-33 -38l-256 -248z" />
<glyph unicode="2" horiz-adv-x="1247" d="M106 1073q53 190 190.5 289.5t334.5 99.5q215 0 353 -128t138 -322q0 -156 -83 -273t-226 -223l-461 -350h770v-166h-1003v166l651 530q74 57 121 143.5t47 172.5q0 127 -87 209t-224 82q-139 0 -229.5 -74t-125.5 -199z" />
<glyph unicode="3" horiz-adv-x="1224" d="M88 381l162 45q23 -133 123 -213t254 -80q158 0 240.5 81t82.5 204q0 129 -102.5 189.5t-239.5 60.5h-119v147h119q164 0 244 75t80 179q0 90 -77 162t-234 72q-271 -1 -345 -271l-159 43q41 180 176 283.5t334 103.5q240 0 364.5 -113.5t124.5 -275.5q0 -129 -95 -228.5 t-212 -99.5q137 0 231.5 -95t94.5 -234q0 -201 -141.5 -323t-364.5 -122q-203 0 -355.5 114t-185.5 296z" />
<glyph unicode="4" horiz-adv-x="1320" d="M88 354v158l799 922h147v-922h164v-158h-164v-354h-172v354h-774zM289 512h573v629l2 37l-26 -37z" />
<glyph unicode="5" horiz-adv-x="1269" d="M106 383l164 43q23 -137 116 -217t247 -80q145 0 239.5 93t94.5 238.5t-94.5 238t-239.5 92.5q-242 0 -314 -173l-153 46l125 770h770v-166h-633l-72 -428q84 96 283 96q217 0 362.5 -134t145.5 -341q0 -211 -144.5 -350.5t-363.5 -139.5q-215 0 -357.5 116t-175.5 296z " />
<glyph unicode="6" horiz-adv-x="1247" d="M88 469q0 133 48 249t155 255l350 461h195l-449 -596q90 115 244 114q236 4 381 -136t145 -353q0 -215 -149.5 -353.5t-382.5 -138.5q-229 0 -383 139.5t-154 358.5zM272 467q0 -152 96.5 -245t254.5 -93q156 0 252 93t98 245q2 150 -94.5 241t-255.5 91 q-158 0 -254.5 -91.5t-96.5 -240.5z" />
<glyph unicode="7" horiz-adv-x="1138" d="M90 1268v166h1026v-109l-745 -1325h-191l678 1204l45 68l-65 -4h-748z" />
<glyph unicode="8" horiz-adv-x="1249" d="M88 397q0 145 101.5 250t232.5 115q-84 10 -176 97t-92 224q0 160 132 269.5t338.5 109.5t339 -109.5t132.5 -269.5q0 -137 -92.5 -224t-176.5 -97q131 -10 232.5 -114.5t101.5 -250.5q0 -188 -149.5 -306t-386.5 -120q-238 2 -387.5 120t-149.5 306zM268 408 q0 -129 98.5 -206t258.5 -79q160 2 257 79t97 206q0 123 -98.5 198.5t-255.5 75.5q-160 0 -258.5 -75.5t-98.5 -198.5zM319 1075q0 -104 80 -172.5t226 -66.5q145 0 225 67.5t80 171.5q0 106 -83 175t-222.5 69t-222.5 -69t-83 -175z" />
<glyph unicode="9" horiz-adv-x="1255" d="M88 969q0 223 151.5 358t387.5 135q233 0 386.5 -133t153.5 -366q0 -262 -278 -586l-322 -377h-202l507 596q-100 -117 -256 -117q-246 -2 -387 138.5t-141 351.5zM274 965q0 -160 101.5 -245t253.5 -85q154 0 254 87t100 243q0 168 -100 254t-254 86 q-152 0 -253.5 -87.5t-101.5 -252.5z" />
<glyph unicode=":" horiz-adv-x="454" d="M123 76q0 45 30.5 74.5t73.5 29.5q45 0 75 -30.5t30 -73.5t-31 -74t-74 -31q-45 0 -74.5 31t-29.5 74zM123 709q0 45 30.5 74.5t73.5 29.5q45 0 75 -30.5t30 -73.5t-31 -74t-74 -31q-45 0 -74.5 31t-29.5 74z" />
<glyph unicode=";" horiz-adv-x="485" d="M104 -272q47 45 83 113.5t36 127.5l21 8l-21 3q-35 0 -63.5 27.5t-28.5 70.5q0 45 31 74.5t76 29.5t75.5 -34.5t30.5 -90.5q0 -88 -48 -176t-116 -153h-76zM131 709q0 45 31 74.5t74 29.5q45 0 74.5 -30.5t29.5 -73.5t-30.5 -74t-73.5 -31q-45 0 -75 31t-30 74z" />
<glyph unicode="&#x3c;" horiz-adv-x="1325" d="M188 748l721 -502h228l-709 502l709 499h-228z" />
<glyph unicode="=" horiz-adv-x="1347" d="M188 451v149h973v-149h-973zM188 840v149h973v-149h-973z" />
<glyph unicode="&#x3e;" horiz-adv-x="1325" d="M188 246l709 502l-709 499h228l721 -499l-721 -502h-228z" />
<glyph unicode="?" horiz-adv-x="1175" d="M88 1075q43 182 179 284.5t337 102.5q240 0 361.5 -115.5t121.5 -285.5q0 -88 -35.5 -161t-108.5 -129t-134 -90t-160 -77v-137h-174v209q242 109 335 189.5t93 187.5q0 100 -71.5 175t-233.5 75q-152 0 -237 -68t-121 -203zM475 0v322h174v-322h-174z" />
<glyph unicode="@" horiz-adv-x="1628" d="M88 719q0 322 205 532.5t520 210.5t521 -211t206 -532q0 -174 -77 -294t-216 -120q-78 0 -134 41t-77 107q-76 -143 -268 -144q-162 0 -264.5 110.5t-102.5 285.5q0 184 104.5 301.5t270.5 117.5q76 0 138.5 -27.5t87 -54t24.5 -38.5v81h121v-546q0 -61 30.5 -100.5 t82.5 -39.5q80 0 122.5 90.5t42.5 229.5q0 276 -173 458.5t-439 182.5q-264 0 -437 -182.5t-173 -458.5q0 -274 174 -461.5t436 -187.5q88 0 159.5 13t114.5 32.5t72 39t43.5 33t16.5 13.5l77 -43q-4 -8 -19 -25.5t-55 -46.5t-91.5 -53.5t-136.5 -43t-181 -18.5 q-313 0 -519 215t-206 533zM541 707q0 -119 68.5 -195t174.5 -76q111 0 176.5 78t65.5 197v77q0 92 -67.5 151.5t-174.5 59.5q-109 0 -177 -81.5t-66 -210.5z" />
<glyph unicode="A" horiz-adv-x="1593" d="M23 0l716 1434h115l717 -1434h-197l-174 348h-807l-174 -348h-196zM475 514h643l-307 614l-14 43l-15 -43z" />
<glyph unicode="B" horiz-adv-x="1327" d="M188 0v1434h543q186 0 302 -99.5t116 -257.5q0 -102 -69.5 -187t-157.5 -106q117 -12 217 -113.5t100 -244.5q0 -190 -126 -308t-349 -118h-576zM367 152h385q133 0 219 74.5t86 197.5q0 117 -92.5 193.5t-223.5 76.5h-374v-542zM367 846h331q121 0 196 60.5t75 158.5 t-75 157.5t-196 59.5h-331v-436z" />
<glyph unicode="C" horiz-adv-x="1558" d="M88 716.5q0 321.5 216 533.5t527 212q209 0 382.5 -101.5t269.5 -273.5l-183 -49q-72 115 -196.5 182.5t-272.5 67.5q-244 0 -401.5 -158.5t-157.5 -412.5q0 -252 160 -411t399 -159q162 0 295.5 79t200.5 210l178 -49q-92 -193 -271 -304.5t-403 -111.5q-311 0 -527 212 t-216 533.5z" />
<glyph unicode="D" horiz-adv-x="1626" d="M188 0v1434h607q313 0 527 -204t214 -521q0 -311 -211 -510t-518 -199h-619zM367 166h440q229 0 387 148.5t158 394.5q0 252 -160 405.5t-397 153.5h-428v-1102z" />
<glyph unicode="E" horiz-adv-x="1294" d="M188 0v1434h963v-166h-784v-432h630v-162h-630v-508h796v-166h-975z" />
<glyph unicode="F" horiz-adv-x="1218" d="M188 0v1434h942v-166h-763v-473h610v-162h-610v-633h-179z" />
<glyph unicode="G" horiz-adv-x="1628" d="M88 716.5q0 321.5 216 533.5t527 212q217 -4 386 -104.5t266 -270.5l-180 -47q-72 115 -198 181.5t-274 66.5q-244 0 -401.5 -158.5t-157.5 -412.5t162 -414t406 -160q190 0 326.5 89.5t185.5 197.5v166h-434v149h587v-747h-155v211q-70 -88 -202 -163t-317 -75 q-311 0 -527 212t-216 533.5z" />
<glyph unicode="H" horiz-adv-x="1503" d="M188 0v1434h179v-609h770v609h178v-1434h-178v657h-770v-657h-179z" />
<glyph unicode="I" horiz-adv-x="555" d="M188 0v1434h179v-1434h-179z" />
<glyph unicode="J" horiz-adv-x="1345" d="M20 367l177 47q35 -127 142 -202t251 -75q207 0 315.5 119t108.5 332v846h180v-838q0 -295 -160 -461t-444 -166q-207 0 -362.5 110.5t-207.5 287.5z" />
<glyph unicode="K" horiz-adv-x="1417" d="M188 0v1434h179v-719l725 719h208l-583 -584l649 -850h-221l-551 725l-227 -225v-500h-179z" />
<glyph unicode="L" horiz-adv-x="1171" d="M188 0v1434h179v-1268h763v-166h-942z" />
<glyph unicode="M" horiz-adv-x="1712" d="M188 0v1434h168l480 -793l20 -41l18 41l482 793h168v-1434h-178v1057l4 61l-29 -61l-426 -705h-78l-426 705l-29 59l5 -59v-1057h-179z" />
<glyph unicode="N" horiz-adv-x="1597" d="M207 0v1434h166l817 -1072l27 -47l-5 60v1059h181v-1434h-168l-815 1077l-29 45l4 -59v-1063h-178z" />
<glyph unicode="O" d="M88 716.5q0 321.5 216 533.5t527 212q313 0 529.5 -212t216.5 -533.5t-216 -533.5t-530 -212q-311 0 -527 212t-216 533.5zM272 717q0 -252 159 -412t400.5 -160t401.5 160t160 412q0 254 -160 412.5t-401.5 158.5t-400.5 -158.5t-159 -412.5z" />
<glyph unicode="P" horiz-adv-x="1232" d="M188 0v1434h447q252 0 394 -122t142 -337t-142 -338t-394 -123h-268v-514h-179zM367 682h266q170 0 262 78t92 215q0 139 -94 216t-260 77h-266v-586z" />
<glyph unicode="Q" d="M88 717q0 322 216 533.5t527 211.5q313 0 529.5 -212t216.5 -533q0 -299 -189.5 -506t-474.5 -236v-245h-178v247q-279 35 -463 241t-184 499zM272 717q0 -252 159 -412t400.5 -160t401.5 160t160 412q0 254 -160 412.5t-401.5 158.5t-400.5 -158.5t-159 -412.5z" />
<glyph unicode="R" horiz-adv-x="1312" d="M188 0v1434h443q252 0 396 -121t144 -330q0 -154 -77.5 -261.5t-221.5 -154.5l355 -567h-201l-334 532q-18 -2 -61 -2h-264v-530h-179zM367 698h282q164 0 251 78t87 207q0 133 -89 209t-249 76h-282v-570z" />
<glyph unicode="S" horiz-adv-x="1222" d="M70 395l174 47q14 -131 117.5 -220t267.5 -89q152 0 243 70.5t91 181.5q0 37 -12.5 68.5t-30 54t-51 46.5t-58.5 38t-73 32l-74 26q-26 10 -82 26l-74 22q-68 20 -109 36t-103.5 48.5t-97 68.5t-62 93t-27.5 127q0 168 142 279.5t359 111.5q197 0 337 -105.5t179 -279.5 l-170 -45q-25 127 -121 201t-229 74q-141 0 -228 -60.5t-87 -169.5q0 -66 56 -116t108.5 -69.5t173.5 -55.5q31 -10 45 -15l91 -27q30 -10 89 -33.5t91 -43t77 -54t66.5 -71.5t39 -89t17.5 -112q0 -182 -145.5 -301t-378.5 -119q-223 0 -367.5 117t-183.5 307z" />
<glyph unicode="T" horiz-adv-x="1218" d="M43 1268v166h1131v-166h-478v-1268h-178v1268h-475z" />
<glyph unicode="U" horiz-adv-x="1509" d="M152 596v838h180v-846q0 -211 109.5 -331t314.5 -120t313.5 119t108.5 332v846h180v-838q0 -295 -159 -461t-443.5 -166t-444 166t-159.5 461z" />
<glyph unicode="V" horiz-adv-x="1550" d="M23 1434h200l537 -1133l14 -43l17 43l536 1133h199l-682 -1434h-137z" />
<glyph unicode="W" horiz-adv-x="2025" d="M23 1434h190l426 -1076l12 -49l15 49l299 828h96l301 -828l12 -47l12 47l426 1076h191l-569 -1434h-121l-285 791l-14 53l-15 -53l-286 -791h-119z" />
<glyph unicode="X" horiz-adv-x="1370" d="M33 0l545 743l-504 691h217l383 -529l12 -26l10 26l383 529h217l-503 -691l544 -743h-217l-424 573l-10 27l-12 -27l-424 -573h-217z" />
<glyph unicode="Y" horiz-adv-x="1380" d="M27 1434h215l422 -537l26 -43l25 43l424 537h215l-574 -742v-692h-180v692z" />
<glyph unicode="Z" horiz-adv-x="1415" d="M123 0v164l903 1069l41 39l-63 -4h-861v166h1149v-164l-897 -1067l-43 -41l64 4h876v-166h-1169z" />
<glyph unicode="[" horiz-adv-x="700" d="M188 -311v2064h453v-164h-274v-1736h274v-164h-453z" />
<glyph unicode="\" horiz-adv-x="948" d="M25 1434l729 -1434h172l-733 1434h-168z" />
<glyph unicode="]" horiz-adv-x="718" d="M78 -147v-164h452v2064h-452v-164h274v-1736h-274z" />
<glyph unicode="^" horiz-adv-x="1335" d="M188 977l398 399l82 82l479 -481l-90 -84l-389 399l-389 -399z" />
<glyph unicode="_" horiz-adv-x="1560" d="M188 0h1184v-145h-1184v145z" />
<glyph unicode="`" horiz-adv-x="630" d="M49 1722l66 125l440 -237l-55 -101z" />
<glyph unicode="a" horiz-adv-x="1593" d="M23 0l716 1434h115l717 -1434h-197l-174 348h-807l-174 -348h-196zM475 514h643l-307 614l-14 43l-15 -43z" />
<glyph unicode="b" horiz-adv-x="1327" d="M188 0v1434h543q186 0 302 -99.5t116 -257.5q0 -102 -69.5 -187t-157.5 -106q117 -12 217 -113.5t100 -244.5q0 -190 -126 -308t-349 -118h-576zM367 152h385q133 0 219 74.5t86 197.5q0 117 -92.5 193.5t-223.5 76.5h-374v-542zM367 846h331q121 0 196 60.5t75 158.5 t-75 157.5t-196 59.5h-331v-436z" />
<glyph unicode="c" horiz-adv-x="1558" d="M88 716.5q0 321.5 216 533.5t527 212q209 0 382.5 -101.5t269.5 -273.5l-183 -49q-72 115 -196.5 182.5t-272.5 67.5q-244 0 -401.5 -158.5t-157.5 -412.5q0 -252 160 -411t399 -159q162 0 295.5 79t200.5 210l178 -49q-92 -193 -271 -304.5t-403 -111.5q-311 0 -527 212 t-216 533.5z" />
<glyph unicode="d" horiz-adv-x="1626" d="M188 0v1434h607q313 0 527 -204t214 -521q0 -311 -211 -510t-518 -199h-619zM367 166h440q229 0 387 148.5t158 394.5q0 252 -160 405.5t-397 153.5h-428v-1102z" />
<glyph unicode="e" horiz-adv-x="1294" d="M188 0v1434h963v-166h-784v-432h630v-162h-630v-508h796v-166h-975z" />
<glyph unicode="f" horiz-adv-x="1218" d="M188 0v1434h942v-166h-763v-473h610v-162h-610v-633h-179z" />
<glyph unicode="g" horiz-adv-x="1628" d="M88 716.5q0 321.5 216 533.5t527 212q217 -4 386 -104.5t266 -270.5l-180 -47q-72 115 -198 181.5t-274 66.5q-244 0 -401.5 -158.5t-157.5 -412.5t162 -414t406 -160q190 0 326.5 89.5t185.5 197.5v166h-434v149h587v-747h-155v211q-70 -88 -202 -163t-317 -75 q-311 0 -527 212t-216 533.5z" />
<glyph unicode="h" horiz-adv-x="1503" d="M188 0v1434h179v-609h770v609h178v-1434h-178v657h-770v-657h-179z" />
<glyph unicode="i" horiz-adv-x="555" d="M188 0v1434h179v-1434h-179z" />
<glyph unicode="j" horiz-adv-x="1345" d="M20 367l177 47q35 -127 142 -202t251 -75q207 0 315.5 119t108.5 332v846h180v-838q0 -295 -160 -461t-444 -166q-207 0 -362.5 110.5t-207.5 287.5z" />
<glyph unicode="k" horiz-adv-x="1417" d="M188 0v1434h179v-719l725 719h208l-583 -584l649 -850h-221l-551 725l-227 -225v-500h-179z" />
<glyph unicode="l" horiz-adv-x="1171" d="M188 0v1434h179v-1268h763v-166h-942z" />
<glyph unicode="m" horiz-adv-x="1712" d="M188 0v1434h168l480 -793l20 -41l18 41l482 793h168v-1434h-178v1057l4 61l-29 -61l-426 -705h-78l-426 705l-29 59l5 -59v-1057h-179z" />
<glyph unicode="n" horiz-adv-x="1562" d="M207 0v1434h166l817 -1072l27 -47l-5 60v1059h181v-1434h-168l-815 1077l-29 45l4 -59v-1063h-178z" />
<glyph unicode="o" d="M88 716.5q0 321.5 216 533.5t527 212q313 0 529.5 -212t216.5 -533.5t-216 -533.5t-530 -212q-311 0 -527 212t-216 533.5zM272 717q0 -252 159 -412t400.5 -160t401.5 160t160 412q0 254 -160 412.5t-401.5 158.5t-400.5 -158.5t-159 -412.5z" />
<glyph unicode="p" horiz-adv-x="1232" d="M188 0v1434h447q252 0 394 -122t142 -337t-142 -338t-394 -123h-268v-514h-179zM367 682h266q170 0 262 78t92 215q0 139 -94 216t-260 77h-266v-586z" />
<glyph unicode="q" d="M88 717q0 322 216 533.5t527 211.5q313 0 529.5 -212t216.5 -533q0 -299 -189.5 -506t-474.5 -236v-245h-178v247q-279 35 -463 241t-184 499zM272 717q0 -252 159 -412t400.5 -160t401.5 160t160 412q0 254 -160 412.5t-401.5 158.5t-400.5 -158.5t-159 -412.5z" />
<glyph unicode="r" horiz-adv-x="1312" d="M188 0v1434h443q252 0 396 -121t144 -330q0 -154 -77.5 -261.5t-221.5 -154.5l355 -567h-201l-334 532q-18 -2 -61 -2h-264v-530h-179zM367 698h282q164 0 251 78t87 207q0 133 -89 209t-249 76h-282v-570z" />
<glyph unicode="s" horiz-adv-x="1222" d="M70 395l174 47q14 -131 117.5 -220t267.5 -89q152 0 243 70.5t91 181.5q0 37 -12.5 68.5t-30 54t-51 46.5t-58.5 38t-73 32l-74 26q-26 10 -82 26l-74 22q-68 20 -109 36t-103.5 48.5t-97 68.5t-62 93t-27.5 127q0 168 142 279.5t359 111.5q197 0 337 -105.5t179 -279.5 l-170 -45q-25 127 -121 201t-229 74q-141 0 -228 -60.5t-87 -169.5q0 -66 56 -116t108.5 -69.5t173.5 -55.5q31 -10 45 -15l91 -27q30 -10 89 -33.5t91 -43t77 -54t66.5 -71.5t39 -89t17.5 -112q0 -182 -145.5 -301t-378.5 -119q-223 0 -367.5 117t-183.5 307z" />
<glyph unicode="t" horiz-adv-x="1218" d="M43 1268v166h1131v-166h-478v-1268h-178v1268h-475z" />
<glyph unicode="u" horiz-adv-x="1509" d="M152 596v838h180v-846q0 -211 109.5 -331t314.5 -120t313.5 119t108.5 332v846h180v-838q0 -295 -159 -461t-443.5 -166t-444 166t-159.5 461z" />
<glyph unicode="v" horiz-adv-x="1550" d="M23 1434h200l537 -1133l14 -43l17 43l536 1133h199l-682 -1434h-137z" />
<glyph unicode="w" horiz-adv-x="2025" d="M23 1434h190l426 -1076l12 -49l15 49l299 828h96l301 -828l12 -47l12 47l426 1076h191l-569 -1434h-121l-285 791l-14 53l-15 -53l-286 -791h-119z" />
<glyph unicode="x" horiz-adv-x="1370" d="M33 0l545 743l-504 691h217l383 -529l12 -26l10 26l383 529h217l-503 -691l544 -743h-217l-424 573l-10 27l-12 -27l-424 -573h-217z" />
<glyph unicode="y" horiz-adv-x="1380" d="M27 1434h215l422 -537l26 -43l25 43l424 537h215l-574 -742v-692h-180v692z" />
<glyph unicode="z" horiz-adv-x="1415" d="M123 0v164l903 1069l41 39l-63 -4h-861v166h1149v-164l-897 -1067l-43 -41l64 4h876v-166h-1169z" />
<glyph unicode="{" horiz-adv-x="806" d="M188 721q6 2 14.5 6t31 25.5t40 52.5t31.5 92t14 139v248q0 242 119 363.5t334 121.5v-163q-123 0 -198.5 -70t-75.5 -254v-235q0 -78 -10.5 -140.5t-26 -95.5t-31.5 -55.5t-27.5 -28.5t-15.5 -6q4 0 15.5 -7t27.5 -28.5t31.5 -55.5t26 -96.5t10.5 -140.5v-233 q0 -184 75.5 -254t198.5 -70v-164q-215 0 -334 122t-119 364v248q0 78 -13 138t-32.5 92t-39 52.5t-33.5 26.5z" />
<glyph unicode="|" horiz-adv-x="520" d="M188 -152v1739h144v-1739h-144z" />
<glyph unicode="}" horiz-adv-x="823" d="M51 -164v-164q215 0 334 122t119 364v248q0 78 13 138t32.5 92t39 52.5t34.5 26.5l12 6q-6 2 -14.5 6t-31 25.5t-40 52.5t-31.5 92t-14 139v248q0 242 -119 363.5t-334 121.5v-163q123 0 199 -70t76 -254v-235q0 -78 10 -140.5t25.5 -95.5t32 -55.5t27.5 -28.5t15 -6 q-4 0 -15 -7t-27.5 -28.5t-32 -55.5t-25.5 -96.5t-10 -140.5v-233q0 -184 -76 -254t-199 -70z" />
<glyph unicode="~" horiz-adv-x="1005" d="M88 692q18 88 90 144.5t170 56.5q53 0 100.5 -22.5t76 -48t63.5 -48t65 -22.5q51 0 83 29.5t36 76.5l146 -39q-16 -88 -87 -145.5t-172 -57.5q-63 0 -117.5 36t-101.5 72t-88 36q-49 0 -80.5 -30t-35.5 -77z" />
<glyph unicode="&#xa1;" horiz-adv-x="546" d="M188 0v967h170v-967h-170zM188 1112v322h170v-322h-170z" />
<glyph unicode="&#xa2;" horiz-adv-x="1165" d="M88 715q0 209 131 357.5t328 176.5v211h145v-211q133 -16 240.5 -92t165.5 -190l-154 -43q-104 174 -323 174q-162 0 -263.5 -104.5t-101.5 -278.5q0 -172 101.5 -276.5t263.5 -104.5q115 0 203.5 53.5t133.5 149.5l154 -43q-53 -127 -164.5 -210t-255.5 -102v-209h-145 v209q-195 29 -327 177.5t-132 355.5z" />
<glyph unicode="&#xa3;" horiz-adv-x="1441" d="M188 0v143q117 25 156 125.5t23 274.5l-11 108h-168v146h156l-18 209q-18 190 107.5 321t320.5 135q72 2 142.5 -16.5t141 -60.5t125 -120.5t80.5 -187.5l-151 -45q-84 281 -334 271q-127 -4 -198 -91.5t-58 -216.5l18 -198h463v-146h-451l11 -104q31 -320 -121 -404h829 v-143h-1063z" />
<glyph unicode="&#xa4;" horiz-adv-x="1341" d="M92 223l150 150q-111 143 -111 325q0 188 121 336l-143 146l90 92l147 -146q143 111 324 111q182 0 325 -111l146 146l92 -92l-146 -146q123 -145 123 -336q0 -182 -110 -325l147 -150l-90 -92l-149 150q-150 -123 -338.5 -123t-335.5 121l-150 -148zM293 700 q0 -162 109.5 -273.5t267.5 -111.5q160 0 270.5 112t110.5 273q0 160 -110.5 271.5t-270.5 111.5q-158 0 -267.5 -111.5t-109.5 -271.5z" />
<glyph unicode="&#xa5;" horiz-adv-x="1380" d="M27 1434h215l422 -537l26 -43l25 43l424 537h215l-430 -557h274v-125h-373l-45 -60v-20h418v-125h-418v-547h-180v547h-403v125h403v20l-45 60h-358v125h260z" />
<glyph unicode="&#xa6;" horiz-adv-x="520" d="M188 -152v594h144v-594h-144zM188 1014v573h144v-573h-144z" />
<glyph unicode="&#xa8;" horiz-adv-x="817" d="M23 1669q0 43 29.5 73t74.5 30q41 0 70.5 -31t29.5 -72q0 -43 -29.5 -72.5t-70.5 -29.5q-45 0 -74.5 29.5t-29.5 72.5zM512 1669q0 41 29.5 72t72.5 31t73 -31t30 -72q0 -43 -30 -72.5t-73 -29.5t-72.5 29.5t-29.5 72.5z" />
<glyph unicode="&#xa9;" d="M88 716.5q0 321.5 216 533.5t527 212q313 0 529.5 -212t216.5 -533.5t-216 -533.5t-530 -212q-311 0 -527 212t-216 533.5zM227 717q0 -270 172 -443.5t432.5 -173.5t434.5 173t174 444q0 272 -174 445t-434.5 173t-432.5 -172t-172 -446zM481 715q0 156 102.5 258 t256.5 102q98 0 187 -53t130 -137l-102 -31q-31 53 -90.5 86t-124.5 33q-111 0 -179.5 -72t-68.5 -186.5t68.5 -186t179.5 -71.5q72 0 134 39t91 100l102 -31q-39 -92 -130 -151.5t-197 -59.5q-152 0 -255.5 103.5t-103.5 257.5z" />
<glyph unicode="&#xaa;" horiz-adv-x="815" d="M41 578v94h733v-94h-733zM41 768l340 682h53l340 -682h-115l-71 147h-359l-71 -147h-117zM276 1010h265l-123 250l-10 32l-11 -32z" />
<glyph unicode="&#xab;" horiz-adv-x="1538" d="M223 727l482 -479l98 100l-391 379l391 379l-96 100zM807 727l481 -479l98 100l-391 379l391 379l-96 100z" />
<glyph unicode="&#xad;" horiz-adv-x="796" d="M82 645v164h633v-164h-633z" />
<glyph unicode="&#xae;" d="M88 716.5q0 321.5 216 533.5t527 212q313 0 529.5 -212t216.5 -533.5t-216 -533.5t-530 -212q-311 0 -527 212t-216 533.5zM227 717q0 -270 172 -443.5t432.5 -173.5t434.5 173t174 444q0 272 -174 445t-434.5 173t-432.5 -172t-172 -446zM608 356v721h230 q125 0 197.5 -60.5t72.5 -164.5q0 -158 -152 -209l177 -287h-111l-170 271h-14h-127v-271h-103zM711 723h135q160 0 160 129q0 131 -160 131h-135v-260z" />
<glyph unicode="&#xaf;" horiz-adv-x="751" d="M23 1405v113h628v-113h-628z" />
<glyph unicode="&#xb0;" horiz-adv-x="604" d="M88 1421q0 88 62.5 150.5t152.5 62.5q88 0 150.5 -62.5t62.5 -150.5t-62.5 -150.5t-150.5 -62.5t-151.5 62.5t-63.5 150.5zM186 1423q0 -47 35 -81.5t82 -34.5t82 34.5t35 81.5q0 49 -35 83t-82 34t-82 -33.5t-35 -83.5z" />
<glyph unicode="&#xb1;" horiz-adv-x="1347" d="M188 -18v149h973v-149h-973zM188 653v150h424v407h162v-407h387v-150h-387v-336h-164v336h-422z" />
<glyph unicode="&#xb4;" horiz-adv-x="630" d="M-6 1610l442 237l66 -125l-451 -213z" />
<glyph unicode="&#xb7;" horiz-adv-x="454" d="M123 709q0 45 30.5 74.5t73.5 29.5q45 0 75 -30.5t30 -73.5t-31 -74t-74 -31q-45 0 -74.5 31t-29.5 74z" />
<glyph unicode="&#xb8;" horiz-adv-x="497" d="M23 -487l40 102h115q51 0 81 24.5t30 65.5t-31 66.5t-80 27.5h-135l70 201h110l-41 -102q94 2 153.5 -51.5t59.5 -141.5q0 -90 -60.5 -141t-156.5 -51h-155z" />
<glyph unicode="&#xba;" horiz-adv-x="743" d="M20 1105.5q0 151.5 101.5 252t249 100.5t250 -100.5t102.5 -251.5q0 -150 -102.5 -250t-250 -100t-249 99t-101.5 250.5zM41 578v94h661v-94h-661zM129 1106q0 -106 68.5 -177t173.5 -71q106 0 174.5 69.5t68.5 178t-68.5 179.5t-174.5 71q-104 0 -173 -70.5t-69 -179.5z " />
<glyph unicode="&#xbb;" horiz-adv-x="1538" d="M170 348l391 379l-391 379l96 100l484 -479l-482 -479zM754 348l391 379l-391 379l96 100l483 -479l-481 -479z" />
<glyph unicode="&#xbf;" horiz-adv-x="1175" d="M88 373q0 88 36 160.5t108.5 129t134 90t159.5 76.5v138h174v-209q-242 -109 -335 -190t-93 -187q0 -100 72 -175t234 -75q152 0 236.5 67.5t121.5 202.5l151 -43q-43 -182 -179 -284.5t-337 -102.5q-240 0 -361.5 116t-121.5 286zM526 1112v322h174v-322h-174z" />
<glyph unicode="&#xc0;" horiz-adv-x="1593" d="M23 0l716 1434h115l717 -1434h-197l-174 348h-807l-174 -348h-196zM457 1722l65 125l441 -237l-56 -101zM475 514h643l-307 614l-14 43l-15 -43z" />
<glyph unicode="&#xc1;" horiz-adv-x="1593" d="M23 0l716 1434h115l717 -1434h-197l-174 348h-807l-174 -348h-196zM475 514h643l-307 614l-14 43l-15 -43zM590 1610l442 237l66 -125l-451 -213z" />
<glyph unicode="&#xc2;" horiz-adv-x="1593" d="M23 0l716 1434h115l717 -1434h-197l-174 348h-807l-174 -348h-196zM463 1597l328 277l325 -277l-74 -79l-251 213l-254 -213zM475 514h643l-307 614l-14 43l-15 -43z" />
<glyph unicode="&#xc3;" horiz-adv-x="1593" d="M23 0l716 1434h115l717 -1434h-197l-174 348h-807l-174 -348h-196zM416 1571q0 94 65.5 156.5t165.5 62.5q72 0 156 -59.5t123 -59.5q43 0 70.5 27.5t29.5 68.5h143q0 -94 -65.5 -156.5t-165.5 -62.5q-66 0 -151 59.5t-128 59.5q-45 0 -72.5 -27.5t-27.5 -68.5h-143z M475 514h643l-307 614l-14 43l-15 -43z" />
<glyph unicode="&#xc4;" horiz-adv-x="1593" d="M23 0l716 1434h115l717 -1434h-197l-174 348h-807l-174 -348h-196zM442 1669q0 43 31 73t74 30q41 0 70.5 -31t29.5 -72q0 -43 -29.5 -72.5t-70.5 -29.5q-45 0 -75 29.5t-30 72.5zM475 514h643l-307 614l-14 43l-15 -43zM932 1669q0 41 29.5 72t72.5 31t73 -31t30 -72 q0 -43 -30 -72.5t-73 -29.5t-72.5 29.5t-29.5 72.5z" />
<glyph unicode="&#xc5;" horiz-adv-x="1593" d="M23 0l694 1389q-59 23 -97 77t-38 119q0 88 62.5 150.5t152.5 62.5q88 0 150.5 -62.5t62.5 -150.5q0 -66 -37 -120t-96 -76l694 -1389h-197l-174 348h-807l-174 -348h-196zM475 514h643l-307 614l-14 43l-15 -43zM680 1587q0 -47 35 -82t82 -35t81.5 35t34.5 82 q0 49 -34.5 83t-81.5 34t-82 -34t-35 -83z" />
<glyph unicode="&#xc6;" horiz-adv-x="2011" d="M23 0l956 1434h889v-166h-709v-432h629v-162h-629v-508h721v-166h-901v352h-508l-233 -352h-215zM561 485h418v643l-37 -69z" />
<glyph unicode="&#xc7;" horiz-adv-x="1558" d="M88 717q0 322 216 533.5t527 211.5q209 0 382 -101t270 -274l-183 -49q-72 115 -196.5 182.5t-272.5 67.5q-244 0 -401.5 -158.5t-157.5 -412.5q0 -252 160 -411t399 -159q162 0 295 79t201 210l178 -49q-86 -182 -254 -293.5t-379 -122.5l-30 -73q94 2 153.5 -51.5 t59.5 -141.5q0 -90 -60.5 -141t-156.5 -51h-156l41 102h115q51 0 80.5 24.5t29.5 65.5t-30.5 66.5t-79.5 27.5h-136l62 174q-289 25 -482.5 234t-193.5 510z" />
<glyph unicode="&#xc8;" horiz-adv-x="1294" d="M188 0v1434h963v-166h-784v-432h630v-162h-630v-508h796v-166h-975zM346 1722l66 125l440 -237l-55 -101z" />
<glyph unicode="&#xc9;" horiz-adv-x="1294" d="M188 0v1434h963v-166h-784v-432h630v-162h-630v-508h796v-166h-975zM479 1610l443 237l65 -125l-450 -213z" />
<glyph unicode="&#xca;" horiz-adv-x="1294" d="M188 0v1434h963v-166h-784v-432h630v-162h-630v-508h796v-166h-975zM352 1597l328 277l326 -277l-74 -79l-252 213l-254 -213z" />
<glyph unicode="&#xcb;" horiz-adv-x="1294" d="M188 0v1434h963v-166h-784v-432h630v-162h-630v-508h796v-166h-975zM332 1669q0 43 30.5 73t73.5 30q41 0 71 -31t30 -72q0 -43 -30 -72.5t-71 -29.5q-45 0 -74.5 29.5t-29.5 72.5zM821 1669q0 41 30 72t73 31t72.5 -31t29.5 -72q0 -43 -29.5 -72.5t-72.5 -29.5t-73 29.5 t-30 72.5z" />
<glyph unicode="&#xcc;" horiz-adv-x="555" d="M-59 1722l65 125l440 -237l-55 -101zM188 0v1434h179v-1434h-179z" />
<glyph unicode="&#xcd;" horiz-adv-x="555" d="M74 1610l442 237l66 -125l-451 -213zM188 0v1434h179v-1434h-179z" />
<glyph unicode="&#xce;" horiz-adv-x="555" d="M-53 1597l327 277l326 -277l-74 -79l-252 213l-254 -213zM188 0v1434h179v-1434h-179z" />
<glyph unicode="&#xcf;" horiz-adv-x="555" d="M-74 1669q0 43 31 73t74 30q41 0 70.5 -31t29.5 -72q0 -43 -29.5 -72.5t-70.5 -29.5q-45 0 -75 29.5t-30 72.5zM188 0v1434h179v-1434h-179zM416 1669q0 41 29.5 72t72.5 31t73 -31t30 -72q0 -43 -30 -72.5t-73 -29.5t-72.5 29.5t-29.5 72.5z" />
<glyph unicode="&#xd0;" horiz-adv-x="1636" d="M88 647v164h111v623h606q313 0 527 -204t214 -521q0 -311 -211 -510t-518 -199h-618v647h-111zM377 166h440q229 0 387 148.5t158 394.5q0 252 -160 405.5t-397 153.5h-428v-457h356v-164h-356v-481z" />
<glyph unicode="&#xd1;" horiz-adv-x="1597" d="M207 0v1434h166l817 -1072l27 -47l-5 60v1059h181v-1434h-168l-815 1077l-29 45l4 -59v-1063h-178zM432 1571q0 94 65.5 156.5t166.5 62.5q72 0 155.5 -59.5t122.5 -59.5q43 0 70.5 27.5t29.5 68.5h144q0 -94 -65.5 -156.5t-166.5 -62.5q-66 0 -150.5 59.5t-127.5 59.5 q-45 0 -73 -27.5t-28 -68.5h-143z" />
<glyph unicode="&#xd2;" d="M88 716.5q0 321.5 216 533.5t527 212q313 0 529.5 -212t216.5 -533.5t-216 -533.5t-530 -212q-311 0 -527 212t-216 533.5zM272 717q0 -252 159 -412t400.5 -160t401.5 160t160 412q0 254 -160 412.5t-401.5 158.5t-400.5 -158.5t-159 -412.5zM504 1722l65 125l441 -237 l-56 -101z" />
<glyph unicode="&#xd3;" d="M88 716.5q0 321.5 216 533.5t527 212q313 0 529.5 -212t216.5 -533.5t-216 -533.5t-530 -212q-311 0 -527 212t-216 533.5zM272 717q0 -252 159 -412t400.5 -160t401.5 160t160 412q0 254 -160 412.5t-401.5 158.5t-400.5 -158.5t-159 -412.5zM637 1610l442 237l66 -125 l-451 -213z" />
<glyph unicode="&#xd4;" d="M88 716.5q0 321.5 216 533.5t527 212q313 0 529.5 -212t216.5 -533.5t-216 -533.5t-530 -212q-311 0 -527 212t-216 533.5zM272 717q0 -252 159 -412t400.5 -160t401.5 160t160 412q0 254 -160 412.5t-401.5 158.5t-400.5 -158.5t-159 -412.5zM510 1597l328 277l325 -277 l-73 -79l-252 213l-254 -213z" />
<glyph unicode="&#xd5;" d="M88 716.5q0 321.5 216 533.5t527 212q313 0 529.5 -212t216.5 -533.5t-216 -533.5t-530 -212q-311 0 -527 212t-216 533.5zM272 717q0 -252 159 -412t400.5 -160t401.5 160t160 412q0 254 -160 412.5t-401.5 158.5t-400.5 -158.5t-159 -412.5zM463 1571q0 94 65.5 156.5 t165.5 62.5q72 0 156 -59.5t123 -59.5q43 0 70.5 27.5t29.5 68.5h144q0 -94 -66 -156.5t-166 -62.5q-66 0 -150.5 59.5t-127.5 59.5q-45 0 -73 -27.5t-28 -68.5h-143z" />
<glyph unicode="&#xd6;" d="M88 716.5q0 321.5 216 533.5t527 212q313 0 529.5 -212t216.5 -533.5t-216 -533.5t-530 -212q-311 0 -527 212t-216 533.5zM272 717q0 -252 159 -412t400.5 -160t401.5 160t160 412q0 254 -160 412.5t-401.5 158.5t-400.5 -158.5t-159 -412.5zM489 1669q0 43 30 73t75 30 q41 0 70.5 -31t29.5 -72q0 -43 -29.5 -72.5t-70.5 -29.5q-45 0 -75 29.5t-30 72.5zM979 1669q0 41 29.5 72t72.5 31t73 -31t30 -72q0 -43 -30 -72.5t-73 -29.5t-72.5 29.5t-29.5 72.5z" />
<glyph unicode="&#xd7;" horiz-adv-x="1196" d="M188 440l293 291l-293 293l117 117l293 -293l293 293l117 -117l-293 -293l293 -293l-119 -116l-291 292l-293 -290z" />
<glyph unicode="&#xd8;" d="M88 717q0 322 216 533.5t527 211.5q211 0 390 -104l73 98l127 -94l-75 -98q231 -215 231 -547q0 -322 -216 -534t-530 -212q-215 0 -389 105l-80 -105l-126 97l79 104q-227 217 -227 545zM272 717q0 -242 152 -404l690 906q-127 70 -283 69q-242 0 -400.5 -158.5 t-158.5 -412.5zM549 215q127 -70 282 -70q242 0 402 160t160 412q0 247 -154 405z" />
<glyph unicode="&#xd9;" horiz-adv-x="1509" d="M152 596v838h180v-846q0 -211 109.5 -331t314.5 -120t313.5 119t108.5 332v846h180v-838q0 -295 -159 -461t-443.5 -166t-444 166t-159.5 461zM418 1722l65 125l441 -237l-56 -101z" />
<glyph unicode="&#xda;" horiz-adv-x="1509" d="M152 596v838h180v-846q0 -211 109.5 -331t314.5 -120t313.5 119t108.5 332v846h180v-838q0 -295 -159 -461t-443.5 -166t-444 166t-159.5 461zM551 1610l442 237l66 -125l-451 -213z" />
<glyph unicode="&#xdb;" horiz-adv-x="1509" d="M152 596v838h180v-846q0 -211 109.5 -331t314.5 -120t313.5 119t108.5 332v846h180v-838q0 -295 -159 -461t-443.5 -166t-444 166t-159.5 461zM424 1597l328 277l325 -277l-73 -79l-252 213l-254 -213z" />
<glyph unicode="&#xdc;" horiz-adv-x="1509" d="M152 596v838h180v-846q0 -211 109.5 -331t314.5 -120t313.5 119t108.5 332v846h180v-838q0 -295 -159 -461t-443.5 -166t-444 166t-159.5 461zM403 1669q0 43 30 73t75 30q41 0 70.5 -31t29.5 -72q0 -43 -29.5 -72.5t-70.5 -29.5q-45 0 -75 29.5t-30 72.5zM893 1669 q0 41 29.5 72t72.5 31t73 -31t30 -72q0 -43 -30 -72.5t-73 -29.5t-72.5 29.5t-29.5 72.5z" />
<glyph unicode="&#xdd;" horiz-adv-x="1380" d="M27 1434h215l422 -537l26 -43l25 43l424 537h215l-574 -742v-692h-180v692zM479 1610l443 237l65 -125l-450 -213z" />
<glyph unicode="&#xde;" horiz-adv-x="1247" d="M188 0v1434h179v-256h305q217 0 352 -130t135 -331q0 -199 -135 -326t-352 -127h-305v-264h-179zM367 430h309q137 0 218 80t81 207q0 125 -82 209t-217 84h-309v-580z" />
<glyph unicode="&#xdf;" horiz-adv-x="1593" d="M188 0v1434h1176l-344 -605q227 -8 356 -122.5t129 -296.5q0 -188 -136 -313.5t-349 -125.5q-160 0 -297 77t-203 206l168 45q49 -82 135 -128t191 -46q137 0 224 81t87 202q0 113 -82 190.5t-229 83.5h-168v147l231 402l33 41l-61 -4h-682v-1268h-179z" />
<glyph unicode="&#xe0;" horiz-adv-x="1593" d="M23 0l716 1434h115l717 -1434h-197l-174 348h-807l-174 -348h-196zM457 1722l65 125l441 -237l-56 -101zM475 514h643l-307 614l-14 43l-15 -43z" />
<glyph unicode="&#xe1;" horiz-adv-x="1593" d="M23 0l716 1434h115l717 -1434h-197l-174 348h-807l-174 -348h-196zM475 514h643l-307 614l-14 43l-15 -43zM590 1610l442 237l66 -125l-451 -213z" />
<glyph unicode="&#xe2;" horiz-adv-x="1593" d="M23 0l716 1434h115l717 -1434h-197l-174 348h-807l-174 -348h-196zM463 1597l328 277l325 -277l-74 -79l-251 213l-254 -213zM475 514h643l-307 614l-14 43l-15 -43z" />
<glyph unicode="&#xe3;" horiz-adv-x="1593" d="M23 0l716 1434h115l717 -1434h-197l-174 348h-807l-174 -348h-196zM416 1571q0 94 65.5 156.5t165.5 62.5q72 0 156 -59.5t123 -59.5q43 0 70.5 27.5t29.5 68.5h143q0 -94 -65.5 -156.5t-165.5 -62.5q-66 0 -151 59.5t-128 59.5q-45 0 -72.5 -27.5t-27.5 -68.5h-143z M475 514h643l-307 614l-14 43l-15 -43z" />
<glyph unicode="&#xe4;" horiz-adv-x="1593" d="M23 0l716 1434h115l717 -1434h-197l-174 348h-807l-174 -348h-196zM442 1669q0 43 31 73t74 30q41 0 70.5 -31t29.5 -72q0 -43 -29.5 -72.5t-70.5 -29.5q-45 0 -75 29.5t-30 72.5zM475 514h643l-307 614l-14 43l-15 -43zM932 1669q0 41 29.5 72t72.5 31t73 -31t30 -72 q0 -43 -30 -72.5t-73 -29.5t-72.5 29.5t-29.5 72.5z" />
<glyph unicode="&#xe5;" horiz-adv-x="1593" d="M23 0l694 1389q-59 23 -97 77t-38 119q0 88 62.5 150.5t152.5 62.5q88 0 150.5 -62.5t62.5 -150.5q0 -66 -37 -120t-96 -76l694 -1389h-197l-174 348h-807l-174 -348h-196zM475 514h643l-307 614l-14 43l-15 -43zM680 1587q0 -47 35 -82t82 -35t81.5 35t34.5 82 q0 49 -34.5 83t-81.5 34t-82 -34t-35 -83z" />
<glyph unicode="&#xe6;" horiz-adv-x="2011" d="M23 0l956 1434h889v-166h-709v-432h629v-162h-629v-508h721v-166h-901v352h-508l-233 -352h-215zM561 485h418v643l-37 -69z" />
<glyph unicode="&#xe7;" horiz-adv-x="1558" d="M88 717q0 322 216 533.5t527 211.5q209 0 382 -101t270 -274l-183 -49q-72 115 -196.5 182.5t-272.5 67.5q-244 0 -401.5 -158.5t-157.5 -412.5q0 -252 160 -411t399 -159q162 0 295 79t201 210l178 -49q-86 -182 -254 -293.5t-379 -122.5l-30 -73q94 2 153.5 -51.5 t59.5 -141.5q0 -90 -60.5 -141t-156.5 -51h-156l41 102h115q51 0 80.5 24.5t29.5 65.5t-30.5 66.5t-79.5 27.5h-136l62 174q-289 25 -482.5 234t-193.5 510z" />
<glyph unicode="&#xe8;" horiz-adv-x="1294" d="M188 0v1434h963v-166h-784v-432h630v-162h-630v-508h796v-166h-975zM338 1722l65 125l441 -237l-56 -101z" />
<glyph unicode="&#xe9;" horiz-adv-x="1294" d="M188 0v1434h963v-166h-784v-432h630v-162h-630v-508h796v-166h-975zM471 1610l442 237l66 -125l-451 -213z" />
<glyph unicode="&#xea;" horiz-adv-x="1294" d="M188 0v1434h963v-166h-784v-432h630v-162h-630v-508h796v-166h-975zM344 1597l328 277l325 -277l-73 -79l-252 213l-254 -213z" />
<glyph unicode="&#xeb;" horiz-adv-x="1294" d="M188 0v1434h963v-166h-784v-432h630v-162h-630v-508h796v-166h-975zM324 1669q0 43 30.5 73t73.5 30q41 0 70.5 -31t29.5 -72q0 -43 -29.5 -72.5t-70.5 -29.5q-45 0 -74.5 29.5t-29.5 72.5zM813 1669q0 41 29.5 72t72.5 31t73 -31t30 -72q0 -43 -30 -72.5t-73 -29.5 t-72.5 29.5t-29.5 72.5z" />
<glyph unicode="&#xec;" horiz-adv-x="555" d="M-59 1722l65 125l440 -237l-55 -101zM188 0v1434h179v-1434h-179z" />
<glyph unicode="&#xed;" horiz-adv-x="555" d="M74 1610l442 237l66 -125l-451 -213zM188 0v1434h179v-1434h-179z" />
<glyph unicode="&#xee;" horiz-adv-x="555" d="M-53 1597l327 277l326 -277l-74 -79l-252 213l-254 -213zM188 0v1434h179v-1434h-179z" />
<glyph unicode="&#xef;" horiz-adv-x="555" d="M-74 1669q0 43 31 73t74 30q41 0 70.5 -31t29.5 -72q0 -43 -29.5 -72.5t-70.5 -29.5q-45 0 -75 29.5t-30 72.5zM188 0v1434h179v-1434h-179zM416 1669q0 41 29.5 72t72.5 31t73 -31t30 -72q0 -43 -30 -72.5t-73 -29.5t-72.5 29.5t-29.5 72.5z" />
<glyph unicode="&#xf0;" horiz-adv-x="1636" d="M88 647v164h111v623h606q313 0 527 -204t214 -521q0 -311 -211 -510t-518 -199h-618v647h-111zM377 166h440q229 0 387 148.5t158 394.5q0 252 -160 405.5t-397 153.5h-428v-457h356v-164h-356v-481z" />
<glyph unicode="&#xf1;" horiz-adv-x="1562" d="M207 0v1434h166l817 -1072l27 -47l-5 60v1059h181v-1434h-168l-815 1077l-29 45l4 -59v-1063h-178zM401 1571q0 94 65.5 156.5t166.5 62.5q72 0 155.5 -59.5t122.5 -59.5q43 0 71 27.5t30 68.5h143q0 -94 -65.5 -156.5t-165.5 -62.5q-66 0 -151 59.5t-128 59.5 q-45 0 -72.5 -27.5t-27.5 -68.5h-144z" />
<glyph unicode="&#xf2;" d="M88 716.5q0 321.5 216 533.5t527 212q313 0 529.5 -212t216.5 -533.5t-216 -533.5t-530 -212q-311 0 -527 212t-216 533.5zM272 717q0 -252 159 -412t400.5 -160t401.5 160t160 412q0 254 -160 412.5t-401.5 158.5t-400.5 -158.5t-159 -412.5zM500 1722l65 125l441 -237 l-56 -101z" />
<glyph unicode="&#xf3;" d="M88 716.5q0 321.5 216 533.5t527 212q313 0 529.5 -212t216.5 -533.5t-216 -533.5t-530 -212q-311 0 -527 212t-216 533.5zM272 717q0 -252 159 -412t400.5 -160t401.5 160t160 412q0 254 -160 412.5t-401.5 158.5t-400.5 -158.5t-159 -412.5zM633 1610l442 237l66 -125 l-451 -213z" />
<glyph unicode="&#xf4;" d="M88 716.5q0 321.5 216 533.5t527 212q313 0 529.5 -212t216.5 -533.5t-216 -533.5t-530 -212q-311 0 -527 212t-216 533.5zM272 717q0 -252 159 -412t400.5 -160t401.5 160t160 412q0 254 -160 412.5t-401.5 158.5t-400.5 -158.5t-159 -412.5zM506 1597l328 277l325 -277 l-74 -79l-251 213l-254 -213z" />
<glyph unicode="&#xf5;" d="M88 716.5q0 321.5 216 533.5t527 212q313 0 529.5 -212t216.5 -533.5t-216 -533.5t-530 -212q-311 0 -527 212t-216 533.5zM272 717q0 -252 159 -412t400.5 -160t401.5 160t160 412q0 254 -160 412.5t-401.5 158.5t-400.5 -158.5t-159 -412.5zM459 1571q0 94 65.5 156.5 t165.5 62.5q72 0 156 -59.5t123 -59.5q43 0 70.5 27.5t29.5 68.5h143q0 -94 -65.5 -156.5t-165.5 -62.5q-66 0 -151 59.5t-128 59.5q-45 0 -72.5 -27.5t-27.5 -68.5h-143z" />
<glyph unicode="&#xf6;" d="M88 716.5q0 321.5 216 533.5t527 212q313 0 529.5 -212t216.5 -533.5t-216 -533.5t-530 -212q-311 0 -527 212t-216 533.5zM272 717q0 -252 159 -412t400.5 -160t401.5 160t160 412q0 254 -160 412.5t-401.5 158.5t-400.5 -158.5t-159 -412.5zM485 1669q0 43 30 73t75 30 q41 0 70.5 -31t29.5 -72q0 -43 -29.5 -72.5t-70.5 -29.5q-45 0 -75 29.5t-30 72.5zM975 1669q0 41 29.5 72t72.5 31t73 -31t30 -72q0 -43 -30 -72.5t-73 -29.5t-72.5 29.5t-29.5 72.5z" />
<glyph unicode="&#xf7;" horiz-adv-x="1347" d="M188 653v150h973v-150h-973zM567 274q0 45 31 75t74 30q45 0 74.5 -31t29.5 -74t-30.5 -73.5t-73.5 -30.5q-45 0 -75 30.5t-30 73.5zM567 1184q0 45 31 74.5t74 29.5q45 0 74.5 -30.5t29.5 -73.5t-30.5 -74t-73.5 -31q-45 0 -75 31t-30 74z" />
<glyph unicode="&#xf8;" d="M88 717q0 322 216 533.5t527 211.5q211 0 390 -104l73 98l127 -94l-75 -98q231 -215 231 -547q0 -322 -216 -534t-530 -212q-215 0 -389 105l-80 -105l-126 97l79 104q-227 217 -227 545zM272 717q0 -242 152 -404l690 906q-127 70 -283 69q-242 0 -400.5 -158.5 t-158.5 -412.5zM549 215q127 -70 282 -70q242 0 402 160t160 412q0 247 -154 405z" />
<glyph unicode="&#xf9;" horiz-adv-x="1509" d="M152 596v838h180v-846q0 -211 109.5 -331t314.5 -120t313.5 119t108.5 332v846h180v-838q0 -295 -159 -461t-443.5 -166t-444 166t-159.5 461zM418 1722l65 125l441 -237l-56 -101z" />
<glyph unicode="&#xfa;" horiz-adv-x="1509" d="M152 596v838h180v-846q0 -211 109.5 -331t314.5 -120t313.5 119t108.5 332v846h180v-838q0 -295 -159 -461t-443.5 -166t-444 166t-159.5 461zM551 1610l442 237l66 -125l-451 -213z" />
<glyph unicode="&#xfb;" horiz-adv-x="1509" d="M152 596v838h180v-846q0 -211 109.5 -331t314.5 -120t313.5 119t108.5 332v846h180v-838q0 -295 -159 -461t-443.5 -166t-444 166t-159.5 461zM424 1597l328 277l325 -277l-73 -79l-252 213l-254 -213z" />
<glyph unicode="&#xfc;" horiz-adv-x="1509" d="M152 596v838h180v-846q0 -211 109.5 -331t314.5 -120t313.5 119t108.5 332v846h180v-838q0 -295 -159 -461t-443.5 -166t-444 166t-159.5 461zM403 1669q0 43 30 73t75 30q41 0 70.5 -31t29.5 -72q0 -43 -29.5 -72.5t-70.5 -29.5q-45 0 -75 29.5t-30 72.5zM893 1669 q0 41 29.5 72t72.5 31t73 -31t30 -72q0 -43 -30 -72.5t-73 -29.5t-72.5 29.5t-29.5 72.5z" />
<glyph unicode="&#xfd;" horiz-adv-x="1380" d="M27 1434h215l422 -537l26 -43l25 43l424 537h215l-574 -742v-692h-180v692zM479 1610l443 237l65 -125l-450 -213z" />
<glyph unicode="&#xfe;" horiz-adv-x="1247" d="M188 0v1434h179v-256h305q217 0 352 -130t135 -331q0 -199 -135 -326t-352 -127h-305v-264h-179zM367 430h309q137 0 218 80t81 207q0 125 -82 209t-217 84h-309v-580z" />
<glyph unicode="&#xff;" horiz-adv-x="1380" d="M27 1434h215l422 -537l26 -43l25 43l424 537h215l-574 -742v-692h-180v692zM332 1669q0 43 30.5 73t73.5 30q41 0 71 -31t30 -72q0 -43 -30 -72.5t-71 -29.5q-45 0 -74.5 29.5t-29.5 72.5zM821 1669q0 41 30 72t73 31t72.5 -31t29.5 -72q0 -43 -29.5 -72.5t-72.5 -29.5 t-73 29.5t-30 72.5z" />
<glyph unicode="&#x100;" horiz-adv-x="1593" d="M23 0l716 1434h115l717 -1434h-197l-174 348h-807l-174 -348h-196zM475 514h643l-307 614l-14 43l-15 -43zM489 1610v112h629v-112h-629z" />
<glyph unicode="&#x101;" horiz-adv-x="1593" d="M23 0l716 1434h115l717 -1434h-197l-174 348h-807l-174 -348h-196zM475 514h643l-307 614l-14 43l-15 -43zM489 1610v112h629v-112h-629z" />
<glyph unicode="&#x102;" horiz-adv-x="1593" d="M23 0l716 1434h115l717 -1434h-197l-174 348h-807l-174 -348h-196zM475 514h643l-307 614l-14 43l-15 -43zM522 1757h113q12 -57 60 -96t110 -39q59 0 107.5 40t60.5 95h110q-20 -100 -98 -165.5t-180 -65.5q-109 0 -186.5 64.5t-96.5 166.5z" />
<glyph unicode="&#x103;" horiz-adv-x="1593" d="M23 0l716 1434h115l717 -1434h-197l-174 348h-807l-174 -348h-196zM475 514h643l-307 614l-14 43l-15 -43zM522 1757h113q12 -57 60 -96t110 -39q59 0 107.5 40t60.5 95h110q-20 -100 -98 -165.5t-180 -65.5q-109 0 -186.5 64.5t-96.5 166.5z" />
<glyph unicode="&#x104;" horiz-adv-x="1593" d="M23 0l716 1434h115l717 -1434h-111q-109 0 -190.5 -53t-81.5 -160q0 -70 48 -118t128 -48q61 0 116.5 38t82.5 91l96 -63q-41 -78 -124 -129.5t-175 -51.5q-133 0 -219 78t-86 203q0 127 88 209t190 88l-133 264h-807l-174 -348h-196zM475 514h643l-307 614l-14 43 l-15 -43z" />
<glyph unicode="&#x105;" horiz-adv-x="1593" d="M23 0l716 1434h115l717 -1434h-111q-109 0 -190.5 -53t-81.5 -160q0 -70 48 -118t128 -48q61 0 116.5 38t82.5 91l96 -63q-41 -78 -124 -129.5t-175 -51.5q-133 0 -219 78t-86 203q0 127 88 209t190 88l-133 264h-807l-174 -348h-196zM475 514h643l-307 614l-14 43 l-15 -43z" />
<glyph unicode="&#x106;" horiz-adv-x="1558" d="M88 716.5q0 321.5 216 533.5t527 212q209 0 382.5 -101.5t269.5 -273.5l-183 -49q-72 115 -196.5 182.5t-272.5 67.5q-244 0 -401.5 -158.5t-157.5 -412.5q0 -252 160 -411t399 -159q162 0 295.5 79t200.5 210l178 -49q-92 -193 -271 -304.5t-403 -111.5q-311 0 -527 212 t-216 533.5zM618 1610l443 237l65 -125l-450 -213z" />
<glyph unicode="&#x107;" horiz-adv-x="1558" d="M88 716.5q0 321.5 216 533.5t527 212q209 0 382.5 -101.5t269.5 -273.5l-183 -49q-72 115 -196.5 182.5t-272.5 67.5q-244 0 -401.5 -158.5t-157.5 -412.5q0 -252 160 -411t399 -159q162 0 295.5 79t200.5 210l178 -49q-92 -193 -271 -304.5t-403 -111.5q-311 0 -527 212 t-216 533.5zM618 1610l443 237l65 -125l-450 -213z" />
<glyph unicode="&#x10a;" horiz-adv-x="1558" d="M88 716.5q0 321.5 216 533.5t527 212q209 0 382.5 -101.5t269.5 -273.5l-183 -49q-72 115 -196.5 182.5t-272.5 67.5q-244 0 -401.5 -158.5t-157.5 -412.5q0 -252 160 -411t399 -159q162 0 295.5 79t200.5 210l178 -49q-92 -193 -271 -304.5t-403 -111.5q-311 0 -527 212 t-216 533.5zM725 1669q0 43 30.5 73t73.5 30q41 0 71 -31t30 -72q0 -43 -30 -72.5t-71 -29.5q-45 0 -74.5 29.5t-29.5 72.5z" />
<glyph unicode="&#x10b;" horiz-adv-x="1558" d="M88 716.5q0 321.5 216 533.5t527 212q209 0 382.5 -101.5t269.5 -273.5l-183 -49q-72 115 -196.5 182.5t-272.5 67.5q-244 0 -401.5 -158.5t-157.5 -412.5q0 -252 160 -411t399 -159q162 0 295.5 79t200.5 210l178 -49q-92 -193 -271 -304.5t-403 -111.5q-311 0 -527 212 t-216 533.5zM725 1669q0 43 30.5 73t73.5 30q41 0 71 -31t30 -72q0 -43 -30 -72.5t-71 -29.5q-45 0 -74.5 29.5t-29.5 72.5z" />
<glyph unicode="&#x10c;" horiz-adv-x="1558" d="M88 716.5q0 321.5 216 533.5t527 212q209 0 382.5 -101.5t269.5 -273.5l-183 -49q-72 115 -196.5 182.5t-272.5 67.5q-244 0 -401.5 -158.5t-157.5 -412.5q0 -252 160 -411t399 -159q162 0 295.5 79t200.5 210l178 -49q-92 -193 -271 -304.5t-403 -111.5q-311 0 -527 212 t-216 533.5zM496 1774l327 -277l326 277l-74 79l-252 -213l-254 213z" />
<glyph unicode="&#x10d;" horiz-adv-x="1558" d="M88 716.5q0 321.5 216 533.5t527 212q209 0 382.5 -101.5t269.5 -273.5l-183 -49q-72 115 -196.5 182.5t-272.5 67.5q-244 0 -401.5 -158.5t-157.5 -412.5q0 -252 160 -411t399 -159q162 0 295.5 79t200.5 210l178 -49q-92 -193 -271 -304.5t-403 -111.5q-311 0 -527 212 t-216 533.5zM496 1774l327 -277l326 277l-74 79l-252 -213l-254 213z" />
<glyph unicode="&#x10e;" horiz-adv-x="1626" d="M188 0v1434h607q313 0 527 -204t214 -521q0 -311 -211 -510t-518 -199h-619zM367 166h440q229 0 387 148.5t158 394.5q0 252 -160 405.5t-397 153.5h-428v-1102zM432 1774l328 -277l325 277l-73 79l-252 -213l-254 213z" />
<glyph unicode="&#x10f;" horiz-adv-x="1626" d="M188 0v1434h607q313 0 527 -204t214 -521q0 -311 -211 -510t-518 -199h-619zM367 166h440q229 0 387 148.5t158 394.5q0 252 -160 405.5t-397 153.5h-428v-1102zM432 1774l328 -277l325 277l-73 79l-252 -213l-254 213z" />
<glyph unicode="&#x110;" horiz-adv-x="1636" d="M88 647v164h111v623h606q313 0 527 -204t214 -521q0 -311 -211 -510t-518 -199h-618v647h-111zM377 166h440q229 0 387 148.5t158 394.5q0 252 -160 405.5t-397 153.5h-428v-457h356v-164h-356v-481z" />
<glyph unicode="&#x111;" horiz-adv-x="1636" d="M88 647v164h111v623h606q313 0 527 -204t214 -521q0 -311 -211 -510t-518 -199h-618v647h-111zM377 166h440q229 0 387 148.5t158 394.5q0 252 -160 405.5t-397 153.5h-428v-457h356v-164h-356v-481z" />
<glyph unicode="&#x112;" horiz-adv-x="1294" d="M188 0v1434h963v-166h-784v-432h630v-162h-630v-508h796v-166h-975zM379 1610v112h629v-112h-629z" />
<glyph unicode="&#x113;" horiz-adv-x="1294" d="M188 0v1434h963v-166h-784v-432h630v-162h-630v-508h796v-166h-975zM371 1610v112h628v-112h-628z" />
<glyph unicode="&#x116;" horiz-adv-x="1294" d="M188 0v1434h963v-166h-784v-432h630v-162h-630v-508h796v-166h-975zM586 1669q0 43 30.5 73t73.5 30q41 0 71 -31t30 -72q0 -43 -30 -72.5t-71 -29.5q-45 0 -74.5 29.5t-29.5 72.5z" />
<glyph unicode="&#x117;" horiz-adv-x="1294" d="M188 0v1434h963v-166h-784v-432h630v-162h-630v-508h796v-166h-975zM586 1669q0 43 30.5 73t73.5 30q41 0 71 -31t30 -72q0 -43 -30 -72.5t-71 -29.5q-45 0 -74.5 29.5t-29.5 72.5z" />
<glyph unicode="&#x118;" horiz-adv-x="1294" d="M188 0v1434h963v-166h-784v-432h630v-162h-630v-508h796v-166h-192q-109 0 -191 -53t-82 -160q0 -70 48.5 -118t127.5 -48q61 0 116.5 38t82.5 91l96 -63q-41 -78 -123.5 -129.5t-175.5 -51.5q-133 0 -219 78t-86 203t92 213h-469z" />
<glyph unicode="&#x119;" horiz-adv-x="1294" d="M188 0v1434h963v-166h-784v-432h630v-162h-630v-508h796v-166h-157q-109 0 -191 -53t-82 -160q0 -70 48 -118t128 -48q61 0 116.5 38t82.5 91l96 -63q-41 -78 -124 -129.5t-175 -51.5q-133 0 -219 78t-86 203t92 213h-504z" />
<glyph unicode="&#x11a;" horiz-adv-x="1294" d="M188 0v1434h963v-166h-784v-432h630v-162h-630v-508h796v-166h-975zM356 1774l74 79l254 -213l252 213l74 -79l-326 -277z" />
<glyph unicode="&#x11b;" horiz-adv-x="1294" d="M188 0v1434h963v-166h-784v-432h630v-162h-630v-508h796v-166h-975zM348 1774l74 79l254 -213l252 213l73 -79l-325 -277z" />
<glyph unicode="&#x11c;" horiz-adv-x="1628" d="M88 716.5q0 321.5 216 533.5t527 212q217 -4 386 -104.5t266 -270.5l-180 -47q-72 115 -198 181.5t-274 66.5q-244 0 -401.5 -158.5t-157.5 -412.5t162 -414t406 -160q190 0 326.5 89.5t185.5 197.5v166h-434v149h587v-747h-155v211q-70 -88 -202 -163t-317 -75 q-311 0 -527 212t-216 533.5zM485 1597l328 277l326 -277l-74 -79l-252 213l-254 -213z" />
<glyph unicode="&#x11d;" horiz-adv-x="1628" d="M88 716.5q0 321.5 216 533.5t527 212q217 -4 386 -104.5t266 -270.5l-180 -47q-72 115 -198 181.5t-274 66.5q-244 0 -401.5 -158.5t-157.5 -412.5t162 -414t406 -160q190 0 326.5 89.5t185.5 197.5v166h-434v149h587v-747h-155v211q-70 -88 -202 -163t-317 -75 q-311 0 -527 212t-216 533.5zM485 1597l328 277l326 -277l-74 -79l-252 213l-254 -213z" />
<glyph unicode="&#x11e;" horiz-adv-x="1628" d="M88 716.5q0 321.5 216 533.5t527 212q217 -4 386 -104.5t266 -270.5l-180 -47q-72 115 -198 181.5t-274 66.5q-244 0 -401.5 -158.5t-157.5 -412.5t162 -414t406 -160q190 0 326.5 89.5t185.5 197.5v166h-434v149h587v-747h-155v211q-70 -88 -202 -163t-317 -75 q-311 0 -527 212t-216 533.5zM545 1757h112q12 -57 60.5 -96t109.5 -39q59 0 107.5 40t60.5 95h111q-20 -100 -98 -165.5t-181 -65.5q-109 0 -186.5 64.5t-95.5 166.5z" />
<glyph unicode="&#x11f;" horiz-adv-x="1628" d="M88 716.5q0 321.5 216 533.5t527 212q217 -4 386 -104.5t266 -270.5l-180 -47q-72 115 -198 181.5t-274 66.5q-244 0 -401.5 -158.5t-157.5 -412.5t162 -414t406 -160q190 0 326.5 89.5t185.5 197.5v166h-434v149h587v-747h-155v211q-70 -88 -202 -163t-317 -75 q-311 0 -527 212t-216 533.5zM545 1757h112q12 -57 60.5 -96t109.5 -39q59 0 107.5 40t60.5 95h111q-20 -100 -98 -165.5t-181 -65.5q-109 0 -186.5 64.5t-95.5 166.5z" />
<glyph unicode="&#x120;" horiz-adv-x="1628" d="M88 716.5q0 321.5 216 533.5t527 212q217 -4 386 -104.5t266 -270.5l-180 -47q-72 115 -198 181.5t-274 66.5q-244 0 -401.5 -158.5t-157.5 -412.5t162 -414t406 -160q190 0 326.5 89.5t185.5 197.5v166h-434v149h587v-747h-155v211q-70 -88 -202 -163t-317 -75 q-311 0 -527 212t-216 533.5zM719 1669q0 43 29.5 73t74.5 30q41 0 71 -31t30 -72q0 -43 -30 -72.5t-71 -29.5q-45 0 -74.5 29.5t-29.5 72.5z" />
<glyph unicode="&#x121;" horiz-adv-x="1628" d="M88 716.5q0 321.5 216 533.5t527 212q217 -4 386 -104.5t266 -270.5l-180 -47q-72 115 -198 181.5t-274 66.5q-244 0 -401.5 -158.5t-157.5 -412.5t162 -414t406 -160q190 0 326.5 89.5t185.5 197.5v166h-434v149h587v-747h-155v211q-70 -88 -202 -163t-317 -75 q-311 0 -527 212t-216 533.5zM719 1669q0 43 29.5 73t74.5 30q41 0 71 -31t30 -72q0 -43 -30 -72.5t-71 -29.5q-45 0 -74.5 29.5t-29.5 72.5z" />
<glyph unicode="&#x122;" horiz-adv-x="1628" d="M88 716.5q0 321.5 216 533.5t527 212q217 -4 386 -104.5t266 -270.5l-180 -47q-72 115 -198 181.5t-274 66.5q-244 0 -401.5 -158.5t-157.5 -412.5t162 -414t406 -160q190 0 326.5 89.5t185.5 197.5v166h-434v149h587v-747h-155v211q-70 -88 -202 -163t-317 -75 q-311 0 -527 212t-216 533.5zM688 -522q47 45 81 110.5t34 122.5l20 8l-20 2q-33 0 -61.5 27t-28.5 70t30.5 71.5t73.5 28.5t73 -34t30 -87q0 -84 -46.5 -170t-111.5 -149h-74z" />
<glyph unicode="&#x123;" horiz-adv-x="1628" d="M88 716.5q0 321.5 216 533.5t527 212q217 -4 386 -104.5t266 -270.5l-180 -47q-72 115 -198 181.5t-274 66.5q-244 0 -401.5 -158.5t-157.5 -412.5t162 -414t406 -160q190 0 326.5 89.5t185.5 197.5v166h-434v149h587v-747h-155v211q-70 -88 -202 -163t-317 -75 q-311 0 -527 212t-216 533.5zM688 -522q47 45 81 110.5t34 122.5l20 8l-20 2q-33 0 -61.5 27t-28.5 70t30.5 71.5t73.5 28.5t73 -34t30 -87q0 -84 -46.5 -170t-111.5 -149h-74z" />
<glyph unicode="&#x124;" horiz-adv-x="1503" d="M188 0v1434h179v-609h770v609h178v-1434h-178v657h-770v-657h-179zM420 1597l328 277l325 -277l-74 -79l-251 213l-254 -213z" />
<glyph unicode="&#x125;" horiz-adv-x="1503" d="M188 0v1434h179v-609h770v609h178v-1434h-178v657h-770v-657h-179zM420 1597l328 277l325 -277l-74 -79l-251 213l-254 -213z" />
<glyph unicode="&#x126;" horiz-adv-x="1503" d="M55 1133v141h131v160h179v-160h770v160h178v-160h133v-141h-133v-1133h-178v657h-770v-657h-179v1133h-131zM365 825h770v308h-770v-308z" />
<glyph unicode="&#x127;" horiz-adv-x="1503" d="M55 1133v141h131v160h179v-160h770v160h178v-160h133v-141h-133v-1133h-178v657h-770v-657h-179v1133h-131zM365 825h770v308h-770v-308z" />
<glyph unicode="&#x12a;" horiz-adv-x="555" d="M-27 1610v112h629v-112h-629zM188 0v1434h179v-1434h-179z" />
<glyph unicode="&#x12b;" horiz-adv-x="555" d="M-27 1610v112h629v-112h-629zM188 0v1434h179v-1434h-179z" />
<glyph unicode="&#x12e;" horiz-adv-x="555" d="M-92 -213q0 129 89 210t191 87v1350h179v-1434h-54q-109 0 -190.5 -53t-81.5 -160q0 -70 48 -118t128 -48q61 0 116.5 38t82.5 91l96 -63q-41 -78 -124 -129.5t-175 -51.5q-133 0 -219 78t-86 203z" />
<glyph unicode="&#x12f;" horiz-adv-x="555" d="M-92 -213q0 129 89 210t191 87v1350h179v-1434h-54q-109 0 -190.5 -53t-81.5 -160q0 -70 48 -118t128 -48q61 0 116.5 38t82.5 91l96 -63q-41 -78 -124 -129.5t-175 -51.5q-133 0 -219 78t-86 203z" />
<glyph unicode="&#x130;" horiz-adv-x="555" d="M180 1669q0 43 31 73t74 30q41 0 70.5 -31t29.5 -72q0 -43 -29.5 -72.5t-70.5 -29.5q-45 0 -75 29.5t-30 72.5zM188 0v1434h179v-1434h-179z" />
<glyph unicode="&#x131;" horiz-adv-x="555" d="M188 0v1434h179v-1434h-179z" />
<glyph unicode="&#x132;" horiz-adv-x="1900" d="M188 0v1434h179v-1434h-179zM575 367l177 47q35 -127 142 -202t251 -75q207 0 315.5 119t108.5 332v846h180v-838q0 -295 -159.5 -461t-444.5 -166q-207 0 -362.5 110.5t-207.5 287.5z" />
<glyph unicode="&#x133;" horiz-adv-x="1900" d="M188 0v1434h179v-1434h-179zM575 367l177 47q35 -127 142 -202t251 -75q207 0 315.5 119t108.5 332v846h180v-838q0 -295 -159.5 -461t-444.5 -166q-207 0 -362.5 110.5t-207.5 287.5z" />
<glyph unicode="&#x134;" horiz-adv-x="1345" d="M20 367l177 47q35 -127 142 -202t251 -75q207 0 315.5 119t108.5 332v846h180v-838q0 -295 -160 -461t-444 -166q-207 0 -362.5 110.5t-207.5 287.5zM799 1597l327 277l326 -277l-74 -79l-252 213l-254 -213z" />
<glyph unicode="&#x135;" horiz-adv-x="1345" d="M20 367l177 47q35 -127 142 -202t251 -75q207 0 315.5 119t108.5 332v846h180v-838q0 -295 -160 -461t-444 -166q-207 0 -362.5 110.5t-207.5 287.5zM799 1597l327 277l326 -277l-74 -79l-252 213l-254 -213z" />
<glyph unicode="&#x136;" horiz-adv-x="1417" d="M188 0v1434h179v-719l725 719h208l-583 -584l649 -850h-221l-551 725l-227 -225v-500h-179zM578 -522q47 45 80.5 110.5t33.5 122.5l21 8l-21 2q-33 0 -61.5 27t-28.5 70t31 71.5t74 28.5t72.5 -34t29.5 -87q0 -84 -46 -170t-112 -149h-73z" />
<glyph unicode="&#x137;" horiz-adv-x="1417" d="M188 0v1434h179v-719l725 719h208l-583 -584l649 -850h-221l-551 725l-227 -225v-500h-179zM594 -522q47 45 81 110.5t34 122.5l20 8l-20 2q-33 0 -62 27t-29 70t31 71.5t74 28.5t72.5 -34t29.5 -87q0 -84 -46 -170t-111 -149h-74z" />
<glyph unicode="&#x139;" horiz-adv-x="1171" d="M80 1610l442 237l66 -125l-451 -213zM188 0v1434h179v-1268h763v-166h-942z" />
<glyph unicode="&#x13a;" horiz-adv-x="1171" d="M80 1610l442 237l66 -125l-451 -213zM188 0v1434h179v-1268h763v-166h-942z" />
<glyph unicode="&#x13b;" horiz-adv-x="1171" d="M188 0v1434h179v-1268h763v-166h-942zM524 -522q47 45 81 110.5t34 122.5l20 8l-20 2q-33 0 -61.5 27t-28.5 70t30.5 71.5t73.5 28.5t73 -34t30 -87q0 -84 -46 -170t-112 -149h-74z" />
<glyph unicode="&#x13c;" horiz-adv-x="1171" d="M188 0v1434h179v-1268h763v-166h-942zM494 -522q47 45 80.5 110.5t33.5 122.5l21 8l-21 2q-33 0 -61.5 27t-28.5 70t31 71.5t74 28.5t72.5 -34t29.5 -87q0 -84 -46 -170t-112 -149h-73z" />
<glyph unicode="&#x13d;" horiz-adv-x="1171" d="M188 0v1434h179v-1268h763v-166h-942zM504 1018q47 45 83 113.5t36 128.5l20 8l-20 2q-35 0 -64 27.5t-29 70.5q0 45 31 75t76 30t75.5 -35t30.5 -90q0 -88 -48 -176.5t-115 -153.5h-76z" />
<glyph unicode="&#x13e;" horiz-adv-x="1171" d="M188 0v1434h179v-1268h763v-166h-942zM520 1018q47 45 83 113.5t36 128.5l20 8l-20 2q-35 0 -63.5 27.5t-28.5 70.5q0 45 30.5 75t75.5 30t76 -35t31 -90q0 -88 -48 -176.5t-116 -153.5h-76z" />
<glyph unicode="&#x13f;" horiz-adv-x="1171" d="M188 0v1434h179v-1268h763v-166h-942zM694 784q0 43 30 73t75 30q41 0 70.5 -31t29.5 -72q0 -43 -29.5 -72.5t-70.5 -29.5q-45 0 -75 29.5t-30 72.5z" />
<glyph unicode="&#x140;" horiz-adv-x="1171" d="M188 0v1434h179v-1268h763v-166h-942zM694 784q0 43 30 73t75 30q41 0 70.5 -31t29.5 -72q0 -43 -29.5 -72.5t-70.5 -29.5q-45 0 -75 29.5t-30 72.5z" />
<glyph unicode="&#x141;" horiz-adv-x="1171" d="M188 0v1434h179v-678l606 307v-170l-606 -307v-420h763v-166h-942z" />
<glyph unicode="&#x142;" horiz-adv-x="1171" d="M188 0v1434h179v-678l606 307v-170l-606 -307v-420h763v-166h-942z" />
<glyph unicode="&#x143;" horiz-adv-x="1597" d="M207 0v1434h166l817 -1072l27 -47l-5 60v1059h181v-1434h-168l-815 1077l-29 45l4 -59v-1063h-178zM606 1610l443 237l65 -125l-450 -213z" />
<glyph unicode="&#x144;" horiz-adv-x="1562" d="M207 0v1434h166l817 -1072l27 -47l-5 60v1059h181v-1434h-168l-815 1077l-29 45l4 -59v-1063h-178zM575 1610l443 237l65 -125l-450 -213z" />
<glyph unicode="&#x145;" horiz-adv-x="1597" d="M207 0v1434h166l817 -1072l27 -47l-5 60v1059h181v-1434h-168l-815 1077l-29 45l4 -59v-1063h-178zM678 -522q47 45 81 110.5t34 122.5l20 8l-20 2q-33 0 -62 27t-29 70t31 71.5t74 28.5t72.5 -34t29.5 -87q0 -84 -46 -170t-111 -149h-74z" />
<glyph unicode="&#x146;" horiz-adv-x="1562" d="M207 0v1434h166l817 -1072l27 -47l-5 60v1059h181v-1434h-168l-815 1077l-29 45l4 -59v-1063h-178zM659 -522q47 45 81 110.5t34 122.5l21 8l-21 2q-33 0 -61.5 27t-28.5 70t30.5 71.5t73.5 28.5t73 -34t30 -87q0 -84 -46 -170t-112 -149h-74z" />
<glyph unicode="&#x147;" horiz-adv-x="1597" d="M207 0v1434h166l817 -1072l27 -47l-5 60v1059h181v-1434h-168l-815 1077l-29 45l4 -59v-1063h-178zM483 1774l328 -277l326 277l-74 79l-252 -213l-254 213z" />
<glyph unicode="&#x148;" horiz-adv-x="1562" d="M207 0v1434h166l817 -1072l27 -47l-5 60v1059h181v-1434h-168l-815 1077l-29 45l4 -59v-1063h-178zM453 1774l327 -277l326 277l-74 79l-252 -213l-254 213z" />
<glyph unicode="&#x14a;" horiz-adv-x="1562" d="M188 0v1434h166l817 -1072l27 -47l-4 60v1059h180v-1434q0 -184 -108.5 -304t-274.5 -120h-84v150h74q98 0 155.5 74.5t57.5 199.5h12l-815 1077l-29 45l5 -59v-1063h-179z" />
<glyph unicode="&#x14b;" horiz-adv-x="1562" d="M188 0v1434h166l817 -1072l27 -47l-4 60v1059h180v-1434q0 -184 -108.5 -304t-274.5 -120h-84v150h74q98 0 155.5 74.5t57.5 199.5h12l-815 1077l-29 45l5 -59v-1063h-179z" />
<glyph unicode="&#x14c;" d="M88 716.5q0 321.5 216 533.5t527 212q313 0 529.5 -212t216.5 -533.5t-216 -533.5t-530 -212q-311 0 -527 212t-216 533.5zM272 717q0 -252 159 -412t400.5 -160t401.5 160t160 412q0 254 -160 412.5t-401.5 158.5t-400.5 -158.5t-159 -412.5zM537 1610v112h628v-112 h-628z" />
<glyph unicode="&#x14d;" d="M88 716.5q0 321.5 216 533.5t527 212q313 0 529.5 -212t216.5 -533.5t-216 -533.5t-530 -212q-311 0 -527 212t-216 533.5zM272 717q0 -252 159 -412t400.5 -160t401.5 160t160 412q0 254 -160 412.5t-401.5 158.5t-400.5 -158.5t-159 -412.5zM532 1610v112h629v-112 h-629z" />
<glyph unicode="&#x150;" d="M88 716.5q0 321.5 216 533.5t527 212q313 0 529.5 -212t216.5 -533.5t-216 -533.5t-530 -212q-311 0 -527 212t-216 533.5zM272 717q0 -252 159 -412t400.5 -160t401.5 160t160 412q0 254 -160 412.5t-401.5 158.5t-400.5 -158.5t-159 -412.5zM432 1610l442 237l66 -125 l-451 -213zM838 1610l442 237l66 -125l-451 -213z" />
<glyph unicode="&#x151;" d="M88 716.5q0 321.5 216 533.5t527 212q313 0 529.5 -212t216.5 -533.5t-216 -533.5t-530 -212q-311 0 -527 212t-216 533.5zM272 717q0 -252 159 -412t400.5 -160t401.5 160t160 412q0 254 -160 412.5t-401.5 158.5t-400.5 -158.5t-159 -412.5zM428 1610l442 237l66 -125 l-451 -213zM834 1610l442 237l65 -125l-450 -213z" />
<glyph unicode="&#x152;" horiz-adv-x="2158" d="M88 716.5q0 317.5 214 525.5t525 208q158 0 299 -61v45h889v-166h-708v-432h628v-162h-628v-508h721v-166h-902v45q-141 -61 -299 -61q-311 0 -525 207.5t-214 525zM272 717q0 -250 160 -407.5t395 -157.5q166 0 299 86v960q-139 86 -299 86q-238 0 -396.5 -156.5 t-158.5 -410.5z" />
<glyph unicode="&#x153;" horiz-adv-x="2158" d="M88 716.5q0 317.5 214 525.5t525 208q158 0 299 -61v45h889v-166h-708v-432h628v-162h-628v-508h721v-166h-902v45q-141 -61 -299 -61q-311 0 -525 207.5t-214 525zM272 717q0 -250 160 -407.5t395 -157.5q166 0 299 86v960q-139 86 -299 86q-238 0 -396.5 -156.5 t-158.5 -410.5z" />
<glyph unicode="&#x154;" horiz-adv-x="1312" d="M188 0v1434h443q252 0 396 -121t144 -330q0 -154 -77.5 -261.5t-221.5 -154.5l355 -567h-201l-334 532q-18 -2 -61 -2h-264v-530h-179zM367 698h282q164 0 251 78t87 207q0 133 -89 209t-249 76h-282v-570zM414 1610l442 237l66 -125l-451 -213z" />
<glyph unicode="&#x155;" horiz-adv-x="1312" d="M188 0v1434h443q252 0 396 -121t144 -330q0 -154 -77.5 -261.5t-221.5 -154.5l355 -567h-201l-334 532q-18 -2 -61 -2h-264v-530h-179zM367 698h282q164 0 251 78t87 207q0 133 -89 209t-249 76h-282v-570zM459 1610l442 237l66 -125l-451 -213z" />
<glyph unicode="&#x156;" horiz-adv-x="1312" d="M188 0v1434h443q252 0 396 -121t144 -330q0 -154 -78 -261.5t-221 -154.5l355 -567h-201l-334 532q-18 -2 -61 -2h-264v-530h-179zM367 698h282q164 0 251 78t87 207q0 133 -89 209t-249 76h-282v-570zM516 -522q47 45 81 110.5t34 122.5l20 8l-20 2q-33 0 -61.5 27 t-28.5 70t30.5 71.5t73.5 28.5t73 -34t30 -87q0 -84 -46.5 -170t-111.5 -149h-74z" />
<glyph unicode="&#x157;" horiz-adv-x="1312" d="M188 0v1434h443q252 0 396 -121t144 -330q0 -154 -78 -261.5t-221 -154.5l355 -567h-201l-334 532q-18 -2 -61 -2h-264v-530h-179zM367 698h282q164 0 251 78t87 207q0 133 -89 209t-249 76h-282v-570zM555 -522q47 45 81 110.5t34 122.5l20 8l-20 2q-33 0 -61.5 27 t-28.5 70t30.5 71.5t73.5 28.5t72.5 -34t29.5 -87q0 -84 -46 -170t-111 -149h-74z" />
<glyph unicode="&#x158;" horiz-adv-x="1312" d="M188 0v1434h443q252 0 396 -121t144 -330q0 -154 -77.5 -261.5t-221.5 -154.5l355 -567h-201l-334 532q-18 -2 -61 -2h-264v-530h-179zM291 1774l74 79l253 -213l252 213l74 -79l-326 -277zM367 698h282q164 0 251 78t87 207q0 133 -89 209t-249 76h-282v-570z" />
<glyph unicode="&#x159;" horiz-adv-x="1312" d="M188 0v1434h443q252 0 396 -121t144 -330q0 -154 -77.5 -261.5t-221.5 -154.5l355 -567h-201l-334 532q-18 -2 -61 -2h-264v-530h-179zM291 1774l74 79l253 -213l252 213l74 -79l-326 -277zM367 698h282q164 0 251 78t87 207q0 133 -89 209t-249 76h-282v-570z" />
<glyph unicode="&#x15a;" horiz-adv-x="1222" d="M70 395l174 47q14 -131 117.5 -220t267.5 -89q152 0 243 70.5t91 181.5q0 37 -12.5 68.5t-30 54t-51 46.5t-58.5 38t-73 32l-74 26q-27 9 -82 26l-74 22q-68 20 -109 36t-103.5 48.5t-97 68.5t-62 93t-27.5 127q0 168 142 279.5t359 111.5q197 0 337 -105.5t179 -279.5 l-170 -45q-25 127 -121 201t-229 74q-141 0 -228 -60.5t-87 -169.5q0 -66 56 -116t108.5 -69.5t173.5 -55.5q31 -10 45 -15l91 -27q30 -10 89 -33.5t91 -43t77 -54t66.5 -71.5t39 -89t17.5 -112q0 -182 -145.5 -301t-378.5 -119q-223 0 -367.5 117t-183.5 307zM428 1610 l442 237l66 -125l-451 -213z" />
<glyph unicode="&#x15b;" horiz-adv-x="1222" d="M70 395l174 47q14 -131 117.5 -220t267.5 -89q152 0 243 70.5t91 181.5q0 37 -12.5 68.5t-30 54t-51 46.5t-58.5 38t-73 32l-74 26q-27 9 -82 26l-74 22q-68 20 -109 36t-103.5 48.5t-97 68.5t-62 93t-27.5 127q0 168 142 279.5t359 111.5q197 0 337 -105.5t179 -279.5 l-170 -45q-25 127 -121 201t-229 74q-141 0 -228 -60.5t-87 -169.5q0 -66 56 -116t108.5 -69.5t173.5 -55.5q31 -10 45 -15l91 -27q30 -10 89 -33.5t91 -43t77 -54t66.5 -71.5t39 -89t17.5 -112q0 -182 -145.5 -301t-378.5 -119q-223 0 -367.5 117t-183.5 307zM455 1610 l442 237l66 -125l-451 -213z" />
<glyph unicode="&#x15c;" horiz-adv-x="1222" d="M70 395l174 47q14 -131 117.5 -220t267.5 -89q152 0 243 70.5t91 181.5q0 37 -12.5 68.5t-30 54t-51 46.5t-58.5 38t-73 32l-74 26q-27 9 -82 26l-74 22q-68 20 -109 36t-103.5 48.5t-97 68.5t-62 93t-27.5 127q0 168 142 279.5t359 111.5q197 0 337 -105.5t179 -279.5 l-170 -45q-25 127 -121 201t-229 74q-141 0 -228 -60.5t-87 -169.5q0 -66 56 -116t108.5 -69.5t173.5 -55.5q31 -10 45 -15l91 -27q30 -10 89 -33.5t91 -43t77 -54t66.5 -71.5t39 -89t17.5 -112q0 -182 -145.5 -301t-378.5 -119q-223 0 -367.5 117t-183.5 307zM301 1597 l328 277l325 -277l-73 -79l-252 213l-254 -213z" />
<glyph unicode="&#x15d;" horiz-adv-x="1222" d="M70 395l174 47q14 -131 117.5 -220t267.5 -89q152 0 243 70.5t91 181.5q0 37 -12.5 68.5t-30 54t-51 46.5t-58.5 38t-73 32l-74 26q-27 9 -82 26l-74 22q-68 20 -109 36t-103.5 48.5t-97 68.5t-62 93t-27.5 127q0 168 142 279.5t359 111.5q197 0 337 -105.5t179 -279.5 l-170 -45q-25 127 -121 201t-229 74q-141 0 -228 -60.5t-87 -169.5q0 -66 56 -116t108.5 -69.5t173.5 -55.5q31 -10 45 -15l91 -27q30 -10 89 -33.5t91 -43t77 -54t66.5 -71.5t39 -89t17.5 -112q0 -182 -145.5 -301t-378.5 -119q-223 0 -367.5 117t-183.5 307zM301 1597 l328 277l325 -277l-73 -79l-252 213l-254 -213z" />
<glyph unicode="&#x15e;" horiz-adv-x="1222" d="M70 395l174 47q14 -131 117.5 -220t267.5 -89q152 0 243 70.5t91 181.5q0 37 -12.5 68.5t-30 54t-51 46.5t-58.5 38t-73 32l-74 26q-27 9 -82 26l-74 22q-68 20 -109 36t-103.5 48.5t-97 68.5t-62 93t-27.5 127q0 168 142 279.5t359 111.5q197 0 337 -105.5t179 -279.5 l-170 -45q-25 127 -121 201t-229 74q-141 0 -228 -60.5t-87 -169.5q0 -66 56 -116t108.5 -69.5t173.5 -55.5q31 -10 45 -15l91 -27q30 -10 89 -33.5t91 -43t77 -54t66.5 -71.5t39 -89t17.5 -112q0 -168 -122 -281.5t-325 -134.5l-30 -77q94 2 153.5 -51.5t59.5 -141.5 q0 -90 -60.5 -141t-156.5 -51h-156l41 102h115q51 0 80.5 24.5t29.5 65.5t-30.5 66.5t-79.5 27.5h-136l60 172q-211 8 -346.5 125t-171.5 299z" />
<glyph unicode="&#x15f;" horiz-adv-x="1222" d="M70 395l174 47q14 -131 117.5 -220t267.5 -89q152 0 243 70.5t91 181.5q0 37 -12.5 68.5t-30 54t-51 46.5t-58.5 38t-73 32l-74 26q-27 9 -82 26l-74 22q-68 20 -109 36t-103.5 48.5t-97 68.5t-62 93t-27.5 127q0 168 142 279.5t359 111.5q197 0 337 -105.5t179 -279.5 l-170 -45q-25 127 -121 201t-229 74q-141 0 -228 -60.5t-87 -169.5q0 -66 56 -116t108.5 -69.5t173.5 -55.5q31 -10 45 -15l91 -27q30 -10 89 -33.5t91 -43t77 -54t66.5 -71.5t39 -89t17.5 -112q0 -164 -120 -278.5t-318 -137.5l-31 -77q94 2 153.5 -51.5t59.5 -141.5 q0 -90 -60.5 -141t-156.5 -51h-156l41 102h115q51 0 80.5 24.5t29.5 65.5t-30.5 66.5t-79.5 27.5h-135l59 172q-213 8 -351.5 124t-174.5 300z" />
<glyph unicode="&#x160;" horiz-adv-x="1222" d="M70 395l174 47q14 -131 117.5 -220t267.5 -89q152 0 243 70.5t91 181.5q0 37 -12.5 68.5t-30 54t-51 46.5t-58.5 38t-73 32l-74 26q-27 9 -82 26l-74 22q-68 20 -109 36t-103.5 48.5t-97 68.5t-62 93t-27.5 127q0 168 142 279.5t359 111.5q197 0 337 -105.5t179 -279.5 l-170 -45q-25 127 -121 201t-229 74q-141 0 -228 -60.5t-87 -169.5q0 -66 56 -116t108.5 -69.5t173.5 -55.5q31 -10 45 -15l91 -27q30 -10 89 -33.5t91 -43t77 -54t66.5 -71.5t39 -89t17.5 -112q0 -182 -145.5 -301t-378.5 -119q-223 0 -367.5 117t-183.5 307zM305 1774 l328 -277l325 277l-73 79l-252 -213l-254 213z" />
<glyph unicode="&#x161;" horiz-adv-x="1222" d="M70 395l174 47q14 -131 117.5 -220t267.5 -89q152 0 243 70.5t91 181.5q0 37 -12.5 68.5t-30 54t-51 46.5t-58.5 38t-73 32l-74 26q-27 9 -82 26l-74 22q-68 20 -109 36t-103.5 48.5t-97 68.5t-62 93t-27.5 127q0 168 142 279.5t359 111.5q197 0 337 -105.5t179 -279.5 l-170 -45q-25 127 -121 201t-229 74q-141 0 -228 -60.5t-87 -169.5q0 -66 56 -116t108.5 -69.5t173.5 -55.5q31 -10 45 -15l91 -27q30 -10 89 -33.5t91 -43t77 -54t66.5 -71.5t39 -89t17.5 -112q0 -182 -145.5 -301t-378.5 -119q-223 0 -367.5 117t-183.5 307zM332 1774 l327 -277l326 277l-74 79l-252 -213l-253 213z" />
<glyph unicode="&#x162;" horiz-adv-x="1218" d="M43 1268v166h1131v-166h-478v-1268h-34l-41 -102q94 2 153.5 -51.5t59.5 -141.5q0 -90 -60.5 -141t-157.5 -51h-155l41 102h114q51 0 81 24.5t30 65.5t-30.5 66.5t-80.5 27.5h-135l70 201h-33v1268h-475z" />
<glyph unicode="&#x163;" horiz-adv-x="1218" d="M43 1268v166h1131v-166h-478v-1268h-34l-41 -102q94 2 153.5 -51.5t59.5 -141.5q0 -90 -60.5 -141t-157.5 -51h-155l41 102h114q51 0 81 24.5t30 65.5t-30.5 66.5t-80.5 27.5h-135l70 201h-33v1268h-475z" />
<glyph unicode="&#x164;" horiz-adv-x="1218" d="M43 1268v166h1131v-166h-478v-1268h-178v1268h-475zM295 1774l74 79l254 -213l251 213l74 -79l-325 -277z" />
<glyph unicode="&#x165;" horiz-adv-x="1218" d="M43 1268v166h1131v-166h-478v-1268h-178v1268h-475zM295 1774l74 79l254 -213l251 213l74 -79l-325 -277z" />
<glyph unicode="&#x166;" horiz-adv-x="1218" d="M43 1268v166h1131v-166h-478v-420h256v-146h-256v-702h-178v702h-246v146h246v420h-475z" />
<glyph unicode="&#x167;" horiz-adv-x="1218" d="M43 1268v166h1131v-166h-478v-420h256v-146h-256v-702h-178v702h-246v146h246v420h-475z" />
<glyph unicode="&#x16a;" horiz-adv-x="1509" d="M152 596v838h180v-846q0 -211 109.5 -331t314.5 -120t313.5 119t108.5 332v846h180v-838q0 -295 -159 -461t-443.5 -166t-444 166t-159.5 461zM451 1610v112h628v-112h-628z" />
<glyph unicode="&#x16b;" horiz-adv-x="1509" d="M152 596v838h180v-846q0 -211 109.5 -331t314.5 -120t313.5 119t108.5 332v846h180v-838q0 -295 -159 -461t-443.5 -166t-444 166t-159.5 461zM451 1610v112h628v-112h-628z" />
<glyph unicode="&#x16c;" horiz-adv-x="1509" d="M152 596v838h180v-846q0 -211 109.5 -331t314.5 -120t313.5 119t108.5 332v846h180v-838q0 -295 -159 -461t-443.5 -166t-444 166t-159.5 461zM483 1757h113q12 -57 60.5 -96t109.5 -39q59 0 107.5 40t60.5 95h110q-20 -100 -98 -165.5t-180 -65.5q-109 0 -187 64.5 t-96 166.5z" />
<glyph unicode="&#x16d;" horiz-adv-x="1509" d="M152 596v838h180v-846q0 -211 109.5 -331t314.5 -120t313.5 119t108.5 332v846h180v-838q0 -295 -159 -461t-443.5 -166t-444 166t-159.5 461zM483 1757h113q12 -57 60.5 -96t109.5 -39q59 0 107.5 40t60.5 95h110q-20 -100 -98 -165.5t-180 -65.5q-109 0 -187 64.5 t-96 166.5z" />
<glyph unicode="&#x16e;" horiz-adv-x="1509" d="M152 596v838h180v-846q0 -211 109.5 -331t314.5 -120t313.5 119t108.5 332v846h180v-838q0 -295 -159 -461t-443.5 -166t-444 166t-159.5 461zM543 1585q0 88 62.5 150.5t152.5 62.5q88 0 150.5 -62.5t62.5 -150.5t-62.5 -150.5t-150.5 -62.5t-151.5 62.5t-63.5 150.5z M641 1587q0 -47 35 -82t82 -35t81.5 35t34.5 82q0 49 -34.5 83t-81.5 34t-82 -34t-35 -83z" />
<glyph unicode="&#x16f;" horiz-adv-x="1509" d="M152 596v838h180v-846q0 -211 109.5 -331t314.5 -120t313.5 119t108.5 332v846h180v-838q0 -295 -159 -461t-443.5 -166t-444 166t-159.5 461zM543 1585q0 88 62.5 150.5t152.5 62.5q88 0 150.5 -62.5t62.5 -150.5t-62.5 -150.5t-150.5 -62.5t-151.5 62.5t-63.5 150.5z M641 1587q0 -47 35 -82t82 -35t81.5 35t34.5 82q0 49 -34.5 83t-81.5 34t-82 -34t-35 -83z" />
<glyph unicode="&#x170;" horiz-adv-x="1509" d="M152 596v838h180v-846q0 -211 109.5 -331t314.5 -120t313.5 119t108.5 332v846h180v-838q0 -295 -159 -461t-443.5 -166t-444 166t-159.5 461zM346 1610l442 237l66 -125l-451 -213zM752 1610l442 237l66 -125l-451 -213z" />
<glyph unicode="&#x171;" horiz-adv-x="1509" d="M152 596v838h180v-846q0 -211 109.5 -331t314.5 -120t313.5 119t108.5 332v846h180v-838q0 -295 -159 -461t-443.5 -166t-444 166t-159.5 461zM346 1610l442 237l66 -125l-451 -213zM752 1610l442 237l66 -125l-451 -213z" />
<glyph unicode="&#x172;" horiz-adv-x="1509" d="M152 596v838h180v-846q0 -211 109.5 -331t314.5 -120t313.5 119t108.5 332v846h180v-838q0 -246 -111.5 -403.5t-316.5 -204.5q-94 -35 -148.5 -82t-54.5 -125q0 -70 46 -115t124 -45q59 0 115.5 40t81.5 91l96 -63q-39 -74 -121 -128.5t-172 -54.5q-131 0 -215 74 t-84 191q0 123 113 200q-266 12 -412.5 177t-146.5 448z" />
<glyph unicode="&#x173;" horiz-adv-x="1509" d="M152 596v838h180v-846q0 -211 109.5 -331t314.5 -120t313.5 119t108.5 332v846h180v-838q0 -246 -111.5 -403.5t-316.5 -204.5q-94 -35 -148.5 -82t-54.5 -125q0 -70 46 -115t124 -45q59 0 115.5 40t81.5 91l96 -63q-39 -74 -121 -128.5t-172 -54.5q-131 0 -215 74 t-84 191q0 123 113 200q-266 12 -412.5 177t-146.5 448z" />
<glyph unicode="&#x174;" horiz-adv-x="2025" d="M23 1434h190l426 -1076l12 -49l15 49l299 828h96l301 -828l12 -47l12 47l426 1076h191l-569 -1434h-121l-285 791l-14 53l-15 -53l-286 -791h-119zM674 1597l327 277l326 -277l-74 -79l-252 213l-253 -213z" />
<glyph unicode="&#x175;" horiz-adv-x="2025" d="M23 1434h190l426 -1076l12 -49l15 49l299 828h96l301 -828l12 -47l12 47l426 1076h191l-569 -1434h-121l-285 791l-14 53l-15 -53l-286 -791h-119zM674 1597l327 277l326 -277l-74 -79l-252 213l-253 -213z" />
<glyph unicode="&#x176;" horiz-adv-x="1380" d="M27 1434h215l422 -537l26 -43l25 43l424 537h215l-574 -742v-692h-180v692zM352 1597l328 277l326 -277l-74 -79l-252 213l-254 -213z" />
<glyph unicode="&#x177;" horiz-adv-x="1380" d="M27 1434h215l422 -537l26 -43l25 43l424 537h215l-574 -742v-692h-180v692zM352 1597l328 277l326 -277l-74 -79l-252 213l-254 -213z" />
<glyph unicode="&#x178;" horiz-adv-x="1380" d="M27 1434h215l422 -537l26 -43l25 43l424 537h215l-574 -742v-692h-180v692zM332 1669q0 43 30.5 73t73.5 30q41 0 71 -31t30 -72q0 -43 -30 -72.5t-71 -29.5q-45 0 -74.5 29.5t-29.5 72.5zM821 1669q0 41 30 72t73 31t72.5 -31t29.5 -72q0 -43 -29.5 -72.5t-72.5 -29.5 t-73 29.5t-30 72.5z" />
<glyph unicode="&#x179;" horiz-adv-x="1415" d="M123 0v164l903 1069l41 39l-63 -4h-861v166h1149v-164l-897 -1067l-43 -41l64 4h876v-166h-1169zM512 1610l442 237l66 -125l-451 -213z" />
<glyph unicode="&#x17a;" horiz-adv-x="1415" d="M123 0v164l903 1069l41 39l-63 -4h-861v166h1149v-164l-897 -1067l-43 -41l64 4h876v-166h-1169zM512 1610l442 237l66 -125l-451 -213z" />
<glyph unicode="&#x17b;" horiz-adv-x="1415" d="M123 0v164l903 1069l41 39l-63 -4h-861v166h1149v-164l-897 -1067l-43 -41l64 4h876v-166h-1169zM618 1669q0 43 31 73t74 30q41 0 70.5 -31t29.5 -72q0 -43 -29.5 -72.5t-70.5 -29.5q-45 0 -75 29.5t-30 72.5z" />
<glyph unicode="&#x17c;" horiz-adv-x="1415" d="M123 0v164l903 1069l41 39l-63 -4h-861v166h1149v-164l-897 -1067l-43 -41l64 4h876v-166h-1169zM618 1669q0 43 31 73t74 30q41 0 70.5 -31t29.5 -72q0 -43 -29.5 -72.5t-70.5 -29.5q-45 0 -75 29.5t-30 72.5z" />
<glyph unicode="&#x17d;" horiz-adv-x="1415" d="M123 0v164l903 1069l41 39l-63 -4h-861v166h1149v-164l-897 -1067l-43 -41l64 4h876v-166h-1169zM389 1774l328 -277l325 277l-73 79l-252 -213l-254 213z" />
<glyph unicode="&#x17e;" horiz-adv-x="1415" d="M123 0v164l903 1069l41 39l-63 -4h-861v166h1149v-164l-897 -1067l-43 -41l64 4h876v-166h-1169zM389 1774l328 -277l325 277l-73 79l-252 -213l-254 213z" />
<glyph unicode="&#x218;" horiz-adv-x="1222" d="M70 395l174 47q14 -131 117.5 -220t267.5 -89q152 0 243 70.5t91 181.5q0 37 -12.5 68.5t-30 54t-51 46.5t-58.5 38t-73 32l-74 26q-27 9 -82 26l-74 22q-68 20 -109 36t-103.5 48.5t-97 68.5t-62 93t-27.5 127q0 168 142 279.5t359 111.5q197 0 337 -105.5t179 -279.5 l-170 -45q-25 127 -121 201t-229 74q-141 0 -228 -60.5t-87 -169.5q0 -66 56 -116t108.5 -69.5t173.5 -55.5q31 -10 45 -15l91 -27q30 -10 89 -33.5t91 -43t77 -54t66.5 -71.5t39 -89t17.5 -112q0 -182 -145.5 -301t-378.5 -119q-223 0 -367.5 117t-183.5 307zM473 -522 q47 45 81 110.5t34 122.5l20 8l-20 2q-33 0 -61.5 27t-28.5 70t30.5 71.5t73.5 28.5t73 -34t30 -87q0 -84 -46.5 -170t-111.5 -149h-74z" />
<glyph unicode="&#x219;" horiz-adv-x="1222" d="M70 395l174 47q14 -131 117.5 -220t267.5 -89q152 0 243 70.5t91 181.5q0 37 -12.5 68.5t-30 54t-51 46.5t-58.5 38t-73 32l-74 26q-27 9 -82 26l-74 22q-68 20 -109 36t-103.5 48.5t-97 68.5t-62 93t-27.5 127q0 168 142 279.5t359 111.5q197 0 337 -105.5t179 -279.5 l-170 -45q-25 127 -121 201t-229 74q-141 0 -228 -60.5t-87 -169.5q0 -66 56 -116t108.5 -69.5t173.5 -55.5q31 -10 45 -15l91 -27q30 -10 89 -33.5t91 -43t77 -54t66.5 -71.5t39 -89t17.5 -112q0 -182 -145.5 -301t-378.5 -119q-223 0 -367.5 117t-183.5 307zM473 -522 q47 45 81 110.5t34 122.5l20 8l-20 2q-33 0 -61.5 27t-28.5 70t30.5 71.5t73.5 28.5t73 -34t30 -87q0 -84 -46.5 -170t-111.5 -149h-74z" />
<glyph unicode="&#x21a;" horiz-adv-x="1218" d="M43 1268v166h1131v-166h-478v-1268h-178v1268h-475zM473 -522q47 45 81 110.5t34 122.5l20 8l-20 2q-33 0 -61.5 27t-28.5 70t30.5 71.5t73.5 28.5t73 -34t30 -87q0 -84 -46.5 -170t-111.5 -149h-74z" />
<glyph unicode="&#x21b;" horiz-adv-x="1218" d="M43 1268v166h1131v-166h-478v-1268h-178v1268h-475zM473 -522q47 45 81 110.5t34 122.5l20 8l-20 2q-33 0 -61.5 27t-28.5 70t30.5 71.5t73.5 28.5t73 -34t30 -87q0 -84 -46.5 -170t-111.5 -149h-74z" />
<glyph unicode="&#x237;" horiz-adv-x="1345" d="M20 367l177 47q35 -127 142 -202t251 -75q207 0 315.5 119t108.5 332v846h180v-838q0 -295 -160 -461t-444 -166q-207 0 -362.5 110.5t-207.5 287.5z" />
<glyph unicode="&#x2c6;" horiz-adv-x="778" d="M23 1597l327 277l326 -277l-74 -79l-252 213l-254 -213z" />
<glyph unicode="&#x2c7;" horiz-adv-x="778" d="M23 1774l327 -277l326 277l-74 79l-252 -213l-254 213z" />
<glyph unicode="&#x2d8;" horiz-adv-x="684" d="M23 1757h112q12 -57 60.5 -96t109.5 -39q59 0 107.5 40t60.5 95h111q-20 -100 -98 -165.5t-181 -65.5q-109 0 -186.5 64.5t-95.5 166.5z" />
<glyph unicode="&#x2d9;" horiz-adv-x="327" d="M23 1669q0 43 29.5 73t74.5 30q41 0 70.5 -31t29.5 -72q0 -43 -29.5 -72.5t-70.5 -29.5q-45 0 -74.5 29.5t-29.5 72.5z" />
<glyph unicode="&#x2da;" horiz-adv-x="550" d="M23 1585q0 88 62 150.5t153 62.5q88 0 150.5 -62.5t62.5 -150.5t-62.5 -150.5t-150.5 -62.5t-151.5 62.5t-63.5 150.5zM121 1587q0 -47 34.5 -82t82 -35t82 35t34.5 82q0 49 -34.5 83t-82 34t-82 -34t-34.5 -83z" />
<glyph unicode="&#x2db;" horiz-adv-x="1228" d="M227 -213q0 131 93.5 214t197.5 83l115 -84q-109 0 -191 -53t-82 -160q0 -70 48.5 -118t128.5 -48q61 0 116 38t82 91l96 -63q-41 -78 -123.5 -129.5t-175.5 -51.5q-133 0 -219 78t-86 203z" />
<glyph unicode="&#x2dc;" horiz-adv-x="860" d="M14 1571q0 94 65.5 156.5t166.5 62.5q72 0 155.5 -59.5t122.5 -59.5q43 0 71 27.5t30 68.5h143q0 -94 -65.5 -156.5t-165.5 -62.5q-66 0 -151 59.5t-128 59.5q-45 0 -72.5 -27.5t-27.5 -68.5h-144z" />
<glyph unicode="&#x2dd;" horiz-adv-x="1038" d="M-6 1610l442 237l66 -125l-451 -213zM401 1610l443 237l65 -125l-450 -213z" />
<glyph unicode="&#x326;" horiz-adv-x="0" d="M123 -520q45 43 80 109.5t35 123.5l18 8l-18 3q-35 0 -63 25.5t-28 68.5t30 71.5t73 28.5t73.5 -34t30.5 -87q0 -84 -47 -170t-112 -147h-72z" />
<glyph unicode="&#x1e80;" horiz-adv-x="2025" d="M23 1434h190l426 -1076l12 -49l15 49l299 828h96l301 -828l12 -47l12 47l426 1076h191l-569 -1434h-121l-285 791l-14 53l-15 -53l-286 -791h-119zM668 1722l65 125l441 -237l-56 -101z" />
<glyph unicode="&#x1e81;" horiz-adv-x="2025" d="M23 1434h190l426 -1076l12 -49l15 49l299 828h96l301 -828l12 -47l12 47l426 1076h191l-569 -1434h-121l-285 791l-14 53l-15 -53l-286 -791h-119zM668 1722l65 125l441 -237l-56 -101z" />
<glyph unicode="&#x1e82;" horiz-adv-x="2025" d="M23 1434h190l426 -1076l12 -49l15 49l299 828h96l301 -828l12 -47l12 47l426 1076h191l-569 -1434h-121l-285 791l-14 53l-15 -53l-286 -791h-119zM801 1610l442 237l66 -125l-451 -213z" />
<glyph unicode="&#x1e83;" horiz-adv-x="2025" d="M23 1434h190l426 -1076l12 -49l15 49l299 828h96l301 -828l12 -47l12 47l426 1076h191l-569 -1434h-121l-285 791l-14 53l-15 -53l-286 -791h-119zM801 1610l442 237l66 -125l-451 -213z" />
<glyph unicode="&#x1e84;" horiz-adv-x="2025" d="M23 1434h190l426 -1076l12 -49l15 49l299 828h96l301 -828l12 -47l12 47l426 1076h191l-569 -1434h-121l-285 791l-14 53l-15 -53l-286 -791h-119zM653 1669q0 43 30 73t75 30q41 0 70.5 -31t29.5 -72q0 -43 -29.5 -72.5t-70.5 -29.5q-45 0 -75 29.5t-30 72.5zM1143 1669 q0 41 29.5 72t72.5 31t73 -31t30 -72q0 -43 -30 -72.5t-73 -29.5t-72.5 29.5t-29.5 72.5z" />
<glyph unicode="&#x1e85;" horiz-adv-x="2025" d="M23 1434h190l426 -1076l12 -49l15 49l299 828h96l301 -828l12 -47l12 47l426 1076h191l-569 -1434h-121l-285 791l-14 53l-15 -53l-286 -791h-119zM653 1669q0 43 30 73t75 30q41 0 70.5 -31t29.5 -72q0 -43 -29.5 -72.5t-70.5 -29.5q-45 0 -75 29.5t-30 72.5zM1143 1669 q0 41 29.5 72t72.5 31t73 -31t30 -72q0 -43 -30 -72.5t-73 -29.5t-72.5 29.5t-29.5 72.5z" />
<glyph unicode="&#x1e9e;" horiz-adv-x="1593" d="M188 0v1434h1176l-344 -605q227 -8 356 -122.5t129 -296.5q0 -188 -136 -313.5t-349 -125.5q-160 0 -297 77t-203 206l168 45q49 -82 135 -128t191 -46q137 0 224 81t87 202q0 113 -82 190.5t-229 83.5h-168v147l231 402l33 41l-61 -4h-682v-1268h-179z" />
<glyph unicode="&#x1ef2;" horiz-adv-x="1380" d="M27 1434h215l422 -537l26 -43l25 43l424 537h215l-574 -742v-692h-180v692zM346 1722l66 125l440 -237l-55 -101z" />
<glyph unicode="&#x1ef3;" horiz-adv-x="1380" d="M27 1434h215l422 -537l26 -43l25 43l424 537h215l-574 -742v-692h-180v692zM346 1722l66 125l440 -237l-55 -101z" />
<glyph unicode="&#x2009;" horiz-adv-x="307" />
<glyph unicode="&#x200a;" horiz-adv-x="102" />
<glyph unicode="&#x2013;" horiz-adv-x="1013" d="M82 645v164h850v-164h-850z" />
<glyph unicode="&#x2014;" horiz-adv-x="1875" d="M82 645v164h1712v-164h-1712z" />
<glyph unicode="&#x2018;" horiz-adv-x="616" d="M207 1133q0 88 48 176t116 153h75q-47 -45 -82.5 -113.5t-35.5 -127.5l-21 -9l21 -2q35 0 63.5 -27.5t28.5 -70.5q0 -45 -31 -74.5t-76 -29.5t-75.5 34.5t-30.5 90.5z" />
<glyph unicode="&#x2019;" horiz-adv-x="616" d="M188 1006q47 45 83 113.5t36 127.5l21 8l-21 2q-35 0 -63.5 28t-28.5 71q0 45 30.5 74.5t76 29.5t76 -34.5t30.5 -90.5q0 -88 -48 -176t-116 -153h-76z" />
<glyph unicode="&#x201a;" horiz-adv-x="616" d="M188 -270q47 45 83 113.5t36 127.5l21 9l-21 2q-35 0 -63.5 27.5t-28.5 70.5q0 45 30.5 74.5t76 29.5t76 -34.5t30.5 -90.5q0 -88 -48 -176t-116 -153h-76z" />
<glyph unicode="&#x201c;" horiz-adv-x="997" d="M207 1133q0 88 48 176t116 153h75q-47 -45 -82.5 -113.5t-35.5 -127.5l-21 -9l21 -2q35 0 63.5 -27.5t28.5 -70.5q0 -45 -31 -74.5t-76 -29.5t-75.5 34.5t-30.5 90.5zM588 1133q0 88 48 176t116 153h75q-47 -45 -82.5 -113.5t-35.5 -127.5l-21 -9l21 -2q35 0 63.5 -27.5 t28.5 -70.5q0 -45 -31 -74.5t-76 -29.5t-75.5 34.5t-30.5 90.5z" />
<glyph unicode="&#x201d;" horiz-adv-x="997" d="M170 1006q47 45 83 113.5t36 127.5l20 8l-20 2q-35 0 -63.5 28t-28.5 71q0 45 30.5 74.5t75.5 29.5t76 -34.5t31 -90.5q0 -88 -48.5 -176t-115.5 -153h-76zM551 1006q47 45 83 113.5t36 127.5l20 8l-20 2q-35 0 -63.5 28t-28.5 71q0 45 30.5 74.5t75.5 29.5t76 -34.5 t31 -90.5q0 -88 -48.5 -176t-115.5 -153h-76z" />
<glyph unicode="&#x201e;" horiz-adv-x="970" d="M170 -270q47 45 83 113.5t36 127.5l20 9l-20 2q-35 0 -63.5 27.5t-28.5 70.5q0 45 30.5 74.5t75.5 29.5t76 -34.5t31 -90.5q0 -88 -48.5 -176t-115.5 -153h-76zM526 -270q47 45 83 113.5t36 127.5l21 9l-21 2q-35 0 -63.5 27.5t-28.5 70.5q0 45 30.5 74.5t76 29.5 t76 -34.5t30.5 -90.5q0 -88 -48 -176t-116 -153h-76z" />
<glyph unicode="&#x2022;" horiz-adv-x="772" d="M188 727q0 82 58.5 139.5t142.5 57.5q82 0 138.5 -57.5t56.5 -139.5q0 -84 -56.5 -141.5t-138.5 -57.5q-84 0 -142.5 57.5t-58.5 141.5z" />
<glyph unicode="&#x2026;" horiz-adv-x="1505" d="M123 55q0 37 25.5 61.5t60.5 24.5q37 0 61.5 -25.5t24.5 -60.5t-25.5 -60.5t-60.5 -25.5q-37 0 -61.5 25.5t-24.5 60.5zM655 55q0 37 26 61.5t60 24.5q37 0 61.5 -25.5t24.5 -60.5t-25.5 -60.5t-60.5 -25.5q-37 0 -61.5 25.5t-24.5 60.5zM1208 55q0 37 26 61.5t60 24.5 q37 0 61.5 -25.5t24.5 -60.5t-25.5 -60.5t-60.5 -25.5q-37 0 -61.5 25.5t-24.5 60.5z" />
<glyph unicode="&#x2030;" horiz-adv-x="2713" d="M88 1050.5q0 184.5 103.5 298t271.5 113.5t272.5 -114.5t104.5 -296.5q0 -184 -104.5 -298t-272.5 -114t-271.5 113.5t-103.5 298zM227 1051q0 -127 66 -203t170 -76q106 0 171.5 76t65.5 203t-65.5 202.5t-171.5 75.5q-104 0 -170 -75.5t-66 -202.5zM406 0l903 1434h127 l-904 -1434h-126zM1014 383q0 184 103.5 298t271 114t272 -115t104.5 -297q0 -184 -104.5 -298t-272 -114t-271 114t-103.5 298zM1153 383q0 -127 66 -203t170 -76q106 0 171.5 76t65.5 203t-65.5 203t-171.5 76q-104 0 -170 -76t-66 -203zM1874 383q0 184 103.5 298 t271.5 114t272.5 -115t104.5 -297q0 -184 -104.5 -298t-272.5 -114t-271.5 114t-103.5 298zM2013 383q0 -127 66 -203t170 -76q106 0 171.5 76t65.5 203t-65.5 203t-171.5 76q-104 0 -170 -76t-66 -203z" />
<glyph unicode="&#x2039;" horiz-adv-x="956" d="M205 727l481 -479l98 100l-391 379l391 379l-96 100z" />
<glyph unicode="&#x203a;" horiz-adv-x="956" d="M188 348l392 379l-392 379l97 100l483 -479l-481 -479z" />
<glyph unicode="&#x2044;" horiz-adv-x="1292" d="M123 0l903 1434h127l-903 -1434h-127z" />
<glyph unicode="&#x20ac;" horiz-adv-x="1640" d="M88 547v125h94q-2 14 -2 45v39h-90v127h107q55 256 255.5 415.5t467.5 159.5q207 0 378.5 -100.5t268.5 -272.5l-183 -47q-72 117 -194.5 182.5t-269.5 65.5q-195 0 -343.5 -109.5t-197.5 -293.5h563v-127h-584q-2 -12 -2 -39q0 -31 2 -45h584v-125h-563 q51 -180 199.5 -288.5t341.5 -108.5q160 0 291.5 76.5t199.5 209.5l176 -47q-88 -190 -267 -302t-400 -112q-266 0 -466 159t-255 413h-111z" />
<glyph unicode="&#x2116;" horiz-adv-x="2287" d="M207 0v1434h166l817 -1072l27 -47l-5 60v1059h181v-1434h-168l-815 1077l-29 45l4 -59v-1063h-178zM1544 1105.5q0 151.5 101.5 252t249 100.5t250 -100.5t102.5 -251.5q0 -150 -102.5 -250t-250 -100t-249 99t-101.5 250.5zM1565 578v94h661v-94h-661zM1653 1106 q0 -106 68.5 -177t172.5 -71q106 0 175 69.5t69 178t-68.5 179.5t-175.5 71q-104 0 -172.5 -70.5t-68.5 -179.5z" />
<glyph unicode="&#x2122;" horiz-adv-x="1712" d="M43 1329v105h629v-105h-256v-612h-117v612h-256zM805 717v717h110l252 -394l248 394h109v-717h-107v543l-22 -43l-201 -322h-53l-205 322l-21 43v-543h-110z" />
<glyph unicode="&#x2212;" horiz-adv-x="1347" d="M188 653v150h973v-150h-973z" />
<glyph unicode="&#x2260;" horiz-adv-x="1347" d="M188 451v149h351l123 240h-474v149h551l135 264h168l-135 -264h254v-149h-330l-122 -240h452v-149h-528l-125 -244h-170l125 244h-275z" />
<glyph unicode="&#x2264;" horiz-adv-x="1376" d="M215 -18h973v149h-973v-149zM221 752l656 -447h231l-645 447l702 499h-227z" />
<glyph unicode="&#x2265;" horiz-adv-x="1376" d="M188 -18v149h973v-149h-973zM211 1251h227l717 -499l-655 -447h-232l645 447z" />
<glyph unicode="&#xe000;" horiz-adv-x="1435" d="M0 1435h1435v-1435h-1435v1435z" />
<glyph horiz-adv-x="1558" d="M88 716.5q0 321.5 216 533.5t527 212q209 0 382.5 -101.5t269.5 -273.5l-183 -49q-72 115 -196.5 182.5t-272.5 67.5q-244 0 -401.5 -158.5t-157.5 -412.5q0 -252 160 -411t399 -159q162 0 295.5 79t200.5 210l178 -49q-92 -193 -271 -304.5t-403 -111.5q-311 0 -527 212 t-216 533.5zM768 1565l215 348l119 -68l-244 -334z" />
<glyph horiz-adv-x="1597" d="M207 0v1434h166l813 -656l31 -30l-5 57v629h181v-1434h-181v528l-802 648l-29 28l4 -59v-1145h-178z" />
<glyph horiz-adv-x="1597" d="M207 0v1434h166l817 -1072l27 -47l-5 60v1059h181v-1434h-168l-815 1077l-29 45l4 -59v-1063h-178zM756 1565l215 348l119 -68l-244 -334z" />
<glyph horiz-adv-x="1597" d="M207 0v1434h166l813 -656l31 -30l-5 57v629h181v-1434h-181v528l-802 648l-29 28l4 -59v-1145h-178zM756 1565l215 348l119 -68l-244 -334z" />
<glyph horiz-adv-x="1597" d="M207 0v1434h166l813 -656l31 -30l-5 57v629h181v-1434h-181v528l-802 648l-29 28l4 -59v-1145h-178zM608 1610l443 237l65 -125l-450 -213z" />
<glyph horiz-adv-x="1597" d="M207 0v1434h166l813 -656l31 -30l-5 57v629h181v-1434h-181v528l-802 648l-29 28l4 -59v-1145h-178zM485 1774l328 -277l326 277l-74 79l-252 -213l-254 213z" />
<glyph horiz-adv-x="1597" d="M207 0v1434h166l813 -656l31 -30l-5 57v629h181v-1434h-181v528l-802 648l-29 28l4 -59v-1145h-178zM678 -522q47 45 81 110.5t34 122.5l20 8l-20 2q-33 0 -62 27t-29 70t31 71.5t74 28.5t72.5 -34t29.5 -87q0 -84 -46 -170t-111 -149h-74z" />
<glyph horiz-adv-x="1597" d="M207 0v1434h166l813 -656l31 -30l-5 57v629h181v-1434h-181v528l-802 648l-29 28l4 -59v-1145h-178zM432 1571q0 94 65.5 156.5t166.5 62.5q72 0 155.5 -59.5t122.5 -59.5q43 0 70.5 27.5t29.5 68.5h144q0 -94 -65.5 -156.5t-166.5 -62.5q-66 0 -150.5 59.5t-127.5 59.5 q-45 0 -73 -27.5t-28 -68.5h-143z" />
<glyph d="M88 716.5q0 321.5 216 533.5t527 212q313 0 529.5 -212t216.5 -533.5t-216 -533.5t-530 -212q-311 0 -527 212t-216 533.5zM272 717q0 -252 159 -412t400.5 -160t401.5 160t160 412q0 254 -160 412.5t-401.5 158.5t-400.5 -158.5t-159 -412.5zM786 1565l215 348l119 -68 l-243 -334z" />
<glyph horiz-adv-x="1699" d="M88 731.5q0 315.5 215 523t526.5 207.5t527.5 -209t216 -522q0 -348 -260 -561l12 2h289v-172h-772h-13q-311 0 -526 208t-215 523.5zM272 731q0 -246 160 -401.5t397 -155.5q236 0 398 155.5t162 401.5q0 248 -161 403.5t-398.5 155.5t-397.5 -154.5t-160 -404.5z" />
<glyph horiz-adv-x="1222" d="M70 395l174 47q14 -131 117.5 -220t267.5 -89q152 0 243 70.5t91 181.5q0 37 -12.5 68.5t-30 54t-51 46.5t-58.5 38t-73 32l-74 26q-27 9 -82 26l-74 22q-68 20 -109 36t-103.5 48.5t-97 68.5t-62 93t-27.5 127q0 168 142 279.5t359 111.5q197 0 337 -105.5t179 -279.5 l-170 -45q-25 127 -121 201t-229 74q-141 0 -228 -60.5t-87 -169.5q0 -66 56 -116t108.5 -69.5t173.5 -55.5q31 -10 45 -15l91 -27q30 -10 89 -33.5t91 -43t77 -54t66.5 -71.5t39 -89t17.5 -112q0 -182 -145.5 -301t-378.5 -119q-223 0 -367.5 117t-183.5 307zM578 1565 l215 348l118 -68l-243 -334z" />
<glyph horiz-adv-x="1415" d="M123 0v164l903 1069l41 39l-63 -4h-861v166h1149v-164l-897 -1067l-43 -41l64 4h876v-166h-1169zM662 1565l215 348l118 -68l-243 -334z" />
<glyph horiz-adv-x="1558" d="M88 716.5q0 321.5 216 533.5t527 212q209 0 382.5 -101.5t269.5 -273.5l-183 -49q-72 115 -196.5 182.5t-272.5 67.5q-244 0 -401.5 -158.5t-157.5 -412.5q0 -252 160 -411t399 -159q162 0 295.5 79t200.5 210l178 -49q-92 -193 -271 -304.5t-403 -111.5q-311 0 -527 212 t-216 533.5zM768 1565l215 348l119 -68l-244 -334z" />
<glyph horiz-adv-x="1597" d="M207 0v1434h166l813 -656l31 -30l-5 57v629h181v-1434h-181v528l-802 648l-29 28l4 -59v-1145h-178z" />
<glyph horiz-adv-x="1597" d="M207 0v1434h166l817 -1072l27 -47l-5 60v1059h181v-1434h-168l-815 1077l-29 45l4 -59v-1063h-178zM756 1565l215 348l119 -68l-244 -334z" />
<glyph horiz-adv-x="1597" d="M207 0v1434h166l813 -656l31 -30l-5 57v629h181v-1434h-181v528l-802 648l-29 28l4 -59v-1145h-178zM756 1565l215 348l119 -68l-244 -334z" />
<glyph horiz-adv-x="1597" d="M207 0v1434h166l813 -656l31 -30l-5 57v629h181v-1434h-181v528l-802 648l-29 28l4 -59v-1145h-178zM608 1610l443 237l65 -125l-450 -213z" />
<glyph horiz-adv-x="1597" d="M207 0v1434h166l813 -656l31 -30l-5 57v629h181v-1434h-181v528l-802 648l-29 28l4 -59v-1145h-178zM485 1774l328 -277l326 277l-74 79l-252 -213l-254 213z" />
<glyph horiz-adv-x="1597" d="M207 0v1434h166l813 -656l31 -30l-5 57v629h181v-1434h-181v528l-802 648l-29 28l4 -59v-1145h-178zM678 -522q47 45 81 110.5t34 122.5l20 8l-20 2q-33 0 -62 27t-29 70t31 71.5t74 28.5t72.5 -34t29.5 -87q0 -84 -46 -170t-111 -149h-74z" />
<glyph horiz-adv-x="1597" d="M207 0v1434h166l813 -656l31 -30l-5 57v629h181v-1434h-181v528l-802 648l-29 28l4 -59v-1145h-178zM432 1571q0 94 65.5 156.5t166.5 62.5q72 0 155.5 -59.5t122.5 -59.5q43 0 70.5 27.5t29.5 68.5h144q0 -94 -65.5 -156.5t-166.5 -62.5q-66 0 -150.5 59.5t-127.5 59.5 q-45 0 -73 -27.5t-28 -68.5h-143z" />
<glyph d="M88 716.5q0 321.5 216 533.5t527 212q313 0 529.5 -212t216.5 -533.5t-216 -533.5t-530 -212q-311 0 -527 212t-216 533.5zM272 717q0 -252 159 -412t400.5 -160t401.5 160t160 412q0 254 -160 412.5t-401.5 158.5t-400.5 -158.5t-159 -412.5zM786 1565l215 348l119 -68 l-243 -334z" />
<glyph horiz-adv-x="1699" d="M88 731.5q0 315.5 215 523t526.5 207.5t527.5 -209t216 -522q0 -348 -260 -561l12 2h289v-172h-772h-13q-311 0 -526 208t-215 523.5zM272 731q0 -246 160 -401.5t397 -155.5q236 0 398 155.5t162 401.5q0 248 -161 403.5t-398.5 155.5t-397.5 -154.5t-160 -404.5z" />
<glyph horiz-adv-x="1222" d="M70 395l174 47q14 -131 117.5 -220t267.5 -89q152 0 243 70.5t91 181.5q0 37 -12.5 68.5t-30 54t-51 46.5t-58.5 38t-73 32l-74 26q-27 9 -82 26l-74 22q-68 20 -109 36t-103.5 48.5t-97 68.5t-62 93t-27.5 127q0 168 142 279.5t359 111.5q197 0 337 -105.5t179 -279.5 l-170 -45q-25 127 -121 201t-229 74q-141 0 -228 -60.5t-87 -169.5q0 -66 56 -116t108.5 -69.5t173.5 -55.5q31 -10 45 -15l91 -27q30 -10 89 -33.5t91 -43t77 -54t66.5 -71.5t39 -89t17.5 -112q0 -182 -145.5 -301t-378.5 -119q-223 0 -367.5 117t-183.5 307zM578 1565 l215 348l118 -68l-243 -334z" />
<glyph horiz-adv-x="1415" d="M123 0v164l903 1069l41 39l-63 -4h-861v166h1149v-164l-897 -1067l-43 -41l64 4h876v-166h-1169zM662 1565l215 348l118 -68l-243 -334z" />
<glyph horiz-adv-x="585" d="M188 387q0 45 31 75t74 30q45 0 74.5 -31t29.5 -74t-30.5 -73.5t-73.5 -30.5q-45 0 -75 30.5t-30 73.5zM188 1020q0 45 31 74.5t74 29.5q45 0 74.5 -30.5t29.5 -73.5t-30.5 -74t-73.5 -31q-45 0 -75 31t-30 74z" />
<glyph horiz-adv-x="630" d="M170 33q47 45 83 113.5t36 127.5l20 9l-20 2q-35 0 -63.5 27.5t-28.5 70.5q0 45 30.5 74.5t75.5 29.5t76 -34.5t31 -90.5q0 -88 -48.5 -176t-115.5 -153h-76zM197 1014q0 45 30.5 74.5t73.5 29.5q45 0 75 -30.5t30 -73.5t-31 -74t-74 -31q-45 0 -74.5 31t-29.5 74z" />
<glyph horiz-adv-x="1642" d="M188 4q12 -6 33 -6q49 0 49 35q0 23 -28 33q-23 8 -23 14q0 8 14 8q9 0 25 -8l6 24q-10 6 -31 7q-43 0 -43 -35q0 -23 31 -33q18 -6 19 -12q0 -10 -15 -11q-4 0 -28 9zM188 168h88q190 0 297 8t129.5 16.5t38.5 24.5l56 47l22 21l27 -21l55 -47q16 -16 38 -23.5 t127 -16.5t298 -9h90v92q0 186 -9 290.5t-16.5 125t-19.5 39.5l-51 59l-23 27l23 24l45 54q16 16 24.5 38.5t17.5 127t9 298.5v91h-90q-193 0 -298 -9.5t-126.5 -17.5t-40.5 -25l-41 -34l-35 -33l-37 33l-41 38q-16 14 -38.5 21.5t-129 17t-301.5 9.5h-88v-91 q0 -190 8.5 -296.5t16.5 -128t23 -39.5l49 -56l20 -22l-20 -25l-49 -55q-14 -16 -22.5 -37.5t-17 -128t-8.5 -299.5v-88zM272 109l35 -68v-41h29v41l35 68h-33l-16 -48l-15 48h-35zM367 348q8 227 14 270l162 183l-162 182q-6 41 -14 272q201 -4 272 -14l180 -166l187 166 q72 10 270 14q-8 -229 -14 -272l-166 -182l166 -187q8 -74 14 -266q-217 4 -272 14l-185 162l-182 -162q-51 -10 -270 -14zM381 0h27v72l38 -72h31v109h-26v-66l-33 66h-37v-109zM487 86h29v-86h27v86h28v23h-84v-23zM582 0h30v43h37v-43h29v109h-29v-41h-37v41h-30v-109z M688 109l35 -109h33l35 109h-31l-21 -80l-18 80h-33zM801 0h30v109h-30v-109zM848 0h74v23h-43v20h39v23h-39v20h43v23h-74v-109zM930 109l26 -109h31l14 72l13 -72h33l26 109h-29l-14 -74l-12 74h-31l-12 -74l-14 74h-31zM1063 10.5q0 12.5 12 12.5t12 -12.5t-12 -12.5 t-12 12.5zM1090 51q0 -53 57 -53q16 0 29 4l-7 25q-6 -6 -18 -7q-31 0 -31 33q0 35 31 35q12 0 18 -6l9 24q-8 4 -29 5q-27 0 -43 -15.5t-16 -44.5zM1180 53q0 -55 55 -55t55 55q0 25 -15 41.5t-40 16.5t-40 -16.5t-15 -41.5zM1210 53q0 35 25 35q23 0 22 -35q0 -33 -22 -33 q-25 0 -25 33zM1298 0h31v82l23 -80h20l23 80v-82h28l-4 109h-39l-18 -70l-16 70h-39z" />
</font>
</defs>
</svg>
