<?xml version="1.0" standalone="no"?>
<!DOCTYPE svg PUBLIC "-//W3C//DTD SVG 1.1//EN" "http://www.w3.org/Graphics/SVG/1.1/DTD/svg11.dtd" >
<svg xmlns="http://www.w3.org/2000/svg">
<metadata>
This is a custom SVG webfont generated by Font Squirrel.
Copyright   : Copyright  2011 by Jan Tonellato All rights reserved
Designer    : Jan Tonellato
Foundry     : Jan Tonellato
Foundry URL : typographysynthviewcom
</metadata>
<defs>
<font id="NovecentowideLight" horiz-adv-x="1593" >
<font-face units-per-em="2048" ascent="1638" descent="-410" />
<missing-glyph horiz-adv-x="819" />
<glyph unicode=" "  horiz-adv-x="819" />
<glyph unicode="&#x09;" horiz-adv-x="819" />
<glyph unicode="&#xa0;" horiz-adv-x="819" />
<glyph unicode="!" horiz-adv-x="491" d="M205 0v322h82v-322h-82zM205 481v953h82v-953h-82z" />
<glyph unicode="&#x22;" horiz-adv-x="716" d="M176 1014v444h82v-444h-82zM401 1014v444h82v-444h-82z" />
<glyph unicode="#" horiz-adv-x="1683" d="M98 498l35 63h340l178 346h-344l35 64h340l238 463h79l-237 -463h371l237 463h80l-238 -463h373l-35 -64h-368l-178 -346h372l-35 -63h-370l-254 -498h-80l254 498h-371l-254 -498h-80l254 498h-342zM553 561h371l178 346h-371z" />
<glyph unicode="$" horiz-adv-x="1202" d="M88 389l76 21q10 -156 127 -260.5t313 -104.5q190 0 307 92t117 238q0 37 -9 70.5t-22.5 59t-40 51.5t-46 42t-59.5 36l-61 28q-20 10 -67 25l-65 21q-17 5 -67 18t-61 15q-55 14 -77.5 21.5t-76.5 27t-82 35t-68 43t-60.5 58t-35.5 73.5t-15 93q0 158 123.5 259 t318.5 111v156h72v-156q180 -10 304.5 -111.5t151.5 -267.5l-73 -20q-23 150 -137.5 239t-278.5 89q-178 0 -288.5 -79t-110.5 -220q0 -84 66.5 -145.5t129 -83t197.5 -58.5q18 -6 28 -8q223 -61 312 -115q180 -109 180 -307q0 -170 -132 -282.5t-349 -121.5v-155h-72v157 q-205 14 -330 130t-139 286z" />
<glyph unicode="%" horiz-adv-x="1798" d="M98 1050.5q0 184.5 103.5 298t271.5 113.5t271.5 -114.5t103.5 -296.5q0 -184 -103.5 -298t-271.5 -114t-271.5 113.5t-103.5 298zM178 1051q0 -152 83 -245t212 -93t212 93t83 245q0 154 -83 246t-212 92t-212 -92.5t-83 -245.5zM391 0l926 1434h72l-926 -1434h-72z M950 383q0 184 103.5 298t271.5 114t271.5 -115t103.5 -297q0 -184 -103.5 -298t-271.5 -114t-271.5 114t-103.5 298zM1030 383q0 -152 83 -245t212 -93t212 93t83 245q0 154 -83 246t-212 92t-212 -92t-83 -246z" />
<glyph unicode="&#x26;" horiz-adv-x="1433" d="M98 399q0 147 97.5 240.5t230.5 105.5q-115 18 -201 102.5t-86 225.5q0 68 24.5 132.5t76 124t145.5 96t219 36.5q213 0 344 -104.5t166 -308.5l-74 -21q-39 184 -139 271t-297 87q-106 0 -186 -31.5t-120 -81.5t-58.5 -100.5t-18.5 -99.5q0 -127 99.5 -209t283.5 -82 h793v-75h-254v-189q0 -547 -539 -547q-219 0 -362.5 122t-143.5 306zM180 399.5q0 -153.5 120 -253t304 -99.5q250 0 354.5 120t104.5 351v189h-459q-190 0 -307 -77t-117 -230.5z" />
<glyph unicode="'" horiz-adv-x="491" d="M205 1014v444h82v-444h-82z" />
<glyph unicode="(" horiz-adv-x="708" d="M102 721q0 840 498 1020l27 -66q-219 -80 -331 -309t-112 -645t112 -645.5t331 -308.5l-27 -66q-498 180 -498 1020z" />
<glyph unicode=")" horiz-adv-x="708" d="M82 -233l27 -66q498 180 498 1020t-498 1020l-27 -66q219 -80 330.5 -309t111.5 -645t-111.5 -645.5t-330.5 -308.5z" />
<glyph unicode="*" horiz-adv-x="1081" d="M205 1165l20 60l283 -92v301h65l-4 -301l287 92l21 -60l-287 -88l180 -248l-51 -36l-178 251l-176 -251l-52 36l179 248z" />
<glyph unicode="+" horiz-adv-x="1345" d="M205 692v72h457v428h81v-428h398v-72h-400v-424h-82v424h-454z" />
<glyph unicode="," horiz-adv-x="415" d="M94 -264q96 106 96 233l15 8l-15 3q-29 -4 -52 16t-23 55q0 33 21.5 52.5t53.5 19.5q31 0 52.5 -26.5t21.5 -65.5q0 -154 -123 -295h-47z" />
<glyph unicode="-" horiz-adv-x="778" d="M82 692v72h614v-72h-614z" />
<glyph unicode="." horiz-adv-x="389" d="M123 41q0 31 21.5 51.5t50.5 20.5q31 0 51 -21.5t20 -50.5q0 -31 -21 -51.5t-50 -20.5q-31 0 -51.5 21.5t-20.5 50.5z" />
<glyph unicode="/" horiz-adv-x="886" d="M37 0l733 1434h80l-733 -1434h-80z" />
<glyph unicode="0" horiz-adv-x="1515" d="M98 716.5q0 327.5 178.5 536.5t481.5 209t481 -209t178 -536.5t-178 -536.5t-481 -209t-481.5 209t-178.5 536.5zM180 717q0 -299 153.5 -484.5t424 -185.5t424 185.5t153.5 484.5t-153.5 484t-424 185t-424 -185t-153.5 -484z" />
<glyph unicode="1" horiz-adv-x="782" d="M98 1020l426 414h54v-1434h-82v1251l4 62l-33 -37l-320 -303z" />
<glyph unicode="2" horiz-adv-x="1200" d="M96 1087q106 375 512 375q207 0 338 -125t131 -315q0 -268 -274 -485l-588 -461h860v-76h-969v76l691 559q82 68 140 172t58 213q0 162 -108.5 264t-278.5 102q-350 0 -434 -317z" />
<glyph unicode="3" horiz-adv-x="1204" d="M98 389l72 21q20 -164 144 -263.5t307 -99.5q199 0 301 103.5t102 259.5q0 86 -41 148.5t-107.5 93t-131 44t-132.5 13.5h-129v73h129q203 0 300.5 94.5t97.5 217.5q0 111 -93.5 201.5t-298.5 90.5q-335 1 -415 -321l-72 20q39 176 167 276.5t320 100.5 q125 0 220.5 -33.5t148.5 -89t79 -117t26 -128.5q0 -127 -96.5 -235.5t-229.5 -108.5q145 0 242.5 -101.5t97.5 -238.5q0 -201 -136 -320t-349 -119q-203 0 -349.5 115t-173.5 303z" />
<glyph unicode="4" horiz-adv-x="1267" d="M98 410v75l824 949h53v-949h170v-75h-170v-410h-82v410h-795zM195 485h698v772l2 37l-29 -37z" />
<glyph unicode="5" horiz-adv-x="1234" d="M96 412l76 20q23 -182 140.5 -283.5t308.5 -101.5q178 0 293.5 116t115.5 292t-114.5 289.5t-294.5 113.5q-295 0 -390 -213l-69 23l123 766h743v-76h-682l-92 -574q39 61 135 105.5t232 44.5q213 0 352 -135t139 -344t-139 -346.5t-350 -137.5q-219 0 -358.5 121 t-168.5 320z" />
<glyph unicode="6" horiz-adv-x="1232" d="M98 463q0 123 39 228.5t131 226.5l394 516h92l-498 -652q125 162 360 162q225 0 372 -136t147 -345q0 -213 -146.5 -352.5t-372 -139.5t-372 139.5t-146.5 352.5zM180 463q0 -186 119.5 -301t316.5 -115q195 0 315 114.5t122 301.5q2 182 -117 293.5t-320 111.5 q-197 0 -316.5 -111.5t-119.5 -293.5z" />
<glyph unicode="7" horiz-adv-x="1114" d="M94 1358v76h983v-56l-774 -1378h-86l731 1298l45 64l-65 -4h-834z" />
<glyph unicode="8" horiz-adv-x="1253" d="M98 391q0 150 115 260.5t260 110.5q-90 0 -200.5 90t-110.5 238q0 158 130 265t334.5 107t335 -107.5t130.5 -264.5q0 -147 -111 -237.5t-201 -90.5q145 0 260 -110.5t115 -260.5q0 -188 -145.5 -303t-382.5 -117q-238 2 -383.5 117t-145.5 303zM180 391q0 -158 123 -250 t324 -94q201 2 323.5 94t122.5 250q0 150 -123 242t-323.5 92t-323.5 -92t-123 -242zM244 1090q0 -125 99 -211t283.5 -84t284 87t99.5 208q0 129 -103.5 212.5t-279.5 83.5t-279.5 -83.5t-103.5 -212.5z" />
<glyph unicode="9" horiz-adv-x="1247" d="M98 967q0 223 148.5 359t378.5 136q231 0 377.5 -130t146.5 -365q0 -129 -67.5 -268.5t-233.5 -333.5l-313 -365h-93l555 651q-139 -164 -372 -164q-240 0 -383.5 136.5t-143.5 343.5zM180 967q0 -201 128 -302.5t317 -101.5q193 0 317.5 105.5t124.5 298.5 q0 213 -124.5 316t-317.5 103q-186 0 -315.5 -105t-129.5 -314z" />
<glyph unicode=":" horiz-adv-x="389" d="M123 41q0 31 21.5 51.5t50.5 20.5q31 0 51 -21.5t20 -50.5q0 -31 -21 -51.5t-50 -20.5q-31 0 -51.5 21.5t-20.5 50.5zM123 696q0 31 21.5 51.5t50.5 20.5q31 0 51 -21.5t20 -50.5q0 -31 -21 -51t-50 -20q-31 0 -51.5 21.5t-20.5 49.5z" />
<glyph unicode=";" horiz-adv-x="415" d="M94 -272q96 106 96 233l15 8l-15 2q-29 -4 -52 16.5t-23 55.5q0 33 21.5 52.5t53.5 19.5q31 0 52.5 -27t21.5 -65q0 -154 -123 -295h-47zM115 696q0 31 21.5 51.5t49.5 20.5q31 0 51.5 -21.5t20.5 -50.5q0 -31 -21.5 -51t-50.5 -20q-31 0 -51 21.5t-20 49.5z" />
<glyph unicode="&#x3c;" horiz-adv-x="1370" d="M205 752l827 -502h133l-825 502l825 499h-133z" />
<glyph unicode="=" horiz-adv-x="1345" d="M205 528v72h936v-72h-936zM205 856v72h936v-72h-936z" />
<glyph unicode="&#x3e;" horiz-adv-x="1370" d="M205 250l825 502l-825 499h133l827 -499l-827 -502h-133z" />
<glyph unicode="?" horiz-adv-x="1157" d="M98 1085q39 180 170 278.5t326 98.5q242 0 353.5 -113.5t111.5 -275.5q0 -90 -41 -164.5t-115 -130t-146.5 -91.5t-166.5 -71v-135h-82v176q258 100 363.5 193.5t105.5 222.5q0 57 -18.5 108.5t-58.5 99.5t-119 76.5t-187 28.5q-346 0 -426 -321zM508 0v322h82v-322h-82z " />
<glyph unicode="@" horiz-adv-x="1619" d="M98 727q0 317 202 526t509 209q309 0 511 -209t202 -526q0 -178 -71 -289.5t-187 -111.5q-78 0 -132.5 50t-60.5 128q-29 -82 -106.5 -130t-180.5 -48q-162 0 -266 109.5t-104 277.5q0 182 104.5 302t265.5 120q88 0 159 -29t99.5 -58.5t28.5 -46.5v93h66v-576 q0 -59 36.5 -99t90.5 -40q88 0 140 97t52 251q0 293 -184.5 486.5t-463 193.5t-461.5 -193.5t-183 -486.5q0 -295 184 -497.5t461 -202.5q94 0 175 16t129 39.5t81 46.5t48 39t18 16l49 -30q-10 -12 -22.5 -24.5t-56.5 -44.5t-95.5 -54.5t-139.5 -41t-186 -18.5 q-305 0 -508 219.5t-203 536.5zM485 713q0 -143 84 -233.5t215 -90.5t209 91.5t78 238.5v125q0 98 -82 162.5t-205 64.5q-131 0 -215 -100.5t-84 -257.5z" />
<glyph unicode="A" d="M37 0l741 1434h37l741 -1434h-86l-229 444h-889l-229 -444h-86zM391 520h811l-393 762l-12 33l-13 -33z" />
<glyph unicode="B" horiz-adv-x="1312" d="M205 0v1434h497q182 0 294 -93.5t112 -248.5q0 -109 -81 -196t-181 -103q125 0 244.5 -104.5t119.5 -268.5q0 -190 -124.5 -305t-329.5 -115h-551zM287 76h469q162 0 268 91t106 245q0 143 -114.5 239.5t-274.5 96.5h-454v-672zM287 823h403q154 0 246 74t92 195 q0 123 -92 194.5t-246 71.5h-403v-535z" />
<glyph unicode="C" horiz-adv-x="1566" d="M98 716.5q0 321.5 216 533.5t528 212q209 0 381 -100t270 -272l-84 -23q-86 150 -235.5 234.5t-331.5 84.5q-283 0 -472.5 -186t-189.5 -483q0 -293 190.5 -481.5t471.5 -188.5q195 0 353.5 97.5t240.5 263.5l77 -23q-92 -193 -270 -303.5t-401 -110.5q-311 0 -527.5 212 t-216.5 533.5z" />
<glyph unicode="D" horiz-adv-x="1640" d="M205 0v1434h594q313 0 528 -204t215 -521q0 -309 -210 -509t-513 -200h-614zM287 76h532q268 0 454.5 173t186.5 460q0 293 -189.5 471t-471.5 178h-512v-1282z" />
<glyph unicode="E" horiz-adv-x="1255" d="M205 0v1434h915v-76h-833v-547h678v-76h-678v-659h846v-76h-928z" />
<glyph unicode="F" horiz-adv-x="1198" d="M205 0v1434h895v-76h-813v-586h657v-76h-657v-696h-82z" />
<glyph unicode="G" horiz-adv-x="1632" d="M98 716.5q0 321.5 216 533.5t528 212q223 -8 390 -106.5t261 -265.5l-80 -21q-84 147 -235.5 232t-335.5 85q-283 0 -472.5 -186t-189.5 -483q0 -293 190.5 -481.5t471.5 -188.5q209 0 374.5 103.5t219.5 218.5v262h-467v76h540v-711h-73v266q-31 -41 -72 -82t-113.5 -93 t-180 -84t-228.5 -32q-311 0 -527.5 212t-216.5 533.5z" />
<glyph unicode="H" horiz-adv-x="1478" d="M205 0v1434h82v-641h905v641h82v-1434h-82v717h-905v-717h-82z" />
<glyph unicode="I" horiz-adv-x="491" d="M205 0v1434h82v-1434h-82z" />
<glyph unicode="J" horiz-adv-x="1318" d="M20 385l80 21q35 -166 167 -263.5t311 -97.5q244 0 369.5 136t125.5 384v869h82v-861q0 -285 -148.5 -444.5t-428.5 -159.5q-211 0 -363 116t-195 300z" />
<glyph unicode="K" horiz-adv-x="1368" d="M205 0v1434h82v-818l823 818h96l-573 -576l653 -858h-96l-612 805l-291 -291v-514h-82z" />
<glyph unicode="L" horiz-adv-x="1140" d="M205 0v1434h82v-1358h813v-76h-895z" />
<glyph unicode="M" horiz-adv-x="1687" d="M205 0v1434h76l546 -940l17 -37l16 37l547 940h76v-1434h-82v1229l4 69l-31 -69l-510 -877h-41l-510 877l-30 65l4 -65v-1229h-82z" />
<glyph unicode="N" d="M233 0v1434h76l946 -1256l27 -45l-4 64v1237h82v-1434h-76l-944 1260l-29 40l4 -61v-1239h-82z" />
<glyph unicode="O" horiz-adv-x="1685" d="M98 716.5q0 321.5 216 533.5t528 212q313 0 529 -212t216 -533.5t-216 -533.5t-529 -212q-311 0 -527.5 212t-216.5 533.5zM180 717q0 -293 190.5 -481.5t471 -188.5t472 188.5t191.5 481.5q0 297 -190.5 483t-473 186t-472 -186t-189.5 -483z" />
<glyph unicode="P" horiz-adv-x="1173" d="M205 0v1434h389q242 0 380 -117t138 -324t-138 -323.5t-380 -116.5h-307v-553h-82zM287 629h307q211 0 323.5 96t112.5 268q0 176 -115.5 270.5t-320.5 94.5h-307v-729z" />
<glyph unicode="Q" horiz-adv-x="1685" d="M98 717q0 322 216 533.5t528 211.5q313 0 529 -212t216 -533q0 -311 -205.5 -522t-509.5 -224v-241h-81v243q-295 18 -494 227.5t-199 516.5zM180 717q0 -293 190.5 -481.5t471 -188.5t472 188.5t191.5 481.5q0 297 -190.5 483t-473 186t-472 -186t-189.5 -483z" />
<glyph unicode="R" horiz-adv-x="1261" d="M205 0v1434h389q242 0 380 -116t138 -317q0 -158 -84 -263t-240 -146l371 -592h-94l-363 575q-51 -6 -108 -6h-307v-569h-82zM287 645h307q211 0 323.5 95.5t112.5 260.5q0 172 -115.5 264.5t-320.5 92.5h-307v-713z" />
<glyph unicode="S" horiz-adv-x="1202" d="M88 389l76 21q10 -156 127 -260.5t313 -104.5q190 0 307 92t117 238q0 37 -9 70.5t-22.5 59t-40 51.5t-46 42t-59.5 36l-61 28q-20 10 -67 25l-65 21q-18 6 -67.5 18.5t-60.5 14.5q-55 14 -77.5 21.5t-76.5 27t-82 35t-68 43t-60.5 58t-35.5 73.5t-15 93q0 166 136 268 t345 102q193 0 326.5 -102.5t162.5 -276.5l-73 -20q-23 150 -137.5 239t-278.5 89q-178 0 -288.5 -79t-110.5 -220q0 -84 66.5 -145.5t129 -83t197.5 -58.5q18 -6 28 -8q223 -61 312 -115q180 -109 180 -307q0 -176 -140.5 -290t-365.5 -114t-362.5 119t-153.5 299z" />
<glyph unicode="T" horiz-adv-x="1198" d="M57 1358v76h1084v-76h-502v-1358h-82v1358h-500z" />
<glyph unicode="U" horiz-adv-x="1482" d="M164 573v861h82v-867q0 -246 127 -384t368 -138q244 0 370 137t126 385v867h82v-861q0 -285 -148.5 -444.5t-429 -159.5t-429 160t-148.5 444z" />
<glyph unicode="V" horiz-adv-x="1548" d="M37 1434h90l635 -1282l12 -33l12 33l635 1282h90l-712 -1434h-49z" />
<glyph unicode="W" horiz-adv-x="1974" d="M37 1434h86l491 -1262l11 -39l10 39l332 946h41l333 -946l9 -37l8 37l493 1262h86l-565 -1434h-49l-328 920l-8 32l-8 -32l-330 -920h-47z" />
<glyph unicode="X" horiz-adv-x="1347" d="M41 0l582 750l-529 684h103l471 -623l6 -14l6 14l471 623h102l-528 -684l582 -750h-103l-524 678l-6 14l-6 -14l-525 -678h-102z" />
<glyph unicode="Y" horiz-adv-x="1318" d="M41 1434h96l498 -596l24 -37l25 37l498 596h96l-578 -697v-737h-82v737z" />
<glyph unicode="Z" horiz-adv-x="1390" d="M123 0v72l1010 1249l41 41l-62 -4h-969v76h1125v-72l-1008 -1245l-45 -45l61 4h992v-76h-1145z" />
<glyph unicode="[" horiz-adv-x="643" d="M205 -311v2064h356v-72h-274v-1921h274v-71h-356z" />
<glyph unicode="\" horiz-adv-x="886" d="M37 1434l733 -1434h80l-733 1434h-80z" />
<glyph unicode="]" horiz-adv-x="671" d="M111 -240v-71h356v2064h-356v-72h274v-1921h-274z" />
<glyph unicode="^" horiz-adv-x="1368" d="M205 977l479 481l479 -481l-57 -57l-422 432l-422 -432z" />
<glyph unicode="_" horiz-adv-x="1536" d="M205 0h1126v-72h-1126v72z" />
<glyph unicode="`" horiz-adv-x="614" d="M82 1737l35 61l413 -223l-30 -53z" />
<glyph unicode="a" d="M37 0l741 1434h37l741 -1434h-86l-229 444h-889l-229 -444h-86zM391 520h811l-393 762l-12 33l-13 -33z" />
<glyph unicode="b" horiz-adv-x="1312" d="M205 0v1434h497q182 0 294 -93.5t112 -248.5q0 -109 -81 -196t-181 -103q125 0 244.5 -104.5t119.5 -268.5q0 -190 -124.5 -305t-329.5 -115h-551zM287 76h469q162 0 268 91t106 245q0 143 -114.5 239.5t-274.5 96.5h-454v-672zM287 823h403q154 0 246 74t92 195 q0 123 -92 194.5t-246 71.5h-403v-535z" />
<glyph unicode="c" horiz-adv-x="1566" d="M98 716.5q0 321.5 216 533.5t528 212q209 0 381 -100t270 -272l-84 -23q-86 150 -235.5 234.5t-331.5 84.5q-283 0 -472.5 -186t-189.5 -483q0 -293 190.5 -481.5t471.5 -188.5q195 0 353.5 97.5t240.5 263.5l77 -23q-92 -193 -270 -303.5t-401 -110.5q-311 0 -527.5 212 t-216.5 533.5z" />
<glyph unicode="d" horiz-adv-x="1640" d="M205 0v1434h594q313 0 528 -204t215 -521q0 -309 -210 -509t-513 -200h-614zM287 76h532q268 0 454.5 173t186.5 460q0 293 -189.5 471t-471.5 178h-512v-1282z" />
<glyph unicode="e" horiz-adv-x="1255" d="M205 0v1434h915v-76h-833v-547h678v-76h-678v-659h846v-76h-928z" />
<glyph unicode="f" horiz-adv-x="1198" d="M205 0v1434h895v-76h-813v-586h657v-76h-657v-696h-82z" />
<glyph unicode="g" horiz-adv-x="1632" d="M98 716.5q0 321.5 216 533.5t528 212q223 -8 390 -106.5t261 -265.5l-80 -21q-84 147 -235.5 232t-335.5 85q-283 0 -472.5 -186t-189.5 -483q0 -293 190.5 -481.5t471.5 -188.5q209 0 374.5 103.5t219.5 218.5v262h-467v76h540v-711h-73v266q-31 -41 -72 -82t-113.5 -93 t-180 -84t-228.5 -32q-311 0 -527.5 212t-216.5 533.5z" />
<glyph unicode="h" horiz-adv-x="1478" d="M205 0v1434h82v-641h905v641h82v-1434h-82v717h-905v-717h-82z" />
<glyph unicode="i" horiz-adv-x="491" d="M205 0v1434h82v-1434h-82z" />
<glyph unicode="j" horiz-adv-x="1318" d="M20 385l80 21q35 -166 167 -263.5t311 -97.5q244 0 369.5 136t125.5 384v869h82v-861q0 -285 -148.5 -444.5t-428.5 -159.5q-211 0 -363 116t-195 300z" />
<glyph unicode="k" horiz-adv-x="1368" d="M205 0v1434h82v-818l823 818h96l-573 -576l653 -858h-96l-612 805l-291 -291v-514h-82z" />
<glyph unicode="l" horiz-adv-x="1140" d="M205 0v1434h82v-1358h813v-76h-895z" />
<glyph unicode="m" horiz-adv-x="1687" d="M205 0v1434h76l546 -940l17 -37l16 37l547 940h76v-1434h-82v1229l4 69l-31 -69l-510 -877h-41l-510 877l-30 65l4 -65v-1229h-82z" />
<glyph unicode="n" horiz-adv-x="1536" d="M233 0v1434h76l946 -1256l27 -45l-4 64v1237h82v-1434h-76l-944 1260l-29 40l4 -61v-1239h-82z" />
<glyph unicode="o" horiz-adv-x="1685" d="M98 716.5q0 321.5 216 533.5t528 212q313 0 529 -212t216 -533.5t-216 -533.5t-529 -212q-311 0 -527.5 212t-216.5 533.5zM180 717q0 -293 190.5 -481.5t471 -188.5t472 188.5t191.5 481.5q0 297 -190.5 483t-473 186t-472 -186t-189.5 -483z" />
<glyph unicode="p" horiz-adv-x="1173" d="M205 0v1434h389q242 0 380 -117t138 -324t-138 -323.5t-380 -116.5h-307v-553h-82zM287 629h307q211 0 323.5 96t112.5 268q0 176 -115.5 270.5t-320.5 94.5h-307v-729z" />
<glyph unicode="q" horiz-adv-x="1685" d="M98 717q0 322 216 533.5t528 211.5q313 0 529 -212t216 -533q0 -311 -205.5 -522t-509.5 -224v-241h-81v243q-295 18 -494 227.5t-199 516.5zM180 717q0 -293 190.5 -481.5t471 -188.5t472 188.5t191.5 481.5q0 297 -190.5 483t-473 186t-472 -186t-189.5 -483z" />
<glyph unicode="r" horiz-adv-x="1261" d="M205 0v1434h389q242 0 380 -116t138 -317q0 -158 -84 -263t-240 -146l371 -592h-94l-363 575q-51 -6 -108 -6h-307v-569h-82zM287 645h307q211 0 323.5 95.5t112.5 260.5q0 172 -115.5 264.5t-320.5 92.5h-307v-713z" />
<glyph unicode="s" horiz-adv-x="1202" d="M88 389l76 21q10 -156 127 -260.5t313 -104.5q190 0 307 92t117 238q0 37 -9 70.5t-22.5 59t-40 51.5t-46 42t-59.5 36l-61 28q-20 10 -67 25l-65 21q-18 6 -67.5 18.5t-60.5 14.5q-55 14 -77.5 21.5t-76.5 27t-82 35t-68 43t-60.5 58t-35.5 73.5t-15 93q0 166 136 268 t345 102q193 0 326.5 -102.5t162.5 -276.5l-73 -20q-23 150 -137.5 239t-278.5 89q-178 0 -288.5 -79t-110.5 -220q0 -84 66.5 -145.5t129 -83t197.5 -58.5q18 -6 28 -8q223 -61 312 -115q180 -109 180 -307q0 -176 -140.5 -290t-365.5 -114t-362.5 119t-153.5 299z" />
<glyph unicode="t" horiz-adv-x="1198" d="M57 1358v76h1084v-76h-502v-1358h-82v1358h-500z" />
<glyph unicode="u" horiz-adv-x="1482" d="M164 573v861h82v-867q0 -246 127 -384t368 -138q244 0 370 137t126 385v867h82v-861q0 -285 -148.5 -444.5t-429 -159.5t-429 160t-148.5 444z" />
<glyph unicode="v" horiz-adv-x="1548" d="M37 1434h90l635 -1282l12 -33l12 33l635 1282h90l-712 -1434h-49z" />
<glyph unicode="w" horiz-adv-x="1974" d="M37 1434h86l491 -1262l11 -39l10 39l332 946h41l333 -946l9 -37l8 37l493 1262h86l-565 -1434h-49l-328 920l-8 32l-8 -32l-330 -920h-47z" />
<glyph unicode="x" horiz-adv-x="1347" d="M41 0l582 750l-529 684h103l471 -623l6 -14l6 14l471 623h102l-528 -684l582 -750h-103l-524 678l-6 14l-6 -14l-525 -678h-102z" />
<glyph unicode="y" horiz-adv-x="1318" d="M41 1434h96l498 -596l24 -37l25 37l498 596h96l-578 -697v-737h-82v737z" />
<glyph unicode="z" horiz-adv-x="1390" d="M123 0v72l1010 1249l41 41l-62 -4h-969v76h1125v-72l-1008 -1245l-45 -45l61 4h992v-76h-1145z" />
<glyph unicode="{" horiz-adv-x="733" d="M205 721q6 2 14 6t30.5 25.5t40 52.5t32 92t14.5 139v279q0 438 356 438v-72q-274 1 -274 -335v-302q0 -78 -11.5 -140t-25.5 -95t-31.5 -54.5t-28 -27.5t-14.5 -6q4 0 14.5 -6t28 -28.5t31.5 -55.5t25.5 -95.5t11.5 -140.5v-299q0 -336 274 -336v-71q-356 0 -356 438 v279q0 78 -13.5 138t-33 92t-39 52.5t-33.5 26.5z" />
<glyph unicode="|" horiz-adv-x="479" d="M205 -152v1739h69v-1739h-69z" />
<glyph unicode="}" horiz-adv-x="761" d="M70 -240v-71q356 0 356 438v279q0 78 13.5 138t33 92t38.5 52.5t34 26.5l12 6q-6 2 -14 6t-31 25.5t-40 52.5t-31.5 92t-14.5 139v279q0 438 -356 438v-72q274 1 274 -335v-302q0 -78 11.5 -140t25.5 -95t31.5 -54.5t28 -27.5t14.5 -6q-4 0 -14.5 -6t-28 -28.5 t-31.5 -55.5t-25.5 -95.5t-11.5 -140.5v-299q0 -336 -274 -336z" />
<glyph unicode="~" horiz-adv-x="913" d="M98 678q12 76 67.5 123t137.5 47q63 0 117.5 -39t100.5 -79t91 -40q55 0 92 34t41 87l70 -18q-10 -74 -65.5 -122t-137.5 -48q-61 0 -114.5 38.5t-101.5 78.5t-93 40q-57 0 -93 -33.5t-42 -87.5z" />
<glyph unicode="&#xa1;" horiz-adv-x="491" d="M205 0v952h82v-952h-82zM205 1112v322h82v-322h-82z" />
<glyph unicode="&#xa2;" horiz-adv-x="1148" d="M98 721q0 215 141.5 363.5t346.5 160.5v213h67v-211q139 -8 253 -79.5t175 -188.5l-67 -21q-57 104 -160.5 161t-232.5 57q-193 0 -318 -125t-125 -330q0 -203 125 -329t318 -126q137 0 245.5 64.5t163.5 181.5l66 -20q-59 -129 -176 -209t-267 -88v-220h-67v222 q-205 12 -346.5 160.5t-141.5 363.5z" />
<glyph unicode="&#xa3;" horiz-adv-x="1454" d="M205 0v76q139 29 185 146.5t26 332.5l-15 152h-196v75h190l-20 230q-16 193 96.5 319.5t302.5 130.5q160 4 284 -83t177 -292l-74 -22q-51 180 -149.5 253t-243.5 68q-154 -4 -242 -107t-73 -265l20 -232h510v-75h-504l15 -152q36 -403 -142 -479h897v-76h-1044z" />
<glyph unicode="&#xa4;" horiz-adv-x="1323" d="M98 207l158 160q-121 143 -121 333q0 207 141 361l-147 147l47 47l152 -149q145 123 333.5 123t335.5 -121l150 147l47 -47l-147 -147q143 -154 143 -361q0 -188 -121 -335l156 -158l-47 -47l-156 155q-154 -143 -360 -143q-203 0 -361 143l-156 -155zM211 700.5 q0 -190.5 131 -324.5t320 -134q190 0 321 134t131 324.5t-131 324.5t-321 134q-188 0 -319.5 -134t-131.5 -324.5z" />
<glyph unicode="&#xa5;" horiz-adv-x="1318" d="M41 1434h96l498 -596l24 -37l25 37l498 596h96l-506 -611h354v-69h-411l-15 -17v-73h426v-70h-426v-594h-82v594h-401v70h401v73l-14 17h-387v69h330z" />
<glyph unicode="&#xa6;" horiz-adv-x="479" d="M205 -152v594h69v-594h-69zM205 1014v573h69v-573h-69z" />
<glyph unicode="&#xa8;" horiz-adv-x="761" d="M41 1638q0 29 20.5 50.5t53.5 21.5q31 0 52 -21.5t21 -50.5q0 -33 -21 -54t-52 -21q-33 0 -53.5 21.5t-20.5 53.5zM489 1638q0 29 21.5 50.5t52.5 21.5t52.5 -21.5t21.5 -50.5q0 -33 -20.5 -54t-53.5 -21q-31 0 -52.5 21.5t-21.5 53.5z" />
<glyph unicode="&#xa9;" horiz-adv-x="1685" d="M98 716.5q0 321.5 216.5 533.5t527.5 212q313 0 529 -212t216 -533.5t-216 -533.5t-529 -212q-311 0 -527.5 212t-216.5 533.5zM164 717q0 -301 194.5 -493.5t483 -192.5t484.5 192.5t196 493.5q0 305 -195.5 495.5t-484.5 190.5q-291 0 -484.5 -190.5t-193.5 -495.5z M487 712.5q0 159.5 103.5 264t261.5 104.5q98 0 188 -53t131 -135l-47 -16q-37 68 -113.5 110.5t-158.5 42.5q-135 0 -222 -89t-87 -228.5t87 -228.5t222 -89q88 0 168 49t115 125l49 -16q-41 -90 -134.5 -149.5t-197.5 -59.5q-158 0 -261.5 104.5t-103.5 264z" />
<glyph unicode="&#xaa;" horiz-adv-x="802" d="M41 618v54h721v-54h-721zM41 768l352 682h17l352 -682h-64l-96 190h-401l-97 -190h-63zM227 1012h348l-165 325l-9 23l-8 -23z" />
<glyph unicode="&#xab;" horiz-adv-x="1488" d="M262 723l481 -479l45 49l-440 428l440 432l-45 49zM815 723l481 -479l45 49l-440 428l440 432l-45 49z" />
<glyph unicode="&#xad;" horiz-adv-x="778" d="M82 692v72h614v-72h-614z" />
<glyph unicode="&#xae;" horiz-adv-x="1685" d="M98 716.5q0 321.5 216.5 533.5t527.5 212q313 0 529 -212t216 -533.5t-216 -533.5t-529 -212q-311 0 -527.5 212t-216.5 533.5zM164 717q0 -301 194.5 -493.5t483 -192.5t484.5 192.5t196 493.5q0 305 -196 495.5t-484 190.5q-291 0 -484.5 -190.5t-193.5 -495.5z M635 344v746h213q125 0 196.5 -59.5t71.5 -164.5q0 -170 -168 -213l193 -309h-62l-188 299q-14 -2 -43 -2h-160v-297h-53zM688 692h160q217 0 217 174q0 172 -217 172h-160v-346z" />
<glyph unicode="&#xaf;" horiz-adv-x="794" d="M41 1440v59h629v-59h-629z" />
<glyph unicode="&#xb0;" horiz-adv-x="555" d="M98 1407q0 76 51.5 127t126.5 51q74 0 127.5 -52t53.5 -126t-53.5 -126t-127.5 -52q-76 0 -127 52t-51 126zM150 1407q0 -51 37.5 -89t89 -38t90.5 38t39 89q0 53 -38 90t-91.5 37t-90 -37t-36.5 -90z" />
<glyph unicode="&#xb1;" horiz-adv-x="1345" d="M205 -20v71h936v-71h-936zM205 692v72h457v428h81v-428h398v-72h-400v-424h-82v424h-454z" />
<glyph unicode="&#xb4;" horiz-adv-x="614" d="M20 1575l414 223l35 -61l-418 -215z" />
<glyph unicode="&#xb7;" horiz-adv-x="389" d="M123 696q0 31 21.5 51.5t50.5 20.5q31 0 51 -21.5t20 -50.5q0 -31 -21 -51t-50 -20q-31 0 -51.5 21.5t-20.5 49.5z" />
<glyph unicode="&#xb8;" horiz-adv-x="464" d="M41 -444l25 57h71q63 0 102.5 31.5t39.5 83.5q0 53 -39 86.5t-103 33.5h-86l55 152h64l-37 -96q94 2 150.5 -46t56.5 -130q0 -78 -56.5 -125t-146.5 -47h-96z" />
<glyph unicode="&#xba;" horiz-adv-x="743" d="M20 1105.5q0 151.5 101.5 252t249 100.5t250 -100.5t102.5 -251.5q0 -150 -102.5 -250t-250 -100t-249 99t-101.5 250.5zM41 618v54h661v-54h-661zM80 1106q0 -127 82 -210t209 -83t209 83t82 210q0 129 -82 212t-209 83t-209 -83t-82 -212z" />
<glyph unicode="&#xbb;" horiz-adv-x="1488" d="M176 293l440 428l-440 432l45 49l481 -479l-481 -479zM729 293l440 428l-440 432l45 49l481 -479l-481 -479z" />
<glyph unicode="&#xbf;" horiz-adv-x="1157" d="M98 360q0 90 41 165t115 130.5t146.5 91t166.5 70.5v135h82v-176q-258 -100 -363.5 -193.5t-105.5 -222.5q0 -57 18.5 -108t58.5 -99.5t119 -77t187 -28.5q346 0 426 322l70 -21q-39 -180 -170 -278.5t-326 -98.5q-242 0 -353.5 114t-111.5 275zM567 1112v322h82v-322 h-82z" />
<glyph unicode="&#xc0;" d="M37 0l741 1434h37l741 -1434h-86l-229 444h-889l-229 -444h-86zM391 520h811l-393 762l-12 33l-13 -33zM494 1737l34 61l414 -223l-31 -53z" />
<glyph unicode="&#xc1;" d="M37 0l741 1434h37l741 -1434h-86l-229 444h-889l-229 -444h-86zM391 520h811l-393 762l-12 33l-13 -33zM625 1575l413 223l35 -61l-418 -215z" />
<glyph unicode="&#xc2;" d="M37 0l741 1434h37l741 -1434h-86l-229 444h-889l-229 -444h-86zM391 520h811l-393 762l-12 33l-13 -33zM487 1581l308 260l307 -260l-43 -45l-264 225l-265 -225z" />
<glyph unicode="&#xc3;" d="M37 0l741 1434h37l741 -1434h-86l-229 444h-889l-229 -444h-86zM391 520h811l-393 762l-12 33l-13 -33zM487 1581q0 70 50.5 115t126.5 45q61 0 139 -56.5t115 -56.5q45 0 74.5 29t31.5 72h70q2 -70 -48.5 -115t-127.5 -45q-55 0 -133 56t-121 56q-45 0 -76 -28.5 t-31 -71.5h-70z" />
<glyph unicode="&#xc4;" d="M37 0l741 1434h37l741 -1434h-86l-229 444h-889l-229 -444h-86zM391 520h811l-393 762l-12 33l-13 -33zM494 1638q0 29 21.5 50.5t52 21.5t52 -21.5t21.5 -50.5q0 -33 -21.5 -54t-52.5 -21q-33 0 -53 21.5t-20 53.5zM942 1638q0 29 21.5 50.5t52.5 21.5q33 0 53.5 -21.5 t20.5 -50.5q0 -33 -20.5 -54t-53.5 -21q-31 0 -52.5 21.5t-21.5 53.5z" />
<glyph unicode="&#xc5;" d="M37 0l723 1397q-61 12 -101.5 61t-40.5 113q0 76 51.5 127t127.5 51q74 0 127 -52t53 -126q0 -63 -41 -112.5t-102 -61.5l722 -1397h-86l-229 444h-889l-229 -444h-86zM391 520h811l-393 762l-12 33l-13 -33zM670 1571q0 -51 37.5 -89t89 -38t90.5 38t39 89q0 53 -38 90 t-91.5 37t-90 -37t-36.5 -90z" />
<glyph unicode="&#xc6;" horiz-adv-x="1959" d="M37 0l954 1434h834v-76h-752v-547h678v-76h-678v-659h764v-76h-846v451h-557l-299 -451h-98zM479 518h512v789l-41 -78z" />
<glyph unicode="&#xc7;" horiz-adv-x="1566" d="M98 717q0 322 216 533.5t528 211.5q209 0 381 -100t270 -272l-84 -23q-86 150 -235.5 234.5t-331.5 84.5q-283 0 -472.5 -186t-189.5 -483q0 -293 190.5 -481.5t471.5 -188.5q195 0 353.5 97.5t240.5 263.5l77 -23q-92 -190 -269 -301t-396 -113l-27 -67q94 2 150.5 -46 t56.5 -130q0 -78 -56.5 -125t-146.5 -47h-96l25 57h71q63 0 102.5 31.5t39.5 83.5q0 53 -39 86.5t-103 33.5h-86l45 125q-293 20 -489.5 229.5t-196.5 514.5z" />
<glyph unicode="&#xc8;" horiz-adv-x="1255" d="M205 0v1434h915v-76h-833v-547h678v-76h-678v-659h846v-76h-928zM362 1737l35 61l414 -223l-31 -53z" />
<glyph unicode="&#xc9;" horiz-adv-x="1255" d="M205 0v1434h915v-76h-833v-547h678v-76h-678v-659h846v-76h-928zM494 1575l413 223l35 -61l-418 -215z" />
<glyph unicode="&#xca;" horiz-adv-x="1255" d="M205 0v1434h915v-76h-833v-547h678v-76h-678v-659h846v-76h-928zM356 1581l308 260l307 -260l-43 -45l-264 225l-265 -225z" />
<glyph unicode="&#xcb;" horiz-adv-x="1255" d="M205 0v1434h915v-76h-833v-547h678v-76h-678v-659h846v-76h-928zM362 1638q0 29 22 50.5t52.5 21.5t52 -21.5t21.5 -50.5q0 -33 -21.5 -54t-52.5 -21q-33 0 -53.5 21.5t-20.5 53.5zM811 1638q0 29 21.5 50.5t52.5 21.5q33 0 53 -21.5t20 -50.5q0 -33 -20 -54t-53 -21 q-31 0 -52.5 21.5t-21.5 53.5z" />
<glyph unicode="&#xcc;" horiz-adv-x="491" d="M-57 1737l34 61l414 -223l-31 -53zM205 0v1434h82v-1434h-82z" />
<glyph unicode="&#xcd;" horiz-adv-x="491" d="M74 1575l413 223l35 -61l-418 -215zM205 0v1434h82v-1434h-82z" />
<glyph unicode="&#xce;" horiz-adv-x="491" d="M-63 1581l307 260l307 -260l-43 -45l-264 225l-264 -225zM205 0v1434h82v-1434h-82z" />
<glyph unicode="&#xcf;" horiz-adv-x="491" d="M-57 1638q0 29 20.5 50.5t52.5 21.5q31 0 52.5 -21.5t21.5 -50.5q0 -33 -21.5 -54t-52.5 -21q-33 0 -53 21.5t-20 53.5zM205 0v1434h82v-1434h-82zM391 1638q0 29 21.5 50.5t52.5 21.5t52.5 -21.5t21.5 -50.5q0 -33 -20.5 -54t-53.5 -21q-31 0 -52.5 21.5t-21.5 53.5z " />
<glyph unicode="&#xd0;" horiz-adv-x="1640" d="M98 694v76h107v664h594q313 0 528 -204t215 -521q0 -309 -210 -509t-513 -200h-614v694h-107zM287 76h532q268 0 454.5 173t186.5 460q0 293 -189.5 471t-471.5 178h-512v-588h436v-76h-436v-618z" />
<glyph unicode="&#xd1;" d="M233 0v1434h76l946 -1256l27 -45l-4 64v1237h82v-1434h-76l-944 1260l-29 40l4 -61v-1239h-82zM508 1581q0 70 50 115t126 45q61 0 139 -56.5t115 -56.5q45 0 74.5 29t31.5 72h70q2 -70 -48 -115t-128 -45q-55 0 -133 56t-121 56q-45 0 -75.5 -28.5t-30.5 -71.5h-70z" />
<glyph unicode="&#xd2;" horiz-adv-x="1685" d="M98 716.5q0 321.5 216 533.5t528 212q313 0 529 -212t216 -533.5t-216 -533.5t-529 -212q-311 0 -527.5 212t-216.5 533.5zM180 717q0 -293 190.5 -481.5t471 -188.5t472 188.5t191.5 481.5q0 297 -190.5 483t-473 186t-472 -186t-189.5 -483zM549 1737l35 61l413 -223 l-30 -53z" />
<glyph unicode="&#xd3;" horiz-adv-x="1685" d="M98 716.5q0 321.5 216 533.5t528 212q313 0 529 -212t216 -533.5t-216 -533.5t-529 -212q-311 0 -527.5 212t-216.5 533.5zM180 717q0 -293 190.5 -481.5t471 -188.5t472 188.5t191.5 481.5q0 297 -190.5 483t-473 186t-472 -186t-189.5 -483zM680 1575l414 223l34 -61 l-417 -215z" />
<glyph unicode="&#xd4;" horiz-adv-x="1685" d="M98 716.5q0 321.5 216 533.5t528 212q313 0 529 -212t216 -533.5t-216 -533.5t-529 -212q-311 0 -527.5 212t-216.5 533.5zM180 717q0 -293 190.5 -481.5t471 -188.5t472 188.5t191.5 481.5q0 297 -190.5 483t-473 186t-472 -186t-189.5 -483zM543 1581l307 260l307 -260 l-43 -45l-264 225l-264 -225z" />
<glyph unicode="&#xd5;" horiz-adv-x="1685" d="M98 716.5q0 321.5 216 533.5t528 212q313 0 529 -212t216 -533.5t-216 -533.5t-529 -212q-311 0 -527.5 212t-216.5 533.5zM180 717q0 -293 190.5 -481.5t471 -188.5t472 188.5t191.5 481.5q0 297 -190.5 483t-473 186t-472 -186t-189.5 -483zM543 1581q0 70 50 115 t126 45q63 0 139 -56.5t115 -56.5q45 0 74.5 29t31.5 72h70q2 -70 -48 -115t-128 -45q-55 0 -133 56t-121 56q-45 0 -76 -28.5t-31 -71.5h-69z" />
<glyph unicode="&#xd6;" horiz-adv-x="1685" d="M98 716.5q0 321.5 216 533.5t528 212q313 0 529 -212t216 -533.5t-216 -533.5t-529 -212q-311 0 -527.5 212t-216.5 533.5zM180 717q0 -293 190.5 -481.5t471 -188.5t472 188.5t191.5 481.5q0 297 -190.5 483t-473 186t-472 -186t-189.5 -483zM549 1638q0 29 20.5 50.5 t53.5 21.5q31 0 52 -21.5t21 -50.5q0 -33 -21 -54t-52 -21q-33 0 -53.5 21.5t-20.5 53.5zM997 1638q0 29 21.5 50.5t52.5 21.5t52.5 -21.5t21.5 -50.5q0 -33 -20.5 -54t-53.5 -21q-31 0 -52.5 21.5t-21.5 53.5z" />
<glyph unicode="&#xd7;" horiz-adv-x="1163" d="M205 416l325 325l-325 326l51 51l326 -325l325 325l51 -51l-325 -326l325 -325l-51 -51l-325 325l-326 -325z" />
<glyph unicode="&#xd8;" horiz-adv-x="1685" d="M98 717q0 322 216 533.5t528 211.5q233 0 420 -125l79 105l58 -43l-78 -105q125 -102 195.5 -251.5t70.5 -325.5q0 -322 -216 -534t-529 -212q-238 0 -428 129l-82 -108l-58 45l82 108q-121 102 -189.5 250t-68.5 322zM180 717q0 -319 223 -512l814 1073 q-166 109 -375 108q-283 0 -472.5 -186t-189.5 -483zM461 162q166 -115 381 -115q281 0 472 188.5t191 481.5q0 328 -229 518z" />
<glyph unicode="&#xd9;" horiz-adv-x="1482" d="M164 573v861h82v-867q0 -246 127 -384t368 -138q244 0 370 137t126 385v867h82v-861q0 -285 -148.5 -444.5t-429 -159.5t-429 160t-148.5 444zM444 1737l35 61l414 -223l-31 -53z" />
<glyph unicode="&#xda;" horiz-adv-x="1482" d="M164 573v861h82v-867q0 -246 127 -384t368 -138q244 0 370 137t126 385v867h82v-861q0 -285 -148.5 -444.5t-429 -159.5t-429 160t-148.5 444zM575 1575l414 223l35 -61l-418 -215z" />
<glyph unicode="&#xdb;" horiz-adv-x="1482" d="M164 573v861h82v-867q0 -246 127 -384t368 -138q244 0 370 137t126 385v867h82v-861q0 -285 -148.5 -444.5t-429 -159.5t-429 160t-148.5 444zM438 1581l307 260l308 -260l-43 -45l-265 225l-264 -225z" />
<glyph unicode="&#xdc;" horiz-adv-x="1482" d="M164 573v861h82v-867q0 -246 127 -384t368 -138q244 0 370 137t126 385v867h82v-861q0 -285 -148.5 -444.5t-429 -159.5t-429 160t-148.5 444zM444 1638q0 29 21.5 50.5t52.5 21.5t52.5 -21.5t21.5 -50.5q0 -33 -21.5 -54t-52.5 -21q-33 0 -53.5 21.5t-20.5 53.5z M893 1638q0 29 21.5 50.5t52.5 21.5q33 0 53 -21.5t20 -50.5q0 -33 -20 -54t-53 -21q-31 0 -52.5 21.5t-21.5 53.5z" />
<glyph unicode="&#xdd;" horiz-adv-x="1318" d="M41 1434h96l498 -596l24 -37l25 37l498 596h96l-578 -697v-737h-82v737zM479 1575l414 223l35 -61l-418 -215z" />
<glyph unicode="&#xde;" horiz-adv-x="1198" d="M205 0v1434h82v-275h362q199 0 323 -125t124 -317q0 -188 -124 -309t-323 -121h-362v-287h-82zM287 362h362q164 0 264.5 99.5t100.5 255t-101.5 260t-263.5 106.5h-362v-721z" />
<glyph unicode="&#xdf;" horiz-adv-x="1519" d="M205 0v1434h1073l-354 -627q231 0 364 -114.5t133 -303.5q0 -180 -130 -299t-330 -119q-158 0 -291 77t-195 208l76 23q55 -109 164.5 -171.5t245.5 -62.5q166 0 272 97.5t106 246.5q0 139 -97 235.5t-281 106.5h-121v76l297 518l28 37l-61 -4h-817v-1358h-82z" />
<glyph unicode="&#xe0;" d="M37 0l741 1434h37l741 -1434h-86l-229 444h-889l-229 -444h-86zM391 520h811l-393 762l-12 33l-13 -33zM494 1737l34 61l414 -223l-31 -53z" />
<glyph unicode="&#xe1;" d="M37 0l741 1434h37l741 -1434h-86l-229 444h-889l-229 -444h-86zM391 520h811l-393 762l-12 33l-13 -33zM625 1575l413 223l35 -61l-418 -215z" />
<glyph unicode="&#xe2;" d="M37 0l741 1434h37l741 -1434h-86l-229 444h-889l-229 -444h-86zM391 520h811l-393 762l-12 33l-13 -33zM487 1581l308 260l307 -260l-43 -45l-264 225l-265 -225z" />
<glyph unicode="&#xe3;" d="M37 0l741 1434h37l741 -1434h-86l-229 444h-889l-229 -444h-86zM391 520h811l-393 762l-12 33l-13 -33zM487 1581q0 70 50.5 115t126.5 45q61 0 139 -56.5t115 -56.5q45 0 74.5 29t31.5 72h70q2 -70 -48.5 -115t-127.5 -45q-55 0 -133 56t-121 56q-45 0 -76 -28.5 t-31 -71.5h-70z" />
<glyph unicode="&#xe4;" d="M37 0l741 1434h37l741 -1434h-86l-229 444h-889l-229 -444h-86zM391 520h811l-393 762l-12 33l-13 -33zM494 1638q0 29 21.5 50.5t52 21.5t52 -21.5t21.5 -50.5q0 -33 -21.5 -54t-52.5 -21q-33 0 -53 21.5t-20 53.5zM942 1638q0 29 21.5 50.5t52.5 21.5q33 0 53.5 -21.5 t20.5 -50.5q0 -33 -20.5 -54t-53.5 -21q-31 0 -52.5 21.5t-21.5 53.5z" />
<glyph unicode="&#xe5;" d="M37 0l723 1397q-61 12 -101.5 61t-40.5 113q0 76 51.5 127t127.5 51q74 0 127 -52t53 -126q0 -63 -41 -112.5t-102 -61.5l722 -1397h-86l-229 444h-889l-229 -444h-86zM391 520h811l-393 762l-12 33l-13 -33zM670 1571q0 -51 37.5 -89t89 -38t90.5 38t39 89q0 53 -38 90 t-91.5 37t-90 -37t-36.5 -90z" />
<glyph unicode="&#xe6;" horiz-adv-x="1959" d="M37 0l954 1434h834v-76h-752v-547h678v-76h-678v-659h764v-76h-846v451h-557l-299 -451h-98zM479 518h512v789l-41 -78z" />
<glyph unicode="&#xe7;" horiz-adv-x="1566" d="M98 717q0 322 216 533.5t528 211.5q209 0 381 -100t270 -272l-84 -23q-86 150 -235.5 234.5t-331.5 84.5q-283 0 -472.5 -186t-189.5 -483q0 -293 190.5 -481.5t471.5 -188.5q195 0 353.5 97.5t240.5 263.5l77 -23q-92 -190 -269 -301t-396 -113l-27 -67q94 2 150.5 -46 t56.5 -130q0 -78 -56.5 -125t-146.5 -47h-96l25 57h71q63 0 102.5 31.5t39.5 83.5q0 53 -39 86.5t-103 33.5h-86l45 125q-293 20 -489.5 229.5t-196.5 514.5z" />
<glyph unicode="&#xe8;" horiz-adv-x="1255" d="M205 0v1434h915v-76h-833v-547h678v-76h-678v-659h846v-76h-928zM350 1737l35 61l414 -223l-31 -53z" />
<glyph unicode="&#xe9;" horiz-adv-x="1255" d="M205 0v1434h915v-76h-833v-547h678v-76h-678v-659h846v-76h-928zM481 1575l414 223l35 -61l-418 -215z" />
<glyph unicode="&#xea;" horiz-adv-x="1255" d="M205 0v1434h915v-76h-833v-547h678v-76h-678v-659h846v-76h-928zM344 1581l307 260l307 -260l-43 -45l-264 225l-264 -225z" />
<glyph unicode="&#xeb;" horiz-adv-x="1255" d="M205 0v1434h915v-76h-833v-547h678v-76h-678v-659h846v-76h-928zM350 1638q0 29 21.5 50.5t52.5 21.5t52.5 -21.5t21.5 -50.5q0 -33 -21.5 -54t-52.5 -21q-33 0 -53.5 21.5t-20.5 53.5zM799 1638q0 29 21.5 50.5t51.5 21.5q33 0 53.5 -21.5t20.5 -50.5q0 -33 -20.5 -54 t-53.5 -21q-31 0 -52 21.5t-21 53.5z" />
<glyph unicode="&#xec;" horiz-adv-x="491" d="M-57 1737l34 61l414 -223l-31 -53zM205 0v1434h82v-1434h-82z" />
<glyph unicode="&#xed;" horiz-adv-x="491" d="M74 1575l413 223l35 -61l-418 -215zM205 0v1434h82v-1434h-82z" />
<glyph unicode="&#xee;" horiz-adv-x="491" d="M-63 1581l307 260l307 -260l-43 -45l-264 225l-264 -225zM205 0v1434h82v-1434h-82z" />
<glyph unicode="&#xef;" horiz-adv-x="491" d="M-57 1638q0 29 20.5 50.5t52.5 21.5q31 0 52.5 -21.5t21.5 -50.5q0 -33 -21.5 -54t-52.5 -21q-33 0 -53 21.5t-20 53.5zM205 0v1434h82v-1434h-82zM391 1638q0 29 21.5 50.5t52.5 21.5t52.5 -21.5t21.5 -50.5q0 -33 -20.5 -54t-53.5 -21q-31 0 -52.5 21.5t-21.5 53.5z " />
<glyph unicode="&#xf0;" horiz-adv-x="1640" d="M98 694v76h107v664h594q313 0 528 -204t215 -521q0 -309 -210 -509t-513 -200h-614v694h-107zM287 76h532q268 0 454.5 173t186.5 460q0 293 -189.5 471t-471.5 178h-512v-588h436v-76h-436v-618z" />
<glyph unicode="&#xf1;" horiz-adv-x="1536" d="M233 0v1434h76l946 -1256l27 -45l-4 64v1237h82v-1434h-76l-944 1260l-29 40l4 -61v-1239h-82zM459 1581q0 70 50 115t126 45q61 0 139 -56.5t115 -56.5q45 0 74.5 29t31.5 72h70q2 -70 -48 -115t-128 -45q-55 0 -133 56t-121 56q-45 0 -76 -28.5t-31 -71.5h-69z" />
<glyph unicode="&#xf2;" horiz-adv-x="1685" d="M98 716.5q0 321.5 216 533.5t528 212q313 0 529 -212t216 -533.5t-216 -533.5t-529 -212q-311 0 -527.5 212t-216.5 533.5zM180 717q0 -293 190.5 -481.5t471 -188.5t472 188.5t191.5 481.5q0 297 -190.5 483t-473 186t-472 -186t-189.5 -483zM545 1737l35 61l413 -223 l-30 -53z" />
<glyph unicode="&#xf3;" horiz-adv-x="1685" d="M98 716.5q0 321.5 216 533.5t528 212q313 0 529 -212t216 -533.5t-216 -533.5t-529 -212q-311 0 -527.5 212t-216.5 533.5zM180 717q0 -293 190.5 -481.5t471 -188.5t472 188.5t191.5 481.5q0 297 -190.5 483t-473 186t-472 -186t-189.5 -483zM676 1575l414 223l34 -61 l-417 -215z" />
<glyph unicode="&#xf4;" horiz-adv-x="1685" d="M98 716.5q0 321.5 216 533.5t528 212q313 0 529 -212t216 -533.5t-216 -533.5t-529 -212q-311 0 -527.5 212t-216.5 533.5zM180 717q0 -293 190.5 -481.5t471 -188.5t472 188.5t191.5 481.5q0 297 -190.5 483t-473 186t-472 -186t-189.5 -483zM539 1581l307 260l307 -260 l-43 -45l-264 225l-264 -225z" />
<glyph unicode="&#xf5;" horiz-adv-x="1685" d="M98 716.5q0 321.5 216 533.5t528 212q313 0 529 -212t216 -533.5t-216 -533.5t-529 -212q-311 0 -527.5 212t-216.5 533.5zM180 717q0 -293 190.5 -481.5t471 -188.5t472 188.5t191.5 481.5q0 297 -190.5 483t-473 186t-472 -186t-189.5 -483zM539 1581q0 70 50 115 t126 45q63 0 139 -56.5t115 -56.5q45 0 74.5 29t31.5 72h70q2 -70 -48 -115t-128 -45q-55 0 -133 56t-121 56q-45 0 -76 -28.5t-31 -71.5h-69z" />
<glyph unicode="&#xf6;" horiz-adv-x="1685" d="M98 716.5q0 321.5 216 533.5t528 212q313 0 529 -212t216 -533.5t-216 -533.5t-529 -212q-311 0 -527.5 212t-216.5 533.5zM180 717q0 -293 190.5 -481.5t471 -188.5t472 188.5t191.5 481.5q0 297 -190.5 483t-473 186t-472 -186t-189.5 -483zM545 1638q0 29 20.5 50.5 t52.5 21.5q31 0 52.5 -21.5t21.5 -50.5q0 -33 -21.5 -54t-52.5 -21q-33 0 -53 21.5t-20 53.5zM993 1638q0 29 21.5 50.5t52.5 21.5t52.5 -21.5t21.5 -50.5q0 -33 -20.5 -54t-53.5 -21q-31 0 -52.5 21.5t-21.5 53.5z" />
<glyph unicode="&#xf7;" horiz-adv-x="1345" d="M205 692v72h936v-72h-936zM600 281q0 31 21.5 51t50.5 20q31 0 51 -21.5t20 -49.5q0 -31 -21 -51.5t-50 -20.5q-31 0 -51.5 21.5t-20.5 50.5zM600 1182q0 31 21.5 51t50.5 20q31 0 51 -21.5t20 -49.5q0 -31 -21 -51.5t-50 -20.5q-31 0 -51.5 21.5t-20.5 50.5z" />
<glyph unicode="&#xf8;" horiz-adv-x="1685" d="M98 717q0 322 216 533.5t528 211.5q233 0 420 -125l79 105l58 -43l-78 -105q125 -102 195.5 -251.5t70.5 -325.5q0 -322 -216 -534t-529 -212q-238 0 -428 129l-82 -108l-58 45l82 108q-121 102 -189.5 250t-68.5 322zM180 717q0 -319 223 -512l814 1073 q-166 109 -375 108q-283 0 -472.5 -186t-189.5 -483zM461 162q166 -115 381 -115q281 0 472 188.5t191 481.5q0 328 -229 518z" />
<glyph unicode="&#xf9;" horiz-adv-x="1482" d="M164 573v861h82v-867q0 -246 127 -384t368 -138q244 0 370 137t126 385v867h82v-861q0 -285 -148.5 -444.5t-429 -159.5t-429 160t-148.5 444zM444 1737l35 61l414 -223l-31 -53z" />
<glyph unicode="&#xfa;" horiz-adv-x="1482" d="M164 573v861h82v-867q0 -246 127 -384t368 -138q244 0 370 137t126 385v867h82v-861q0 -285 -148.5 -444.5t-429 -159.5t-429 160t-148.5 444zM575 1575l414 223l35 -61l-418 -215z" />
<glyph unicode="&#xfb;" horiz-adv-x="1482" d="M164 573v861h82v-867q0 -246 127 -384t368 -138q244 0 370 137t126 385v867h82v-861q0 -285 -148.5 -444.5t-429 -159.5t-429 160t-148.5 444zM438 1581l307 260l308 -260l-43 -45l-265 225l-264 -225z" />
<glyph unicode="&#xfc;" horiz-adv-x="1482" d="M164 573v861h82v-867q0 -246 127 -384t368 -138q244 0 370 137t126 385v867h82v-861q0 -285 -148.5 -444.5t-429 -159.5t-429 160t-148.5 444zM444 1638q0 29 21.5 50.5t52.5 21.5t52.5 -21.5t21.5 -50.5q0 -33 -21.5 -54t-52.5 -21q-33 0 -53.5 21.5t-20.5 53.5z M893 1638q0 29 21.5 50.5t52.5 21.5q33 0 53 -21.5t20 -50.5q0 -33 -20 -54t-53 -21q-31 0 -52.5 21.5t-21.5 53.5z" />
<glyph unicode="&#xfd;" horiz-adv-x="1318" d="M41 1434h96l498 -596l24 -37l25 37l498 596h96l-578 -697v-737h-82v737zM479 1575l414 223l35 -61l-418 -215z" />
<glyph unicode="&#xfe;" horiz-adv-x="1198" d="M205 0v1434h82v-275h362q199 0 323 -125t124 -317q0 -188 -124 -309t-323 -121h-362v-287h-82zM287 362h362q164 0 264.5 99.5t100.5 255t-101.5 260t-263.5 106.5h-362v-721z" />
<glyph unicode="&#xff;" horiz-adv-x="1318" d="M41 1434h96l498 -596l24 -37l25 37l498 596h96l-578 -697v-737h-82v737zM348 1638q0 29 20.5 50.5t53.5 21.5q31 0 52.5 -21.5t21.5 -50.5q0 -33 -21.5 -54t-52.5 -21q-33 0 -53.5 21.5t-20.5 53.5zM797 1638q0 29 21.5 50.5t52 21.5t52 -21.5t21.5 -50.5 q0 -33 -20.5 -54t-53.5 -21q-31 0 -52 21.5t-21 53.5z" />
<glyph unicode="&#x100;" d="M37 0l741 1434h37l741 -1434h-86l-229 444h-889l-229 -444h-86zM391 520h811l-393 762l-12 33l-13 -33zM492 1645v59h628v-59h-628z" />
<glyph unicode="&#x101;" d="M37 0l741 1434h37l741 -1434h-86l-229 444h-889l-229 -444h-86zM391 520h811l-393 762l-12 33l-13 -33zM492 1645v59h628v-59h-628z" />
<glyph unicode="&#x102;" d="M37 0l741 1434h37l741 -1434h-86l-229 444h-889l-229 -444h-86zM391 520h811l-393 762l-12 33l-13 -33zM553 1741h55q16 -70 70.5 -116t126.5 -46q70 0 125 47t71 115h56q-16 -92 -87 -152.5t-165 -60.5t-165 60.5t-87 152.5z" />
<glyph unicode="&#x103;" d="M37 0l741 1434h37l741 -1434h-86l-229 444h-889l-229 -444h-86zM391 520h811l-393 762l-12 33l-13 -33zM553 1741h55q16 -70 70.5 -116t126.5 -46q70 0 125 47t71 115h56q-16 -92 -87 -152.5t-165 -60.5t-165 60.5t-87 152.5z" />
<glyph unicode="&#x104;" d="M37 0l741 1434h37l741 -1434h-51q-125 0 -215 -57.5t-90 -180.5q0 -82 55.5 -137t143.5 -55q70 0 130 42t85 95l49 -33q-33 -63 -106.5 -112t-157.5 -49q-117 0 -189.5 71.5t-72.5 177.5q0 131 92 208t215 81l-203 393h-889l-229 -444h-86zM391 520h811l-393 762l-12 33 l-13 -33z" />
<glyph unicode="&#x105;" d="M37 0l741 1434h37l741 -1434h-51q-125 0 -215 -57.5t-90 -180.5q0 -82 55.5 -137t143.5 -55q70 0 130 42t85 95l49 -33q-33 -63 -106.5 -112t-157.5 -49q-117 0 -189.5 71.5t-72.5 177.5q0 131 92 208t215 81l-203 393h-889l-229 -444h-86zM391 520h811l-393 762l-12 33 l-13 -33z" />
<glyph unicode="&#x106;" horiz-adv-x="1566" d="M98 716.5q0 321.5 216 533.5t528 212q209 0 381 -100t270 -272l-84 -23q-86 150 -235.5 234.5t-331.5 84.5q-283 0 -472.5 -186t-189.5 -483q0 -293 190.5 -481.5t471.5 -188.5q195 0 353.5 97.5t240.5 263.5l77 -23q-92 -193 -270 -303.5t-401 -110.5q-311 0 -527.5 212 t-216.5 533.5zM657 1575l414 223l35 -61l-418 -215z" />
<glyph unicode="&#x107;" horiz-adv-x="1566" d="M98 716.5q0 321.5 216 533.5t528 212q209 0 381 -100t270 -272l-84 -23q-86 150 -235.5 234.5t-331.5 84.5q-283 0 -472.5 -186t-189.5 -483q0 -293 190.5 -481.5t471.5 -188.5q195 0 353.5 97.5t240.5 263.5l77 -23q-92 -193 -270 -303.5t-401 -110.5q-311 0 -527.5 212 t-216.5 533.5zM657 1575l414 223l35 -61l-418 -215z" />
<glyph unicode="&#x10a;" horiz-adv-x="1566" d="M98 716.5q0 321.5 216 533.5t528 212q209 0 381 -100t270 -272l-84 -23q-86 150 -235.5 234.5t-331.5 84.5q-283 0 -472.5 -186t-189.5 -483q0 -293 190.5 -481.5t471.5 -188.5q195 0 353.5 97.5t240.5 263.5l77 -23q-92 -193 -270 -303.5t-401 -110.5q-311 0 -527.5 212 t-216.5 533.5zM760 1638q0 29 21.5 50.5t52 21.5t52 -21.5t21.5 -50.5q0 -33 -21.5 -54t-52 -21t-52 21.5t-21.5 53.5z" />
<glyph unicode="&#x10b;" horiz-adv-x="1566" d="M98 716.5q0 321.5 216 533.5t528 212q209 0 381 -100t270 -272l-84 -23q-86 150 -235.5 234.5t-331.5 84.5q-283 0 -472.5 -186t-189.5 -483q0 -293 190.5 -481.5t471.5 -188.5q195 0 353.5 97.5t240.5 263.5l77 -23q-92 -193 -270 -303.5t-401 -110.5q-311 0 -527.5 212 t-216.5 533.5zM760 1638q0 29 21.5 50.5t52 21.5t52 -21.5t21.5 -50.5q0 -33 -21.5 -54t-52 -21t-52 21.5t-21.5 53.5z" />
<glyph unicode="&#x10c;" horiz-adv-x="1566" d="M98 716.5q0 321.5 216 533.5t528 212q209 0 381 -100t270 -272l-84 -23q-86 150 -235.5 234.5t-331.5 84.5q-283 0 -472.5 -186t-189.5 -483q0 -293 190.5 -481.5t471.5 -188.5q195 0 353.5 97.5t240.5 263.5l77 -23q-92 -193 -270 -303.5t-401 -110.5q-311 0 -527.5 212 t-216.5 533.5zM522 1757l307 -260l308 260l-43 45l-265 -225l-264 225z" />
<glyph unicode="&#x10d;" horiz-adv-x="1566" d="M98 716.5q0 321.5 216 533.5t528 212q209 0 381 -100t270 -272l-84 -23q-86 150 -235.5 234.5t-331.5 84.5q-283 0 -472.5 -186t-189.5 -483q0 -293 190.5 -481.5t471.5 -188.5q195 0 353.5 97.5t240.5 263.5l77 -23q-92 -193 -270 -303.5t-401 -110.5q-311 0 -527.5 212 t-216.5 533.5zM522 1757l307 -260l308 260l-43 45l-265 -225l-264 225z" />
<glyph unicode="&#x10e;" horiz-adv-x="1640" d="M205 0v1434h594q313 0 528 -204t215 -521q0 -309 -210 -509t-513 -200h-614zM287 76h532q268 0 454.5 173t186.5 460q0 293 -189.5 471t-471.5 178h-512v-1282zM434 1757l307 -260l308 260l-43 45l-265 -225l-264 225z" />
<glyph unicode="&#x10f;" horiz-adv-x="1640" d="M205 0v1434h594q313 0 528 -204t215 -521q0 -309 -210 -509t-513 -200h-614zM287 76h532q268 0 454.5 173t186.5 460q0 293 -189.5 471t-471.5 178h-512v-1282zM434 1757l307 -260l308 260l-43 45l-265 -225l-264 225z" />
<glyph unicode="&#x110;" horiz-adv-x="1640" d="M98 694v76h107v664h594q313 0 528 -204t215 -521q0 -309 -210 -509t-513 -200h-614v694h-107zM287 76h532q268 0 454.5 173t186.5 460q0 293 -189.5 471t-471.5 178h-512v-588h436v-76h-436v-618z" />
<glyph unicode="&#x111;" horiz-adv-x="1640" d="M98 694v76h107v664h594q313 0 528 -204t215 -521q0 -309 -210 -509t-513 -200h-614v694h-107zM287 76h532q268 0 454.5 173t186.5 460q0 293 -189.5 471t-471.5 178h-512v-588h436v-76h-436v-618z" />
<glyph unicode="&#x112;" horiz-adv-x="1255" d="M205 0v1434h915v-76h-833v-547h678v-76h-678v-659h846v-76h-928zM360 1645v59h629v-59h-629z" />
<glyph unicode="&#x113;" horiz-adv-x="1255" d="M205 0v1434h915v-76h-833v-547h678v-76h-678v-659h846v-76h-928zM348 1645v59h629v-59h-629z" />
<glyph unicode="&#x116;" horiz-adv-x="1255" d="M205 0v1434h915v-76h-833v-547h678v-76h-678v-659h846v-76h-928zM596 1638q0 29 21.5 50.5t52 21.5t52 -21.5t21.5 -50.5q0 -33 -21.5 -54t-52 -21t-52 21.5t-21.5 53.5z" />
<glyph unicode="&#x117;" horiz-adv-x="1255" d="M205 0v1434h915v-76h-833v-547h678v-76h-678v-659h846v-76h-928zM596 1638q0 29 21.5 50.5t52 21.5t52 -21.5t21.5 -50.5q0 -33 -21.5 -54t-52 -21t-52 21.5t-21.5 53.5z" />
<glyph unicode="&#x118;" horiz-adv-x="1255" d="M205 0v1434h915v-76h-833v-547h678v-76h-678v-659h846v-76h-154q-125 0 -215 -57.5t-90 -180.5q0 -82 55 -137t143 -55q70 0 130 42t85 95l50 -33q-33 -63 -107 -112t-158 -49q-117 0 -189.5 71.5t-72.5 177.5q0 156 131 238h-536z" />
<glyph unicode="&#x119;" horiz-adv-x="1255" d="M205 0v1434h915v-76h-833v-547h678v-76h-678v-659h846v-76h-107q-125 0 -215 -57.5t-90 -180.5q0 -82 55 -137t144 -55q70 0 130 42t85 95l49 -33q-33 -63 -106.5 -112t-157.5 -49q-117 0 -190 71.5t-73 177.5q0 156 131 238h-583z" />
<glyph unicode="&#x11a;" horiz-adv-x="1255" d="M205 0v1434h915v-76h-833v-547h678v-76h-678v-659h846v-76h-928zM358 1757l43 45l265 -225l264 225l43 -45l-307 -260z" />
<glyph unicode="&#x11b;" horiz-adv-x="1255" d="M205 0v1434h915v-76h-833v-547h678v-76h-678v-659h846v-76h-928zM346 1757l43 45l264 -225l265 225l43 -45l-308 -260z" />
<glyph unicode="&#x11c;" horiz-adv-x="1632" d="M98 716.5q0 321.5 216 533.5t528 212q223 -8 390 -106.5t261 -265.5l-80 -21q-84 147 -235.5 232t-335.5 85q-283 0 -472.5 -186t-189.5 -483q0 -293 190.5 -481.5t471.5 -188.5q209 0 374.5 103.5t219.5 218.5v262h-467v76h540v-711h-73v266q-31 -41 -72 -82t-113.5 -93 t-180 -84t-228.5 -32q-311 0 -527.5 212t-216.5 533.5zM508 1581l307 260l307 -260l-43 -45l-264 225l-264 -225z" />
<glyph unicode="&#x11d;" horiz-adv-x="1632" d="M98 716.5q0 321.5 216 533.5t528 212q223 -8 390 -106.5t261 -265.5l-80 -21q-84 147 -235.5 232t-335.5 85q-283 0 -472.5 -186t-189.5 -483q0 -293 190.5 -481.5t471.5 -188.5q209 0 374.5 103.5t219.5 218.5v262h-467v76h540v-711h-73v266q-31 -41 -72 -82t-113.5 -93 t-180 -84t-228.5 -32q-311 0 -527.5 212t-216.5 533.5zM508 1581l307 260l307 -260l-43 -45l-264 225l-264 -225z" />
<glyph unicode="&#x11e;" horiz-adv-x="1632" d="M98 716.5q0 321.5 216 533.5t528 212q223 -8 390 -106.5t261 -265.5l-80 -21q-84 147 -235.5 232t-335.5 85q-283 0 -472.5 -186t-189.5 -483q0 -293 190.5 -481.5t471.5 -188.5q209 0 374.5 103.5t219.5 218.5v262h-467v76h540v-711h-73v266q-31 -41 -72 -82t-113.5 -93 t-180 -84t-228.5 -32q-311 0 -527.5 212t-216.5 533.5zM573 1741h56q16 -70 70.5 -116t125.5 -46q70 0 125.5 47t71.5 115h55q-16 -92 -86.5 -152.5t-165 -60.5t-165.5 60.5t-87 152.5z" />
<glyph unicode="&#x11f;" horiz-adv-x="1632" d="M98 716.5q0 321.5 216 533.5t528 212q223 -8 390 -106.5t261 -265.5l-80 -21q-84 147 -235.5 232t-335.5 85q-283 0 -472.5 -186t-189.5 -483q0 -293 190.5 -481.5t471.5 -188.5q209 0 374.5 103.5t219.5 218.5v262h-467v76h540v-711h-73v266q-31 -41 -72 -82t-113.5 -93 t-180 -84t-228.5 -32q-311 0 -527.5 212t-216.5 533.5zM573 1741h56q16 -70 70.5 -116t125.5 -46q70 0 125.5 47t71.5 115h55q-16 -92 -86.5 -152.5t-165 -60.5t-165.5 60.5t-87 152.5z" />
<glyph unicode="&#x120;" horiz-adv-x="1632" d="M98 716.5q0 321.5 216 533.5t528 212q223 -8 390 -106.5t261 -265.5l-80 -21q-84 147 -235.5 232t-335.5 85q-283 0 -472.5 -186t-189.5 -483q0 -293 190.5 -481.5t471.5 -188.5q209 0 374.5 103.5t219.5 218.5v262h-467v76h540v-711h-73v266q-31 -41 -72 -82t-113.5 -93 t-180 -84t-228.5 -32q-311 0 -527.5 212t-216.5 533.5zM748 1638q0 29 21.5 50.5t52 21.5t52 -21.5t21.5 -50.5q0 -33 -21.5 -54t-52 -21t-52 21.5t-21.5 53.5z" />
<glyph unicode="&#x121;" horiz-adv-x="1632" d="M98 716.5q0 321.5 216 533.5t528 212q223 -8 390 -106.5t261 -265.5l-80 -21q-84 147 -235.5 232t-335.5 85q-283 0 -472.5 -186t-189.5 -483q0 -293 190.5 -481.5t471.5 -188.5q209 0 374.5 103.5t219.5 218.5v262h-467v76h540v-711h-73v266q-31 -41 -72 -82t-113.5 -93 t-180 -84t-228.5 -32q-311 0 -527.5 212t-216.5 533.5zM748 1638q0 29 21.5 50.5t52 21.5t52 -21.5t21.5 -50.5q0 -33 -21.5 -54t-52 -21t-52 21.5t-21.5 53.5z" />
<glyph unicode="&#x122;" horiz-adv-x="1632" d="M98 716.5q0 321.5 216 533.5t528 212q223 -8 390 -106.5t261 -265.5l-80 -21q-84 147 -235.5 232t-335.5 85q-283 0 -472.5 -186t-189.5 -483q0 -293 190.5 -481.5t471.5 -188.5q209 0 374.5 103.5t219.5 218.5v262h-467v76h540v-711h-73v266q-31 -41 -72 -82t-113.5 -93 t-180 -84t-228.5 -32q-311 0 -527.5 212t-216.5 533.5zM725 -469q96 106 96 233l15 9l-15 2q-29 -4 -52.5 16.5t-23.5 54.5q0 33 21.5 52.5t54.5 19.5q31 0 52.5 -26.5t21.5 -65.5q0 -154 -123 -295h-47z" />
<glyph unicode="&#x123;" horiz-adv-x="1632" d="M98 716.5q0 321.5 216 533.5t528 212q223 -8 390 -106.5t261 -265.5l-80 -21q-84 147 -235.5 232t-335.5 85q-283 0 -472.5 -186t-189.5 -483q0 -293 190.5 -481.5t471.5 -188.5q209 0 374.5 103.5t219.5 218.5v262h-467v76h540v-711h-73v266q-31 -41 -72 -82t-113.5 -93 t-180 -84t-228.5 -32q-311 0 -527.5 212t-216.5 533.5zM725 -469q96 106 96 233l15 9l-15 2q-29 -4 -52.5 16.5t-23.5 54.5q0 33 21.5 52.5t54.5 19.5q31 0 52.5 -26.5t21.5 -65.5q0 -154 -123 -295h-47z" />
<glyph unicode="&#x124;" horiz-adv-x="1478" d="M205 0v1434h82v-641h905v641h82v-1434h-82v717h-905v-717h-82zM430 1581l307 260l307 -260l-43 -45l-264 225l-264 -225z" />
<glyph unicode="&#x125;" horiz-adv-x="1478" d="M205 0v1434h82v-641h905v641h82v-1434h-82v717h-905v-717h-82zM430 1581l307 260l307 -260l-43 -45l-264 225l-264 -225z" />
<glyph unicode="&#x126;" horiz-adv-x="1478" d="M82 1190v72h121v172h82v-172h905v172h82v-172h125v-72h-125v-1190h-82v717h-905v-717h-82v1190h-121zM285 793h905v397h-905v-397z" />
<glyph unicode="&#x127;" horiz-adv-x="1478" d="M82 1190v72h121v172h82v-172h905v172h82v-172h125v-72h-125v-1190h-82v717h-905v-717h-82v1190h-121zM285 793h905v397h-905v-397z" />
<glyph unicode="&#x12a;" horiz-adv-x="491" d="M-59 1645v59h628v-59h-628zM205 0v1434h82v-1434h-82z" />
<glyph unicode="&#x12b;" horiz-adv-x="491" d="M-59 1645v59h628v-59h-628zM205 0v1434h82v-1434h-82z" />
<glyph unicode="&#x12e;" horiz-adv-x="491" d="M-104 -238q0 131 93 208t216 81v1383h82v-1434h-23q-125 0 -215 -57.5t-90 -180.5q0 -82 55.5 -137t143.5 -55q70 0 130 42t85 95l49 -33q-33 -63 -106.5 -112t-157.5 -49q-117 0 -189.5 71.5t-72.5 177.5z" />
<glyph unicode="&#x12f;" horiz-adv-x="491" d="M-104 -238q0 131 93 208t216 81v1383h82v-1434h-23q-125 0 -215 -57.5t-90 -180.5q0 -82 55.5 -137t143.5 -55q70 0 130 42t85 95l49 -33q-33 -63 -106.5 -112t-157.5 -49q-117 0 -189.5 71.5t-72.5 177.5z" />
<glyph unicode="&#x130;" horiz-adv-x="491" d="M176 1638q0 29 21.5 50.5t52.5 21.5t52.5 -21.5t21.5 -50.5q0 -33 -21.5 -54t-52.5 -21t-52.5 21.5t-21.5 53.5zM205 0v1434h82v-1434h-82z" />
<glyph unicode="&#x131;" horiz-adv-x="491" d="M205 0v1434h82v-1434h-82z" />
<glyph unicode="&#x132;" horiz-adv-x="1810" d="M205 0v1434h82v-1434h-82zM512 385l80 21q35 -166 167 -263.5t310 -97.5q244 0 370 136t126 384v869h82v-861q0 -285 -148.5 -444.5t-429.5 -159.5q-211 0 -362.5 116t-194.5 300z" />
<glyph unicode="&#x133;" horiz-adv-x="1810" d="M205 0v1434h82v-1434h-82zM512 385l80 21q35 -166 167 -263.5t310 -97.5q244 0 370 136t126 384v869h82v-861q0 -285 -148.5 -444.5t-429.5 -159.5q-211 0 -362.5 116t-194.5 300z" />
<glyph unicode="&#x134;" horiz-adv-x="1318" d="M20 385l80 21q35 -166 167 -263.5t311 -97.5q244 0 369.5 136t125.5 384v869h82v-861q0 -285 -148.5 -444.5t-428.5 -159.5q-211 0 -363 116t-195 300zM809 1581l307 260l307 -260l-43 -45l-264 225l-264 -225z" />
<glyph unicode="&#x135;" horiz-adv-x="1318" d="M20 385l80 21q35 -166 167 -263.5t311 -97.5q244 0 369.5 136t125.5 384v869h82v-861q0 -285 -148.5 -444.5t-428.5 -159.5q-211 0 -363 116t-195 300zM809 1581l307 260l307 -260l-43 -45l-264 225l-264 -225z" />
<glyph unicode="&#x136;" horiz-adv-x="1368" d="M205 0v1434h82v-818l823 818h96l-573 -576l653 -858h-96l-612 805l-291 -291v-514h-82zM578 -469q96 106 96 233l14 9l-14 2q-29 -4 -52.5 16.5t-23.5 54.5q0 33 21.5 52.5t54.5 19.5q31 0 52.5 -26.5t21.5 -65.5q0 -154 -123 -295h-47z" />
<glyph unicode="&#x137;" horiz-adv-x="1368" d="M205 0v1434h82v-818l823 818h96l-573 -576l653 -858h-96l-612 805l-291 -291v-514h-82zM606 -469q96 106 96 233l15 9l-15 2q-29 -4 -52 16.5t-23 54.5q0 33 21.5 52.5t53.5 19.5q31 0 52.5 -26.5t21.5 -65.5q0 -154 -123 -295h-47z" />
<glyph unicode="&#x139;" horiz-adv-x="1140" d="M70 1575l413 223l35 -61l-418 -215zM205 0v1434h82v-1358h813v-76h-895z" />
<glyph unicode="&#x13a;" horiz-adv-x="1140" d="M70 1575l413 223l35 -61l-418 -215zM205 0v1434h82v-1358h813v-76h-895z" />
<glyph unicode="&#x13b;" horiz-adv-x="1140" d="M205 0v1434h82v-1358h813v-76h-895zM532 -469q96 106 97 233l14 9l-14 2q-29 -4 -52.5 16.5t-23.5 54.5q0 33 21.5 52.5t54.5 19.5q31 0 52 -26.5t21 -65.5q0 -154 -122 -295h-48z" />
<glyph unicode="&#x13c;" horiz-adv-x="1140" d="M205 0v1434h82v-1358h813v-76h-895zM561 -469q96 106 96 233l15 9l-15 2q-29 -4 -52 16.5t-23 54.5q0 33 21.5 52.5t53.5 19.5q31 0 52.5 -26.5t21.5 -65.5q0 -154 -123 -295h-47z" />
<glyph unicode="&#x13d;" horiz-adv-x="1140" d="M205 0v1434h82v-1358h813v-76h-895zM451 1096q96 106 96 233l14 8l-14 2q-29 -4 -52.5 16.5t-23.5 55.5q0 33 21.5 52.5t54.5 19.5q31 0 52.5 -26.5t21.5 -65.5q0 -154 -123 -295h-47z" />
<glyph unicode="&#x13e;" horiz-adv-x="1140" d="M205 0v1434h82v-1358h813v-76h-895zM451 1096q96 106 96 233l14 8l-14 2q-29 -4 -52.5 16.5t-23.5 55.5q0 33 21.5 52.5t54.5 19.5q31 0 52.5 -26.5t21.5 -65.5q0 -154 -123 -295h-47z" />
<glyph unicode="&#x13f;" horiz-adv-x="1140" d="M205 0v1434h82v-1358h813v-76h-895zM680 776q0 29 21.5 50.5t52 21.5t52 -21.5t21.5 -50.5q0 -33 -21.5 -54.5t-52 -21.5t-52 21.5t-21.5 54.5z" />
<glyph unicode="&#x140;" horiz-adv-x="1140" d="M205 0v1434h82v-1358h813v-76h-895zM680 776q0 29 21.5 50.5t52 21.5t52 -21.5t21.5 -50.5q0 -33 -21.5 -54.5t-52 -21.5t-52 21.5t-21.5 54.5z" />
<glyph unicode="&#x141;" horiz-adv-x="1140" d="M205 0v1434h82v-775l651 330v-80l-651 -327v-506h813v-76h-895z" />
<glyph unicode="&#x142;" horiz-adv-x="1140" d="M205 0v1434h82v-775l651 330v-80l-651 -327v-506h813v-76h-895z" />
<glyph unicode="&#x143;" d="M233 0v1434h76l946 -1256l27 -45l-4 64v1237h82v-1434h-76l-944 1260l-29 40l4 -61v-1239h-82zM645 1575l414 223l35 -61l-418 -215z" />
<glyph unicode="&#x144;" horiz-adv-x="1536" d="M233 0v1434h76l946 -1256l27 -45l-4 64v1237h82v-1434h-76l-944 1260l-29 40l4 -61v-1239h-82zM596 1575l414 223l34 -61l-417 -215z" />
<glyph unicode="&#x145;" d="M233 0v1434h76l946 -1256l27 -45l-4 64v1237h82v-1434h-76l-944 1260l-29 40l4 -61v-1239h-82zM705 -469q96 106 96 233l14 9l-14 2q-29 -4 -52.5 16.5t-23.5 54.5q0 33 21.5 52.5t54.5 19.5q31 0 52 -26.5t21 -65.5q0 -154 -122 -295h-47z" />
<glyph unicode="&#x146;" horiz-adv-x="1536" d="M233 0v1434h76l946 -1256l27 -45l-4 64v1237h82v-1434h-76l-944 1260l-29 40l4 -61v-1239h-82zM676 -469q96 106 96 233l14 9l-14 2q-29 -4 -52.5 16.5t-23.5 54.5q0 33 21.5 52.5t54.5 19.5q31 0 52.5 -26.5t21.5 -65.5q0 -154 -123 -295h-47z" />
<glyph unicode="&#x147;" d="M233 0v1434h76l946 -1256l27 -45l-4 64v1237h82v-1434h-76l-944 1260l-29 40l4 -61v-1239h-82zM510 1757l307 -260l307 260l-43 45l-264 -225l-264 225z" />
<glyph unicode="&#x148;" horiz-adv-x="1536" d="M233 0v1434h76l946 -1256l27 -45l-4 64v1237h82v-1434h-76l-944 1260l-29 40l4 -61v-1239h-82zM461 1757l307 -260l307 260l-43 45l-264 -225l-264 225z" />
<glyph unicode="&#x14a;" horiz-adv-x="1536" d="M205 0v1434h76l946 -1256l26 -45l-4 64v1237h82v-1434q0 -164 -91 -270.5t-230 -106.5h-84v76h84q104 0 171.5 85t67.5 216h6l-944 1260l-28 40l4 -61v-1239h-82z" />
<glyph unicode="&#x14b;" horiz-adv-x="1536" d="M205 0v1434h76l946 -1256l26 -45l-4 64v1237h82v-1434q0 -164 -91 -270.5t-230 -106.5h-84v76h84q104 0 171.5 85t67.5 216h6l-944 1260l-28 40l4 -61v-1239h-82z" />
<glyph unicode="&#x14c;" horiz-adv-x="1685" d="M98 716.5q0 321.5 216 533.5t528 212q313 0 529 -212t216 -533.5t-216 -533.5t-529 -212q-311 0 -527.5 212t-216.5 533.5zM180 717q0 -293 190.5 -481.5t471 -188.5t472 188.5t191.5 481.5q0 297 -190.5 483t-473 186t-472 -186t-189.5 -483zM547 1645v59h629v-59h-629z " />
<glyph unicode="&#x14d;" horiz-adv-x="1685" d="M98 716.5q0 321.5 216 533.5t528 212q313 0 529 -212t216 -533.5t-216 -533.5t-529 -212q-311 0 -527.5 212t-216.5 533.5zM180 717q0 -293 190.5 -481.5t471 -188.5t472 188.5t191.5 481.5q0 297 -190.5 483t-473 186t-472 -186t-189.5 -483zM543 1645v59h628v-59h-628z " />
<glyph unicode="&#x150;" horiz-adv-x="1685" d="M98 716.5q0 321.5 216 533.5t528 212q313 0 529 -212t216 -533.5t-216 -533.5t-529 -212q-311 0 -527.5 212t-216.5 533.5zM180 717q0 -293 190.5 -481.5t471 -188.5t472 188.5t191.5 481.5q0 297 -190.5 483t-473 186t-472 -186t-189.5 -483zM471 1575l414 223l35 -61 l-418 -215zM901 1575l414 223l35 -61l-418 -215z" />
<glyph unicode="&#x151;" horiz-adv-x="1685" d="M98 716.5q0 321.5 216 533.5t528 212q313 0 529 -212t216 -533.5t-216 -533.5t-529 -212q-311 0 -527.5 212t-216.5 533.5zM180 717q0 -293 190.5 -481.5t471 -188.5t472 188.5t191.5 481.5q0 297 -190.5 483t-473 186t-472 -186t-189.5 -483zM467 1575l414 223l34 -61 l-417 -215zM897 1575l414 223l35 -61l-418 -215z" />
<glyph unicode="&#x152;" horiz-adv-x="2142" d="M98 716.5q0 319.5 214 530.5t526 211q180 0 336 -76v52h833v-76h-752v-545h678v-78h-678v-659h764v-76h-845v51q-156 -76 -336 -76q-311 0 -525.5 211t-214.5 530.5zM180 717q0 -291 188.5 -478.5t469.5 -187.5q180 0 336 88v1157q-160 86 -336 86q-281 0 -469.5 -185 t-188.5 -480z" />
<glyph unicode="&#x153;" horiz-adv-x="2142" d="M98 716.5q0 319.5 214 530.5t526 211q180 0 336 -76v52h833v-76h-752v-545h678v-78h-678v-659h764v-76h-845v51q-156 -76 -336 -76q-311 0 -525.5 211t-214.5 530.5zM180 717q0 -291 188.5 -478.5t469.5 -187.5q180 0 336 88v1157q-160 86 -336 86q-281 0 -469.5 -185 t-188.5 -480z" />
<glyph unicode="&#x154;" horiz-adv-x="1261" d="M205 0v1434h389q242 0 380 -116t138 -317q0 -158 -84 -263t-240 -146l371 -592h-94l-363 575q-51 -6 -108 -6h-307v-569h-82zM287 645h307q211 0 323.5 95.5t112.5 260.5q0 172 -115.5 264.5t-320.5 92.5h-307v-713zM414 1575l413 223l35 -61l-418 -215z" />
<glyph unicode="&#x155;" horiz-adv-x="1261" d="M205 0v1434h389q242 0 380 -116t138 -317q0 -158 -84 -263t-240 -146l371 -592h-94l-363 575q-51 -6 -108 -6h-307v-569h-82zM287 645h307q211 0 323.5 95.5t112.5 260.5q0 172 -115.5 264.5t-320.5 92.5h-307v-713zM485 1575l414 223l35 -61l-418 -215z" />
<glyph unicode="&#x156;" horiz-adv-x="1261" d="M205 0v1434h389q242 0 380 -116t138 -317q0 -158 -84 -263t-240 -146l371 -592h-94l-363 575q-51 -6 -108 -6h-307v-569h-82zM287 645h307q211 0 323.5 95.5t112.5 260.5q0 172 -115.5 264.5t-320.5 92.5h-307v-713zM512 -469q96 106 96 233l15 9l-15 2 q-29 -4 -52.5 16.5t-23.5 54.5q0 33 21.5 52.5t54.5 19.5q31 0 52.5 -26.5t21.5 -65.5q0 -154 -123 -295h-47z" />
<glyph unicode="&#x157;" horiz-adv-x="1261" d="M205 0v1434h389q242 0 380 -116t138 -317q0 -158 -84 -263t-240 -146l371 -592h-94l-363 575q-51 -6 -108 -6h-307v-569h-82zM287 645h307q211 0 323.5 95.5t112.5 260.5q0 172 -115.5 264.5t-320.5 92.5h-307v-713zM565 -469q96 106 97 233l14 9l-14 2 q-29 -4 -52.5 16.5t-23.5 54.5q0 33 21.5 52.5t54.5 19.5q31 0 52 -26.5t21 -65.5q0 -154 -123 -295h-47z" />
<glyph unicode="&#x158;" horiz-adv-x="1261" d="M205 0v1434h389q242 0 380 -116t138 -317q0 -158 -84 -263t-240 -146l371 -592h-94l-363 575q-51 -6 -108 -6h-307v-569h-82zM279 1757l43 45l264 -225l264 225l43 -45l-307 -260zM287 645h307q211 0 323.5 95.5t112.5 260.5q0 172 -115.5 264.5t-320.5 92.5h-307v-713z " />
<glyph unicode="&#x159;" horiz-adv-x="1261" d="M205 0v1434h389q242 0 380 -116t138 -317q0 -158 -84 -263t-240 -146l371 -592h-94l-363 575q-51 -6 -108 -6h-307v-569h-82zM279 1757l43 45l264 -225l264 225l43 -45l-307 -260zM287 645h307q211 0 323.5 95.5t112.5 260.5q0 172 -115.5 264.5t-320.5 92.5h-307v-713z " />
<glyph unicode="&#x15a;" horiz-adv-x="1202" d="M88 389l76 21q10 -156 127 -260.5t313 -104.5q190 0 307 92t117 238q0 37 -9 70.5t-22.5 59t-40 51.5t-46 42t-59.5 36l-61 28q-20 10 -67 25l-65 21q-17 5 -67 18t-61 15q-55 14 -77.5 21.5t-76.5 27t-82 35t-68 43t-60.5 58t-35.5 73.5t-15 93q0 166 136 268t345 102 q193 0 326.5 -102.5t162.5 -276.5l-73 -20q-23 150 -137.5 239t-278.5 89q-178 0 -288.5 -79t-110.5 -220q0 -84 66.5 -145.5t129 -83t197.5 -58.5q18 -6 28 -8q223 -61 312 -115q180 -109 180 -307q0 -176 -140.5 -290t-365.5 -114t-362.5 119t-153.5 299zM446 1575 l414 223l35 -61l-418 -215z" />
<glyph unicode="&#x15b;" horiz-adv-x="1202" d="M88 389l76 21q10 -156 127 -260.5t313 -104.5q190 0 307 92t117 238q0 37 -9 70.5t-22.5 59t-40 51.5t-46 42t-59.5 36l-61 28q-20 10 -67 25l-65 21q-17 5 -67 18t-61 15q-55 14 -77.5 21.5t-76.5 27t-82 35t-68 43t-60.5 58t-35.5 73.5t-15 93q0 166 136 268t345 102 q193 0 326.5 -102.5t162.5 -276.5l-73 -20q-23 150 -137.5 239t-278.5 89q-178 0 -288.5 -79t-110.5 -220q0 -84 66.5 -145.5t129 -83t197.5 -58.5q18 -6 28 -8q223 -61 312 -115q180 -109 180 -307q0 -176 -140.5 -290t-365.5 -114t-362.5 119t-153.5 299zM477 1575 l414 223l35 -61l-418 -215z" />
<glyph unicode="&#x15c;" horiz-adv-x="1202" d="M88 389l76 21q10 -156 127 -260.5t313 -104.5q190 0 307 92t117 238q0 37 -9 70.5t-22.5 59t-40 51.5t-46 42t-59.5 36l-61 28q-20 10 -67 25l-65 21q-17 5 -67 18t-61 15q-55 14 -77.5 21.5t-76.5 27t-82 35t-68 43t-60.5 58t-35.5 73.5t-15 93q0 166 136 268t345 102 q193 0 326.5 -102.5t162.5 -276.5l-73 -20q-23 150 -137.5 239t-278.5 89q-178 0 -288.5 -79t-110.5 -220q0 -84 66.5 -145.5t129 -83t197.5 -58.5q18 -6 28 -8q223 -61 312 -115q180 -109 180 -307q0 -176 -140.5 -290t-365.5 -114t-362.5 119t-153.5 299zM309 1581 l307 260l308 -260l-43 -45l-265 225l-264 -225z" />
<glyph unicode="&#x15d;" horiz-adv-x="1202" d="M88 389l76 21q10 -156 127 -260.5t313 -104.5q190 0 307 92t117 238q0 37 -9 70.5t-22.5 59t-40 51.5t-46 42t-59.5 36l-61 28q-20 10 -67 25l-65 21q-17 5 -67 18t-61 15q-55 14 -77.5 21.5t-76.5 27t-82 35t-68 43t-60.5 58t-35.5 73.5t-15 93q0 166 136 268t345 102 q193 0 326.5 -102.5t162.5 -276.5l-73 -20q-23 150 -137.5 239t-278.5 89q-178 0 -288.5 -79t-110.5 -220q0 -84 66.5 -145.5t129 -83t197.5 -58.5q18 -6 28 -8q223 -61 312 -115q180 -109 180 -307q0 -176 -140.5 -290t-365.5 -114t-362.5 119t-153.5 299zM309 1581 l307 260l308 -260l-43 -45l-265 225l-264 -225z" />
<glyph unicode="&#x15e;" horiz-adv-x="1202" d="M88 389l76 21q10 -156 127 -260.5t313 -104.5q190 0 307 92t117 238q0 37 -9 70.5t-22.5 59t-40 51.5t-46 42t-59.5 36l-61 28q-20 10 -67 25l-65 21q-17 5 -67 18t-61 15q-55 14 -77.5 21.5t-76.5 27t-82 35t-68 43t-60.5 58t-35.5 73.5t-15 93q0 166 136 268t345 102 q193 0 326.5 -102.5t162.5 -276.5l-73 -20q-23 150 -137.5 239t-278.5 89q-178 0 -288.5 -79t-110.5 -220q0 -84 66.5 -145.5t129 -83t197.5 -58.5q18 -6 28 -8q223 -61 312 -115q180 -109 180 -307q0 -168 -127 -279.5t-338 -122.5l-27 -69q94 2 150.5 -46t56.5 -130 q0 -78 -56 -125t-146 -47h-97l25 57h72q63 0 102 31.5t39 83.5q0 53 -39 86.5t-102 33.5h-86l45 123q-215 8 -346.5 126t-147.5 292z" />
<glyph unicode="&#x15f;" horiz-adv-x="1202" d="M88 389l76 21q10 -156 127 -260.5t313 -104.5q190 0 307 92t117 238q0 37 -9 70.5t-22.5 59t-40 51.5t-46 42t-59.5 36l-61 28q-20 10 -67 25l-65 21q-17 5 -67 18t-61 15q-55 14 -77.5 21.5t-76.5 27t-82 35t-68 43t-60.5 58t-35.5 73.5t-15 93q0 166 136 268t345 102 q193 0 326.5 -102.5t162.5 -276.5l-73 -20q-23 150 -137.5 239t-278.5 89q-178 0 -288.5 -79t-110.5 -220q0 -84 66.5 -145.5t129 -83t197.5 -58.5q18 -6 28 -8q223 -61 312 -115q180 -109 180 -307q0 -168 -127 -279.5t-336 -122.5l-26 -69q94 2 150 -46t56 -130 q0 -78 -56 -125t-146 -47h-97l25 57h72q63 0 102 31.5t39 83.5q0 53 -39 86.5t-102 33.5h-86l45 123q-217 6 -348.5 124t-147.5 294z" />
<glyph unicode="&#x160;" horiz-adv-x="1202" d="M88 389l76 21q10 -156 127 -260.5t313 -104.5q190 0 307 92t117 238q0 37 -9 70.5t-22.5 59t-40 51.5t-46 42t-59.5 36l-61 28q-20 10 -67 25l-65 21q-17 5 -67 18t-61 15q-55 14 -77.5 21.5t-76.5 27t-82 35t-68 43t-60.5 58t-35.5 73.5t-15 93q0 166 136 268t345 102 q193 0 326.5 -102.5t162.5 -276.5l-73 -20q-23 150 -137.5 239t-278.5 89q-178 0 -288.5 -79t-110.5 -220q0 -84 66.5 -145.5t129 -83t197.5 -58.5q18 -6 28 -8q223 -61 312 -115q180 -109 180 -307q0 -176 -140.5 -290t-365.5 -114t-362.5 119t-153.5 299zM311 1757 l307 -260l308 260l-43 45l-265 -225l-264 225z" />
<glyph unicode="&#x161;" horiz-adv-x="1202" d="M88 389l76 21q10 -156 127 -260.5t313 -104.5q190 0 307 92t117 238q0 37 -9 70.5t-22.5 59t-40 51.5t-46 42t-59.5 36l-61 28q-20 10 -67 25l-65 21q-17 5 -67 18t-61 15q-55 14 -77.5 21.5t-76.5 27t-82 35t-68 43t-60.5 58t-35.5 73.5t-15 93q0 166 136 268t345 102 q193 0 326.5 -102.5t162.5 -276.5l-73 -20q-23 150 -137.5 239t-278.5 89q-178 0 -288.5 -79t-110.5 -220q0 -84 66.5 -145.5t129 -83t197.5 -58.5q18 -6 28 -8q223 -61 312 -115q180 -109 180 -307q0 -176 -140.5 -290t-365.5 -114t-362.5 119t-153.5 299zM342 1757 l307 -260l307 260l-43 45l-264 -225l-264 225z" />
<glyph unicode="&#x162;" horiz-adv-x="1198" d="M57 1358v76h1084v-76h-502v-1358h-8l-37 -96q94 2 150.5 -46t56.5 -130q0 -78 -56.5 -125t-146.5 -47h-96l24 57h72q63 0 102 31.5t39 83.5q0 53 -38.5 86.5t-102.5 33.5h-86l55 152h-10v1358h-500z" />
<glyph unicode="&#x163;" horiz-adv-x="1198" d="M57 1358v76h1084v-76h-502v-1358h-8l-37 -96q94 2 150.5 -46t56.5 -130q0 -78 -56.5 -125t-146.5 -47h-96l24 57h72q63 0 102 31.5t39 83.5q0 53 -38.5 86.5t-102.5 33.5h-86l55 152h-10v1358h-500z" />
<glyph unicode="&#x164;" horiz-adv-x="1198" d="M57 1358v76h1084v-76h-502v-1358h-82v1358h-500zM293 1757l43 45l264 -225l264 225l43 -45l-307 -260z" />
<glyph unicode="&#x165;" horiz-adv-x="1198" d="M57 1358v76h1084v-76h-502v-1358h-82v1358h-500zM293 1757l43 45l264 -225l264 225l43 -45l-307 -260z" />
<glyph unicode="&#x166;" horiz-adv-x="1198" d="M57 1358v76h1084v-76h-502v-522h285v-76h-285v-760h-82v760h-268v76h268v522h-500z" />
<glyph unicode="&#x167;" horiz-adv-x="1198" d="M57 1358v76h1084v-76h-502v-522h285v-76h-285v-760h-82v760h-268v76h268v522h-500z" />
<glyph unicode="&#x16a;" horiz-adv-x="1482" d="M164 573v861h82v-867q0 -246 127 -384t368 -138q244 0 370 137t126 385v867h82v-861q0 -285 -148.5 -444.5t-429 -159.5t-429 160t-148.5 444zM442 1645v59h629v-59h-629z" />
<glyph unicode="&#x16b;" horiz-adv-x="1482" d="M164 573v861h82v-867q0 -246 127 -384t368 -138q244 0 370 137t126 385v867h82v-861q0 -285 -148.5 -444.5t-429 -159.5t-429 160t-148.5 444zM442 1645v59h629v-59h-629z" />
<glyph unicode="&#x16c;" horiz-adv-x="1482" d="M164 573v861h82v-867q0 -246 127 -384t368 -138q244 0 370 137t126 385v867h82v-861q0 -285 -148.5 -444.5t-429 -159.5t-429 160t-148.5 444zM504 1741h55q16 -70 70.5 -116t126.5 -46q70 0 125 47t71 115h56q-16 -92 -87 -152.5t-165 -60.5t-165 60.5t-87 152.5z" />
<glyph unicode="&#x16d;" horiz-adv-x="1482" d="M164 573v861h82v-867q0 -246 127 -384t368 -138q244 0 370 137t126 385v867h82v-861q0 -285 -148.5 -444.5t-429 -159.5t-429 160t-148.5 444zM504 1741h55q16 -70 70.5 -116t126.5 -46q70 0 125 47t71 115h56q-16 -92 -87 -152.5t-165 -60.5t-165 60.5t-87 152.5z" />
<glyph unicode="&#x16e;" horiz-adv-x="1482" d="M164 573v861h82v-867q0 -246 127 -384t368 -138q244 0 370 137t126 385v867h82v-861q0 -285 -148.5 -444.5t-429 -159.5t-429 160t-148.5 444zM569 1571q0 76 51.5 127t127.5 51q74 0 127 -52t53 -126t-53 -126t-127 -52q-76 0 -127.5 52t-51.5 126zM621 1571 q0 -51 37.5 -89t89 -38t90.5 38t39 89q0 53 -38 90t-91.5 37t-90 -37t-36.5 -90z" />
<glyph unicode="&#x16f;" horiz-adv-x="1482" d="M164 573v861h82v-867q0 -246 127 -384t368 -138q244 0 370 137t126 385v867h82v-861q0 -285 -148.5 -444.5t-429 -159.5t-429 160t-148.5 444zM569 1571q0 76 51.5 127t127.5 51q74 0 127 -52t53 -126t-53 -126t-127 -52q-76 0 -127.5 52t-51.5 126zM621 1571 q0 -51 37.5 -89t89 -38t90.5 38t39 89q0 53 -38 90t-91.5 37t-90 -37t-36.5 -90z" />
<glyph unicode="&#x170;" horiz-adv-x="1482" d="M164 573v861h82v-867q0 -246 127 -384t368 -138q244 0 370 137t126 385v867h82v-861q0 -285 -148.5 -444.5t-429 -159.5t-429 160t-148.5 444zM367 1575l413 223l35 -61l-418 -215zM797 1575l413 223l35 -61l-418 -215z" />
<glyph unicode="&#x171;" horiz-adv-x="1482" d="M164 573v861h82v-867q0 -246 127 -384t368 -138q244 0 370 137t126 385v867h82v-861q0 -285 -148.5 -444.5t-429 -159.5t-429 160t-148.5 444zM367 1575l413 223l35 -61l-418 -215zM797 1575l413 223l35 -61l-418 -215z" />
<glyph unicode="&#x172;" horiz-adv-x="1482" d="M164 573v861h82v-867q0 -246 127 -384t368 -138q244 0 370 137t126 385v867h82v-861q0 -231 -99.5 -381.5t-289.5 -199.5q-66 -20 -101.5 -35.5t-84 -43.5t-70 -67t-21.5 -90q0 -82 55.5 -134t143.5 -52q70 0 130 42t85 95l49 -33q-33 -63 -106.5 -112t-157.5 -49 q-117 0 -189.5 68.5t-72.5 174.5q0 135 141 213q-274 2 -420.5 163t-146.5 441z" />
<glyph unicode="&#x173;" horiz-adv-x="1482" d="M164 573v861h82v-867q0 -246 127 -384t368 -138q244 0 370 137t126 385v867h82v-861q0 -231 -99.5 -381.5t-289.5 -199.5q-66 -20 -101.5 -35.5t-84 -43.5t-70 -67t-21.5 -90q0 -82 55.5 -134t143.5 -52q70 0 130 42t85 95l49 -33q-33 -63 -106.5 -112t-157.5 -49 q-117 0 -189.5 68.5t-72.5 174.5q0 135 141 213q-274 2 -420.5 163t-146.5 441z" />
<glyph unicode="&#x174;" horiz-adv-x="1974" d="M37 1434h86l491 -1262l11 -39l10 39l332 946h41l333 -946l9 -37l8 37l493 1262h86l-565 -1434h-49l-328 920l-8 32l-8 -32l-330 -920h-47zM668 1581l307 260l307 -260l-43 -45l-264 225l-264 -225z" />
<glyph unicode="&#x175;" horiz-adv-x="1974" d="M37 1434h86l491 -1262l11 -39l10 39l332 946h41l333 -946l9 -37l8 37l493 1262h86l-565 -1434h-49l-328 920l-8 32l-8 -32l-330 -920h-47zM668 1581l307 260l307 -260l-43 -45l-264 225l-264 -225z" />
<glyph unicode="&#x176;" horiz-adv-x="1318" d="M41 1434h96l498 -596l24 -37l25 37l498 596h96l-578 -697v-737h-82v737zM342 1581l307 260l307 -260l-43 -45l-264 225l-264 -225z" />
<glyph unicode="&#x177;" horiz-adv-x="1318" d="M41 1434h96l498 -596l24 -37l25 37l498 596h96l-578 -697v-737h-82v737zM342 1581l307 260l307 -260l-43 -45l-264 225l-264 -225z" />
<glyph unicode="&#x178;" horiz-adv-x="1318" d="M41 1434h96l498 -596l24 -37l25 37l498 596h96l-578 -697v-737h-82v737zM348 1638q0 29 20.5 50.5t53.5 21.5q31 0 52.5 -21.5t21.5 -50.5q0 -33 -21.5 -54t-52.5 -21q-33 0 -53.5 21.5t-20.5 53.5zM797 1638q0 29 21.5 50.5t52 21.5t52 -21.5t21.5 -50.5 q0 -33 -20.5 -54t-53.5 -21q-31 0 -52 21.5t-21 53.5z" />
<glyph unicode="&#x179;" horiz-adv-x="1390" d="M123 0v72l1010 1249l41 41l-62 -4h-969v76h1125v-72l-1008 -1245l-45 -45l61 4h992v-76h-1145zM524 1575l414 223l35 -61l-418 -215z" />
<glyph unicode="&#x17a;" horiz-adv-x="1390" d="M123 0v72l1010 1249l41 41l-62 -4h-969v76h1125v-72l-1008 -1245l-45 -45l61 4h992v-76h-1145zM524 1575l414 223l35 -61l-418 -215z" />
<glyph unicode="&#x17b;" horiz-adv-x="1390" d="M123 0v72l1010 1249l41 41l-62 -4h-969v76h1125v-72l-1008 -1245l-45 -45l61 4h992v-76h-1145zM627 1638q0 29 21.5 50.5t52 21.5t52 -21.5t21.5 -50.5q0 -33 -21.5 -54t-52 -21t-52 21.5t-21.5 53.5z" />
<glyph unicode="&#x17c;" horiz-adv-x="1390" d="M123 0v72l1010 1249l41 41l-62 -4h-969v76h1125v-72l-1008 -1245l-45 -45l61 4h992v-76h-1145zM627 1638q0 29 21.5 50.5t52 21.5t52 -21.5t21.5 -50.5q0 -33 -21.5 -54t-52 -21t-52 21.5t-21.5 53.5z" />
<glyph unicode="&#x17d;" horiz-adv-x="1390" d="M123 0v72l1010 1249l41 41l-62 -4h-969v76h1125v-72l-1008 -1245l-45 -45l61 4h992v-76h-1145zM389 1757l307 -260l308 260l-43 45l-265 -225l-264 225z" />
<glyph unicode="&#x17e;" horiz-adv-x="1390" d="M123 0v72l1010 1249l41 41l-62 -4h-969v76h1125v-72l-1008 -1245l-45 -45l61 4h992v-76h-1145zM389 1757l307 -260l308 260l-43 45l-265 -225l-264 225z" />
<glyph unicode="&#x218;" horiz-adv-x="1202" d="M88 389l76 21q10 -156 127 -260.5t313 -104.5q190 0 307 92t117 238q0 37 -9 70.5t-22.5 59t-40 51.5t-46 42t-59.5 36l-61 28q-20 10 -67 25l-65 21q-17 5 -67 18t-61 15q-55 14 -77.5 21.5t-76.5 27t-82 35t-68 43t-60.5 58t-35.5 73.5t-15 93q0 166 136 268t345 102 q193 0 326.5 -102.5t162.5 -276.5l-73 -20q-23 150 -137.5 239t-278.5 89q-178 0 -288.5 -79t-110.5 -220q0 -84 66.5 -145.5t129 -83t197.5 -58.5q18 -6 28 -8q223 -61 312 -115q180 -109 180 -307q0 -176 -140.5 -290t-365.5 -114t-362.5 119t-153.5 299zM494 -469 q96 106 96 233l14 9l-14 2q-29 -4 -52.5 16.5t-23.5 54.5q0 33 21.5 52.5t54.5 19.5q31 0 52.5 -26.5t21.5 -65.5q0 -154 -123 -295h-47z" />
<glyph unicode="&#x219;" horiz-adv-x="1202" d="M88 389l76 21q10 -156 127 -260.5t313 -104.5q190 0 307 92t117 238q0 37 -9 70.5t-22.5 59t-40 51.5t-46 42t-59.5 36l-61 28q-20 10 -67 25l-65 21q-17 5 -67 18t-61 15q-55 14 -77.5 21.5t-76.5 27t-82 35t-68 43t-60.5 58t-35.5 73.5t-15 93q0 166 136 268t345 102 q193 0 326.5 -102.5t162.5 -276.5l-73 -20q-23 150 -137.5 239t-278.5 89q-178 0 -288.5 -79t-110.5 -220q0 -84 66.5 -145.5t129 -83t197.5 -58.5q18 -6 28 -8q223 -61 312 -115q180 -109 180 -307q0 -176 -140.5 -290t-365.5 -114t-362.5 119t-153.5 299zM494 -469 q96 106 96 233l14 9l-14 2q-29 -4 -52.5 16.5t-23.5 54.5q0 33 21.5 52.5t54.5 19.5q31 0 52.5 -26.5t21.5 -65.5q0 -154 -123 -295h-47z" />
<glyph unicode="&#x21a;" horiz-adv-x="1198" d="M57 1358v76h1084v-76h-502v-1358h-82v1358h-500zM506 -469q96 106 96 233l14 9l-14 2q-29 -4 -52.5 16.5t-23.5 54.5q0 33 21.5 52.5t54.5 19.5q31 0 52.5 -26.5t21.5 -65.5q0 -154 -123 -295h-47z" />
<glyph unicode="&#x21b;" horiz-adv-x="1198" d="M57 1358v76h1084v-76h-502v-1358h-82v1358h-500zM506 -469q96 106 96 233l14 9l-14 2q-29 -4 -52.5 16.5t-23.5 54.5q0 33 21.5 52.5t54.5 19.5q31 0 52.5 -26.5t21.5 -65.5q0 -154 -123 -295h-47z" />
<glyph unicode="&#x237;" horiz-adv-x="1318" d="M20 385l80 21q35 -166 167 -263.5t311 -97.5q244 0 369.5 136t125.5 384v869h82v-861q0 -285 -148.5 -444.5t-428.5 -159.5q-211 0 -363 116t-195 300z" />
<glyph unicode="&#x2c6;" horiz-adv-x="780" d="M41 1581l307 260l307 -260l-43 -45l-264 225l-264 -225z" />
<glyph unicode="&#x2c7;" horiz-adv-x="780" d="M41 1757l307 -260l307 260l-43 45l-264 -225l-264 225z" />
<glyph unicode="&#x2d8;" horiz-adv-x="669" d="M41 1741h55q16 -70 70.5 -116t126.5 -46q70 0 125 47t71 115h56q-16 -92 -87 -152.5t-165 -60.5t-165 60.5t-87 152.5z" />
<glyph unicode="&#x2d9;" horiz-adv-x="313" d="M41 1638q0 29 21.5 50.5t52 21.5t52 -21.5t21.5 -50.5q0 -33 -21.5 -54t-52 -21t-52 21.5t-21.5 53.5z" />
<glyph unicode="&#x2da;" horiz-adv-x="524" d="M41 1571q0 76 51 127t127 51q74 0 127 -52t53 -126t-53 -126t-127 -52q-76 0 -127 52t-51 126zM92 1571q0 -51 38 -89t89 -38t90 38t39 89q0 53 -38 90t-91 37t-90 -37t-37 -90z" />
<glyph unicode="&#x2db;" horiz-adv-x="1228" d="M276 -238q0 135 96.5 212t221.5 77l51 -51q-125 0 -215 -57.5t-90 -180.5q0 -82 55.5 -137t143.5 -55q70 0 130 42t85 95l49 -33q-33 -63 -106.5 -112t-157.5 -49q-117 0 -190 71.5t-73 177.5z" />
<glyph unicode="&#x2dc;" horiz-adv-x="772" d="M41 1581q0 70 50 115t126 45q61 0 139 -56.5t115 -56.5q45 0 75 29t32 72h69q2 -70 -48 -115t-128 -45q-55 0 -133 56t-121 56q-45 0 -75.5 -28.5t-30.5 -71.5h-70z" />
<glyph unicode="&#x2dd;" horiz-adv-x="1044" d="M20 1575l414 223l35 -61l-418 -215zM451 1575l413 223l35 -61l-418 -215z" />
<glyph unicode="&#x326;" horiz-adv-x="0" d="M123 -469q96 106 96 233l14 9l-14 2q-29 -4 -52.5 16.5t-23.5 54.5q0 33 21.5 52.5t54.5 19.5q31 0 52.5 -26.5t21.5 -65.5q0 -154 -123 -295h-47z" />
<glyph unicode="&#x1e80;" horiz-adv-x="1974" d="M37 1434h86l491 -1262l11 -39l10 39l332 946h41l333 -946l9 -37l8 37l493 1262h86l-565 -1434h-49l-328 920l-8 32l-8 -32l-330 -920h-47zM674 1737l35 61l413 -223l-30 -53z" />
<glyph unicode="&#x1e81;" horiz-adv-x="1974" d="M37 1434h86l491 -1262l11 -39l10 39l332 946h41l333 -946l9 -37l8 37l493 1262h86l-565 -1434h-49l-328 920l-8 32l-8 -32l-330 -920h-47zM674 1737l35 61l413 -223l-30 -53z" />
<glyph unicode="&#x1e82;" horiz-adv-x="1974" d="M37 1434h86l491 -1262l11 -39l10 39l332 946h41l333 -946l9 -37l8 37l493 1262h86l-565 -1434h-49l-328 920l-8 32l-8 -32l-330 -920h-47zM805 1575l414 223l34 -61l-417 -215z" />
<glyph unicode="&#x1e83;" horiz-adv-x="1974" d="M37 1434h86l491 -1262l11 -39l10 39l332 946h41l333 -946l9 -37l8 37l493 1262h86l-565 -1434h-49l-328 920l-8 32l-8 -32l-330 -920h-47zM805 1575l414 223l34 -61l-417 -215z" />
<glyph unicode="&#x1e84;" horiz-adv-x="1974" d="M37 1434h86l491 -1262l11 -39l10 39l332 946h41l333 -946l9 -37l8 37l493 1262h86l-565 -1434h-49l-328 920l-8 32l-8 -32l-330 -920h-47zM674 1638q0 29 21.5 50.5t52 21.5t52 -21.5t21.5 -50.5q0 -33 -21 -54t-52 -21q-33 0 -53.5 21.5t-20.5 53.5zM1122 1638 q0 29 21.5 50.5t52.5 21.5q33 0 53.5 -21.5t20.5 -50.5q0 -33 -20.5 -54t-53.5 -21q-31 0 -52.5 21.5t-21.5 53.5z" />
<glyph unicode="&#x1e85;" horiz-adv-x="1974" d="M37 1434h86l491 -1262l11 -39l10 39l332 946h41l333 -946l9 -37l8 37l493 1262h86l-565 -1434h-49l-328 920l-8 32l-8 -32l-330 -920h-47zM674 1638q0 29 21.5 50.5t52 21.5t52 -21.5t21.5 -50.5q0 -33 -21 -54t-52 -21q-33 0 -53.5 21.5t-20.5 53.5zM1122 1638 q0 29 21.5 50.5t52.5 21.5q33 0 53.5 -21.5t20.5 -50.5q0 -33 -20.5 -54t-53.5 -21q-31 0 -52.5 21.5t-21.5 53.5z" />
<glyph unicode="&#x1e9e;" horiz-adv-x="1519" d="M205 0v1434h1073l-354 -627q231 0 364 -114.5t133 -303.5q0 -180 -130 -299t-330 -119q-158 0 -291 77t-195 208l76 23q55 -109 164.5 -171.5t245.5 -62.5q166 0 272 97.5t106 246.5q0 139 -97 235.5t-281 106.5h-121v76l297 518l28 37l-61 -4h-817v-1358h-82z" />
<glyph unicode="&#x1ef2;" horiz-adv-x="1318" d="M41 1434h96l498 -596l24 -37l25 37l498 596h96l-578 -697v-737h-82v737zM348 1737l35 61l414 -223l-31 -53z" />
<glyph unicode="&#x1ef3;" horiz-adv-x="1318" d="M41 1434h96l498 -596l24 -37l25 37l498 596h96l-578 -697v-737h-82v737zM348 1737l35 61l414 -223l-31 -53z" />
<glyph unicode="&#x2009;" horiz-adv-x="307" />
<glyph unicode="&#x200a;" horiz-adv-x="102" />
<glyph unicode="&#x2013;" horiz-adv-x="993" d="M82 692v72h829v-72h-829z" />
<glyph unicode="&#x2014;" horiz-adv-x="1822" d="M82 692v72h1659v-72h-1659z" />
<glyph unicode="&#x2018;" horiz-adv-x="579" d="M233 1167q0 154 123 295h47q-96 -106 -96 -233l-14 -8l14 -2q29 4 52.5 -16.5t23.5 -55.5q0 -33 -21.5 -52.5t-54.5 -19.5q-31 0 -52.5 26.5t-21.5 65.5z" />
<glyph unicode="&#x2019;" horiz-adv-x="579" d="M205 1075q96 107 96 234l14 8l-14 2q-29 -4 -52.5 16.5t-23.5 55.5q0 33 21.5 52t54.5 19q31 0 52.5 -26.5t21.5 -65.5q0 -154 -123 -295h-47z" />
<glyph unicode="&#x201a;" horiz-adv-x="579" d="M205 -270q96 106 96 233l14 8l-14 2q-29 -4 -52.5 16.5t-23.5 55.5q0 33 21.5 52.5t54.5 19.5q31 0 52.5 -27t21.5 -65q0 -154 -123 -295h-47z" />
<glyph unicode="&#x201c;" horiz-adv-x="907" d="M233 1167q0 154 123 295h47q-96 -106 -96 -233l-14 -8l14 -2q29 4 52.5 -16.5t23.5 -55.5q0 -33 -21.5 -52.5t-54.5 -19.5q-31 0 -52.5 26.5t-21.5 65.5zM561 1167q0 154 123 295h47q-96 -106 -96 -233l-14 -8l14 -2q29 4 52.5 -16.5t23.5 -55.5q0 -33 -21.5 -52.5 t-54.5 -19.5q-31 0 -52.5 26.5t-21.5 65.5z" />
<glyph unicode="&#x201d;" horiz-adv-x="907" d="M176 1075q96 107 96 234l15 8l-15 2q-29 -4 -52 16.5t-23 55.5q0 33 21.5 52t53.5 19q31 0 52.5 -26.5t21.5 -65.5q0 -154 -123 -295h-47zM504 1075q96 107 96 234l14 8l-14 2q-29 -4 -52.5 16.5t-23.5 55.5q0 33 21.5 52t54.5 19q31 0 52.5 -26.5t21.5 -65.5 q0 -154 -123 -295h-47z" />
<glyph unicode="&#x201e;" horiz-adv-x="866" d="M176 -270q96 106 96 233l15 8l-15 2q-29 -4 -52 16.5t-23 55.5q0 33 21.5 52.5t53.5 19.5q31 0 52.5 -27t21.5 -65q0 -154 -123 -295h-47zM463 -270q96 106 96 233l14 8l-14 2q-29 -4 -52.5 16.5t-23.5 55.5q0 33 21.5 52.5t54.5 19.5q31 0 52.5 -27t21.5 -65 q0 -154 -123 -295h-47z" />
<glyph unicode="&#x2022;" horiz-adv-x="731" d="M205 727q0 66 47 112t117 46q66 0 111.5 -46t45.5 -112q0 -70 -45.5 -116t-111.5 -46q-70 0 -117 46t-47 116z" />
<glyph unicode="&#x2026;" horiz-adv-x="1449" d="M123 27q0 25 17.5 42t41.5 17q27 0 43.5 -17.5t16.5 -42t-17.5 -41t-42 -16.5t-42 17.5t-17.5 40.5zM655 27q0 25 17.5 42t42.5 17q27 0 43 -17.5t16 -42t-17.5 -41t-42 -16.5t-42 17.5t-17.5 40.5zM1208 27q0 25 17.5 42t42.5 17q27 0 43 -17.5t16 -42t-17.5 -41 t-42 -16.5t-42 17.5t-17.5 40.5z" />
<glyph unicode="&#x2030;" horiz-adv-x="2650" d="M98 1050.5q0 184.5 103.5 298t271.5 113.5t271.5 -114.5t103.5 -296.5q0 -184 -103.5 -298t-271.5 -114t-271.5 113.5t-103.5 298zM178 1051q0 -152 83 -245t212 -93t212 93t83 245q0 154 -83 246t-212 92t-212 -92.5t-83 -245.5zM391 0l926 1434h72l-926 -1434h-72z M950 383q0 184 103.5 298t271.5 114t271.5 -115t103.5 -297q0 -184 -103.5 -298t-271.5 -114t-271.5 114t-103.5 298zM1030 383q0 -152 83 -245t212 -93t212 93t83 245q0 154 -83 246t-212 92t-212 -92t-83 -246zM1802 383q0 184 103.5 298t271.5 114t271.5 -115t103.5 -297 q0 -184 -103.5 -298t-271.5 -114t-271.5 114t-103.5 298zM1882 383q0 -152 83 -245t212 -93t212 93t83 245q0 154 -83 246t-212 92t-212 -92t-83 -246z" />
<glyph unicode="&#x2039;" horiz-adv-x="935" d="M233 723l482 -479l45 49l-441 428l441 432l-45 49z" />
<glyph unicode="&#x203a;" horiz-adv-x="935" d="M205 293l440 428l-440 432l45 49l481 -479l-481 -479z" />
<glyph unicode="&#x2044;" horiz-adv-x="1269" d="M123 0l926 1434h71l-925 -1434h-72z" />
<glyph unicode="&#x20ac;" horiz-adv-x="1640" d="M98 594v70h84q-2 18 -2 53q0 31 2 45h-84v69h90q39 276 245 451.5t487 175.5q207 0 378.5 -99t268.5 -272l-82 -22q-84 147 -233.5 231t-331.5 84q-252 0 -431.5 -150.5t-216.5 -398.5h672v-69h-678q-2 -14 -2 -45q0 -35 2 -53h678v-70h-670q39 -244 218.5 -392.5 t427.5 -148.5q195 0 352 95.5t237 261.5l78 -23q-90 -190 -268 -301t-399 -111q-279 0 -484 173.5t-246 445.5h-92z" />
<glyph unicode="&#x2116;" horiz-adv-x="2287" d="M233 0v1434h76l946 -1256l27 -45l-4 64v1237h82v-1434h-76l-944 1260l-29 40l4 -61v-1239h-82zM1544 1105.5q0 151.5 101.5 252t249 100.5t250 -100.5t102.5 -251.5q0 -150 -102.5 -250t-250 -100t-249 99t-101.5 250.5zM1565 618v54h661v-54h-661zM1604 1106 q0 -127 81.5 -210t208.5 -83t209 83t82 210q0 129 -82 212t-209 83t-208.5 -83t-81.5 -212z" />
<glyph unicode="&#x2122;" horiz-adv-x="1701" d="M57 1382v52h602v-52h-270v-665h-61v665h-271zM813 717v717h61l285 -465l277 465h61v-717h-61v579l2 31l-17 -31l-241 -403h-39l-252 403l-17 31l2 -31v-579h-61z" />
<glyph unicode="&#x2212;" horiz-adv-x="1345" d="M205 692v72h936v-72h-936z" />
<glyph unicode="&#x2260;" horiz-adv-x="1345" d="M205 528v72h379l131 256h-510v72h547l149 291h80l-150 -291h310v-72h-346l-131 -256h477v-72h-512l-140 -270h-79l139 270h-344z" />
<glyph unicode="&#x2264;" horiz-adv-x="1390" d="M205 752l819 -502h133l-817 502l817 499h-133zM250 -20h936v71h-936v-71z" />
<glyph unicode="&#x2265;" horiz-adv-x="1390" d="M205 -20v71h936v-71h-936zM233 250l818 502l-818 499h134l819 -499l-819 -502h-134z" />
<glyph unicode="&#xe000;" horiz-adv-x="1435" d="M0 1435h1435v-1435h-1435v1435z" />
<glyph horiz-adv-x="1566" d="M98 716.5q0 321.5 216 533.5t528 212q209 0 381 -100t270 -272l-84 -23q-86 150 -235.5 234.5t-331.5 84.5q-283 0 -472.5 -186t-189.5 -483q0 -293 190.5 -481.5t471.5 -188.5q195 0 353.5 97.5t240.5 263.5l77 -23q-92 -193 -270 -303.5t-401 -110.5q-311 0 -527.5 212 t-216.5 533.5zM809 1544l199 332l63 -37l-209 -326z" />
<glyph d="M233 0v1434h76l940 -729l33 -31l-4 61v699h82v-1434h-82v586l-938 721l-29 26l4 -61v-1272h-82z" />
<glyph d="M233 0v1434h76l946 -1256l27 -45l-4 64v1237h82v-1434h-76l-944 1260l-29 40l4 -61v-1239h-82zM797 1544l198 332l64 -37l-209 -326z" />
<glyph d="M233 0v1434h76l940 -729l33 -31l-4 61v699h82v-1434h-82v586l-938 721l-29 26l4 -61v-1272h-82zM797 1544l198 332l64 -37l-209 -326z" />
<glyph d="M233 0v1434h76l940 -729l33 -31l-4 61v699h82v-1434h-82v586l-938 721l-29 26l4 -61v-1272h-82zM645 1575l414 223l35 -61l-418 -215z" />
<glyph d="M233 0v1434h76l940 -729l33 -31l-4 61v699h82v-1434h-82v586l-938 721l-29 26l4 -61v-1272h-82zM510 1757l307 -260l307 260l-43 45l-264 -225l-264 225z" />
<glyph d="M233 0v1434h76l940 -729l33 -31l-4 61v699h82v-1434h-82v586l-938 721l-29 26l4 -61v-1272h-82zM705 -469q96 106 96 233l14 9l-14 2q-29 -4 -52.5 16.5t-23.5 54.5q0 33 21.5 52.5t54.5 19.5q31 0 52 -26.5t21 -65.5q0 -154 -122 -295h-47z" />
<glyph d="M233 0v1434h76l940 -729l33 -31l-4 61v699h82v-1434h-82v586l-938 721l-29 26l4 -61v-1272h-82zM508 1581q0 70 50 115t126 45q61 0 139 -56.5t115 -56.5q45 0 74.5 29t31.5 72h70q2 -70 -48 -115t-128 -45q-55 0 -133 56t-121 56q-45 0 -75.5 -28.5t-30.5 -71.5h-70z " />
<glyph horiz-adv-x="1685" d="M98 716.5q0 321.5 216 533.5t528 212q313 0 529 -212t216 -533.5t-216 -533.5t-529 -212q-311 0 -527.5 212t-216.5 533.5zM180 717q0 -293 190.5 -481.5t471 -188.5t472 188.5t191.5 481.5q0 297 -190.5 483t-473 186t-472 -186t-189.5 -483zM831 1544l199 332l64 -37 l-209 -326z" />
<glyph horiz-adv-x="1703" d="M98 731.5q0 315.5 215 523t526.5 207.5t527.5 -209t216 -522q0 -225 -116.5 -401t-309.5 -262l76 8h369v-76h-762q-311 0 -526.5 208t-215.5 523.5zM180 731q0 -287 189.5 -471t470.5 -184q279 0 470 184t191 471q0 289 -190.5 472t-471 183t-470 -182t-189.5 -473z" />
<glyph horiz-adv-x="1202" d="M88 389l76 21q10 -156 127 -260.5t313 -104.5q190 0 307 92t117 238q0 37 -9 70.5t-22.5 59t-40 51.5t-46 42t-59.5 36l-61 28q-20 10 -67 25l-65 21q-17 5 -67 18t-61 15q-55 14 -77.5 21.5t-76.5 27t-82 35t-68 43t-60.5 58t-35.5 73.5t-15 93q0 166 136 268t345 102 q193 0 326.5 -102.5t162.5 -276.5l-73 -20q-23 150 -137.5 239t-278.5 89q-178 0 -288.5 -79t-110.5 -220q0 -84 66.5 -145.5t129 -83t197.5 -58.5q18 -6 28 -8q223 -61 312 -115q180 -109 180 -307q0 -176 -140.5 -290t-365.5 -114t-362.5 119t-153.5 299zM598 1544 l199 332l63 -37l-209 -326z" />
<glyph horiz-adv-x="1390" d="M123 0v72l1010 1249l41 41l-62 -4h-969v76h1125v-72l-1008 -1245l-45 -45l61 4h992v-76h-1145zM676 1544l198 332l64 -37l-209 -326z" />
<glyph horiz-adv-x="1566" d="M98 716.5q0 321.5 216 533.5t528 212q209 0 381 -100t270 -272l-84 -23q-86 150 -235.5 234.5t-331.5 84.5q-283 0 -472.5 -186t-189.5 -483q0 -293 190.5 -481.5t471.5 -188.5q195 0 353.5 97.5t240.5 263.5l77 -23q-92 -193 -270 -303.5t-401 -110.5q-311 0 -527.5 212 t-216.5 533.5zM809 1544l199 332l63 -37l-209 -326z" />
<glyph d="M233 0v1434h76l940 -729l33 -31l-4 61v699h82v-1434h-82v586l-938 721l-29 26l4 -61v-1272h-82z" />
<glyph d="M233 0v1434h76l946 -1256l27 -45l-4 64v1237h82v-1434h-76l-944 1260l-29 40l4 -61v-1239h-82zM797 1544l198 332l64 -37l-209 -326z" />
<glyph d="M233 0v1434h76l940 -729l33 -31l-4 61v699h82v-1434h-82v586l-938 721l-29 26l4 -61v-1272h-82zM797 1544l198 332l64 -37l-209 -326z" />
<glyph d="M233 0v1434h76l940 -729l33 -31l-4 61v699h82v-1434h-82v586l-938 721l-29 26l4 -61v-1272h-82zM645 1575l414 223l35 -61l-418 -215z" />
<glyph d="M233 0v1434h76l940 -729l33 -31l-4 61v699h82v-1434h-82v586l-938 721l-29 26l4 -61v-1272h-82zM510 1757l307 -260l307 260l-43 45l-264 -225l-264 225z" />
<glyph d="M233 0v1434h76l940 -729l33 -31l-4 61v699h82v-1434h-82v586l-938 721l-29 26l4 -61v-1272h-82zM705 -469q96 106 96 233l14 9l-14 2q-29 -4 -52.5 16.5t-23.5 54.5q0 33 21.5 52.5t54.5 19.5q31 0 52 -26.5t21 -65.5q0 -154 -122 -295h-47z" />
<glyph d="M233 0v1434h76l940 -729l33 -31l-4 61v699h82v-1434h-82v586l-938 721l-29 26l4 -61v-1272h-82zM508 1581q0 70 50 115t126 45q61 0 139 -56.5t115 -56.5q45 0 74.5 29t31.5 72h70q2 -70 -48 -115t-128 -45q-55 0 -133 56t-121 56q-45 0 -75.5 -28.5t-30.5 -71.5h-70z " />
<glyph horiz-adv-x="1685" d="M98 716.5q0 321.5 216 533.5t528 212q313 0 529 -212t216 -533.5t-216 -533.5t-529 -212q-311 0 -527.5 212t-216.5 533.5zM180 717q0 -293 190.5 -481.5t471 -188.5t472 188.5t191.5 481.5q0 297 -190.5 483t-473 186t-472 -186t-189.5 -483zM831 1544l199 332l64 -37 l-209 -326z" />
<glyph horiz-adv-x="1703" d="M98 731.5q0 315.5 215 523t526.5 207.5t527.5 -209t216 -522q0 -225 -116.5 -401t-309.5 -262l76 8h369v-76h-762q-311 0 -526.5 208t-215.5 523.5zM180 731q0 -287 189.5 -471t470.5 -184q279 0 470 184t191 471q0 289 -190.5 472t-471 183t-470 -182t-189.5 -473z" />
<glyph horiz-adv-x="1202" d="M88 389l76 21q10 -156 127 -260.5t313 -104.5q190 0 307 92t117 238q0 37 -9 70.5t-22.5 59t-40 51.5t-46 42t-59.5 36l-61 28q-20 10 -67 25l-65 21q-17 5 -67 18t-61 15q-55 14 -77.5 21.5t-76.5 27t-82 35t-68 43t-60.5 58t-35.5 73.5t-15 93q0 166 136 268t345 102 q193 0 326.5 -102.5t162.5 -276.5l-73 -20q-23 150 -137.5 239t-278.5 89q-178 0 -288.5 -79t-110.5 -220q0 -84 66.5 -145.5t129 -83t197.5 -58.5q18 -6 28 -8q223 -61 312 -115q180 -109 180 -307q0 -176 -140.5 -290t-365.5 -114t-362.5 119t-153.5 299zM598 1544 l199 332l63 -37l-209 -326z" />
<glyph horiz-adv-x="1390" d="M123 0v72l1010 1249l41 41l-62 -4h-969v76h1125v-72l-1008 -1245l-45 -45l61 4h992v-76h-1145zM676 1544l198 332l64 -37l-209 -326z" />
<glyph horiz-adv-x="552" d="M205 385q0 31 21.5 51.5t49.5 20.5q31 0 51.5 -21.5t20.5 -50.5q0 -31 -21.5 -51.5t-50.5 -20.5q-31 0 -51 21.5t-20 50.5zM205 1040q0 31 21.5 51.5t49.5 20.5q31 0 51.5 -21.5t20.5 -50.5q0 -31 -21.5 -51t-50.5 -20q-31 0 -51 21.5t-20 49.5z" />
<glyph horiz-adv-x="602" d="M176 51q96 107 96 234l15 8l-15 2q-29 -4 -52 16.5t-23 55.5q0 33 21.5 52t53.5 19q31 0 52.5 -26.5t21.5 -65.5q0 -154 -123 -295h-47zM197 1020q0 31 21.5 51.5t49.5 20.5q31 0 51.5 -21.5t20.5 -50.5q0 -31 -21.5 -51.5t-50.5 -20.5q-31 0 -51 21.5t-20 50.5z" />
<glyph horiz-adv-x="1675" d="M205 4q12 -6 33 -6q49 0 49 35q0 23 -29 33q-23 8 -22 14q0 8 14 8q8 0 24 -8l7 24q-10 6 -31 7q-43 0 -43 -35q0 -23 31 -33q18 -6 18 -12q0 -10 -14 -11q-4 0 -29 9zM205 168h88q190 0 296.5 8t129 16.5t39.5 24.5l55 47l23 21l26 -21l56 -47q16 -16 37.5 -23.5 t126.5 -16.5t298 -9h90v92q0 186 -9 290.5t-16 125t-20 39.5l-51 59l-22 27l22 24l45 54q16 16 24.5 38.5t17.5 127t9 298.5v91h-90q-193 0 -298 -9.5t-126.5 -17.5t-40.5 -25l-41 -34l-34 -33l-37 33l-41 38q-16 14 -39 21.5t-129.5 17t-300.5 9.5h-88v-91q0 -190 8 -296.5 t16.5 -128t22.5 -39.5l49 -56l21 -22l-21 -25l-49 -55q-14 -16 -22.5 -37.5t-16.5 -128t-8 -299.5v-88zM289 109l35 -68v-41h28v41l35 68h-33l-16 -48l-14 48h-35zM383 348q8 227 14 270l162 183l-162 182q-6 41 -14 272q201 -4 272 -14l181 -166l186 166q72 10 270 14 q-8 -229 -14 -272l-166 -182l166 -187q8 -74 14 -266q-217 4 -272 14l-184 162l-183 -162q-51 -10 -270 -14zM397 0h27v72l39 -72h31v109h-27v-66l-33 66h-37v-109zM504 86h28v-86h27v86h29v23h-84v-23zM598 0h31v43h37v-43h28v109h-28v-41h-37v41h-31v-109zM705 109 l34 -109h33l35 109h-31l-20 -80l-19 80h-32zM817 0h31v109h-31v-109zM864 0h74v23h-43v20h39v23h-39v20h43v23h-74v-109zM946 109l27 -109h31l14 72l12 -72h33l27 109h-29l-14 -74l-13 74h-30l-13 -74l-14 74h-31zM1079 10.5q0 12.5 12.5 12.5t12.5 -12.5t-12.5 -12.5 t-12.5 12.5zM1106 51q0 -53 57 -53q16 0 29 4l-6 25q-6 -6 -19 -7q-31 0 -30 33q0 35 30 35q13 0 19 -6l8 24q-8 4 -29 5q-27 0 -43 -15.5t-16 -44.5zM1196 53q0 -55 55.5 -55t55.5 55q0 25 -15.5 41.5t-40 16.5t-40 -16.5t-15.5 -41.5zM1227 53q0 35 24 35q23 0 23 -35 q0 -33 -23 -33q-24 0 -24 33zM1315 0h31v82l22 -80h21l22 80v-82h29l-4 109h-39l-19 -70l-16 70h-39z" />
</font>
</defs>
</svg>
